<svg width="500" height="600" viewBox="0 0 500 600" fill="none" xmlns="http://www.w3.org/2000/svg">
<g clip-path="url(#clip0_3_174)">
<rect width="500" height="600" fill="white"/>
<path d="M159.5 438.5L255 412.079L350.5 385.659H503.5M159.5 438.5H212H261.5H503.5M159.5 438.5V461H212M212 522V461M261.5 522V461M503.5 461H261.5M261.5 461H212M21 121V90.8413L116.5 64.4207L212 38V77M21 121L116.5 94.5793L212 68.1587M21 121C21 123.03 21 125.451 21 128M21 304.421L116.5 278L212 251.579M21 315.262L116.5 288.841L212 262.421M21 326.421L116.5 300L212 273.579M21 338.421L116.5 312L212 285.579M21 144.762L212 92.5M21 144.762C21 142.496 21 137.995 21 135M21 144.762C21 149.482 21 149.453 21 154M212 92.5V85M212 92.5V101.5M21 173.262L212 121M19.5 183L210.5 130.738M21 240.262L212 188M19.5 262.421L210.5 210.159M21 252.079C21 295.34 21 360.293 21 417L116.5 390.579L212 364.159V199.5M21 252.079L212 199.5M21 252.079C21 249.886 21 269.194 21 267C21 255.937 21 241.843 21 230.5M212 199.5V178M21 230.5L212 178M21 230.5C21 209.339 21 188.311 21 164M212 178V111M21 164L212 111M21 164C21 161.035 21 157.036 21 154M212 111V101.5M21 135L212 85M21 135C21 132.693 21 130.295 21 128M212 85V77M21 154L212 101.5M21 128L212 77M21 202L212 149.5M21 212L212 159.5M21 221L212 168.5M21 271.5L212 219.238M21 282.762L212 230.5M21 292.524L212 240.262" stroke="black" stroke-width="8"/>
<path d="M474 387V296H370V387" stroke="black" stroke-width="8"/>
<path d="M6.13778 542V528.909H8.90554V539.718H14.5178V542H6.13778ZM20.774 542.192C19.764 542.192 18.8947 541.987 18.166 541.578C17.4416 541.165 16.8833 540.581 16.4913 539.827C16.0993 539.068 15.9032 538.171 15.9032 537.136C15.9032 536.126 16.0993 535.239 16.4913 534.477C16.8833 533.714 17.4352 533.119 18.1468 532.693C18.8627 532.267 19.7022 532.054 20.6653 532.054C21.313 532.054 21.916 532.158 22.4743 532.367C23.0368 532.572 23.5268 532.881 23.9444 533.294C24.3663 533.707 24.6944 534.227 24.9288 534.854C25.1632 535.476 25.2804 536.205 25.2804 537.04V537.788H16.9899V536.1H22.7172C22.7172 535.708 22.6319 535.361 22.4615 535.058C22.291 534.756 22.0545 534.519 21.752 534.349C21.4537 534.174 21.1064 534.087 20.7101 534.087C20.2967 534.087 19.9302 534.183 19.6106 534.374C19.2953 534.562 19.0481 534.815 18.8691 535.135C18.6902 535.45 18.5985 535.802 18.5943 536.19V537.794C18.5943 538.28 18.6838 538.7 18.8627 539.053C19.046 539.407 19.3038 539.68 19.6362 539.871C19.9686 540.063 20.3627 540.159 20.8187 540.159C21.1213 540.159 21.3983 540.116 21.6497 540.031C21.9011 539.946 22.1163 539.818 22.2953 539.648C22.4743 539.477 22.6106 539.268 22.7044 539.021L25.2228 539.188C25.095 539.793 24.8329 540.321 24.4366 540.773C24.0446 541.22 23.5375 541.57 22.9153 541.821C22.2974 542.068 21.5836 542.192 20.774 542.192ZM35.2264 534.982L32.7335 535.135C32.6909 534.922 32.5993 534.73 32.4586 534.56C32.318 534.385 32.1326 534.246 31.9025 534.144C31.6767 534.038 31.4061 533.984 31.0907 533.984C30.6689 533.984 30.313 534.074 30.0233 534.253C29.7335 534.428 29.5886 534.662 29.5886 534.956C29.5886 535.19 29.6824 535.388 29.8699 535.55C30.0574 535.712 30.3791 535.842 30.8351 535.94L32.612 536.298C33.5666 536.494 34.2782 536.81 34.747 537.244C35.2157 537.679 35.4501 538.25 35.4501 538.957C35.4501 539.601 35.2605 540.165 34.8812 540.651C34.5062 541.137 33.9906 541.516 33.3343 541.789C32.6824 542.058 31.9302 542.192 31.0779 542.192C29.7782 542.192 28.7427 541.921 27.9714 541.38C27.2044 540.835 26.7548 540.093 26.6227 539.156L29.301 539.015C29.3819 539.411 29.5779 539.714 29.889 539.923C30.2001 540.127 30.5985 540.229 31.0843 540.229C31.5616 540.229 31.9451 540.138 32.2349 539.955C32.5289 539.767 32.6781 539.526 32.6824 539.232C32.6781 538.985 32.5737 538.783 32.3691 538.625C32.1646 538.463 31.8493 538.339 31.4231 538.254L29.7228 537.915C28.764 537.724 28.0502 537.391 27.5815 536.918C27.117 536.445 26.8848 535.842 26.8848 535.109C26.8848 534.479 27.0552 533.935 27.3961 533.479C27.7413 533.023 28.225 532.672 28.8471 532.425C29.4735 532.178 30.2065 532.054 31.046 532.054C32.286 532.054 33.2619 532.316 33.9735 532.84C34.6895 533.364 35.1071 534.078 35.2264 534.982ZM45.3338 534.982L42.8409 535.135C42.7983 534.922 42.7067 534.73 42.5661 534.56C42.4254 534.385 42.2401 534.246 42.0099 534.144C41.7841 534.038 41.5135 533.984 41.1982 533.984C40.7763 533.984 40.4205 534.074 40.1307 534.253C39.8409 534.428 39.696 534.662 39.696 534.956C39.696 535.19 39.7898 535.388 39.9773 535.55C40.1648 535.712 40.4865 535.842 40.9425 535.94L42.7195 536.298C43.674 536.494 44.3857 536.81 44.8544 537.244C45.3232 537.679 45.5575 538.25 45.5575 538.957C45.5575 539.601 45.3679 540.165 44.9886 540.651C44.6136 541.137 44.098 541.516 43.4418 541.789C42.7898 542.058 42.0376 542.192 41.1854 542.192C39.8857 542.192 38.8501 541.921 38.0788 541.38C37.3118 540.835 36.8622 540.093 36.7301 539.156L39.4084 539.015C39.4893 539.411 39.6854 539.714 39.9964 539.923C40.3075 540.127 40.706 540.229 41.1918 540.229C41.669 540.229 42.0526 540.138 42.3423 539.955C42.6364 539.767 42.7855 539.526 42.7898 539.232C42.7855 538.985 42.6811 538.783 42.4766 538.625C42.272 538.463 41.9567 538.339 41.5305 538.254L39.8303 537.915C38.8714 537.724 38.1577 537.391 37.6889 536.918C37.2244 536.445 36.9922 535.842 36.9922 535.109C36.9922 534.479 37.1626 533.935 37.5036 533.479C37.8487 533.023 38.3324 532.672 38.9545 532.425C39.581 532.178 40.3139 532.054 41.1534 532.054C42.3935 532.054 43.3693 532.316 44.081 532.84C44.7969 533.364 45.2145 534.078 45.3338 534.982ZM53.3894 535.544V537.705H47.4192V535.544H53.3894ZM59.3276 542.16C58.5819 542.16 57.9064 541.968 57.3013 541.585C56.7005 541.197 56.2232 540.628 55.8695 539.878C55.5201 539.124 55.3453 538.199 55.3453 537.104C55.3453 535.979 55.5265 535.043 55.8887 534.298C56.2509 533.548 56.7324 532.987 57.3333 532.616C57.9384 532.241 58.601 532.054 59.3212 532.054C59.8709 532.054 60.329 532.148 60.6955 532.335C61.0662 532.518 61.3645 532.749 61.5904 533.026C61.8205 533.298 61.9952 533.567 62.1145 533.831H62.1976V528.909H64.9142V542H62.2296V540.428H62.1145C61.9867 540.7 61.8056 540.971 61.5712 541.239C61.3411 541.504 61.0407 541.723 60.6699 541.898C60.3034 542.072 59.856 542.16 59.3276 542.16ZM60.1905 539.993C60.6294 539.993 61.0002 539.874 61.3027 539.635C61.6096 539.392 61.8439 539.053 62.0059 538.619C62.1721 538.184 62.2551 537.675 62.2551 537.091C62.2551 536.507 62.1742 536 62.0123 535.57C61.8503 535.139 61.6159 534.807 61.3091 534.572C61.0023 534.338 60.6294 534.221 60.1905 534.221C59.7431 534.221 59.3659 534.342 59.0591 534.585C58.7523 534.828 58.5201 535.165 58.3624 535.595C58.2047 536.026 58.1259 536.524 58.1259 537.091C58.1259 537.662 58.2047 538.167 58.3624 538.606C58.5243 539.04 58.7566 539.381 59.0591 539.629C59.3659 539.871 59.7431 539.993 60.1905 539.993ZM67.1531 542V532.182H69.8761V542H67.1531ZM68.521 530.916C68.1161 530.916 67.7688 530.782 67.479 530.513C67.1935 530.241 67.0508 529.915 67.0508 529.536C67.0508 529.161 67.1935 528.839 67.479 528.57C67.7688 528.298 68.1161 528.161 68.521 528.161C68.9258 528.161 69.271 528.298 69.5565 528.57C69.8462 528.839 69.9911 529.161 69.9911 529.536C69.9911 529.915 69.8462 530.241 69.5565 530.513C69.271 530.782 68.9258 530.916 68.521 530.916ZM80.2264 534.982L77.7335 535.135C77.6909 534.922 77.5993 534.73 77.4586 534.56C77.318 534.385 77.1326 534.246 76.9025 534.144C76.6767 534.038 76.4061 533.984 76.0907 533.984C75.6689 533.984 75.313 534.074 75.0233 534.253C74.7335 534.428 74.5886 534.662 74.5886 534.956C74.5886 535.19 74.6824 535.388 74.8699 535.55C75.0574 535.712 75.3791 535.842 75.8351 535.94L77.612 536.298C78.5666 536.494 79.2782 536.81 79.747 537.244C80.2157 537.679 80.4501 538.25 80.4501 538.957C80.4501 539.601 80.2605 540.165 79.8812 540.651C79.5062 541.137 78.9906 541.516 78.3343 541.789C77.6824 542.058 76.9302 542.192 76.0779 542.192C74.7782 542.192 73.7427 541.921 72.9714 541.38C72.2044 540.835 71.7548 540.093 71.6227 539.156L74.301 539.015C74.3819 539.411 74.5779 539.714 74.889 539.923C75.2001 540.127 75.5985 540.229 76.0843 540.229C76.5616 540.229 76.9451 540.138 77.2349 539.955C77.5289 539.767 77.6781 539.526 77.6824 539.232C77.6781 538.985 77.5737 538.783 77.3691 538.625C77.1646 538.463 76.8493 538.339 76.4231 538.254L74.7228 537.915C73.764 537.724 73.0502 537.391 72.5815 536.918C72.117 536.445 71.8848 535.842 71.8848 535.109C71.8848 534.479 72.0552 533.935 72.3961 533.479C72.7413 533.023 73.225 532.672 73.8471 532.425C74.4735 532.178 75.2065 532.054 76.046 532.054C77.286 532.054 78.2619 532.316 78.9735 532.84C79.6895 533.364 80.1071 534.078 80.2264 534.982ZM87.3871 532.182V534.227H81.4744V532.182H87.3871ZM82.8168 529.83H85.5398V538.983C85.5398 539.234 85.5781 539.43 85.6548 539.571C85.7315 539.707 85.8381 539.803 85.9744 539.859C86.1151 539.914 86.277 539.942 86.4602 539.942C86.5881 539.942 86.7159 539.931 86.8438 539.91C86.9716 539.884 87.0696 539.865 87.1378 539.852L87.5661 541.879C87.4297 541.921 87.2379 541.97 86.9908 542.026C86.7436 542.085 86.4432 542.121 86.0895 542.134C85.4332 542.16 84.858 542.072 84.3636 541.872C83.8736 541.672 83.4922 541.361 83.2195 540.939C82.9467 540.517 82.8125 539.984 82.8168 539.341V529.83ZM89.1609 542V532.182H91.8008V533.895H91.9031C92.082 533.286 92.3825 532.825 92.8043 532.514C93.2262 532.199 93.712 532.041 94.2617 532.041C94.3981 532.041 94.5451 532.05 94.7028 532.067C94.8604 532.084 94.9989 532.107 95.1183 532.137V534.553C94.9904 534.515 94.8136 534.481 94.5877 534.451C94.3619 534.421 94.1552 534.406 93.9677 534.406C93.5671 534.406 93.2092 534.494 92.8938 534.668C92.5827 534.839 92.3356 535.077 92.1523 535.384C91.9734 535.691 91.8839 536.045 91.8839 536.445V542H89.1609ZM99.0446 542.185C98.4181 542.185 97.8599 542.077 97.3699 541.859C96.8798 541.638 96.492 541.312 96.2065 540.881C95.9252 540.447 95.7846 539.906 95.7846 539.258C95.7846 538.712 95.8848 538.254 96.085 537.884C96.2853 537.513 96.5581 537.214 96.9032 536.989C97.2484 536.763 97.6404 536.592 98.0794 536.477C98.5225 536.362 98.987 536.281 99.4728 536.234C100.044 536.175 100.504 536.119 100.854 536.068C101.203 536.013 101.456 535.932 101.614 535.825C101.772 535.719 101.851 535.561 101.851 535.352V535.314C101.851 534.909 101.723 534.596 101.467 534.374C101.216 534.153 100.858 534.042 100.393 534.042C99.9032 534.042 99.5133 534.151 99.2235 534.368C98.9338 534.581 98.742 534.849 98.6483 535.173L96.1298 534.969C96.2576 534.372 96.5091 533.857 96.8841 533.422C97.2591 532.983 97.7427 532.646 98.335 532.412C98.9316 532.173 99.622 532.054 100.406 532.054C100.952 532.054 101.474 532.118 101.972 532.246C102.475 532.374 102.92 532.572 103.308 532.84C103.7 533.109 104.009 533.454 104.235 533.876C104.461 534.293 104.574 534.794 104.574 535.378V542H101.991V540.638H101.915C101.757 540.945 101.546 541.216 101.282 541.45C101.018 541.68 100.7 541.862 100.329 541.994C99.9586 542.121 99.5304 542.185 99.0446 542.185ZM99.8244 540.306C100.225 540.306 100.579 540.227 100.885 540.07C101.192 539.908 101.433 539.69 101.608 539.418C101.782 539.145 101.87 538.836 101.87 538.491V537.449C101.785 537.504 101.667 537.555 101.518 537.602C101.373 537.645 101.209 537.685 101.026 537.724C100.843 537.758 100.66 537.79 100.476 537.82C100.293 537.845 100.127 537.869 99.9778 537.89C99.6582 537.937 99.3791 538.011 99.1404 538.114C98.9018 538.216 98.7164 538.354 98.5843 538.529C98.4522 538.7 98.3862 538.913 98.3862 539.168C98.3862 539.539 98.5204 539.822 98.7889 540.018C99.0616 540.21 99.4068 540.306 99.8244 540.306ZM111.122 542.192C110.117 542.192 109.252 541.979 108.527 541.553C107.807 541.122 107.253 540.526 106.865 539.763C106.482 539 106.29 538.122 106.29 537.129C106.29 536.124 106.484 535.241 106.872 534.483C107.264 533.72 107.82 533.126 108.54 532.7C109.26 532.269 110.117 532.054 111.11 532.054C111.966 532.054 112.716 532.21 113.36 532.521C114.003 532.832 114.512 533.268 114.887 533.831C115.262 534.393 115.469 535.054 115.507 535.812H112.938C112.865 535.322 112.673 534.928 112.362 534.63C112.056 534.327 111.653 534.176 111.154 534.176C110.732 534.176 110.364 534.291 110.048 534.521C109.737 534.747 109.494 535.077 109.32 535.512C109.145 535.947 109.058 536.473 109.058 537.091C109.058 537.717 109.143 538.25 109.313 538.689C109.488 539.128 109.733 539.462 110.048 539.692C110.364 539.923 110.732 540.038 111.154 540.038C111.465 540.038 111.744 539.974 111.992 539.846C112.243 539.718 112.45 539.533 112.612 539.29C112.778 539.043 112.887 538.746 112.938 538.401H115.507C115.465 539.151 115.26 539.812 114.894 540.383C114.531 540.95 114.031 541.393 113.392 541.712C112.752 542.032 111.996 542.192 111.122 542.192ZM122.473 532.182V534.227H116.56V532.182H122.473ZM117.903 529.83H120.626V538.983C120.626 539.234 120.664 539.43 120.741 539.571C120.817 539.707 120.924 539.803 121.06 539.859C121.201 539.914 121.363 539.942 121.546 539.942C121.674 539.942 121.802 539.931 121.93 539.91C122.058 539.884 122.156 539.865 122.224 539.852L122.652 541.879C122.516 541.921 122.324 541.97 122.077 542.026C121.83 542.085 121.529 542.121 121.175 542.134C120.519 542.16 119.944 542.072 119.45 541.872C118.96 541.672 118.578 541.361 118.305 540.939C118.033 540.517 117.898 539.984 117.903 539.341V529.83ZM128.616 542.192C127.606 542.192 126.737 541.987 126.008 541.578C125.283 541.165 124.725 540.581 124.333 539.827C123.941 539.068 123.745 538.171 123.745 537.136C123.745 536.126 123.941 535.239 124.333 534.477C124.725 533.714 125.277 533.119 125.989 532.693C126.705 532.267 127.544 532.054 128.507 532.054C129.155 532.054 129.758 532.158 130.316 532.367C130.879 532.572 131.369 532.881 131.786 533.294C132.208 533.707 132.536 534.227 132.771 534.854C133.005 535.476 133.122 536.205 133.122 537.04V537.788H124.832V536.1H130.559C130.559 535.708 130.474 535.361 130.303 535.058C130.133 534.756 129.896 534.519 129.594 534.349C129.295 534.174 128.948 534.087 128.552 534.087C128.138 534.087 127.772 534.183 127.452 534.374C127.137 534.562 126.89 534.815 126.711 535.135C126.532 535.45 126.44 535.802 126.436 536.19V537.794C126.436 538.28 126.526 538.7 126.705 539.053C126.888 539.407 127.146 539.68 127.478 539.871C127.81 540.063 128.205 540.159 128.661 540.159C128.963 540.159 129.24 540.116 129.491 540.031C129.743 539.946 129.958 539.818 130.137 539.648C130.316 539.477 130.452 539.268 130.546 539.021L133.065 539.188C132.937 539.793 132.675 540.321 132.278 540.773C131.886 541.22 131.379 541.57 130.757 541.821C130.139 542.068 129.425 542.192 128.616 542.192ZM138.517 542.16C137.771 542.16 137.096 541.968 136.491 541.585C135.89 541.197 135.413 540.628 135.059 539.878C134.71 539.124 134.535 538.199 134.535 537.104C134.535 535.979 134.716 535.043 135.078 534.298C135.44 533.548 135.922 532.987 136.523 532.616C137.128 532.241 137.79 532.054 138.511 532.054C139.06 532.054 139.518 532.148 139.885 532.335C140.256 532.518 140.554 532.749 140.78 533.026C141.01 533.298 141.185 533.567 141.304 533.831H141.387V528.909H144.104V542H141.419V540.428H141.304C141.176 540.7 140.995 540.971 140.761 541.239C140.531 541.504 140.23 541.723 139.859 541.898C139.493 542.072 139.045 542.16 138.517 542.16ZM139.38 539.993C139.819 539.993 140.19 539.874 140.492 539.635C140.799 539.392 141.033 539.053 141.195 538.619C141.362 538.184 141.445 537.675 141.445 537.091C141.445 536.507 141.364 536 141.202 535.57C141.04 535.139 140.805 534.807 140.499 534.572C140.192 534.338 139.819 534.221 139.38 534.221C138.933 534.221 138.555 534.342 138.249 534.585C137.942 534.828 137.71 535.165 137.552 535.595C137.394 536.026 137.315 536.524 137.315 537.091C137.315 537.662 137.394 538.167 137.552 538.606C137.714 539.04 137.946 539.381 138.249 539.629C138.555 539.871 138.933 539.993 139.38 539.993ZM155.2 542H150.56V528.909H155.239C156.555 528.909 157.689 529.171 158.639 529.695C159.589 530.215 160.32 530.963 160.832 531.939C161.347 532.915 161.605 534.082 161.605 535.442C161.605 536.805 161.347 537.977 160.832 538.957C160.32 539.937 159.585 540.69 158.626 541.214C157.672 541.738 156.53 542 155.2 542ZM153.327 539.629H155.085C155.903 539.629 156.592 539.484 157.15 539.194C157.712 538.9 158.134 538.446 158.415 537.832C158.701 537.214 158.844 536.418 158.844 535.442C158.844 534.474 158.701 533.684 158.415 533.07C158.134 532.457 157.714 532.005 157.156 531.715C156.598 531.425 155.91 531.281 155.092 531.281H153.327V539.629ZM168.079 542.192C167.069 542.192 166.199 541.987 165.471 541.578C164.746 541.165 164.188 540.581 163.796 539.827C163.404 539.068 163.208 538.171 163.208 537.136C163.208 536.126 163.404 535.239 163.796 534.477C164.188 533.714 164.74 533.119 165.452 532.693C166.167 532.267 167.007 532.054 167.97 532.054C168.618 532.054 169.221 532.158 169.779 532.367C170.341 532.572 170.831 532.881 171.249 533.294C171.671 533.707 171.999 534.227 172.233 534.854C172.468 535.476 172.585 536.205 172.585 537.04V537.788H164.295V536.1H170.022C170.022 535.708 169.937 535.361 169.766 535.058C169.596 534.756 169.359 534.519 169.057 534.349C168.758 534.174 168.411 534.087 168.015 534.087C167.601 534.087 167.235 534.183 166.915 534.374C166.6 534.562 166.353 534.815 166.174 535.135C165.995 535.45 165.903 535.802 165.899 536.19V537.794C165.899 538.28 165.988 538.7 166.167 539.053C166.351 539.407 166.608 539.68 166.941 539.871C167.273 540.063 167.667 540.159 168.123 540.159C168.426 540.159 168.703 540.116 168.954 540.031C169.206 539.946 169.421 539.818 169.6 539.648C169.779 539.477 169.915 539.268 170.009 539.021L172.528 539.188C172.4 539.793 172.138 540.321 171.741 540.773C171.349 541.22 170.842 541.57 170.22 541.821C169.602 542.068 168.888 542.192 168.079 542.192ZM177.085 536.324V542H174.362V532.182H176.957V533.914H177.072C177.29 533.343 177.654 532.891 178.165 532.559C178.677 532.222 179.297 532.054 180.025 532.054C180.707 532.054 181.302 532.203 181.809 532.501C182.316 532.8 182.71 533.226 182.991 533.78C183.273 534.33 183.413 534.986 183.413 535.749V542H180.69V536.234C180.694 535.634 180.541 535.165 180.23 534.828C179.919 534.487 179.491 534.317 178.945 534.317C178.579 534.317 178.255 534.396 177.974 534.553C177.697 534.711 177.479 534.941 177.322 535.244C177.168 535.542 177.089 535.902 177.085 536.324ZM185.559 542V532.182H188.282V542H185.559ZM186.927 530.916C186.522 530.916 186.175 530.782 185.885 530.513C185.6 530.241 185.457 529.915 185.457 529.536C185.457 529.161 185.6 528.839 185.885 528.57C186.175 528.298 186.522 528.161 186.927 528.161C187.332 528.161 187.677 528.298 187.963 528.57C188.252 528.839 188.397 529.161 188.397 529.536C188.397 529.915 188.252 530.241 187.963 530.513C187.677 530.782 187.332 530.916 186.927 530.916ZM194.9 542.192C193.894 542.192 193.029 541.979 192.305 541.553C191.584 541.122 191.03 540.526 190.643 539.763C190.259 539 190.067 538.122 190.067 537.129C190.067 536.124 190.261 535.241 190.649 534.483C191.041 533.72 191.597 533.126 192.317 532.7C193.037 532.269 193.894 532.054 194.887 532.054C195.743 532.054 196.493 532.21 197.137 532.521C197.78 532.832 198.29 533.268 198.665 533.831C199.04 534.393 199.246 535.054 199.285 535.812H196.715C196.643 535.322 196.451 534.928 196.14 534.63C195.833 534.327 195.43 534.176 194.932 534.176C194.51 534.176 194.141 534.291 193.826 534.521C193.515 534.747 193.272 535.077 193.097 535.512C192.922 535.947 192.835 536.473 192.835 537.091C192.835 537.717 192.92 538.25 193.091 538.689C193.265 539.128 193.51 539.462 193.826 539.692C194.141 539.923 194.51 540.038 194.932 540.038C195.243 540.038 195.522 539.974 195.769 539.846C196.02 539.718 196.227 539.533 196.389 539.29C196.555 539.043 196.664 538.746 196.715 538.401H199.285C199.242 539.151 199.037 539.812 198.671 540.383C198.309 540.95 197.808 541.393 197.169 541.712C196.53 542.032 195.773 542.192 194.9 542.192ZM205.502 542.192C204.493 542.192 203.623 541.987 202.895 541.578C202.17 541.165 201.612 540.581 201.22 539.827C200.828 539.068 200.632 538.171 200.632 537.136C200.632 536.126 200.828 535.239 201.22 534.477C201.612 533.714 202.164 533.119 202.875 532.693C203.591 532.267 204.431 532.054 205.394 532.054C206.042 532.054 206.645 532.158 207.203 532.367C207.765 532.572 208.255 532.881 208.673 533.294C209.095 533.707 209.423 534.227 209.657 534.854C209.892 535.476 210.009 536.205 210.009 537.04V537.788H201.718V536.1H207.446C207.446 535.708 207.36 535.361 207.19 535.058C207.02 534.756 206.783 534.519 206.48 534.349C206.182 534.174 205.835 534.087 205.439 534.087C205.025 534.087 204.659 534.183 204.339 534.374C204.024 534.562 203.777 534.815 203.598 535.135C203.419 535.45 203.327 535.802 203.323 536.19V537.794C203.323 538.28 203.412 538.7 203.591 539.053C203.775 539.407 204.032 539.68 204.365 539.871C204.697 540.063 205.091 540.159 205.547 540.159C205.85 540.159 206.127 540.116 206.378 540.031C206.63 539.946 206.845 539.818 207.024 539.648C207.203 539.477 207.339 539.268 207.433 539.021L209.951 539.188C209.824 539.793 209.561 540.321 209.165 540.773C208.773 541.22 208.266 541.57 207.644 541.821C207.026 542.068 206.312 542.192 205.502 542.192ZM220.235 542.205C219.314 542.205 218.521 541.987 217.857 541.553C217.192 541.118 216.681 540.519 216.323 539.756C215.965 538.994 215.786 538.122 215.786 537.142C215.786 536.145 215.969 535.265 216.335 534.502C216.706 533.735 217.222 533.136 217.882 532.706C218.547 532.271 219.323 532.054 220.209 532.054C220.899 532.054 221.521 532.182 222.075 532.438C222.629 532.693 223.083 533.051 223.437 533.511C223.791 533.972 224.01 534.509 224.095 535.122H222.587C222.472 534.675 222.216 534.278 221.82 533.933C221.428 533.584 220.899 533.409 220.235 533.409C219.646 533.409 219.131 533.562 218.688 533.869C218.249 534.172 217.906 534.6 217.659 535.154C217.416 535.704 217.294 536.349 217.294 537.091C217.294 537.849 217.414 538.51 217.652 539.072C217.895 539.635 218.236 540.072 218.675 540.383C219.118 540.694 219.638 540.849 220.235 540.849C220.627 540.849 220.982 540.781 221.302 540.645C221.622 540.509 221.892 540.312 222.114 540.057C222.335 539.801 222.493 539.494 222.587 539.136H224.095C224.01 539.716 223.799 540.238 223.463 540.702C223.13 541.163 222.689 541.529 222.139 541.802C221.594 542.07 220.959 542.205 220.235 542.205ZM229.19 542.23C228.568 542.23 228.003 542.113 227.496 541.879C226.989 541.64 226.586 541.297 226.288 540.849C225.99 540.398 225.84 539.852 225.84 539.213C225.84 538.651 225.951 538.195 226.173 537.845C226.394 537.491 226.691 537.214 227.061 537.014C227.432 536.814 227.841 536.665 228.289 536.567C228.74 536.464 229.194 536.384 229.65 536.324C230.247 536.247 230.73 536.19 231.101 536.151C231.476 536.109 231.749 536.038 231.919 535.94C232.094 535.842 232.181 535.672 232.181 535.429V535.378C232.181 534.747 232.009 534.257 231.664 533.908C231.323 533.558 230.805 533.384 230.11 533.384C229.39 533.384 228.825 533.541 228.416 533.857C228.007 534.172 227.72 534.509 227.553 534.866L226.122 534.355C226.377 533.759 226.718 533.294 227.144 532.962C227.575 532.625 228.044 532.391 228.551 532.259C229.062 532.122 229.565 532.054 230.059 532.054C230.374 532.054 230.737 532.092 231.146 532.169C231.559 532.241 231.958 532.393 232.341 532.623C232.729 532.853 233.051 533.2 233.306 533.665C233.562 534.129 233.69 534.751 233.69 535.531V542H232.181V540.67H232.105C232.002 540.884 231.832 541.112 231.593 541.354C231.355 541.597 231.037 541.804 230.641 541.974C230.244 542.145 229.761 542.23 229.19 542.23ZM229.42 540.875C230.017 540.875 230.519 540.758 230.928 540.523C231.342 540.289 231.653 539.987 231.862 539.616C232.075 539.245 232.181 538.855 232.181 538.446V537.065C232.117 537.142 231.977 537.212 231.759 537.276C231.546 537.336 231.299 537.389 231.018 537.436C230.741 537.479 230.47 537.517 230.206 537.551C229.946 537.581 229.735 537.607 229.573 537.628C229.181 537.679 228.815 537.762 228.474 537.877C228.137 537.988 227.865 538.156 227.656 538.382C227.451 538.604 227.349 538.906 227.349 539.29C227.349 539.814 227.543 540.21 227.931 540.479C228.323 540.743 228.819 540.875 229.42 540.875ZM237.952 536.094V542H236.443V532.182H237.901V533.716H238.028C238.259 533.217 238.608 532.817 239.077 532.514C239.545 532.207 240.151 532.054 240.892 532.054C241.557 532.054 242.138 532.19 242.637 532.463C243.136 532.732 243.523 533.141 243.8 533.69C244.077 534.236 244.216 534.926 244.216 535.761V542H242.707V535.864C242.707 535.092 242.507 534.491 242.107 534.061C241.706 533.626 241.156 533.409 240.457 533.409C239.976 533.409 239.545 533.513 239.166 533.722C238.791 533.931 238.495 534.236 238.278 534.636C238.06 535.037 237.952 535.523 237.952 536.094ZM253.544 536.094V542H252.035V532.182H253.492V533.716H253.62C253.85 533.217 254.2 532.817 254.669 532.514C255.137 532.207 255.742 532.054 256.484 532.054C257.149 532.054 257.73 532.19 258.229 532.463C258.727 532.732 259.115 533.141 259.392 533.69C259.669 534.236 259.808 534.926 259.808 535.761V542H258.299V535.864C258.299 535.092 258.099 534.491 257.698 534.061C257.298 533.626 256.748 533.409 256.049 533.409C255.568 533.409 255.137 533.513 254.758 533.722C254.383 533.931 254.087 534.236 253.869 534.636C253.652 535.037 253.544 535.523 253.544 536.094ZM266.553 542.205C265.667 542.205 264.889 541.994 264.22 541.572C263.555 541.15 263.035 540.56 262.66 539.801C262.289 539.043 262.104 538.156 262.104 537.142C262.104 536.119 262.289 535.227 262.66 534.464C263.035 533.701 263.555 533.109 264.22 532.687C264.889 532.265 265.667 532.054 266.553 532.054C267.439 532.054 268.215 532.265 268.88 532.687C269.549 533.109 270.069 533.701 270.439 534.464C270.814 535.227 271.002 536.119 271.002 537.142C271.002 538.156 270.814 539.043 270.439 539.801C270.069 540.56 269.549 541.15 268.88 541.572C268.215 541.994 267.439 542.205 266.553 542.205ZM266.553 540.849C267.226 540.849 267.78 540.677 268.215 540.332C268.65 539.987 268.971 539.533 269.18 538.97C269.389 538.408 269.493 537.798 269.493 537.142C269.493 536.486 269.389 535.874 269.18 535.308C268.971 534.741 268.65 534.283 268.215 533.933C267.78 533.584 267.226 533.409 266.553 533.409C265.88 533.409 265.326 533.584 264.891 533.933C264.456 534.283 264.135 534.741 263.926 535.308C263.717 535.874 263.613 536.486 263.613 537.142C263.613 537.798 263.717 538.408 263.926 538.97C264.135 539.533 264.456 539.987 264.891 540.332C265.326 540.677 265.88 540.849 266.553 540.849ZM275.195 542L272.203 532.182H273.789L275.911 539.699H276.013L278.11 532.182H279.721L281.792 539.673H281.894L284.016 532.182H285.601L282.61 542H281.127L278.979 534.457H278.826L276.678 542H275.195ZM299.613 534.381L298.257 534.764C298.172 534.538 298.047 534.319 297.88 534.106C297.718 533.888 297.497 533.71 297.216 533.569C296.934 533.428 296.574 533.358 296.135 533.358C295.534 533.358 295.034 533.496 294.633 533.773C294.237 534.046 294.039 534.393 294.039 534.815C294.039 535.19 294.175 535.487 294.448 535.704C294.721 535.921 295.147 536.102 295.726 536.247L297.184 536.605C298.061 536.818 298.716 537.144 299.146 537.583C299.576 538.018 299.792 538.578 299.792 539.264C299.792 539.827 299.63 540.33 299.306 540.773C298.986 541.216 298.539 541.565 297.963 541.821C297.388 542.077 296.719 542.205 295.956 542.205C294.955 542.205 294.126 541.987 293.47 541.553C292.814 541.118 292.398 540.483 292.223 539.648L293.655 539.29C293.792 539.818 294.049 540.214 294.429 540.479C294.812 540.743 295.313 540.875 295.931 540.875C296.634 540.875 297.192 540.726 297.605 540.428C298.023 540.125 298.232 539.763 298.232 539.341C298.232 539 298.113 538.714 297.874 538.484C297.635 538.25 297.269 538.075 296.775 537.96L295.138 537.577C294.239 537.364 293.578 537.033 293.157 536.586C292.739 536.134 292.53 535.57 292.53 534.892C292.53 534.338 292.686 533.848 292.997 533.422C293.312 532.996 293.74 532.661 294.282 532.418C294.827 532.175 295.445 532.054 296.135 532.054C297.107 532.054 297.87 532.267 298.424 532.693C298.982 533.119 299.378 533.682 299.613 534.381ZM306.332 532.182V533.46H301.244V532.182H306.332ZM302.727 529.83H304.236V539.188C304.236 539.614 304.297 539.933 304.421 540.146C304.549 540.355 304.711 540.496 304.907 540.568C305.107 540.636 305.318 540.67 305.54 540.67C305.706 540.67 305.842 540.662 305.949 540.645C306.055 540.624 306.14 540.607 306.204 540.594L306.511 541.949C306.409 541.987 306.266 542.026 306.083 542.064C305.9 542.107 305.667 542.128 305.386 542.128C304.96 542.128 304.542 542.036 304.133 541.853C303.729 541.67 303.392 541.391 303.123 541.016C302.859 540.641 302.727 540.168 302.727 539.597V529.83ZM314.789 537.986V532.182H316.297V542H314.789V540.338H314.687C314.456 540.837 314.099 541.261 313.613 541.61C313.127 541.955 312.513 542.128 311.772 542.128C311.158 542.128 310.613 541.994 310.135 541.725C309.658 541.452 309.283 541.043 309.01 540.498C308.738 539.948 308.601 539.256 308.601 538.42V532.182H310.11V538.318C310.11 539.034 310.31 539.605 310.711 540.031C311.116 540.457 311.631 540.67 312.258 540.67C312.633 540.67 313.014 540.575 313.402 540.383C313.794 540.191 314.122 539.897 314.386 539.501C314.655 539.104 314.789 538.599 314.789 537.986ZM322.768 542.205C321.95 542.205 321.227 541.998 320.601 541.585C319.974 541.167 319.484 540.579 319.131 539.82C318.777 539.058 318.6 538.156 318.6 537.116C318.6 536.085 318.777 535.19 319.131 534.432C319.484 533.673 319.977 533.087 320.607 532.674C321.238 532.261 321.967 532.054 322.793 532.054C323.433 532.054 323.938 532.161 324.308 532.374C324.683 532.582 324.969 532.821 325.165 533.089C325.365 533.354 325.521 533.571 325.631 533.741H325.759V528.909H327.268V542H325.81V540.491H325.631C325.521 540.67 325.363 540.896 325.158 541.169C324.954 541.437 324.662 541.678 324.283 541.891C323.903 542.1 323.398 542.205 322.768 542.205ZM322.972 540.849C323.577 540.849 324.089 540.692 324.506 540.376C324.924 540.057 325.241 539.616 325.459 539.053C325.676 538.487 325.785 537.832 325.785 537.091C325.785 536.358 325.678 535.717 325.465 535.167C325.252 534.613 324.937 534.183 324.519 533.876C324.102 533.565 323.586 533.409 322.972 533.409C322.333 533.409 321.8 533.573 321.374 533.901C320.952 534.225 320.635 534.666 320.422 535.224C320.213 535.778 320.109 536.401 320.109 537.091C320.109 537.79 320.215 538.425 320.428 538.996C320.646 539.562 320.965 540.014 321.387 540.351C321.813 540.683 322.342 540.849 322.972 540.849ZM331.212 545.682C330.956 545.682 330.728 545.661 330.528 545.618C330.327 545.58 330.189 545.541 330.112 545.503L330.496 544.173C330.862 544.267 331.186 544.301 331.467 544.276C331.749 544.25 331.998 544.124 332.215 543.898C332.437 543.677 332.639 543.317 332.822 542.818L333.104 542.051L329.473 532.182H331.109L333.82 540.006H333.922L336.632 532.182H338.268L334.101 543.432C333.913 543.939 333.681 544.359 333.404 544.691C333.127 545.028 332.805 545.277 332.439 545.439C332.077 545.601 331.668 545.682 331.212 545.682ZM345.322 542V532.182H346.831V542H345.322ZM346.089 530.545C345.795 530.545 345.542 530.445 345.328 530.245C345.12 530.045 345.015 529.804 345.015 529.523C345.015 529.241 345.12 529.001 345.328 528.8C345.542 528.6 345.795 528.5 346.089 528.5C346.383 528.5 346.635 528.6 346.843 528.8C347.056 529.001 347.163 529.241 347.163 529.523C347.163 529.804 347.056 530.045 346.843 530.245C346.635 530.445 346.383 530.545 346.089 530.545ZM351.102 536.094V542H349.594V532.182H351.051V533.716H351.179C351.409 533.217 351.758 532.817 352.227 532.514C352.696 532.207 353.301 532.054 354.042 532.054C354.707 532.054 355.289 532.19 355.787 532.463C356.286 532.732 356.674 533.141 356.951 533.69C357.228 534.236 357.366 534.926 357.366 535.761V542H355.858V535.864C355.858 535.092 355.657 534.491 355.257 534.061C354.856 533.626 354.307 533.409 353.608 533.409C353.126 533.409 352.696 533.513 352.317 533.722C351.942 533.931 351.645 534.236 351.428 534.636C351.211 535.037 351.102 535.523 351.102 536.094ZM365.185 542V532.182H366.643V533.716H366.771C366.975 533.192 367.305 532.785 367.761 532.495C368.217 532.201 368.765 532.054 369.404 532.054C370.052 532.054 370.591 532.201 371.021 532.495C371.456 532.785 371.795 533.192 372.038 533.716H372.14C372.391 533.209 372.768 532.806 373.271 532.508C373.774 532.205 374.377 532.054 375.08 532.054C375.958 532.054 376.676 532.329 377.234 532.879C377.793 533.424 378.072 534.274 378.072 535.429V542H376.563V535.429C376.563 534.705 376.365 534.187 375.969 533.876C375.572 533.565 375.106 533.409 374.569 533.409C373.879 533.409 373.344 533.618 372.964 534.036C372.585 534.449 372.396 534.973 372.396 535.608V542H370.862V535.276C370.862 534.717 370.68 534.268 370.318 533.927C369.956 533.582 369.489 533.409 368.918 533.409C368.526 533.409 368.16 533.513 367.819 533.722C367.482 533.931 367.21 534.221 367.001 534.592C366.796 534.958 366.694 535.382 366.694 535.864V542H365.185ZM384.819 542.205C383.932 542.205 383.154 541.994 382.485 541.572C381.821 541.15 381.301 540.56 380.926 539.801C380.555 539.043 380.37 538.156 380.37 537.142C380.37 536.119 380.555 535.227 380.926 534.464C381.301 533.701 381.821 533.109 382.485 532.687C383.154 532.265 383.932 532.054 384.819 532.054C385.705 532.054 386.48 532.265 387.145 532.687C387.814 533.109 388.334 533.701 388.705 534.464C389.08 535.227 389.267 536.119 389.267 537.142C389.267 538.156 389.08 539.043 388.705 539.801C388.334 540.56 387.814 541.15 387.145 541.572C386.48 541.994 385.705 542.205 384.819 542.205ZM384.819 540.849C385.492 540.849 386.046 540.677 386.48 540.332C386.915 539.987 387.237 539.533 387.446 538.97C387.654 538.408 387.759 537.798 387.759 537.142C387.759 536.486 387.654 535.874 387.446 535.308C387.237 534.741 386.915 534.283 386.48 533.933C386.046 533.584 385.492 533.409 384.819 533.409C384.145 533.409 383.591 533.584 383.157 533.933C382.722 534.283 382.4 534.741 382.191 535.308C381.983 535.874 381.878 536.486 381.878 537.142C381.878 537.798 381.983 538.408 382.191 538.97C382.4 539.533 382.722 539.987 383.157 540.332C383.591 540.677 384.145 540.849 384.819 540.849ZM391.57 542V532.182H393.028V533.665H393.13C393.309 533.179 393.633 532.785 394.101 532.482C394.57 532.18 395.099 532.028 395.687 532.028C395.797 532.028 395.936 532.031 396.102 532.035C396.268 532.039 396.394 532.045 396.479 532.054V533.588C396.428 533.575 396.311 533.556 396.128 533.531C395.949 533.501 395.759 533.486 395.559 533.486C395.081 533.486 394.655 533.586 394.28 533.786C393.91 533.982 393.616 534.255 393.398 534.604C393.185 534.95 393.079 535.344 393.079 535.787V542H391.57ZM402.085 542.205C401.139 542.205 400.323 541.996 399.637 541.578C398.955 541.156 398.429 540.568 398.058 539.814C397.692 539.055 397.508 538.173 397.508 537.168C397.508 536.162 397.692 535.276 398.058 534.509C398.429 533.737 398.944 533.136 399.605 532.706C400.27 532.271 401.045 532.054 401.932 532.054C402.443 532.054 402.948 532.139 403.447 532.31C403.945 532.48 404.399 532.757 404.808 533.141C405.217 533.52 405.543 534.023 405.786 534.649C406.029 535.276 406.15 536.047 406.15 536.963V537.602H398.582V536.298H404.616C404.616 535.744 404.506 535.25 404.284 534.815C404.067 534.381 403.756 534.038 403.351 533.786C402.95 533.535 402.477 533.409 401.932 533.409C401.331 533.409 400.811 533.558 400.372 533.857C399.937 534.151 399.603 534.534 399.368 535.007C399.134 535.48 399.017 535.987 399.017 536.528V537.398C399.017 538.139 399.145 538.768 399.4 539.283C399.66 539.795 400.02 540.185 400.481 540.453C400.941 540.717 401.476 540.849 402.085 540.849C402.481 540.849 402.839 540.794 403.159 540.683C403.483 540.568 403.762 540.398 403.996 540.172C404.231 539.942 404.412 539.656 404.54 539.315L405.997 539.724C405.844 540.219 405.586 540.653 405.224 541.028C404.861 541.399 404.414 541.689 403.881 541.898C403.349 542.102 402.75 542.205 402.085 542.205ZM413.508 545.682V532.182H414.965V533.741H415.144C415.255 533.571 415.408 533.354 415.604 533.089C415.805 532.821 416.09 532.582 416.461 532.374C416.836 532.161 417.343 532.054 417.982 532.054C418.809 532.054 419.537 532.261 420.168 532.674C420.799 533.087 421.291 533.673 421.645 534.432C421.998 535.19 422.175 536.085 422.175 537.116C422.175 538.156 421.998 539.058 421.645 539.82C421.291 540.579 420.801 541.167 420.175 541.585C419.548 541.998 418.826 542.205 418.008 542.205C417.377 542.205 416.872 542.1 416.493 541.891C416.113 541.678 415.822 541.437 415.617 541.169C415.412 540.896 415.255 540.67 415.144 540.491H415.016V545.682H413.508ZM414.991 537.091C414.991 537.832 415.099 538.487 415.317 539.053C415.534 539.616 415.851 540.057 416.269 540.376C416.687 540.692 417.198 540.849 417.803 540.849C418.434 540.849 418.96 540.683 419.382 540.351C419.808 540.014 420.128 539.562 420.341 538.996C420.558 538.425 420.667 537.79 420.667 537.091C420.667 536.401 420.56 535.778 420.347 535.224C420.138 534.666 419.821 534.225 419.395 533.901C418.973 533.573 418.442 533.409 417.803 533.409C417.189 533.409 416.674 533.565 416.256 533.876C415.839 534.183 415.523 534.613 415.31 535.167C415.097 535.717 414.991 536.358 414.991 537.091ZM428.593 542.205C427.647 542.205 426.831 541.996 426.145 541.578C425.463 541.156 424.937 540.568 424.566 539.814C424.199 539.055 424.016 538.173 424.016 537.168C424.016 536.162 424.199 535.276 424.566 534.509C424.937 533.737 425.452 533.136 426.113 532.706C426.778 532.271 427.553 532.054 428.439 532.054C428.951 532.054 429.456 532.139 429.954 532.31C430.453 532.48 430.907 532.757 431.316 533.141C431.725 533.52 432.051 534.023 432.294 534.649C432.537 535.276 432.658 536.047 432.658 536.963V537.602H425.09V536.298H431.124C431.124 535.744 431.013 535.25 430.792 534.815C430.574 534.381 430.263 534.038 429.858 533.786C429.458 533.535 428.985 533.409 428.439 533.409C427.839 533.409 427.319 533.558 426.88 533.857C426.445 534.151 426.111 534.534 425.876 535.007C425.642 535.48 425.525 535.987 425.525 536.528V537.398C425.525 538.139 425.653 538.768 425.908 539.283C426.168 539.795 426.528 540.185 426.988 540.453C427.449 540.717 427.983 540.849 428.593 540.849C428.989 540.849 429.347 540.794 429.667 540.683C429.991 540.568 430.27 540.398 430.504 540.172C430.738 539.942 430.92 539.656 431.047 539.315L432.505 539.724C432.351 540.219 432.094 540.653 431.731 541.028C431.369 541.399 430.922 541.689 430.389 541.898C429.856 542.102 429.258 542.205 428.593 542.205ZM437.842 542.23C437.22 542.23 436.655 542.113 436.148 541.879C435.641 541.64 435.238 541.297 434.94 540.849C434.642 540.398 434.493 539.852 434.493 539.213C434.493 538.651 434.604 538.195 434.825 537.845C435.047 537.491 435.343 537.214 435.714 537.014C436.084 536.814 436.493 536.665 436.941 536.567C437.393 536.464 437.846 536.384 438.302 536.324C438.899 536.247 439.383 536.19 439.753 536.151C440.128 536.109 440.401 536.038 440.572 535.94C440.746 535.842 440.834 535.672 440.834 535.429V535.378C440.834 534.747 440.661 534.257 440.316 533.908C439.975 533.558 439.457 533.384 438.763 533.384C438.042 533.384 437.478 533.541 437.069 533.857C436.66 534.172 436.372 534.509 436.206 534.866L434.774 534.355C435.03 533.759 435.371 533.294 435.797 532.962C436.227 532.625 436.696 532.391 437.203 532.259C437.714 532.122 438.217 532.054 438.711 532.054C439.027 532.054 439.389 532.092 439.798 532.169C440.211 532.241 440.61 532.393 440.993 532.623C441.381 532.853 441.703 533.2 441.959 533.665C442.214 534.129 442.342 534.751 442.342 535.531V542H440.834V540.67H440.757C440.655 540.884 440.484 541.112 440.246 541.354C440.007 541.597 439.689 541.804 439.293 541.974C438.897 542.145 438.413 542.23 437.842 542.23ZM438.072 540.875C438.669 540.875 439.172 540.758 439.581 540.523C439.994 540.289 440.305 539.987 440.514 539.616C440.727 539.245 440.834 538.855 440.834 538.446V537.065C440.77 537.142 440.629 537.212 440.412 537.276C440.199 537.336 439.952 537.389 439.67 537.436C439.393 537.479 439.123 537.517 438.858 537.551C438.599 537.581 438.388 537.607 438.226 537.628C437.834 537.679 437.467 537.762 437.126 537.877C436.79 537.988 436.517 538.156 436.308 538.382C436.104 538.604 436.001 538.906 436.001 539.29C436.001 539.814 436.195 540.21 436.583 540.479C436.975 540.743 437.471 540.875 438.072 540.875ZM449.084 542.205C448.164 542.205 447.371 541.987 446.706 541.553C446.042 541.118 445.53 540.519 445.172 539.756C444.814 538.994 444.635 538.122 444.635 537.142C444.635 536.145 444.819 535.265 445.185 534.502C445.556 533.735 446.071 533.136 446.732 532.706C447.397 532.271 448.172 532.054 449.059 532.054C449.749 532.054 450.371 532.182 450.925 532.438C451.479 532.693 451.933 533.051 452.287 533.511C452.64 533.972 452.86 534.509 452.945 535.122H451.436C451.321 534.675 451.066 534.278 450.669 533.933C450.277 533.584 449.749 533.409 449.084 533.409C448.496 533.409 447.98 533.562 447.537 533.869C447.098 534.172 446.755 534.6 446.508 535.154C446.265 535.704 446.144 536.349 446.144 537.091C446.144 537.849 446.263 538.51 446.502 539.072C446.745 539.635 447.086 540.072 447.525 540.383C447.968 540.694 448.488 540.849 449.084 540.849C449.476 540.849 449.832 540.781 450.152 540.645C450.471 540.509 450.742 540.312 450.963 540.057C451.185 539.801 451.343 539.494 451.436 539.136H452.945C452.86 539.716 452.649 540.238 452.312 540.702C451.98 541.163 451.539 541.529 450.989 541.802C450.444 542.07 449.809 542.205 449.084 542.205ZM459.267 542.205C458.321 542.205 457.505 541.996 456.819 541.578C456.137 541.156 455.61 540.568 455.24 539.814C454.873 539.055 454.69 538.173 454.69 537.168C454.69 536.162 454.873 535.276 455.24 534.509C455.61 533.737 456.126 533.136 456.787 532.706C457.451 532.271 458.227 532.054 459.113 532.054C459.625 532.054 460.13 532.139 460.628 532.31C461.127 532.48 461.581 532.757 461.99 533.141C462.399 533.52 462.725 534.023 462.968 534.649C463.211 535.276 463.332 536.047 463.332 536.963V537.602H455.764V536.298H461.798C461.798 535.744 461.687 535.25 461.466 534.815C461.248 534.381 460.937 534.038 460.532 533.786C460.132 533.535 459.659 533.409 459.113 533.409C458.512 533.409 457.993 533.558 457.554 533.857C457.119 534.151 456.784 534.534 456.55 535.007C456.316 535.48 456.199 535.987 456.199 536.528V537.398C456.199 538.139 456.326 538.768 456.582 539.283C456.842 539.795 457.202 540.185 457.662 540.453C458.123 540.717 458.657 540.849 459.267 540.849C459.663 540.849 460.021 540.794 460.341 540.683C460.664 540.568 460.944 540.398 461.178 540.172C461.412 539.942 461.593 539.656 461.721 539.315L463.179 539.724C463.025 540.219 462.767 540.653 462.405 541.028C462.043 541.399 461.596 541.689 461.063 541.898C460.53 542.102 459.931 542.205 459.267 542.205ZM467.877 540.21L467.775 540.901C467.702 541.386 467.591 541.906 467.442 542.46C467.297 543.014 467.146 543.536 466.988 544.026C466.831 544.516 466.701 544.906 466.598 545.196H465.448C465.503 544.923 465.576 544.563 465.665 544.116C465.755 543.668 465.844 543.168 465.934 542.614C466.027 542.064 466.104 541.501 466.164 540.926L466.24 540.21H467.877ZM6.58523 564V550.909H8.09375V555.741H8.22159C8.33239 555.571 8.4858 555.354 8.68182 555.089C8.8821 554.821 9.16761 554.582 9.53835 554.374C9.91335 554.161 10.4205 554.054 11.0597 554.054C11.8864 554.054 12.6151 554.261 13.2457 554.674C13.8764 555.087 14.3686 555.673 14.7223 556.432C15.076 557.19 15.2528 558.085 15.2528 559.116C15.2528 560.156 15.076 561.058 14.7223 561.82C14.3686 562.579 13.8786 563.167 13.2521 563.585C12.6257 563.998 11.9034 564.205 11.0852 564.205C10.4545 564.205 9.94957 564.1 9.57031 563.891C9.19105 563.678 8.89915 563.437 8.6946 563.169C8.49006 562.896 8.33239 562.67 8.22159 562.491H8.04261V564H6.58523ZM8.06818 559.091C8.06818 559.832 8.17685 560.487 8.39418 561.053C8.61151 561.616 8.92898 562.057 9.34659 562.376C9.7642 562.692 10.2756 562.849 10.8807 562.849C11.5114 562.849 12.0376 562.683 12.4595 562.351C12.8857 562.014 13.2053 561.562 13.4183 560.996C13.6357 560.425 13.7443 559.79 13.7443 559.091C13.7443 558.401 13.6378 557.778 13.4247 557.224C13.2159 556.666 12.8984 556.225 12.4723 555.901C12.0504 555.573 11.5199 555.409 10.8807 555.409C10.267 555.409 9.75142 555.565 9.33381 555.876C8.91619 556.183 8.60085 556.613 8.38778 557.167C8.17472 557.717 8.06818 558.358 8.06818 559.091ZM23.7479 559.986V554.182H25.2564V564H23.7479V562.338H23.6456C23.4155 562.837 23.0575 563.261 22.5717 563.61C22.0859 563.955 21.4723 564.128 20.7308 564.128C20.1172 564.128 19.5717 563.994 19.0945 563.725C18.6172 563.452 18.2422 563.043 17.9695 562.498C17.6967 561.948 17.5604 561.256 17.5604 560.42V554.182H19.0689V560.318C19.0689 561.034 19.2692 561.605 19.6697 562.031C20.0746 562.457 20.5902 562.67 21.2166 562.67C21.5916 562.67 21.973 562.575 22.3608 562.383C22.7528 562.191 23.081 561.897 23.3452 561.501C23.6136 561.104 23.7479 560.599 23.7479 559.986ZM32.2892 554.182V555.46H27.2012V554.182H32.2892ZM28.6841 551.83H30.1926V561.188C30.1926 561.614 30.2544 561.933 30.378 562.146C30.5059 562.355 30.6678 562.496 30.8638 562.568C31.0641 562.636 31.275 562.67 31.4966 562.67C31.6628 562.67 31.7992 562.662 31.9057 562.645C32.0123 562.624 32.0975 562.607 32.1614 562.594L32.4682 563.949C32.3659 563.987 32.2232 564.026 32.04 564.064C31.8567 564.107 31.6245 564.128 31.3432 564.128C30.9171 564.128 30.4995 564.036 30.0904 563.853C29.6855 563.67 29.3489 563.391 29.0804 563.016C28.8162 562.641 28.6841 562.168 28.6841 561.597V551.83ZM43.9931 554.182V555.46H38.7005V554.182H43.9931ZM40.2857 564V552.827C40.2857 552.264 40.4178 551.795 40.682 551.42C40.9462 551.045 41.2892 550.764 41.7111 550.577C42.133 550.389 42.5783 550.295 43.0471 550.295C43.4178 550.295 43.7203 550.325 43.9547 550.385C44.1891 550.445 44.3638 550.5 44.4789 550.551L44.0442 551.855C43.9675 551.83 43.861 551.798 43.7246 551.759C43.5925 551.721 43.4178 551.702 43.2005 551.702C42.7019 551.702 42.3418 551.827 42.1202 552.079C41.9029 552.33 41.7942 552.699 41.7942 553.185V564H40.2857ZM49.8194 564.205C48.8734 564.205 48.0574 563.996 47.3713 563.578C46.6895 563.156 46.1632 562.568 45.7924 561.814C45.426 561.055 45.2427 560.173 45.2427 559.168C45.2427 558.162 45.426 557.276 45.7924 556.509C46.1632 555.737 46.6788 555.136 47.3393 554.706C48.0041 554.271 48.7797 554.054 49.666 554.054C50.1774 554.054 50.6824 554.139 51.1809 554.31C51.6795 554.48 52.1333 554.757 52.5424 555.141C52.9515 555.52 53.2775 556.023 53.5204 556.649C53.7633 557.276 53.8848 558.047 53.8848 558.963V559.602H46.3166V558.298H52.3507C52.3507 557.744 52.2399 557.25 52.0183 556.815C51.801 556.381 51.4899 556.038 51.0851 555.786C50.6845 555.535 50.2115 555.409 49.666 555.409C49.0652 555.409 48.5453 555.558 48.1064 555.857C47.6717 556.151 47.3372 556.534 47.1028 557.007C46.8684 557.48 46.7512 557.987 46.7512 558.528V559.398C46.7512 560.139 46.8791 560.768 47.1348 561.283C47.3947 561.795 47.7548 562.185 48.215 562.453C48.6752 562.717 49.2101 562.849 49.8194 562.849C50.2157 562.849 50.5737 562.794 50.8933 562.683C51.2172 562.568 51.4963 562.398 51.7306 562.172C51.965 561.942 52.1461 561.656 52.274 561.315L53.7314 561.724C53.5779 562.219 53.3201 562.653 52.9579 563.028C52.5957 563.399 52.1483 563.689 51.6156 563.898C51.0829 564.102 50.4842 564.205 49.8194 564.205ZM60.296 564.205C59.35 564.205 58.5339 563.996 57.8478 563.578C57.166 563.156 56.6397 562.568 56.269 561.814C55.9025 561.055 55.7193 560.173 55.7193 559.168C55.7193 558.162 55.9025 557.276 56.269 556.509C56.6397 555.737 57.1554 555.136 57.8159 554.706C58.4806 554.271 59.2562 554.054 60.1426 554.054C60.6539 554.054 61.1589 554.139 61.6575 554.31C62.1561 554.48 62.6099 554.757 63.019 555.141C63.4281 555.52 63.7541 556.023 63.997 556.649C64.2399 557.276 64.3613 558.047 64.3613 558.963V559.602H56.7931V558.298H62.8272C62.8272 557.744 62.7164 557.25 62.4949 556.815C62.2775 556.381 61.9664 556.038 61.5616 555.786C61.161 555.535 60.688 555.409 60.1426 555.409C59.5417 555.409 59.0218 555.558 58.5829 555.857C58.1483 556.151 57.8137 556.534 57.5794 557.007C57.345 557.48 57.2278 557.987 57.2278 558.528V559.398C57.2278 560.139 57.3556 560.768 57.6113 561.283C57.8713 561.795 58.2314 562.185 58.6916 562.453C59.1518 562.717 59.6866 562.849 60.296 562.849C60.6923 562.849 61.0502 562.794 61.3699 562.683C61.6937 562.568 61.9728 562.398 62.2072 562.172C62.4416 561.942 62.6227 561.656 62.7505 561.315L64.2079 561.724C64.0545 562.219 63.7967 562.653 63.4345 563.028C63.0723 563.399 62.6248 563.689 62.0922 563.898C61.5595 564.102 60.9608 564.205 60.296 564.205ZM68.1646 550.909V564H66.6561V550.909H68.1646ZM77.8821 556.381L76.527 556.764C76.4418 556.538 76.3161 556.319 76.1499 556.106C75.9879 555.888 75.7663 555.71 75.4851 555.569C75.2038 555.428 74.8438 555.358 74.4048 555.358C73.804 555.358 73.3033 555.496 72.9027 555.773C72.5064 556.046 72.3082 556.393 72.3082 556.815C72.3082 557.19 72.4446 557.487 72.7173 557.704C72.9901 557.921 73.4162 558.102 73.9957 558.247L75.4531 558.605C76.331 558.818 76.9851 559.144 77.4155 559.583C77.8459 560.018 78.0611 560.578 78.0611 561.264C78.0611 561.827 77.8991 562.33 77.5753 562.773C77.2557 563.216 76.8082 563.565 76.233 563.821C75.6577 564.077 74.9886 564.205 74.2259 564.205C73.2244 564.205 72.3956 563.987 71.7393 563.553C71.0831 563.118 70.6676 562.483 70.4929 561.648L71.9247 561.29C72.0611 561.818 72.3189 562.214 72.6982 562.479C73.0817 562.743 73.5824 562.875 74.2003 562.875C74.9034 562.875 75.4616 562.726 75.875 562.428C76.2926 562.125 76.5014 561.763 76.5014 561.341C76.5014 561 76.3821 560.714 76.1435 560.484C75.9048 560.25 75.5384 560.075 75.044 559.96L73.4077 559.577C72.5085 559.364 71.848 559.033 71.4261 558.586C71.0085 558.134 70.7997 557.57 70.7997 556.892C70.7997 556.338 70.9553 555.848 71.2663 555.422C71.5817 554.996 72.0099 554.661 72.5511 554.418C73.0966 554.175 73.7145 554.054 74.4048 554.054C75.3764 554.054 76.1392 554.267 76.6932 554.693C77.2514 555.119 77.6477 555.682 77.8821 556.381ZM89.7665 554.182V555.46H84.4739V554.182H89.7665ZM86.0591 564V552.827C86.0591 552.264 86.1912 551.795 86.4554 551.42C86.7196 551.045 87.0627 550.764 87.4846 550.577C87.9064 550.389 88.3517 550.295 88.8205 550.295C89.1912 550.295 89.4938 550.325 89.7282 550.385C89.9625 550.445 90.1373 550.5 90.2523 550.551L89.8176 551.855C89.7409 551.83 89.6344 551.798 89.498 551.759C89.3659 551.721 89.1912 551.702 88.9739 551.702C88.4753 551.702 88.1152 551.827 87.8936 552.079C87.6763 552.33 87.5676 552.699 87.5676 553.185V564H86.0591ZM91.8807 564V554.182H93.3381V555.665H93.4403C93.6193 555.179 93.9432 554.785 94.4119 554.482C94.8807 554.18 95.4091 554.028 95.9972 554.028C96.108 554.028 96.2464 554.031 96.4126 554.035C96.5788 554.039 96.7045 554.045 96.7898 554.054V555.588C96.7386 555.575 96.6214 555.556 96.4382 555.531C96.2592 555.501 96.0696 555.486 95.8693 555.486C95.392 555.486 94.9659 555.586 94.5909 555.786C94.2202 555.982 93.9261 556.255 93.7088 556.604C93.4957 556.95 93.3892 557.344 93.3892 557.787V564H91.8807ZM104.765 559.986V554.182H106.274V564H104.765V562.338H104.663C104.433 562.837 104.075 563.261 103.589 563.61C103.104 563.955 102.49 564.128 101.748 564.128C101.135 564.128 100.589 563.994 100.112 563.725C99.6348 563.452 99.2598 563.043 98.987 562.498C98.7143 561.948 98.5779 561.256 98.5779 560.42V554.182H100.086V560.318C100.086 561.034 100.287 561.605 100.687 562.031C101.092 562.457 101.608 562.67 102.234 562.67C102.609 562.67 102.991 562.575 103.378 562.383C103.77 562.191 104.099 561.897 104.363 561.501C104.631 561.104 104.765 560.599 104.765 559.986ZM115.991 556.381L114.636 556.764C114.551 556.538 114.425 556.319 114.259 556.106C114.097 555.888 113.876 555.71 113.594 555.569C113.313 555.428 112.953 555.358 112.514 555.358C111.913 555.358 111.413 555.496 111.012 555.773C110.616 556.046 110.418 556.393 110.418 556.815C110.418 557.19 110.554 557.487 110.827 557.704C111.099 557.921 111.526 558.102 112.105 558.247L113.562 558.605C114.44 558.818 115.094 559.144 115.525 559.583C115.955 560.018 116.17 560.578 116.17 561.264C116.17 561.827 116.009 562.33 115.685 562.773C115.365 563.216 114.918 563.565 114.342 563.821C113.767 564.077 113.098 564.205 112.335 564.205C111.334 564.205 110.505 563.987 109.849 563.553C109.192 563.118 108.777 562.483 108.602 561.648L110.034 561.29C110.17 561.818 110.428 562.214 110.808 562.479C111.191 562.743 111.692 562.875 112.31 562.875C113.013 562.875 113.571 562.726 113.984 562.428C114.402 562.125 114.611 561.763 114.611 561.341C114.611 561 114.491 560.714 114.253 560.484C114.014 560.25 113.648 560.075 113.153 559.96L111.517 559.577C110.618 559.364 109.957 559.033 109.536 558.586C109.118 558.134 108.909 557.57 108.909 556.892C108.909 556.338 109.065 555.848 109.376 555.422C109.691 554.996 110.119 554.661 110.661 554.418C111.206 554.175 111.824 554.054 112.514 554.054C113.486 554.054 114.249 554.267 114.803 554.693C115.361 555.119 115.757 555.682 115.991 556.381ZM122.711 554.182V555.46H117.623V554.182H122.711ZM119.106 551.83H120.615V561.188C120.615 561.614 120.676 561.933 120.8 562.146C120.928 562.355 121.09 562.496 121.286 562.568C121.486 562.636 121.697 562.67 121.919 562.67C122.085 562.67 122.221 562.662 122.328 562.645C122.434 562.624 122.519 562.607 122.583 562.594L122.89 563.949C122.788 563.987 122.645 564.026 122.462 564.064C122.279 564.107 122.046 564.128 121.765 564.128C121.339 564.128 120.921 564.036 120.512 563.853C120.107 563.67 119.771 563.391 119.502 563.016C119.238 562.641 119.106 562.168 119.106 561.597V551.83ZM124.98 564V554.182H126.438V555.665H126.54C126.719 555.179 127.043 554.785 127.512 554.482C127.98 554.18 128.509 554.028 129.097 554.028C129.208 554.028 129.346 554.031 129.512 554.035C129.678 554.039 129.804 554.045 129.889 554.054V555.588C129.838 555.575 129.721 555.556 129.538 555.531C129.359 555.501 129.169 555.486 128.969 555.486C128.492 555.486 128.066 555.586 127.691 555.786C127.32 555.982 127.026 556.255 126.808 556.604C126.595 556.95 126.489 557.344 126.489 557.787V564H124.98ZM134.567 564.23C133.945 564.23 133.38 564.113 132.873 563.879C132.366 563.64 131.963 563.297 131.665 562.849C131.366 562.398 131.217 561.852 131.217 561.213C131.217 560.651 131.328 560.195 131.55 559.845C131.771 559.491 132.067 559.214 132.438 559.014C132.809 558.814 133.218 558.665 133.665 558.567C134.117 558.464 134.571 558.384 135.027 558.324C135.624 558.247 136.107 558.19 136.478 558.151C136.853 558.109 137.126 558.038 137.296 557.94C137.471 557.842 137.558 557.672 137.558 557.429V557.378C137.558 556.747 137.386 556.257 137.04 555.908C136.7 555.558 136.182 555.384 135.487 555.384C134.767 555.384 134.202 555.541 133.793 555.857C133.384 556.172 133.097 556.509 132.93 556.866L131.499 556.355C131.754 555.759 132.095 555.294 132.521 554.962C132.952 554.625 133.42 554.391 133.928 554.259C134.439 554.122 134.942 554.054 135.436 554.054C135.751 554.054 136.114 554.092 136.523 554.169C136.936 554.241 137.335 554.393 137.718 554.623C138.106 554.853 138.428 555.2 138.683 555.665C138.939 556.129 139.067 556.751 139.067 557.531V564H137.558V562.67H137.482C137.379 562.884 137.209 563.112 136.97 563.354C136.732 563.597 136.414 563.804 136.018 563.974C135.621 564.145 135.138 564.23 134.567 564.23ZM134.797 562.875C135.393 562.875 135.896 562.758 136.305 562.523C136.719 562.289 137.03 561.987 137.239 561.616C137.452 561.245 137.558 560.855 137.558 560.446V559.065C137.494 559.142 137.354 559.212 137.136 559.276C136.923 559.336 136.676 559.389 136.395 559.436C136.118 559.479 135.847 559.517 135.583 559.551C135.323 559.581 135.112 559.607 134.95 559.628C134.558 559.679 134.192 559.762 133.851 559.877C133.514 559.988 133.241 560.156 133.033 560.382C132.828 560.604 132.726 560.906 132.726 561.29C132.726 561.814 132.92 562.21 133.308 562.479C133.7 562.743 134.196 562.875 134.797 562.875ZM146.09 554.182V555.46H141.002V554.182H146.09ZM142.485 551.83H143.993V561.188C143.993 561.614 144.055 561.933 144.179 562.146C144.307 562.355 144.469 562.496 144.665 562.568C144.865 562.636 145.076 562.67 145.297 562.67C145.464 562.67 145.6 562.662 145.706 562.645C145.813 562.624 145.898 562.607 145.962 562.594L146.269 563.949C146.167 563.987 146.024 564.026 145.841 564.064C145.657 564.107 145.425 564.128 145.144 564.128C144.718 564.128 144.3 564.036 143.891 563.853C143.486 563.67 143.15 563.391 142.881 563.016C142.617 562.641 142.485 562.168 142.485 561.597V551.83ZM152.37 564.205C151.424 564.205 150.608 563.996 149.922 563.578C149.24 563.156 148.714 562.568 148.343 561.814C147.977 561.055 147.794 560.173 147.794 559.168C147.794 558.162 147.977 557.276 148.343 556.509C148.714 555.737 149.23 555.136 149.89 554.706C150.555 554.271 151.33 554.054 152.217 554.054C152.728 554.054 153.233 554.139 153.732 554.31C154.23 554.48 154.684 554.757 155.093 555.141C155.502 555.52 155.828 556.023 156.071 556.649C156.314 557.276 156.436 558.047 156.436 558.963V559.602H148.867V558.298H154.901C154.901 557.744 154.791 557.25 154.569 556.815C154.352 556.381 154.041 556.038 153.636 555.786C153.235 555.535 152.762 555.409 152.217 555.409C151.616 555.409 151.096 555.558 150.657 555.857C150.222 556.151 149.888 556.534 149.654 557.007C149.419 557.48 149.302 557.987 149.302 558.528V559.398C149.302 560.139 149.43 560.768 149.686 561.283C149.945 561.795 150.306 562.185 150.766 562.453C151.226 562.717 151.761 562.849 152.37 562.849C152.767 562.849 153.124 562.794 153.444 562.683C153.768 562.568 154.047 562.398 154.281 562.172C154.516 561.942 154.697 561.656 154.825 561.315L156.282 561.724C156.129 562.219 155.871 562.653 155.509 563.028C155.146 563.399 154.699 563.689 154.166 563.898C153.634 564.102 153.035 564.205 152.37 564.205ZM162.438 564.205C161.619 564.205 160.897 563.998 160.271 563.585C159.644 563.167 159.154 562.579 158.801 561.82C158.447 561.058 158.27 560.156 158.27 559.116C158.27 558.085 158.447 557.19 158.801 556.432C159.154 555.673 159.646 555.087 160.277 554.674C160.908 554.261 161.637 554.054 162.463 554.054C163.102 554.054 163.607 554.161 163.978 554.374C164.353 554.582 164.639 554.821 164.835 555.089C165.035 555.354 165.191 555.571 165.301 555.741H165.429V550.909H166.938V564H165.48V562.491H165.301C165.191 562.67 165.033 562.896 164.828 563.169C164.624 563.437 164.332 563.678 163.953 563.891C163.573 564.1 163.068 564.205 162.438 564.205ZM162.642 562.849C163.247 562.849 163.759 562.692 164.176 562.376C164.594 562.057 164.911 561.616 165.129 561.053C165.346 560.487 165.455 559.832 165.455 559.091C165.455 558.358 165.348 557.717 165.135 557.167C164.922 556.613 164.607 556.183 164.189 555.876C163.771 555.565 163.256 555.409 162.642 555.409C162.003 555.409 161.47 555.573 161.044 555.901C160.622 556.225 160.305 556.666 160.092 557.224C159.883 557.778 159.779 558.401 159.779 559.091C159.779 559.79 159.885 560.425 160.098 560.996C160.316 561.562 160.635 562.014 161.057 562.351C161.483 562.683 162.012 562.849 162.642 562.849ZM177.197 564L174.205 554.182H175.791L177.913 561.699H178.015L180.112 554.182H181.722L183.794 561.673H183.896L186.018 554.182H187.603L184.612 564H183.129L180.981 556.457H180.828L178.68 564H177.197ZM189.597 564V554.182H191.106V564H189.597ZM190.365 552.545C190.07 552.545 189.817 552.445 189.604 552.245C189.395 552.045 189.291 551.804 189.291 551.523C189.291 551.241 189.395 551.001 189.604 550.8C189.817 550.6 190.07 550.5 190.365 550.5C190.659 550.5 190.91 550.6 191.119 550.8C191.332 551.001 191.438 551.241 191.438 551.523C191.438 551.804 191.332 552.045 191.119 552.245C190.91 552.445 190.659 552.545 190.365 552.545ZM198.139 554.182V555.46H193.051V554.182H198.139ZM194.534 551.83H196.042V561.188C196.042 561.614 196.104 561.933 196.228 562.146C196.355 562.355 196.517 562.496 196.713 562.568C196.914 562.636 197.125 562.67 197.346 562.67C197.512 562.67 197.649 562.662 197.755 562.645C197.862 562.624 197.947 562.607 198.011 562.594L198.318 563.949C198.216 563.987 198.073 564.026 197.89 564.064C197.706 564.107 197.474 564.128 197.193 564.128C196.767 564.128 196.349 564.036 195.94 563.853C195.535 563.67 195.199 563.391 194.93 563.016C194.666 562.641 194.534 562.168 194.534 561.597V551.83ZM202.127 558.094V564H200.619V550.909H202.127V555.716H202.255C202.485 555.209 202.831 554.806 203.291 554.508C203.755 554.205 204.373 554.054 205.145 554.054C205.814 554.054 206.4 554.188 206.902 554.457C207.405 554.721 207.795 555.128 208.072 555.678C208.353 556.223 208.494 556.918 208.494 557.761V564H206.985V557.864C206.985 557.084 206.783 556.481 206.378 556.055C205.978 555.624 205.422 555.409 204.71 555.409C204.216 555.409 203.772 555.513 203.38 555.722C202.993 555.931 202.686 556.236 202.46 556.636C202.238 557.037 202.127 557.523 202.127 558.094ZM220.586 554.182V555.46H215.498V554.182H220.586ZM216.981 551.83H218.49V561.188C218.49 561.614 218.551 561.933 218.675 562.146C218.803 562.355 218.965 562.496 219.161 562.568C219.361 562.636 219.572 562.67 219.794 562.67C219.96 562.67 220.096 562.662 220.203 562.645C220.309 562.624 220.394 562.607 220.458 562.594L220.765 563.949C220.663 563.987 220.52 564.026 220.337 564.064C220.154 564.107 219.921 564.128 219.64 564.128C219.214 564.128 218.796 564.036 218.387 563.853C217.982 563.67 217.646 563.391 217.377 563.016C217.113 562.641 216.981 562.168 216.981 561.597V551.83ZM224.575 558.094V564H223.066V550.909H224.575V555.716H224.703C224.933 555.209 225.278 554.806 225.738 554.508C226.203 554.205 226.82 554.054 227.592 554.054C228.261 554.054 228.847 554.188 229.35 554.457C229.852 554.721 230.242 555.128 230.519 555.678C230.801 556.223 230.941 556.918 230.941 557.761V564H229.433V557.864C229.433 557.084 229.23 556.481 228.825 556.055C228.425 555.624 227.869 555.409 227.157 555.409C226.663 555.409 226.22 555.513 225.828 555.722C225.44 555.931 225.133 556.236 224.907 556.636C224.686 557.037 224.575 557.523 224.575 558.094ZM237.817 564.205C236.871 564.205 236.055 563.996 235.369 563.578C234.688 563.156 234.161 562.568 233.79 561.814C233.424 561.055 233.241 560.173 233.241 559.168C233.241 558.162 233.424 557.276 233.79 556.509C234.161 555.737 234.677 555.136 235.337 554.706C236.002 554.271 236.778 554.054 237.664 554.054C238.175 554.054 238.68 554.139 239.179 554.31C239.678 554.48 240.131 554.757 240.54 555.141C240.95 555.52 241.276 556.023 241.518 556.649C241.761 557.276 241.883 558.047 241.883 558.963V559.602H234.315V558.298H240.349C240.349 557.744 240.238 557.25 240.016 556.815C239.799 556.381 239.488 556.038 239.083 555.786C238.683 555.535 238.21 555.409 237.664 555.409C237.063 555.409 236.543 555.558 236.104 555.857C235.67 556.151 235.335 556.534 235.101 557.007C234.866 557.48 234.749 557.987 234.749 558.528V559.398C234.749 560.139 234.877 560.768 235.133 561.283C235.393 561.795 235.753 562.185 236.213 562.453C236.673 562.717 237.208 562.849 237.817 562.849C238.214 562.849 238.572 562.794 238.891 562.683C239.215 562.568 239.494 562.398 239.729 562.172C239.963 561.942 240.144 561.656 240.272 561.315L241.729 561.724C241.576 562.219 241.318 562.653 240.956 563.028C240.594 563.399 240.146 563.689 239.614 563.898C239.081 564.102 238.482 564.205 237.817 564.205ZM256.195 556.381L254.839 556.764C254.754 556.538 254.629 556.319 254.462 556.106C254.3 555.888 254.079 555.71 253.798 555.569C253.516 555.428 253.156 555.358 252.717 555.358C252.116 555.358 251.616 555.496 251.215 555.773C250.819 556.046 250.621 556.393 250.621 556.815C250.621 557.19 250.757 557.487 251.03 557.704C251.303 557.921 251.729 558.102 252.308 558.247L253.766 558.605C254.643 558.818 255.298 559.144 255.728 559.583C256.158 560.018 256.374 560.578 256.374 561.264C256.374 561.827 256.212 562.33 255.888 562.773C255.568 563.216 255.121 563.565 254.545 563.821C253.97 564.077 253.301 564.205 252.538 564.205C251.537 564.205 250.708 563.987 250.052 563.553C249.396 563.118 248.98 562.483 248.805 561.648L250.237 561.29C250.374 561.818 250.631 562.214 251.011 562.479C251.394 562.743 251.895 562.875 252.513 562.875C253.216 562.875 253.774 562.726 254.188 562.428C254.605 562.125 254.814 561.763 254.814 561.341C254.814 561 254.695 560.714 254.456 560.484C254.217 560.25 253.851 560.075 253.357 559.96L251.72 559.577C250.821 559.364 250.161 559.033 249.739 558.586C249.321 558.134 249.112 557.57 249.112 556.892C249.112 556.338 249.268 555.848 249.579 555.422C249.894 554.996 250.322 554.661 250.864 554.418C251.409 554.175 252.027 554.054 252.717 554.054C253.689 554.054 254.452 554.267 255.006 554.693C255.564 555.119 255.96 555.682 256.195 556.381ZM262.914 554.182V555.46H257.826V554.182H262.914ZM259.309 551.83H260.818V561.188C260.818 561.614 260.879 561.933 261.003 562.146C261.131 562.355 261.293 562.496 261.489 562.568C261.689 562.636 261.9 562.67 262.122 562.67C262.288 562.67 262.424 562.662 262.531 562.645C262.637 562.624 262.722 562.607 262.786 562.594L263.093 563.949C262.991 563.987 262.848 564.026 262.665 564.064C262.482 564.107 262.249 564.128 261.968 564.128C261.542 564.128 261.124 564.036 260.715 563.853C260.311 563.67 259.974 563.391 259.705 563.016C259.441 562.641 259.309 562.168 259.309 561.597V551.83ZM265.183 564V554.182H266.641V555.665H266.743C266.922 555.179 267.246 554.785 267.715 554.482C268.183 554.18 268.712 554.028 269.3 554.028C269.411 554.028 269.549 554.031 269.715 554.035C269.882 554.039 270.007 554.045 270.093 554.054V555.588C270.041 555.575 269.924 555.556 269.741 555.531C269.562 555.501 269.372 555.486 269.172 555.486C268.695 555.486 268.269 555.586 267.894 555.786C267.523 555.982 267.229 556.255 267.012 556.604C266.798 556.95 266.692 557.344 266.692 557.787V564H265.183ZM278.068 559.986V554.182H279.577V564H278.068V562.338H277.966C277.736 562.837 277.378 563.261 276.892 563.61C276.406 563.955 275.793 564.128 275.051 564.128C274.438 564.128 273.892 563.994 273.415 563.725C272.938 563.452 272.563 563.043 272.29 562.498C272.017 561.948 271.881 561.256 271.881 560.42V554.182H273.389V560.318C273.389 561.034 273.589 561.605 273.99 562.031C274.395 562.457 274.911 562.67 275.537 562.67C275.912 562.67 276.293 562.575 276.681 562.383C277.073 562.191 277.401 561.897 277.665 561.501C277.934 561.104 278.068 560.599 278.068 559.986ZM286.303 567.886C285.574 567.886 284.948 567.793 284.423 567.605C283.899 567.422 283.463 567.179 283.113 566.876C282.768 566.578 282.493 566.259 282.289 565.918L283.49 565.074C283.627 565.253 283.799 565.457 284.008 565.688C284.217 565.922 284.502 566.124 284.865 566.295C285.231 566.469 285.71 566.557 286.303 566.557C287.095 566.557 287.749 566.365 288.265 565.982C288.781 565.598 289.039 564.997 289.039 564.179V562.185H288.911C288.8 562.364 288.642 562.585 288.438 562.849C288.237 563.109 287.948 563.342 287.568 563.546C287.193 563.746 286.686 563.847 286.047 563.847C285.254 563.847 284.543 563.659 283.912 563.284C283.286 562.909 282.789 562.364 282.423 561.648C282.061 560.932 281.879 560.062 281.879 559.04C281.879 558.034 282.056 557.158 282.41 556.413C282.764 555.663 283.256 555.083 283.887 554.674C284.517 554.261 285.246 554.054 286.073 554.054C286.712 554.054 287.219 554.161 287.594 554.374C287.973 554.582 288.263 554.821 288.463 555.089C288.668 555.354 288.825 555.571 288.936 555.741H289.09V554.182H290.547V564.281C290.547 565.125 290.355 565.811 289.972 566.339C289.593 566.872 289.081 567.262 288.438 567.509C287.798 567.761 287.087 567.886 286.303 567.886ZM286.252 562.491C286.857 562.491 287.368 562.353 287.786 562.076C288.203 561.799 288.521 561.401 288.738 560.881C288.955 560.361 289.064 559.739 289.064 559.014C289.064 558.307 288.958 557.683 288.744 557.141C288.531 556.6 288.216 556.176 287.798 555.869C287.381 555.562 286.865 555.409 286.252 555.409C285.612 555.409 285.08 555.571 284.654 555.895C284.232 556.219 283.914 556.653 283.701 557.199C283.492 557.744 283.388 558.349 283.388 559.014C283.388 559.696 283.494 560.299 283.708 560.823C283.925 561.343 284.244 561.752 284.666 562.05C285.093 562.344 285.621 562.491 286.252 562.491ZM297.271 567.886C296.543 567.886 295.916 567.793 295.392 567.605C294.868 567.422 294.431 567.179 294.082 566.876C293.737 566.578 293.462 566.259 293.257 565.918L294.459 565.074C294.595 565.253 294.768 565.457 294.977 565.688C295.186 565.922 295.471 566.124 295.833 566.295C296.2 566.469 296.679 566.557 297.271 566.557C298.064 566.557 298.718 566.365 299.234 565.982C299.749 565.598 300.007 564.997 300.007 564.179V562.185H299.879C299.769 562.364 299.611 562.585 299.406 562.849C299.206 563.109 298.916 563.342 298.537 563.546C298.162 563.746 297.655 563.847 297.016 563.847C296.223 563.847 295.512 563.659 294.881 563.284C294.254 562.909 293.758 562.364 293.392 561.648C293.029 560.932 292.848 560.062 292.848 559.04C292.848 558.034 293.025 557.158 293.379 556.413C293.732 555.663 294.225 555.083 294.855 554.674C295.486 554.261 296.215 554.054 297.041 554.054C297.681 554.054 298.188 554.161 298.563 554.374C298.942 554.582 299.232 554.821 299.432 555.089C299.637 555.354 299.794 555.571 299.905 555.741H300.058V554.182H301.516V564.281C301.516 565.125 301.324 565.811 300.941 566.339C300.561 566.872 300.05 567.262 299.406 567.509C298.767 567.761 298.056 567.886 297.271 567.886ZM297.22 562.491C297.825 562.491 298.337 562.353 298.754 562.076C299.172 561.799 299.49 561.401 299.707 560.881C299.924 560.361 300.033 559.739 300.033 559.014C300.033 558.307 299.926 557.683 299.713 557.141C299.5 556.6 299.185 556.176 298.767 555.869C298.35 555.562 297.834 555.409 297.22 555.409C296.581 555.409 296.048 555.571 295.622 555.895C295.2 556.219 294.883 556.653 294.67 557.199C294.461 557.744 294.357 558.349 294.357 559.014C294.357 559.696 294.463 560.299 294.676 560.823C294.894 561.343 295.213 561.752 295.635 562.05C296.061 562.344 296.59 562.491 297.22 562.491ZM305.786 550.909V564H304.277V550.909H305.786ZM312.665 564.205C311.719 564.205 310.903 563.996 310.217 563.578C309.535 563.156 309.009 562.568 308.638 561.814C308.272 561.055 308.088 560.173 308.088 559.168C308.088 558.162 308.272 557.276 308.638 556.509C309.009 555.737 309.525 555.136 310.185 554.706C310.85 554.271 311.625 554.054 312.512 554.054C313.023 554.054 313.528 554.139 314.027 554.31C314.525 554.48 314.979 554.757 315.388 555.141C315.797 555.52 316.123 556.023 316.366 556.649C316.609 557.276 316.73 558.047 316.73 558.963V559.602H309.162V558.298H315.196C315.196 557.744 315.086 557.25 314.864 556.815C314.647 556.381 314.336 556.038 313.931 555.786C313.53 555.535 313.057 555.409 312.512 555.409C311.911 555.409 311.391 555.558 310.952 555.857C310.517 556.151 310.183 556.534 309.949 557.007C309.714 557.48 309.597 557.987 309.597 558.528V559.398C309.597 560.139 309.725 560.768 309.98 561.283C310.24 561.795 310.6 562.185 311.061 562.453C311.521 562.717 312.056 562.849 312.665 562.849C313.061 562.849 313.419 562.794 313.739 562.683C314.063 562.568 314.342 562.398 314.576 562.172C314.811 561.942 314.992 561.656 315.12 561.315L316.577 561.724C316.424 562.219 316.166 562.653 315.804 563.028C315.441 563.399 314.994 563.689 314.461 563.898C313.929 564.102 313.33 564.205 312.665 564.205ZM331.042 556.381L329.687 556.764C329.602 556.538 329.476 556.319 329.31 556.106C329.148 555.888 328.926 555.71 328.645 555.569C328.364 555.428 328.004 555.358 327.565 555.358C326.964 555.358 326.463 555.496 326.063 555.773C325.667 556.046 325.468 556.393 325.468 556.815C325.468 557.19 325.605 557.487 325.877 557.704C326.15 557.921 326.576 558.102 327.156 558.247L328.613 558.605C329.491 558.818 330.145 559.144 330.576 559.583C331.006 560.018 331.221 560.578 331.221 561.264C331.221 561.827 331.059 562.33 330.735 562.773C330.416 563.216 329.968 563.565 329.393 563.821C328.818 564.077 328.149 564.205 327.386 564.205C326.385 564.205 325.556 563.987 324.9 563.553C324.243 563.118 323.828 562.483 323.653 561.648L325.085 561.29C325.221 561.818 325.479 562.214 325.858 562.479C326.242 562.743 326.743 562.875 327.36 562.875C328.064 562.875 328.622 562.726 329.035 562.428C329.453 562.125 329.662 561.763 329.662 561.341C329.662 561 329.542 560.714 329.304 560.484C329.065 560.25 328.699 560.075 328.204 559.96L326.568 559.577C325.669 559.364 325.008 559.033 324.586 558.586C324.169 558.134 323.96 557.57 323.96 556.892C323.96 556.338 324.115 555.848 324.426 555.422C324.742 554.996 325.17 554.661 325.711 554.418C326.257 554.175 326.875 554.054 327.565 554.054C328.537 554.054 329.299 554.267 329.853 554.693C330.412 555.119 330.808 555.682 331.042 556.381ZM335.001 558.094V564H333.492V550.909H335.001V555.716H335.128C335.358 555.209 335.704 554.806 336.164 554.508C336.628 554.205 337.246 554.054 338.018 554.054C338.687 554.054 339.273 554.188 339.775 554.457C340.278 554.721 340.668 555.128 340.945 555.678C341.226 556.223 341.367 556.918 341.367 557.761V564H339.858V557.864C339.858 557.084 339.656 556.481 339.251 556.055C338.851 555.624 338.295 555.409 337.583 555.409C337.089 555.409 336.645 555.513 336.253 555.722C335.866 555.931 335.559 556.236 335.333 556.636C335.111 557.037 335.001 557.523 335.001 558.094ZM348.243 564.205C347.297 564.205 346.481 563.996 345.795 563.578C345.113 563.156 344.587 562.568 344.216 561.814C343.85 561.055 343.667 560.173 343.667 559.168C343.667 558.162 343.85 557.276 344.216 556.509C344.587 555.737 345.103 555.136 345.763 554.706C346.428 554.271 347.203 554.054 348.09 554.054C348.601 554.054 349.106 554.139 349.605 554.31C350.103 554.48 350.557 554.757 350.966 555.141C351.375 555.52 351.701 556.023 351.944 556.649C352.187 557.276 352.309 558.047 352.309 558.963V559.602H344.74V558.298H350.775C350.775 557.744 350.664 557.25 350.442 556.815C350.225 556.381 349.914 556.038 349.509 555.786C349.108 555.535 348.635 555.409 348.09 555.409C347.489 555.409 346.969 555.558 346.53 555.857C346.096 556.151 345.761 556.534 345.527 557.007C345.292 557.48 345.175 557.987 345.175 558.528V559.398C345.175 560.139 345.303 560.768 345.559 561.283C345.819 561.795 346.179 562.185 346.639 562.453C347.099 562.717 347.634 562.849 348.243 562.849C348.64 562.849 348.998 562.794 349.317 562.683C349.641 562.568 349.92 562.398 350.154 562.172C350.389 561.942 350.57 561.656 350.698 561.315L352.155 561.724C352.002 562.219 351.744 562.653 351.382 563.028C351.02 563.399 350.572 563.689 350.039 563.898C349.507 564.102 348.908 564.205 348.243 564.205ZM361.174 558.094V564H359.666V550.909H361.174V555.716H361.302C361.532 555.209 361.877 554.806 362.338 554.508C362.802 554.205 363.42 554.054 364.191 554.054C364.86 554.054 365.446 554.188 365.949 554.457C366.452 554.721 366.842 555.128 367.119 555.678C367.4 556.223 367.541 556.918 367.541 557.761V564H366.032V557.864C366.032 557.084 365.83 556.481 365.425 556.055C365.025 555.624 364.468 555.409 363.757 555.409C363.262 555.409 362.819 555.513 362.427 555.722C362.039 555.931 361.733 556.236 361.507 556.636C361.285 557.037 361.174 557.523 361.174 558.094ZM373.19 564.23C372.568 564.23 372.003 564.113 371.496 563.879C370.989 563.64 370.586 563.297 370.288 562.849C369.99 562.398 369.84 561.852 369.84 561.213C369.84 560.651 369.951 560.195 370.173 559.845C370.394 559.491 370.691 559.214 371.061 559.014C371.432 558.814 371.841 558.665 372.289 558.567C372.74 558.464 373.194 558.384 373.65 558.324C374.247 558.247 374.73 558.19 375.101 558.151C375.476 558.109 375.749 558.038 375.919 557.94C376.094 557.842 376.181 557.672 376.181 557.429V557.378C376.181 556.747 376.009 556.257 375.664 555.908C375.323 555.558 374.805 555.384 374.11 555.384C373.39 555.384 372.825 555.541 372.416 555.857C372.007 556.172 371.72 556.509 371.553 556.866L370.122 556.355C370.377 555.759 370.718 555.294 371.144 554.962C371.575 554.625 372.044 554.391 372.551 554.259C373.062 554.122 373.565 554.054 374.059 554.054C374.374 554.054 374.737 554.092 375.146 554.169C375.559 554.241 375.958 554.393 376.341 554.623C376.729 554.853 377.051 555.2 377.306 555.665C377.562 556.129 377.69 556.751 377.69 557.531V564H376.181V562.67H376.105C376.002 562.884 375.832 563.112 375.593 563.354C375.355 563.597 375.037 563.804 374.641 563.974C374.244 564.145 373.761 564.23 373.19 564.23ZM373.42 562.875C374.017 562.875 374.519 562.758 374.928 562.523C375.342 562.289 375.653 561.987 375.862 561.616C376.075 561.245 376.181 560.855 376.181 560.446V559.065C376.117 559.142 375.977 559.212 375.759 559.276C375.546 559.336 375.299 559.389 375.018 559.436C374.741 559.479 374.47 559.517 374.206 559.551C373.946 559.581 373.735 559.607 373.573 559.628C373.181 559.679 372.815 559.762 372.474 559.877C372.137 559.988 371.865 560.156 371.656 560.382C371.451 560.604 371.349 560.906 371.349 561.29C371.349 561.814 371.543 562.21 371.931 562.479C372.323 562.743 372.819 562.875 373.42 562.875ZM384.151 564.205C383.332 564.205 382.61 563.998 381.984 563.585C381.357 563.167 380.867 562.579 380.513 561.82C380.16 561.058 379.983 560.156 379.983 559.116C379.983 558.085 380.16 557.19 380.513 556.432C380.867 555.673 381.359 555.087 381.99 554.674C382.621 554.261 383.349 554.054 384.176 554.054C384.815 554.054 385.32 554.161 385.691 554.374C386.066 554.582 386.352 554.821 386.548 555.089C386.748 555.354 386.903 555.571 387.014 555.741H387.142V550.909H388.651V564H387.193V562.491H387.014C386.903 562.67 386.746 562.896 386.541 563.169C386.337 563.437 386.045 563.678 385.665 563.891C385.286 564.1 384.781 564.205 384.151 564.205ZM384.355 562.849C384.96 562.849 385.472 562.692 385.889 562.376C386.307 562.057 386.624 561.616 386.842 561.053C387.059 560.487 387.168 559.832 387.168 559.091C387.168 558.358 387.061 557.717 386.848 557.167C386.635 556.613 386.32 556.183 385.902 555.876C385.484 555.565 384.969 555.409 384.355 555.409C383.716 555.409 383.183 555.573 382.757 555.901C382.335 556.225 382.018 556.666 381.805 557.224C381.596 557.778 381.491 558.401 381.491 559.091C381.491 559.79 381.598 560.425 381.811 560.996C382.028 561.562 382.348 562.014 382.77 562.351C383.196 562.683 383.724 562.849 384.355 562.849ZM400.955 554.182V555.46H395.867V554.182H400.955ZM397.35 551.83H398.859V561.188C398.859 561.614 398.92 561.933 399.044 562.146C399.172 562.355 399.334 562.496 399.53 562.568C399.73 562.636 399.941 562.67 400.163 562.67C400.329 562.67 400.465 562.662 400.572 562.645C400.678 562.624 400.763 562.607 400.827 562.594L401.134 563.949C401.032 563.987 400.889 564.026 400.706 564.064C400.523 564.107 400.29 564.128 400.009 564.128C399.583 564.128 399.165 564.036 398.756 563.853C398.352 563.67 398.015 563.391 397.746 563.016C397.482 562.641 397.35 562.168 397.35 561.597V551.83ZM407.108 564.205C406.221 564.205 405.444 563.994 404.775 563.572C404.11 563.15 403.59 562.56 403.215 561.801C402.844 561.043 402.659 560.156 402.659 559.142C402.659 558.119 402.844 557.227 403.215 556.464C403.59 555.701 404.11 555.109 404.775 554.687C405.444 554.265 406.221 554.054 407.108 554.054C407.994 554.054 408.77 554.265 409.434 554.687C410.103 555.109 410.623 555.701 410.994 556.464C411.369 557.227 411.556 558.119 411.556 559.142C411.556 560.156 411.369 561.043 410.994 561.801C410.623 562.56 410.103 563.15 409.434 563.572C408.77 563.994 407.994 564.205 407.108 564.205ZM407.108 562.849C407.781 562.849 408.335 562.677 408.77 562.332C409.204 561.987 409.526 561.533 409.735 560.97C409.944 560.408 410.048 559.798 410.048 559.142C410.048 558.486 409.944 557.874 409.735 557.308C409.526 556.741 409.204 556.283 408.77 555.933C408.335 555.584 407.781 555.409 407.108 555.409C406.434 555.409 405.88 555.584 405.446 555.933C405.011 556.283 404.689 556.741 404.48 557.308C404.272 557.874 404.167 558.486 404.167 559.142C404.167 559.798 404.272 560.408 404.48 560.97C404.689 561.533 405.011 561.987 405.446 562.332C405.88 562.677 406.434 562.849 407.108 562.849ZM422.885 567.886C422.156 567.886 421.53 567.793 421.006 567.605C420.481 567.422 420.045 567.179 419.695 566.876C419.35 566.578 419.075 566.259 418.871 565.918L420.072 565.074C420.209 565.253 420.381 565.457 420.59 565.688C420.799 565.922 421.084 566.124 421.447 566.295C421.813 566.469 422.292 566.557 422.885 566.557C423.677 566.557 424.331 566.365 424.847 565.982C425.363 565.598 425.621 564.997 425.621 564.179V562.185H425.493C425.382 562.364 425.224 562.585 425.02 562.849C424.819 563.109 424.53 563.342 424.15 563.546C423.775 563.746 423.268 563.847 422.629 563.847C421.836 563.847 421.125 563.659 420.494 563.284C419.868 562.909 419.371 562.364 419.005 561.648C418.643 560.932 418.461 560.062 418.461 559.04C418.461 558.034 418.638 557.158 418.992 556.413C419.346 555.663 419.838 555.083 420.469 554.674C421.099 554.261 421.828 554.054 422.655 554.054C423.294 554.054 423.801 554.161 424.176 554.374C424.555 554.582 424.845 554.821 425.045 555.089C425.25 555.354 425.407 555.571 425.518 555.741H425.672V554.182H427.129V564.281C427.129 565.125 426.937 565.811 426.554 566.339C426.175 566.872 425.663 567.262 425.02 567.509C424.381 567.761 423.669 567.886 422.885 567.886ZM422.834 562.491C423.439 562.491 423.95 562.353 424.368 562.076C424.785 561.799 425.103 561.401 425.32 560.881C425.537 560.361 425.646 559.739 425.646 559.014C425.646 558.307 425.54 557.683 425.327 557.141C425.113 556.6 424.798 556.176 424.381 555.869C423.963 555.562 423.447 555.409 422.834 555.409C422.194 555.409 421.662 555.571 421.236 555.895C420.814 556.219 420.496 556.653 420.283 557.199C420.074 557.744 419.97 558.349 419.97 559.014C419.97 559.696 420.077 560.299 420.29 560.823C420.507 561.343 420.827 561.752 421.248 562.05C421.675 562.344 422.203 562.491 422.834 562.491ZM433.879 564.205C432.993 564.205 432.215 563.994 431.546 563.572C430.881 563.15 430.361 562.56 429.986 561.801C429.616 561.043 429.43 560.156 429.43 559.142C429.43 558.119 429.616 557.227 429.986 556.464C430.361 555.701 430.881 555.109 431.546 554.687C432.215 554.265 432.993 554.054 433.879 554.054C434.765 554.054 435.541 554.265 436.206 554.687C436.875 555.109 437.395 555.701 437.765 556.464C438.14 557.227 438.328 558.119 438.328 559.142C438.328 560.156 438.14 561.043 437.765 561.801C437.395 562.56 436.875 563.15 436.206 563.572C435.541 563.994 434.765 564.205 433.879 564.205ZM433.879 562.849C434.552 562.849 435.106 562.677 435.541 562.332C435.976 561.987 436.297 561.533 436.506 560.97C436.715 560.408 436.819 559.798 436.819 559.142C436.819 558.486 436.715 557.874 436.506 557.308C436.297 556.741 435.976 556.283 435.541 555.933C435.106 555.584 434.552 555.409 433.879 555.409C433.206 555.409 432.652 555.584 432.217 555.933C431.782 556.283 431.461 556.741 431.252 557.308C431.043 557.874 430.939 558.486 430.939 559.142C430.939 559.798 431.043 560.408 431.252 560.97C431.461 561.533 431.782 561.987 432.217 562.332C432.652 562.677 433.206 562.849 433.879 562.849ZM10.6506 576.182V577.46H5.5625V576.182H10.6506ZM7.04545 573.83H8.55398V583.188C8.55398 583.614 8.61577 583.933 8.73935 584.146C8.86719 584.355 9.02912 584.496 9.22514 584.568C9.42543 584.636 9.63636 584.67 9.85795 584.67C10.0241 584.67 10.1605 584.662 10.267 584.645C10.3736 584.624 10.4588 584.607 10.5227 584.594L10.8295 585.949C10.7273 585.987 10.5845 586.026 10.4013 586.064C10.218 586.107 9.9858 586.128 9.70455 586.128C9.27841 586.128 8.8608 586.036 8.4517 585.853C8.04688 585.67 7.71023 585.391 7.44176 585.016C7.17756 584.641 7.04545 584.168 7.04545 583.597V573.83ZM14.6392 580.094V586H13.1307V572.909H14.6392V577.716H14.767C14.9972 577.209 15.3423 576.806 15.8026 576.508C16.267 576.205 16.8849 576.054 17.6562 576.054C18.3253 576.054 18.9112 576.188 19.4141 576.457C19.9169 576.721 20.3068 577.128 20.5838 577.678C20.8651 578.223 21.0057 578.918 21.0057 579.761V586H19.4972V579.864C19.4972 579.084 19.2947 578.481 18.8899 578.055C18.4893 577.624 17.9332 577.409 17.2216 577.409C16.7273 577.409 16.2841 577.513 15.892 577.722C15.5043 577.931 15.1974 578.236 14.9716 578.636C14.75 579.037 14.6392 579.523 14.6392 580.094ZM23.7654 586V576.182H25.2228V577.665H25.3251C25.5041 577.179 25.8279 576.785 26.2967 576.482C26.7654 576.18 27.2939 576.028 27.8819 576.028C27.9927 576.028 28.1312 576.031 28.2974 576.035C28.4636 576.039 28.5893 576.045 28.6745 576.054V577.588C28.6234 577.575 28.5062 577.556 28.323 577.531C28.144 577.501 27.9544 577.486 27.7541 577.486C27.2768 577.486 26.8507 577.586 26.4757 577.786C26.1049 577.982 25.8109 578.255 25.5936 578.604C25.3805 578.95 25.274 579.344 25.274 579.787V586H23.7654ZM34.127 589.886C33.3983 589.886 32.7718 589.793 32.2477 589.605C31.7235 589.422 31.2868 589.179 30.9373 588.876C30.5922 588.578 30.3173 588.259 30.1127 587.918L31.3145 587.074C31.4508 587.253 31.6234 587.457 31.8322 587.688C32.041 587.922 32.3265 588.124 32.6887 588.295C33.0552 588.469 33.5346 588.557 34.127 588.557C34.9196 588.557 35.5737 588.365 36.0893 587.982C36.6049 587.598 36.8627 586.997 36.8627 586.179V584.185H36.7349C36.6241 584.364 36.4664 584.585 36.2619 584.849C36.0616 585.109 35.7718 585.342 35.3926 585.546C35.0176 585.746 34.5105 585.847 33.8713 585.847C33.0787 585.847 32.367 585.659 31.7363 585.284C31.1099 584.909 30.6135 584.364 30.247 583.648C29.8848 582.932 29.7037 582.062 29.7037 581.04C29.7037 580.034 29.8805 579.158 30.2342 578.413C30.5879 577.663 31.0801 577.083 31.7108 576.674C32.3414 576.261 33.0701 576.054 33.8968 576.054C34.536 576.054 35.0431 576.161 35.4181 576.374C35.7974 576.582 36.0872 576.821 36.2875 577.089C36.492 577.354 36.6497 577.571 36.7605 577.741H36.9139V576.182H38.3713V586.281C38.3713 587.125 38.1795 587.811 37.796 588.339C37.4167 588.872 36.9054 589.262 36.2619 589.509C35.6227 589.761 34.911 589.886 34.127 589.886ZM34.0758 584.491C34.6809 584.491 35.1923 584.353 35.6099 584.076C36.0275 583.799 36.345 583.401 36.5623 582.881C36.7797 582.361 36.8883 581.739 36.8883 581.014C36.8883 580.307 36.7818 579.683 36.5687 579.141C36.3556 578.6 36.0403 578.176 35.6227 577.869C35.2051 577.562 34.6895 577.409 34.0758 577.409C33.4366 577.409 32.9039 577.571 32.4778 577.895C32.0559 578.219 31.7385 578.653 31.5254 579.199C31.3166 579.744 31.2122 580.349 31.2122 581.014C31.2122 581.696 31.3187 582.299 31.5318 582.823C31.7491 583.343 32.0687 583.752 32.4906 584.05C32.9167 584.344 33.4451 584.491 34.0758 584.491ZM45.1213 586.205C44.2349 586.205 43.4572 585.994 42.7882 585.572C42.1234 585.15 41.6035 584.56 41.2285 583.801C40.8578 583.043 40.6724 582.156 40.6724 581.142C40.6724 580.119 40.8578 579.227 41.2285 578.464C41.6035 577.701 42.1234 577.109 42.7882 576.687C43.4572 576.265 44.2349 576.054 45.1213 576.054C46.0076 576.054 46.7832 576.265 47.448 576.687C48.117 577.109 48.6369 577.701 49.0076 578.464C49.3826 579.227 49.5701 580.119 49.5701 581.142C49.5701 582.156 49.3826 583.043 49.0076 583.801C48.6369 584.56 48.117 585.15 47.448 585.572C46.7832 585.994 46.0076 586.205 45.1213 586.205ZM45.1213 584.849C45.7946 584.849 46.3485 584.677 46.7832 584.332C47.2179 583.987 47.5396 583.533 47.7484 582.97C47.9572 582.408 48.0616 581.798 48.0616 581.142C48.0616 580.486 47.9572 579.874 47.7484 579.308C47.5396 578.741 47.2179 578.283 46.7832 577.933C46.3485 577.584 45.7946 577.409 45.1213 577.409C44.448 577.409 43.894 577.584 43.4593 577.933C43.0247 578.283 42.7029 578.741 42.4941 579.308C42.2853 579.874 42.1809 580.486 42.1809 581.142C42.1809 581.798 42.2853 582.408 42.4941 582.97C42.7029 583.533 43.0247 583.987 43.4593 584.332C43.894 584.677 44.448 584.849 45.1213 584.849ZM58.0604 581.986V576.182H59.5689V586H58.0604V584.338H57.9581C57.728 584.837 57.37 585.261 56.8842 585.61C56.3984 585.955 55.7848 586.128 55.0433 586.128C54.4297 586.128 53.8842 585.994 53.407 585.725C52.9297 585.452 52.5547 585.043 52.282 584.498C52.0092 583.948 51.8729 583.256 51.8729 582.42V576.182H53.3814V582.318C53.3814 583.034 53.5817 583.605 53.9822 584.031C54.3871 584.457 54.9027 584.67 55.5291 584.67C55.9041 584.67 56.2855 584.575 56.6733 584.383C57.0653 584.191 57.3935 583.897 57.6577 583.501C57.9261 583.104 58.0604 582.599 58.0604 581.986ZM63.8404 580.094V586H62.3319V572.909H63.8404V577.716H63.9682C64.1983 577.209 64.5435 576.806 65.0037 576.508C65.4682 576.205 66.0861 576.054 66.8574 576.054C67.5265 576.054 68.1124 576.188 68.6152 576.457C69.1181 576.721 69.508 577.128 69.785 577.678C70.0662 578.223 70.2069 578.918 70.2069 579.761V586H68.6983V579.864C68.6983 579.084 68.4959 578.481 68.0911 578.055C67.6905 577.624 67.1344 577.409 66.4228 577.409C65.9284 577.409 65.4853 577.513 65.0932 577.722C64.7054 577.931 64.3986 578.236 64.1728 578.636C63.9512 579.037 63.8404 579.523 63.8404 580.094ZM80.2536 586L77.2621 576.182H78.8473L80.9695 583.699H81.0717L83.1683 576.182H84.7791L86.8501 583.673H86.9524L89.0746 576.182H90.6598L87.6683 586H86.1854L84.0376 578.457H83.8842L81.7365 586H80.2536ZM92.6541 586V576.182H94.1626V586H92.6541ZM93.4212 574.545C93.1271 574.545 92.8736 574.445 92.6605 574.245C92.4517 574.045 92.3473 573.804 92.3473 573.523C92.3473 573.241 92.4517 573.001 92.6605 572.8C92.8736 572.6 93.1271 572.5 93.4212 572.5C93.7152 572.5 93.9666 572.6 94.1754 572.8C94.3885 573.001 94.495 573.241 94.495 573.523C94.495 573.804 94.3885 574.045 94.1754 574.245C93.9666 574.445 93.7152 574.545 93.4212 574.545ZM101.195 576.182V577.46H96.1074V576.182H101.195ZM97.5904 573.83H99.0989V583.188C99.0989 583.614 99.1607 583.933 99.2843 584.146C99.4121 584.355 99.574 584.496 99.7701 584.568C99.9703 584.636 100.181 584.67 100.403 584.67C100.569 584.67 100.705 584.662 100.812 584.645C100.919 584.624 101.004 584.607 101.068 584.594L101.374 585.949C101.272 585.987 101.129 586.026 100.946 586.064C100.763 586.107 100.531 586.128 100.249 586.128C99.8233 586.128 99.4057 586.036 98.9966 585.853C98.5918 585.67 98.2551 585.391 97.9867 585.016C97.7225 584.641 97.5904 584.168 97.5904 583.597V573.83ZM105.184 580.094V586H103.676V572.909H105.184V577.716H105.312C105.542 577.209 105.887 576.806 106.347 576.508C106.812 576.205 107.43 576.054 108.201 576.054C108.87 576.054 109.456 576.188 109.959 576.457C110.462 576.721 110.852 577.128 111.129 577.678C111.41 578.223 111.551 578.918 111.551 579.761V586H110.042V579.864C110.042 579.084 109.84 578.481 109.435 578.055C109.034 577.624 108.478 577.409 107.767 577.409C107.272 577.409 106.829 577.513 106.437 577.722C106.049 577.931 105.742 578.236 105.517 578.636C105.295 579.037 105.184 579.523 105.184 580.094ZM123.643 576.182V577.46H118.555V576.182H123.643ZM120.038 573.83H121.546V583.188C121.546 583.614 121.608 583.933 121.732 584.146C121.859 584.355 122.021 584.496 122.217 584.568C122.418 584.636 122.629 584.67 122.85 584.67C123.016 584.67 123.153 584.662 123.259 584.645C123.366 584.624 123.451 584.607 123.515 584.594L123.822 585.949C123.719 585.987 123.577 586.026 123.393 586.064C123.21 586.107 122.978 586.128 122.697 586.128C122.271 586.128 121.853 586.036 121.444 585.853C121.039 585.67 120.702 585.391 120.434 585.016C120.17 584.641 120.038 584.168 120.038 583.597V573.83ZM127.631 580.094V586H126.123V572.909H127.631V577.716H127.759C127.989 577.209 128.335 576.806 128.795 576.508C129.259 576.205 129.877 576.054 130.648 576.054C131.317 576.054 131.903 576.188 132.406 576.457C132.909 576.721 133.299 577.128 133.576 577.678C133.857 578.223 133.998 578.918 133.998 579.761V586H132.489V579.864C132.489 579.084 132.287 578.481 131.882 578.055C131.482 577.624 130.925 577.409 130.214 577.409C129.719 577.409 129.276 577.513 128.884 577.722C128.496 577.931 128.19 578.236 127.964 578.636C127.742 579.037 127.631 579.523 127.631 580.094ZM140.874 586.205C139.928 586.205 139.112 585.996 138.426 585.578C137.744 585.156 137.218 584.568 136.847 583.814C136.481 583.055 136.297 582.173 136.297 581.168C136.297 580.162 136.481 579.276 136.847 578.509C137.218 577.737 137.733 577.136 138.394 576.706C139.059 576.271 139.834 576.054 140.721 576.054C141.232 576.054 141.737 576.139 142.236 576.31C142.734 576.48 143.188 576.757 143.597 577.141C144.006 577.52 144.332 578.023 144.575 578.649C144.818 579.276 144.939 580.047 144.939 580.963V581.602H137.371V580.298H143.405C143.405 579.744 143.295 579.25 143.073 578.815C142.856 578.381 142.545 578.038 142.14 577.786C141.739 577.535 141.266 577.409 140.721 577.409C140.12 577.409 139.6 577.558 139.161 577.857C138.726 578.151 138.392 578.534 138.157 579.007C137.923 579.48 137.806 579.987 137.806 580.528V581.398C137.806 582.139 137.934 582.768 138.189 583.283C138.449 583.795 138.809 584.185 139.27 584.453C139.73 584.717 140.265 584.849 140.874 584.849C141.27 584.849 141.628 584.794 141.948 584.683C142.272 584.568 142.551 584.398 142.785 584.172C143.02 583.942 143.201 583.656 143.329 583.315L144.786 583.724C144.633 584.219 144.375 584.653 144.013 585.028C143.65 585.399 143.203 585.689 142.67 585.898C142.138 586.102 141.539 586.205 140.874 586.205ZM152.501 586V572.909H154.01V577.741H154.138C154.248 577.571 154.402 577.354 154.598 577.089C154.798 576.821 155.084 576.582 155.454 576.374C155.829 576.161 156.336 576.054 156.976 576.054C157.802 576.054 158.531 576.261 159.162 576.674C159.792 577.087 160.285 577.673 160.638 578.432C160.992 579.19 161.169 580.085 161.169 581.116C161.169 582.156 160.992 583.058 160.638 583.82C160.285 584.579 159.795 585.167 159.168 585.585C158.542 585.998 157.819 586.205 157.001 586.205C156.371 586.205 155.866 586.1 155.486 585.891C155.107 585.678 154.815 585.437 154.611 585.169C154.406 584.896 154.248 584.67 154.138 584.491H153.959V586H152.501ZM153.984 581.091C153.984 581.832 154.093 582.487 154.31 583.053C154.528 583.616 154.845 584.057 155.263 584.376C155.68 584.692 156.192 584.849 156.797 584.849C157.427 584.849 157.954 584.683 158.376 584.351C158.802 584.014 159.121 583.562 159.334 582.996C159.552 582.425 159.66 581.79 159.66 581.091C159.66 580.401 159.554 579.778 159.341 579.224C159.132 578.666 158.814 578.225 158.388 577.901C157.966 577.573 157.436 577.409 156.797 577.409C156.183 577.409 155.667 577.565 155.25 577.876C154.832 578.183 154.517 578.613 154.304 579.167C154.091 579.717 153.984 580.358 153.984 581.091ZM164.985 572.909V586H163.476V572.909H164.985ZM167.748 586V576.182H169.256V586H167.748ZM168.515 574.545C168.221 574.545 167.967 574.445 167.754 574.245C167.545 574.045 167.441 573.804 167.441 573.523C167.441 573.241 167.545 573.001 167.754 572.8C167.967 572.6 168.221 572.5 168.515 572.5C168.809 572.5 169.06 572.6 169.269 572.8C169.482 573.001 169.589 573.241 169.589 573.523C169.589 573.804 169.482 574.045 169.269 574.245C169.06 574.445 168.809 574.545 168.515 574.545ZM173.528 580.094V586H172.019V576.182H173.477V577.716H173.605C173.835 577.217 174.184 576.817 174.653 576.514C175.122 576.207 175.727 576.054 176.468 576.054C177.133 576.054 177.715 576.19 178.213 576.463C178.712 576.732 179.1 577.141 179.377 577.69C179.654 578.236 179.792 578.926 179.792 579.761V586H178.284V579.864C178.284 579.092 178.083 578.491 177.683 578.061C177.282 577.626 176.732 577.409 176.034 577.409C175.552 577.409 175.122 577.513 174.742 577.722C174.367 577.931 174.071 578.236 173.854 578.636C173.637 579.037 173.528 579.523 173.528 580.094ZM186.256 586.205C185.438 586.205 184.716 585.998 184.089 585.585C183.463 585.167 182.973 584.579 182.619 583.82C182.265 583.058 182.088 582.156 182.088 581.116C182.088 580.085 182.265 579.19 182.619 578.432C182.973 577.673 183.465 577.087 184.096 576.674C184.726 576.261 185.455 576.054 186.282 576.054C186.921 576.054 187.426 576.161 187.797 576.374C188.172 576.582 188.457 576.821 188.653 577.089C188.853 577.354 189.009 577.571 189.12 577.741H189.248V572.909H190.756V586H189.299V584.491H189.12C189.009 584.67 188.851 584.896 188.647 585.169C188.442 585.437 188.15 585.678 187.771 585.891C187.392 586.1 186.887 586.205 186.256 586.205ZM186.461 584.849C187.066 584.849 187.577 584.692 187.995 584.376C188.412 584.057 188.73 583.616 188.947 583.053C189.164 582.487 189.273 581.832 189.273 581.091C189.273 580.358 189.167 579.717 188.953 579.167C188.74 578.613 188.425 578.183 188.007 577.876C187.59 577.565 187.074 577.409 186.461 577.409C185.821 577.409 185.289 577.573 184.863 577.901C184.441 578.225 184.123 578.666 183.91 579.224C183.701 579.778 183.597 580.401 183.597 581.091C183.597 581.79 183.703 582.425 183.917 582.996C184.134 583.562 184.453 584.014 184.875 584.351C185.301 584.683 185.83 584.849 186.461 584.849ZM200.683 578.381L199.328 578.764C199.243 578.538 199.117 578.319 198.951 578.106C198.789 577.888 198.567 577.71 198.286 577.569C198.005 577.428 197.645 577.358 197.206 577.358C196.605 577.358 196.104 577.496 195.703 577.773C195.307 578.046 195.109 578.393 195.109 578.815C195.109 579.19 195.245 579.487 195.518 579.704C195.791 579.921 196.217 580.102 196.797 580.247L198.254 580.605C199.132 580.818 199.786 581.144 200.216 581.583C200.647 582.018 200.862 582.578 200.862 583.264C200.862 583.827 200.7 584.33 200.376 584.773C200.056 585.216 199.609 585.565 199.034 585.821C198.458 586.077 197.789 586.205 197.027 586.205C196.025 586.205 195.196 585.987 194.54 585.553C193.884 585.118 193.468 584.483 193.294 583.648L194.725 583.29C194.862 583.818 195.12 584.214 195.499 584.479C195.882 584.743 196.383 584.875 197.001 584.875C197.704 584.875 198.262 584.726 198.676 584.428C199.093 584.125 199.302 583.763 199.302 583.341C199.302 583 199.183 582.714 198.944 582.484C198.706 582.25 198.339 582.075 197.845 581.96L196.208 581.577C195.309 581.364 194.649 581.033 194.227 580.586C193.809 580.134 193.6 579.57 193.6 578.892C193.6 578.338 193.756 577.848 194.067 577.422C194.382 576.996 194.811 576.661 195.352 576.418C195.897 576.175 196.515 576.054 197.206 576.054C198.177 576.054 198.94 576.267 199.494 576.693C200.052 577.119 200.449 577.682 200.683 578.381ZM204.232 586.102C203.917 586.102 203.646 585.989 203.42 585.763C203.194 585.538 203.081 585.267 203.081 584.952C203.081 584.636 203.194 584.366 203.42 584.14C203.646 583.914 203.917 583.801 204.232 583.801C204.547 583.801 204.818 583.914 205.044 584.14C205.27 584.366 205.383 584.636 205.383 584.952C205.383 585.161 205.329 585.352 205.223 585.527C205.121 585.702 204.982 585.842 204.807 585.949C204.637 586.051 204.445 586.102 204.232 586.102Z" fill="black"/>
<circle cx="417" cy="250" r="46" stroke="black" stroke-width="8"/>
<path d="M416 300V384" stroke="black" stroke-width="8"/>
<path d="M415 340.5C388.106 354.229 372.217 359.747 356.5 403.5" stroke="black" stroke-width="8"/>
<path d="M416 340C442.894 353.729 458.783 359.247 474.5 403" stroke="black" stroke-width="8"/>
<path d="M346.5 329.5H440L452.475 402.5H475.5L453.5 408.5H360L346.5 329.5Z" fill="#3F88C5"/>
<path d="M453.5 408.5H360L346.5 329.5H440L452.475 402.5M453.5 408.5L475.5 402.5H452.475M453.5 408.5L452.475 402.5" stroke="black" stroke-width="8"/>
<path d="M414.105 258.511C414.189 259.269 416.024 259.74 416.617 259.859C417.334 260.002 418.061 260.027 418.792 260.027" stroke="black" stroke-width="3" stroke-linecap="round"/>
<path d="M369 465L369 521" stroke="black" stroke-width="8"/>
<path d="M433 465L433 521" stroke="black" stroke-width="8"/>
<path d="M337 470H464" stroke="black" stroke-width="8"/>
<path d="M460.5 470.5L474 462.5" stroke="black" stroke-width="8"/>
<path d="M340 469.5L344.5 462" stroke="black" stroke-width="8"/>
<path d="M461.5 469V519M471.5 465.5V519" stroke="black" stroke-width="8"/>
<path d="M342 472V521.5" stroke="black" stroke-width="8"/>
<path d="M35 114.5V167.5M198.5 70V329" stroke="black" stroke-width="8"/>
<path d="M390.357 243.828C393.318 243.828 396.147 244.647 399.091 244.647C401.226 244.647 403.251 244.321 405.369 244.086C408.051 243.788 410.743 242.961 413.284 242.054C415.978 241.092 412.614 242.736 411.646 242.736" stroke="black" stroke-width="3" stroke-linecap="round"/>
<path d="M422.837 241.645C426.162 241.645 429.502 241.918 432.799 241.918C436.714 241.918 440.368 241.634 444.247 241.099C445.861 240.876 447.458 240.631 448.978 240.068C450.858 239.372 447.215 239.75 446.855 239.795C443.355 240.232 439.965 241.918 436.484 241.918" stroke="black" stroke-width="3" stroke-linecap="round"/>
<path d="M406.46 277.127C409 277.127 411.899 275.968 414.36 275.353C416.291 274.87 418.18 274.353 420.107 273.912C422.514 273.362 424.72 274.114 426.946 274.67C427.363 274.775 429.059 275.781 427.962 275.429C426.047 274.813 424.269 274.453 422.306 273.988C418.592 273.109 414.91 273.491 411.373 274.67" stroke="black" stroke-width="3" stroke-linecap="round"/>
<path d="M21.5 191.5L211.5 140" stroke="black" stroke-width="8"/>
</g>
<defs>
<clipPath id="clip0_3_174">
<rect width="500" height="600" fill="white"/>
</clipPath>
</defs>
</svg>
