<svg width="500" height="600" viewBox="0 0 500 600" fill="none" xmlns="http://www.w3.org/2000/svg">
<g clip-path="url(#clip0_3_76)">
<rect width="500" height="600" fill="white"/>
<path d="M159.5 438.5L255 412.079L350.5 385.659H503.5M159.5 438.5H212H261.5H503.5M159.5 438.5V461H212M212 522V461M261.5 522V461M503.5 461H261.5M261.5 461H212M21 121V90.8413L116.5 64.4207L212 38V87M21 121L116.5 94.5793L212 68.1587M21 121C21 127.23 21 133.312 21 139.262M21 154.841L116.5 128.421L212 102M21 165.683L116.5 139.262L212 112.841M21 176.841L116.5 150.421L212 124M21 188.841L116.5 162.421L212 136M21 139.262C21 243.728 21 307.634 21 417L116.5 390.579L212 364.159V87M21 139.262L212 87" stroke="black" stroke-width="8"/>
<path d="M11.4205 540H6.2642V525.455H11.4631C12.9261 525.455 14.1856 525.746 15.2415 526.328C16.2973 526.906 17.1094 527.737 17.6776 528.821C18.2505 529.905 18.5369 531.203 18.5369 532.713C18.5369 534.228 18.2505 535.53 17.6776 536.619C17.1094 537.708 16.2926 538.544 15.2273 539.126C14.1667 539.709 12.8977 540 11.4205 540ZM9.33949 537.365H11.2926C12.2017 537.365 12.9664 537.204 13.5866 536.882C14.2116 536.555 14.6804 536.051 14.9929 535.369C15.3101 534.683 15.4688 533.797 15.4688 532.713C15.4688 531.638 15.3101 530.76 14.9929 530.078C14.6804 529.396 14.214 528.894 13.5938 528.572C12.9735 528.25 12.2088 528.089 11.2997 528.089H9.33949V537.365ZM25.7298 540.213C24.6076 540.213 23.6417 539.986 22.832 539.531C22.0271 539.072 21.4068 538.423 20.9712 537.585C20.5356 536.742 20.3178 535.746 20.3178 534.595C20.3178 533.473 20.5356 532.488 20.9712 531.641C21.4068 530.793 22.02 530.133 22.8107 529.659C23.6062 529.186 24.5389 528.949 25.609 528.949C26.3287 528.949 26.9987 529.065 27.619 529.297C28.244 529.524 28.7885 529.867 29.2525 530.327C29.7212 530.786 30.0858 531.364 30.3462 532.06C30.6067 532.751 30.7369 533.561 30.7369 534.489V535.32H21.5252V533.445H27.8888C27.8888 533.009 27.7942 532.623 27.6048 532.287C27.4154 531.951 27.1526 531.688 26.8164 531.499C26.485 531.304 26.0991 531.207 25.6587 531.207C25.1995 531.207 24.7923 531.314 24.4371 531.527C24.0868 531.735 23.8121 532.017 23.6133 532.372C23.4144 532.723 23.3126 533.113 23.3079 533.544V535.327C23.3079 535.866 23.4073 536.333 23.6062 536.726C23.8098 537.119 24.0962 537.422 24.4656 537.635C24.8349 537.848 25.2728 537.955 25.7795 537.955C26.1156 537.955 26.4234 537.907 26.7028 537.812C26.9821 537.718 27.2212 537.576 27.4201 537.386C27.619 537.197 27.7705 536.965 27.8746 536.69L30.6729 536.875C30.5309 537.547 30.2397 538.134 29.7994 538.636C29.3638 539.134 28.8003 539.522 28.109 539.801C27.4225 540.076 26.6294 540.213 25.7298 540.213ZM35.7369 533.693V540H32.7113V529.091H35.5948V531.016H35.7227C35.9641 530.381 36.369 529.879 36.9371 529.51C37.5053 529.136 38.1942 528.949 39.0039 528.949C39.7615 528.949 40.422 529.115 40.9854 529.446C41.5489 529.777 41.9869 530.251 42.2994 530.866C42.6119 531.477 42.7681 532.206 42.7681 533.054V540H39.7425V533.594C39.7473 532.926 39.5768 532.405 39.2312 532.031C38.8855 531.652 38.4097 531.463 37.8036 531.463C37.3964 531.463 37.0366 531.551 36.7241 531.726C36.4163 531.901 36.1748 532.157 35.9996 532.493C35.8292 532.824 35.7416 533.224 35.7369 533.693ZM45.1527 540V529.091H48.1783V540H45.1527ZM46.6726 527.685C46.2228 527.685 45.8369 527.536 45.5149 527.237C45.1977 526.934 45.0391 526.572 45.0391 526.151C45.0391 525.734 45.1977 525.376 45.5149 525.078C45.8369 524.775 46.2228 524.624 46.6726 524.624C47.1224 524.624 47.5059 524.775 47.8232 525.078C48.1451 525.376 48.3061 525.734 48.3061 526.151C48.3061 526.572 48.1451 526.934 47.8232 527.237C47.5059 527.536 47.1224 527.685 46.6726 527.685ZM55.5309 540.213C54.4135 540.213 53.4523 539.976 52.6474 539.503C51.8472 539.025 51.2317 538.362 50.8008 537.514C50.3746 536.667 50.1616 535.691 50.1616 534.588C50.1616 533.471 50.377 532.491 50.8079 531.648C51.2435 530.8 51.8614 530.14 52.6616 529.666C53.4618 529.188 54.4135 528.949 55.5167 528.949C56.4684 528.949 57.3017 529.122 58.0167 529.467C58.7317 529.813 59.2975 530.298 59.7141 530.923C60.1308 531.548 60.3604 532.282 60.4031 533.125H57.5479C57.4674 532.58 57.2544 532.143 56.9087 531.811C56.5678 531.475 56.1204 531.307 55.5664 531.307C55.0977 531.307 54.6881 531.435 54.3377 531.69C53.9921 531.941 53.7222 532.308 53.5281 532.791C53.3339 533.274 53.2369 533.859 53.2369 534.545C53.2369 535.241 53.3316 535.833 53.521 536.321C53.7151 536.809 53.9873 537.18 54.3377 537.436C54.6881 537.692 55.0977 537.82 55.5664 537.82C55.9121 537.82 56.2222 537.749 56.4968 537.607C56.7762 537.464 57.0058 537.259 57.1857 536.989C57.3704 536.714 57.4911 536.385 57.5479 536.001H60.4031C60.3557 536.835 60.1284 537.569 59.7212 538.203C59.3188 538.833 58.7624 539.325 58.0522 539.68C57.342 540.036 56.5015 540.213 55.5309 540.213ZM67.3118 540.213C66.1896 540.213 65.2237 539.986 64.4141 539.531C63.6091 539.072 62.9889 538.423 62.5533 537.585C62.1177 536.742 61.8999 535.746 61.8999 534.595C61.8999 533.473 62.1177 532.488 62.5533 531.641C62.9889 530.793 63.602 530.133 64.3928 529.659C65.1882 529.186 66.121 528.949 67.1911 528.949C67.9107 528.949 68.5807 529.065 69.201 529.297C69.826 529.524 70.3705 529.867 70.8345 530.327C71.3033 530.786 71.6679 531.364 71.9283 532.06C72.1887 532.751 72.3189 533.561 72.3189 534.489V535.32H63.1072V533.445H69.4709C69.4709 533.009 69.3762 532.623 69.1868 532.287C68.9974 531.951 68.7346 531.688 68.3984 531.499C68.067 531.304 67.6811 531.207 67.2408 531.207C66.7815 531.207 66.3743 531.314 66.0192 531.527C65.6688 531.735 65.3942 532.017 65.1953 532.372C64.9964 532.723 64.8946 533.113 64.8899 533.544V535.327C64.8899 535.866 64.9893 536.333 65.1882 536.726C65.3918 537.119 65.6783 537.422 66.0476 537.635C66.4169 537.848 66.8549 537.955 67.3615 537.955C67.6977 537.955 68.0054 537.907 68.2848 537.812C68.5642 537.718 68.8033 537.576 69.0021 537.386C69.201 537.197 69.3525 536.965 69.4567 536.69L72.255 536.875C72.1129 537.547 71.8217 538.134 71.3814 538.636C70.9458 539.134 70.3823 539.522 69.6911 539.801C69.0045 540.076 68.2114 540.213 67.3118 540.213ZM86.9762 531.534L85.4705 531.96C85.3758 531.709 85.2362 531.465 85.0515 531.229C84.8716 530.987 84.6254 530.788 84.3129 530.632C84.0004 530.476 83.6003 530.398 83.1126 530.398C82.445 530.398 81.8886 530.552 81.4435 530.859C81.0032 531.162 80.783 531.548 80.783 532.017C80.783 532.434 80.9345 532.763 81.2376 533.004C81.5406 533.246 82.0141 533.447 82.658 533.608L84.2773 534.006C85.2527 534.242 85.9795 534.605 86.4577 535.092C86.936 535.575 87.1751 536.198 87.1751 536.96C87.1751 537.585 86.9951 538.144 86.6353 538.636C86.2802 539.129 85.783 539.517 85.1438 539.801C84.5046 540.085 83.7612 540.227 82.9137 540.227C81.801 540.227 80.8801 539.986 80.1509 539.503C79.4218 539.02 78.9601 538.314 78.766 537.386L80.3569 536.989C80.5084 537.576 80.7949 538.016 81.2163 538.31C81.6424 538.603 82.1987 538.75 82.8853 538.75C83.6665 538.75 84.2868 538.584 84.7461 538.253C85.2101 537.917 85.4421 537.514 85.4421 537.045C85.4421 536.667 85.3095 536.349 85.0444 536.094C84.7792 535.833 84.372 535.639 83.8228 535.511L82.0046 535.085C81.0056 534.848 80.2717 534.482 79.8029 533.984C79.3389 533.482 79.1069 532.855 79.1069 532.102C79.1069 531.487 79.2797 530.942 79.6254 530.469C79.9757 529.995 80.4516 529.624 81.0529 529.354C81.659 529.084 82.3455 528.949 83.1126 528.949C84.1921 528.949 85.0397 529.186 85.6552 529.659C86.2754 530.133 86.7158 530.758 86.9762 531.534ZM94.4425 529.091V530.511H88.7891V529.091H94.4425ZM90.4368 526.477H92.1129V536.875C92.1129 537.348 92.1816 537.704 92.3189 537.94C92.4609 538.172 92.6409 538.329 92.8587 538.409C93.0812 538.485 93.3156 538.523 93.5618 538.523C93.7464 538.523 93.898 538.513 94.0163 538.494C94.1347 538.471 94.2294 538.452 94.3004 538.438L94.6413 539.943C94.5277 539.986 94.3691 540.028 94.1655 540.071C93.9619 540.118 93.7038 540.142 93.3913 540.142C92.9179 540.142 92.4538 540.04 91.9993 539.837C91.5495 539.633 91.1754 539.323 90.8771 538.906C90.5836 538.49 90.4368 537.964 90.4368 537.33V526.477ZM96.9638 540V529.091H98.5831V530.739H98.6967C98.8956 530.199 99.2554 529.761 99.7763 529.425C100.297 529.089 100.884 528.92 101.538 528.92C101.661 528.92 101.815 528.923 101.999 528.928C102.184 528.932 102.324 528.939 102.418 528.949V530.653C102.362 530.639 102.231 530.618 102.028 530.589C101.829 530.556 101.618 530.54 101.396 530.54C100.865 530.54 100.392 530.651 99.9751 530.874C99.5632 531.091 99.2365 531.394 98.995 531.783C98.7583 532.166 98.6399 532.604 98.6399 533.097V540H96.9638ZM111.28 535.54V529.091H112.956V540H111.28V538.153H111.167C110.911 538.707 110.513 539.179 109.973 539.567C109.434 539.95 108.752 540.142 107.928 540.142C107.246 540.142 106.64 539.993 106.11 539.695C105.579 539.392 105.163 538.937 104.86 538.331C104.557 537.72 104.405 536.951 104.405 536.023V529.091H106.081V535.909C106.081 536.705 106.304 537.339 106.749 537.812C107.199 538.286 107.772 538.523 108.468 538.523C108.884 538.523 109.308 538.416 109.739 538.203C110.175 537.99 110.539 537.663 110.833 537.223C111.131 536.783 111.28 536.222 111.28 535.54ZM120.43 544.318C119.62 544.318 118.924 544.214 118.342 544.006C117.759 543.802 117.274 543.532 116.886 543.196C116.502 542.865 116.197 542.509 115.969 542.131L117.305 541.193C117.456 541.392 117.648 541.619 117.88 541.875C118.112 542.135 118.429 542.36 118.832 542.55C119.239 542.744 119.772 542.841 120.43 542.841C121.31 542.841 122.037 542.628 122.61 542.202C123.183 541.776 123.469 541.108 123.469 540.199V537.983H123.327C123.204 538.182 123.029 538.428 122.802 538.722C122.579 539.01 122.257 539.268 121.836 539.496C121.419 539.718 120.856 539.83 120.146 539.83C119.265 539.83 118.474 539.621 117.773 539.205C117.077 538.788 116.526 538.182 116.119 537.386C115.716 536.591 115.515 535.625 115.515 534.489C115.515 533.371 115.711 532.398 116.104 531.57C116.497 530.736 117.044 530.092 117.745 529.638C118.446 529.179 119.255 528.949 120.174 528.949C120.884 528.949 121.448 529.067 121.864 529.304C122.286 529.536 122.608 529.801 122.83 530.099C123.058 530.393 123.233 530.634 123.356 530.824H123.526V529.091H125.146V540.312C125.146 541.25 124.933 542.012 124.506 542.599C124.085 543.191 123.517 543.625 122.802 543.899C122.092 544.179 121.301 544.318 120.43 544.318ZM120.373 538.324C121.045 538.324 121.613 538.17 122.077 537.862C122.541 537.554 122.894 537.112 123.136 536.534C123.377 535.956 123.498 535.265 123.498 534.46C123.498 533.674 123.379 532.981 123.143 532.379C122.906 531.778 122.556 531.307 122.092 530.966C121.628 530.625 121.055 530.455 120.373 530.455C119.663 530.455 119.071 530.634 118.597 530.994C118.129 531.354 117.776 531.837 117.539 532.443C117.307 533.049 117.191 533.722 117.191 534.46C117.191 535.218 117.309 535.888 117.546 536.47C117.788 537.048 118.143 537.502 118.612 537.834C119.085 538.161 119.672 538.324 120.373 538.324ZM132.617 544.318C131.808 544.318 131.112 544.214 130.529 544.006C129.947 543.802 129.461 543.532 129.073 543.196C128.69 542.865 128.384 542.509 128.157 542.131L129.492 541.193C129.644 541.392 129.835 541.619 130.067 541.875C130.299 542.135 130.617 542.36 131.019 542.55C131.426 542.744 131.959 542.841 132.617 542.841C133.498 542.841 134.225 542.628 134.798 542.202C135.371 541.776 135.657 541.108 135.657 540.199V537.983H135.515C135.392 538.182 135.217 538.428 134.989 538.722C134.767 539.01 134.445 539.268 134.023 539.496C133.607 539.718 133.043 539.83 132.333 539.83C131.452 539.83 130.662 539.621 129.961 539.205C129.265 538.788 128.713 538.182 128.306 537.386C127.904 536.591 127.702 535.625 127.702 534.489C127.702 533.371 127.899 532.398 128.292 531.57C128.685 530.736 129.232 530.092 129.933 529.638C130.633 529.179 131.443 528.949 132.362 528.949C133.072 528.949 133.635 529.067 134.052 529.304C134.473 529.536 134.795 529.801 135.018 530.099C135.245 530.393 135.42 530.634 135.543 530.824H135.714V529.091H137.333V540.312C137.333 541.25 137.12 542.012 136.694 542.599C136.272 543.191 135.704 543.625 134.989 543.899C134.279 544.179 133.488 544.318 132.617 544.318ZM132.56 538.324C133.233 538.324 133.801 538.17 134.265 537.862C134.729 537.554 135.082 537.112 135.323 536.534C135.565 535.956 135.685 535.265 135.685 534.46C135.685 533.674 135.567 532.981 135.33 532.379C135.094 531.778 134.743 531.307 134.279 530.966C133.815 530.625 133.242 530.455 132.56 530.455C131.85 530.455 131.258 530.634 130.785 530.994C130.316 531.354 129.963 531.837 129.727 532.443C129.495 533.049 129.379 533.722 129.379 534.46C129.379 535.218 129.497 535.888 129.734 536.47C129.975 537.048 130.33 537.502 130.799 537.834C131.272 538.161 131.86 538.324 132.56 538.324ZM142.077 525.455V540H140.401V525.455H142.077ZM149.721 540.227C148.67 540.227 147.763 539.995 147.001 539.531C146.243 539.062 145.659 538.409 145.247 537.571C144.84 536.728 144.636 535.748 144.636 534.631C144.636 533.513 144.84 532.528 145.247 531.676C145.659 530.819 146.232 530.152 146.966 529.673C147.704 529.19 148.566 528.949 149.551 528.949C150.119 528.949 150.68 529.044 151.234 529.233C151.788 529.422 152.292 529.73 152.747 530.156C153.201 530.578 153.564 531.136 153.833 531.832C154.103 532.528 154.238 533.385 154.238 534.403V535.114H145.829V533.665H152.534C152.534 533.049 152.411 532.5 152.164 532.017C151.923 531.534 151.577 531.153 151.127 530.874C150.682 530.594 150.157 530.455 149.551 530.455C148.883 530.455 148.306 530.62 147.818 530.952C147.335 531.278 146.963 531.705 146.703 532.23C146.442 532.756 146.312 533.319 146.312 533.92V534.886C146.312 535.71 146.454 536.409 146.738 536.982C147.027 537.55 147.427 537.983 147.939 538.281C148.45 538.575 149.044 538.722 149.721 538.722C150.162 538.722 150.559 538.66 150.914 538.537C151.274 538.409 151.584 538.22 151.845 537.969C152.105 537.713 152.306 537.396 152.449 537.017L154.068 537.472C153.897 538.021 153.611 538.504 153.208 538.92C152.806 539.332 152.309 539.654 151.717 539.886C151.125 540.114 150.46 540.227 149.721 540.227ZM164.515 531.534L163.01 531.96C162.915 531.709 162.775 531.465 162.591 531.229C162.411 530.987 162.164 530.788 161.852 530.632C161.539 530.476 161.139 530.398 160.652 530.398C159.984 530.398 159.428 530.552 158.983 530.859C158.542 531.162 158.322 531.548 158.322 532.017C158.322 532.434 158.474 532.763 158.777 533.004C159.08 533.246 159.553 533.447 160.197 533.608L161.816 534.006C162.792 534.242 163.519 534.605 163.997 535.092C164.475 535.575 164.714 536.198 164.714 536.96C164.714 537.585 164.534 538.144 164.174 538.636C163.819 539.129 163.322 539.517 162.683 539.801C162.044 540.085 161.3 540.227 160.453 540.227C159.34 540.227 158.419 539.986 157.69 539.503C156.961 539.02 156.499 538.314 156.305 537.386L157.896 536.989C158.047 537.576 158.334 538.016 158.755 538.31C159.181 538.603 159.738 538.75 160.424 538.75C161.206 538.75 161.826 538.584 162.285 538.253C162.749 537.917 162.981 537.514 162.981 537.045C162.981 536.667 162.849 536.349 162.583 536.094C162.318 535.833 161.911 535.639 161.362 535.511L159.544 535.085C158.545 534.848 157.811 534.482 157.342 533.984C156.878 533.482 156.646 532.855 156.646 532.102C156.646 531.487 156.819 530.942 157.164 530.469C157.515 529.995 157.991 529.624 158.592 529.354C159.198 529.084 159.885 528.949 160.652 528.949C161.731 528.949 162.579 529.186 163.194 529.659C163.815 530.133 164.255 530.758 164.515 531.534ZM175.334 540L172.01 529.091H173.771L176.129 537.443H176.243L178.572 529.091H180.362L182.663 537.415H182.777L185.135 529.091H186.896L183.572 540H181.925L179.538 531.619H179.368L176.982 540H175.334ZM189.112 540V529.091H190.788V540H189.112ZM189.964 527.273C189.638 527.273 189.356 527.161 189.119 526.939C188.887 526.716 188.771 526.449 188.771 526.136C188.771 525.824 188.887 525.556 189.119 525.334C189.356 525.111 189.638 525 189.964 525C190.291 525 190.571 525.111 190.803 525.334C191.039 525.556 191.158 525.824 191.158 526.136C191.158 526.449 191.039 526.716 190.803 526.939C190.571 527.161 190.291 527.273 189.964 527.273ZM198.603 529.091V530.511H192.949V529.091H198.603ZM194.597 526.477H196.273V536.875C196.273 537.348 196.342 537.704 196.479 537.94C196.621 538.172 196.801 538.329 197.019 538.409C197.241 538.485 197.476 538.523 197.722 538.523C197.907 538.523 198.058 538.513 198.176 538.494C198.295 538.471 198.39 538.452 198.461 538.438L198.801 539.943C198.688 539.986 198.529 540.028 198.326 540.071C198.122 540.118 197.864 540.142 197.551 540.142C197.078 540.142 196.614 540.04 196.159 539.837C195.71 539.633 195.336 539.323 195.037 538.906C194.744 538.49 194.597 537.964 194.597 537.33V526.477ZM203.034 533.438V540H201.358V525.455H203.034V530.795H203.176C203.432 530.232 203.816 529.785 204.327 529.453C204.843 529.117 205.53 528.949 206.387 528.949C207.13 528.949 207.781 529.098 208.34 529.396C208.899 529.69 209.332 530.142 209.64 530.753C209.952 531.359 210.108 532.131 210.108 533.068V540H208.432V533.182C208.432 532.315 208.207 531.645 207.757 531.172C207.312 530.694 206.694 530.455 205.904 530.455C205.355 530.455 204.862 530.571 204.426 530.803C203.996 531.035 203.655 531.373 203.404 531.818C203.158 532.263 203.034 532.803 203.034 533.438ZM218.8 544.091V529.091H220.419V530.824H220.618C220.741 530.634 220.911 530.393 221.129 530.099C221.352 529.801 221.669 529.536 222.081 529.304C222.498 529.067 223.061 528.949 223.771 528.949C224.69 528.949 225.5 529.179 226.2 529.638C226.901 530.097 227.448 530.748 227.841 531.591C228.234 532.434 228.43 533.428 228.43 534.574C228.43 535.729 228.234 536.731 227.841 537.578C227.448 538.421 226.903 539.074 226.207 539.538C225.511 539.998 224.709 540.227 223.8 540.227C223.099 540.227 222.538 540.111 222.116 539.879C221.695 539.643 221.371 539.375 221.143 539.077C220.916 538.774 220.741 538.523 220.618 538.324H220.476V544.091H218.8ZM220.447 534.545C220.447 535.369 220.568 536.096 220.81 536.726C221.051 537.351 221.404 537.841 221.868 538.196C222.332 538.546 222.9 538.722 223.572 538.722C224.273 538.722 224.858 538.537 225.327 538.168C225.8 537.794 226.155 537.292 226.392 536.662C226.634 536.027 226.754 535.322 226.754 534.545C226.754 533.778 226.636 533.087 226.399 532.472C226.167 531.851 225.814 531.361 225.341 531.001C224.872 530.637 224.283 530.455 223.572 530.455C222.891 530.455 222.318 530.627 221.854 530.973C221.39 531.314 221.039 531.792 220.803 532.408C220.566 533.018 220.447 533.731 220.447 534.545ZM237.862 535.54V529.091H239.538V540H237.862V538.153H237.749C237.493 538.707 237.095 539.179 236.555 539.567C236.016 539.95 235.334 540.142 234.51 540.142C233.828 540.142 233.222 539.993 232.692 539.695C232.161 539.392 231.745 538.937 231.442 538.331C231.139 537.72 230.987 536.951 230.987 536.023V529.091H232.663V535.909C232.663 536.705 232.886 537.339 233.331 537.812C233.781 538.286 234.354 538.523 235.05 538.523C235.466 538.523 235.89 538.416 236.321 538.203C236.757 537.99 237.121 537.663 237.415 537.223C237.713 536.783 237.862 536.222 237.862 535.54ZM244.284 525.455V540H242.608V525.455H244.284ZM249.031 525.455V540H247.354V525.455H249.031ZM252.1 540V529.091H253.777V540H252.1ZM252.953 527.273C252.626 527.273 252.344 527.161 252.108 526.939C251.876 526.716 251.76 526.449 251.76 526.136C251.76 525.824 251.876 525.556 252.108 525.334C252.344 525.111 252.626 525 252.953 525C253.279 525 253.559 525.111 253.791 525.334C254.028 525.556 254.146 525.824 254.146 526.136C254.146 526.449 254.028 526.716 253.791 526.939C253.559 527.161 253.279 527.273 252.953 527.273ZM258.523 533.438V540H256.847V529.091H258.466V530.795H258.608C258.864 530.241 259.252 529.796 259.773 529.46C260.294 529.119 260.966 528.949 261.79 528.949C262.528 528.949 263.175 529.1 263.729 529.403C264.283 529.702 264.714 530.156 265.021 530.767C265.329 531.373 265.483 532.14 265.483 533.068V540H263.807V533.182C263.807 532.325 263.584 531.657 263.139 531.179C262.694 530.696 262.083 530.455 261.307 530.455C260.772 530.455 260.294 530.571 259.872 530.803C259.455 531.035 259.126 531.373 258.885 531.818C258.643 532.263 258.523 532.803 258.523 533.438ZM272.949 544.318C272.14 544.318 271.444 544.214 270.861 544.006C270.279 543.802 269.793 543.532 269.405 543.196C269.022 542.865 268.716 542.509 268.489 542.131L269.824 541.193C269.976 541.392 270.167 541.619 270.4 541.875C270.632 542.135 270.949 542.36 271.351 542.55C271.758 542.744 272.291 542.841 272.949 542.841C273.83 542.841 274.557 542.628 275.13 542.202C275.703 541.776 275.989 541.108 275.989 540.199V537.983H275.847C275.724 538.182 275.549 538.428 275.321 538.722C275.099 539.01 274.777 539.268 274.355 539.496C273.939 539.718 273.375 539.83 272.665 539.83C271.784 539.83 270.994 539.621 270.293 539.205C269.597 538.788 269.045 538.182 268.638 537.386C268.236 536.591 268.034 535.625 268.034 534.489C268.034 533.371 268.231 532.398 268.624 531.57C269.017 530.736 269.564 530.092 270.265 529.638C270.965 529.179 271.775 528.949 272.694 528.949C273.404 528.949 273.967 529.067 274.384 529.304C274.805 529.536 275.127 529.801 275.35 530.099C275.577 530.393 275.752 530.634 275.875 530.824H276.046V529.091H277.665V540.312C277.665 541.25 277.452 542.012 277.026 542.599C276.605 543.191 276.036 543.625 275.321 543.899C274.611 544.179 273.82 544.318 272.949 544.318ZM272.892 538.324C273.565 538.324 274.133 538.17 274.597 537.862C275.061 537.554 275.414 537.112 275.655 536.534C275.897 535.956 276.017 535.265 276.017 534.46C276.017 533.674 275.899 532.981 275.662 532.379C275.426 531.778 275.075 531.307 274.611 530.966C274.147 530.625 273.574 530.455 272.892 530.455C272.182 530.455 271.59 530.634 271.117 530.994C270.648 531.354 270.295 531.837 270.059 532.443C269.827 533.049 269.711 533.722 269.711 534.46C269.711 535.218 269.829 535.888 270.066 536.47C270.307 537.048 270.662 537.502 271.131 537.834C271.605 538.161 272.192 538.324 272.892 538.324ZM291.103 529.091V530.511H285.449V529.091H291.103ZM287.097 526.477H288.773V536.875C288.773 537.348 288.842 537.704 288.979 537.94C289.121 538.172 289.301 538.329 289.519 538.409C289.741 538.485 289.976 538.523 290.222 538.523C290.407 538.523 290.558 538.513 290.676 538.494C290.795 538.471 290.89 538.452 290.961 538.438L291.301 539.943C291.188 539.986 291.029 540.028 290.826 540.071C290.622 540.118 290.364 540.142 290.051 540.142C289.578 540.142 289.114 540.04 288.659 539.837C288.21 539.633 287.836 539.323 287.537 538.906C287.244 538.49 287.097 537.964 287.097 537.33V526.477ZM295.534 533.438V540H293.858V525.455H295.534V530.795H295.676C295.932 530.232 296.316 529.785 296.827 529.453C297.343 529.117 298.03 528.949 298.887 528.949C299.63 528.949 300.281 529.098 300.84 529.396C301.399 529.69 301.832 530.142 302.14 530.753C302.452 531.359 302.608 532.131 302.608 533.068V540H300.932V533.182C300.932 532.315 300.707 531.645 300.257 531.172C299.812 530.694 299.194 530.455 298.404 530.455C297.855 530.455 297.362 530.571 296.926 530.803C296.496 531.035 296.155 531.373 295.904 531.818C295.658 532.263 295.534 532.803 295.534 533.438ZM310.249 540.227C309.197 540.227 308.291 539.995 307.528 539.531C306.771 539.062 306.186 538.409 305.774 537.571C305.367 536.728 305.163 535.748 305.163 534.631C305.163 533.513 305.367 532.528 305.774 531.676C306.186 530.819 306.759 530.152 307.493 529.673C308.232 529.19 309.093 528.949 310.078 528.949C310.646 528.949 311.207 529.044 311.761 529.233C312.315 529.422 312.82 529.73 313.274 530.156C313.729 530.578 314.091 531.136 314.361 531.832C314.631 532.528 314.766 533.385 314.766 534.403V535.114H306.357V533.665H313.061C313.061 533.049 312.938 532.5 312.692 532.017C312.45 531.534 312.105 531.153 311.655 530.874C311.21 530.594 310.684 530.455 310.078 530.455C309.411 530.455 308.833 530.62 308.345 530.952C307.862 531.278 307.491 531.705 307.23 532.23C306.97 532.756 306.839 533.319 306.839 533.92V534.886C306.839 535.71 306.982 536.409 307.266 536.982C307.554 537.55 307.955 537.983 308.466 538.281C308.977 538.575 309.571 538.722 310.249 538.722C310.689 538.722 311.087 538.66 311.442 538.537C311.802 538.409 312.112 538.22 312.372 537.969C312.633 537.713 312.834 537.396 312.976 537.017L314.595 537.472C314.425 538.021 314.138 538.504 313.736 538.92C313.333 539.332 312.836 539.654 312.244 539.886C311.652 540.114 310.987 540.227 310.249 540.227ZM327.372 540.227C326.349 540.227 325.469 539.986 324.73 539.503C323.991 539.02 323.423 538.355 323.026 537.507C322.628 536.66 322.429 535.691 322.429 534.602C322.429 533.494 322.633 532.517 323.04 531.669C323.452 530.817 324.025 530.152 324.759 529.673C325.497 529.19 326.359 528.949 327.344 528.949C328.111 528.949 328.802 529.091 329.418 529.375C330.033 529.659 330.537 530.057 330.93 530.568C331.323 531.08 331.567 531.676 331.662 532.358H329.986C329.858 531.861 329.574 531.42 329.134 531.037C328.698 530.649 328.111 530.455 327.372 530.455C326.719 530.455 326.146 530.625 325.653 530.966C325.166 531.302 324.785 531.778 324.51 532.393C324.24 533.004 324.105 533.722 324.105 534.545C324.105 535.388 324.238 536.122 324.503 536.747C324.773 537.372 325.152 537.857 325.639 538.203C326.132 538.549 326.709 538.722 327.372 538.722C327.808 538.722 328.203 538.646 328.558 538.494C328.913 538.343 329.214 538.125 329.46 537.841C329.706 537.557 329.882 537.216 329.986 536.818H331.662C331.567 537.462 331.333 538.042 330.959 538.558C330.589 539.07 330.099 539.477 329.489 539.78C328.883 540.078 328.177 540.227 327.372 540.227ZM338.544 540.227C337.559 540.227 336.695 539.993 335.952 539.524C335.213 539.055 334.635 538.4 334.219 537.557C333.807 536.714 333.601 535.729 333.601 534.602C333.601 533.466 333.807 532.474 334.219 531.626C334.635 530.779 335.213 530.121 335.952 529.652C336.695 529.183 337.559 528.949 338.544 528.949C339.529 528.949 340.391 529.183 341.129 529.652C341.873 530.121 342.45 530.779 342.862 531.626C343.279 532.474 343.487 533.466 343.487 534.602C343.487 535.729 343.279 536.714 342.862 537.557C342.45 538.4 341.873 539.055 341.129 539.524C340.391 539.993 339.529 540.227 338.544 540.227ZM338.544 538.722C339.292 538.722 339.908 538.53 340.391 538.146C340.874 537.763 341.231 537.259 341.463 536.634C341.695 536.009 341.811 535.331 341.811 534.602C341.811 533.873 341.695 533.194 341.463 532.564C341.231 531.934 340.874 531.425 340.391 531.037C339.908 530.649 339.292 530.455 338.544 530.455C337.796 530.455 337.18 530.649 336.697 531.037C336.214 531.425 335.857 531.934 335.625 532.564C335.393 533.194 335.277 533.873 335.277 534.602C335.277 535.331 335.393 536.009 335.625 536.634C335.857 537.259 336.214 537.763 336.697 538.146C337.18 538.53 337.796 538.722 338.544 538.722ZM346.046 540V529.091H347.665V530.739H347.779C347.978 530.199 348.337 529.761 348.858 529.425C349.379 529.089 349.966 528.92 350.62 528.92C350.743 528.92 350.897 528.923 351.081 528.928C351.266 528.932 351.406 528.939 351.5 528.949V530.653C351.444 530.639 351.313 530.618 351.11 530.589C350.911 530.556 350.7 530.54 350.478 530.54C349.947 530.54 349.474 530.651 349.057 530.874C348.645 531.091 348.319 531.394 348.077 531.783C347.84 532.166 347.722 532.604 347.722 533.097V540H346.046ZM357.275 540.227C356.365 540.227 355.563 539.998 354.867 539.538C354.171 539.074 353.626 538.421 353.233 537.578C352.84 536.731 352.644 535.729 352.644 534.574C352.644 533.428 352.84 532.434 353.233 531.591C353.626 530.748 354.173 530.097 354.874 529.638C355.575 529.179 356.384 528.949 357.303 528.949C358.013 528.949 358.574 529.067 358.986 529.304C359.403 529.536 359.72 529.801 359.938 530.099C360.16 530.393 360.333 530.634 360.456 530.824H360.598V525.455H362.275V540H360.655V538.324H360.456C360.333 538.523 360.158 538.774 359.931 539.077C359.703 539.375 359.379 539.643 358.958 539.879C358.536 540.111 357.975 540.227 357.275 540.227ZM357.502 538.722C358.174 538.722 358.742 538.546 359.206 538.196C359.67 537.841 360.023 537.351 360.265 536.726C360.506 536.096 360.627 535.369 360.627 534.545C360.627 533.731 360.508 533.018 360.272 532.408C360.035 531.792 359.685 531.314 359.221 530.973C358.757 530.627 358.184 530.455 357.502 530.455C356.792 530.455 356.2 530.637 355.726 531.001C355.257 531.361 354.905 531.851 354.668 532.472C354.436 533.087 354.32 533.778 354.32 534.545C354.32 535.322 354.438 536.027 354.675 536.662C354.917 537.292 355.272 537.794 355.74 538.168C356.214 538.537 356.801 538.722 357.502 538.722ZM375.946 529.091V530.511H370.293V529.091H375.946ZM371.941 526.477H373.617V536.875C373.617 537.348 373.685 537.704 373.823 537.94C373.965 538.172 374.145 538.329 374.363 538.409C374.585 538.485 374.819 538.523 375.066 538.523C375.25 538.523 375.402 538.513 375.52 538.494C375.639 538.471 375.733 538.452 375.804 538.438L376.145 539.943C376.032 539.986 375.873 540.028 375.669 540.071C375.466 540.118 375.208 540.142 374.895 540.142C374.422 540.142 373.958 540.04 373.503 539.837C373.053 539.633 372.679 539.323 372.381 538.906C372.087 538.49 371.941 537.964 371.941 537.33V526.477ZM382.782 540.227C381.797 540.227 380.933 539.993 380.19 539.524C379.451 539.055 378.874 538.4 378.457 537.557C378.045 536.714 377.839 535.729 377.839 534.602C377.839 533.466 378.045 532.474 378.457 531.626C378.874 530.779 379.451 530.121 380.19 529.652C380.933 529.183 381.797 528.949 382.782 528.949C383.767 528.949 384.629 529.183 385.368 529.652C386.111 530.121 386.689 530.779 387.1 531.626C387.517 532.474 387.725 533.466 387.725 534.602C387.725 535.729 387.517 536.714 387.1 537.557C386.689 538.4 386.111 539.055 385.368 539.524C384.629 539.993 383.767 540.227 382.782 540.227ZM382.782 538.722C383.53 538.722 384.146 538.53 384.629 538.146C385.112 537.763 385.469 537.259 385.701 536.634C385.933 536.009 386.049 535.331 386.049 534.602C386.049 533.873 385.933 533.194 385.701 532.564C385.469 531.934 385.112 531.425 384.629 531.037C384.146 530.649 383.53 530.455 382.782 530.455C382.034 530.455 381.419 530.649 380.936 531.037C380.453 531.425 380.095 531.934 379.863 532.564C379.631 533.194 379.515 533.873 379.515 534.602C379.515 535.331 379.631 536.009 379.863 536.634C380.095 537.259 380.453 537.763 380.936 538.146C381.419 538.53 382.034 538.722 382.782 538.722ZM400.653 529.091V530.511H395V529.091H400.653ZM396.648 526.477H398.324V536.875C398.324 537.348 398.393 537.704 398.53 537.94C398.672 538.172 398.852 538.329 399.07 538.409C399.292 538.485 399.527 538.523 399.773 538.523C399.957 538.523 400.109 538.513 400.227 538.494C400.346 538.471 400.44 538.452 400.511 538.438L400.852 539.943C400.739 539.986 400.58 540.028 400.376 540.071C400.173 540.118 399.915 540.142 399.602 540.142C399.129 540.142 398.665 540.04 398.21 539.837C397.76 539.633 397.386 539.323 397.088 538.906C396.795 538.49 396.648 537.964 396.648 537.33V526.477ZM405.085 533.438V540H403.409V525.455H405.085V530.795H405.227C405.483 530.232 405.866 529.785 406.378 529.453C406.894 529.117 407.58 528.949 408.438 528.949C409.181 528.949 409.832 529.098 410.391 529.396C410.949 529.69 411.383 530.142 411.69 530.753C412.003 531.359 412.159 532.131 412.159 533.068V540H410.483V533.182C410.483 532.315 410.258 531.645 409.808 531.172C409.363 530.694 408.745 530.455 407.955 530.455C407.405 530.455 406.913 530.571 406.477 530.803C406.046 531.035 405.705 531.373 405.455 531.818C405.208 532.263 405.085 532.803 405.085 533.438ZM419.799 540.227C418.748 540.227 417.842 539.995 417.079 539.531C416.322 539.062 415.737 538.409 415.325 537.571C414.918 536.728 414.714 535.748 414.714 534.631C414.714 533.513 414.918 532.528 415.325 531.676C415.737 530.819 416.31 530.152 417.044 529.673C417.782 529.19 418.644 528.949 419.629 528.949C420.197 528.949 420.758 529.044 421.312 529.233C421.866 529.422 422.37 529.73 422.825 530.156C423.279 530.578 423.642 531.136 423.912 531.832C424.181 532.528 424.316 533.385 424.316 534.403V535.114H415.907V533.665H422.612C422.612 533.049 422.489 532.5 422.243 532.017C422.001 531.534 421.655 531.153 421.206 530.874C420.761 530.594 420.235 530.455 419.629 530.455C418.961 530.455 418.384 530.62 417.896 530.952C417.413 531.278 417.041 531.705 416.781 532.23C416.52 532.756 416.39 533.319 416.39 533.92V534.886C416.39 535.71 416.532 536.409 416.816 536.982C417.105 537.55 417.505 537.983 418.017 538.281C418.528 538.575 419.122 538.722 419.799 538.722C420.24 538.722 420.637 538.66 420.993 538.537C421.352 538.409 421.663 538.22 421.923 537.969C422.183 537.713 422.385 537.396 422.527 537.017L424.146 537.472C423.975 538.021 423.689 538.504 423.287 538.92C422.884 539.332 422.387 539.654 421.795 539.886C421.203 540.114 420.538 540.227 419.799 540.227ZM440.218 531.534L438.713 531.96C438.618 531.709 438.478 531.465 438.294 531.229C438.114 530.987 437.868 530.788 437.555 530.632C437.243 530.476 436.842 530.398 436.355 530.398C435.687 530.398 435.131 530.552 434.686 530.859C434.245 531.162 434.025 531.548 434.025 532.017C434.025 532.434 434.177 532.763 434.48 533.004C434.783 533.246 435.256 533.447 435.9 533.608L437.52 534.006C438.495 534.242 439.222 534.605 439.7 535.092C440.178 535.575 440.417 536.198 440.417 536.96C440.417 537.585 440.237 538.144 439.877 538.636C439.522 539.129 439.025 539.517 438.386 539.801C437.747 540.085 437.003 540.227 436.156 540.227C435.043 540.227 434.122 539.986 433.393 539.503C432.664 539.02 432.202 538.314 432.008 537.386L433.599 536.989C433.751 537.576 434.037 538.016 434.458 538.31C434.885 538.603 435.441 538.75 436.127 538.75C436.909 538.75 437.529 538.584 437.988 538.253C438.452 537.917 438.684 537.514 438.684 537.045C438.684 536.667 438.552 536.349 438.287 536.094C438.021 535.833 437.614 535.639 437.065 535.511L435.247 535.085C434.248 534.848 433.514 534.482 433.045 533.984C432.581 533.482 432.349 532.855 432.349 532.102C432.349 531.487 432.522 530.942 432.868 530.469C433.218 529.995 433.694 529.624 434.295 529.354C434.901 529.084 435.588 528.949 436.355 528.949C437.434 528.949 438.282 529.186 438.897 529.659C439.518 530.133 439.958 530.758 440.218 531.534ZM442.94 540V529.091H444.616V540H442.94ZM443.793 527.273C443.466 527.273 443.184 527.161 442.947 526.939C442.715 526.716 442.599 526.449 442.599 526.136C442.599 525.824 442.715 525.556 442.947 525.334C443.184 525.111 443.466 525 443.793 525C444.119 525 444.399 525.111 444.631 525.334C444.867 525.556 444.986 525.824 444.986 526.136C444.986 526.449 444.867 526.716 444.631 526.939C444.399 527.161 444.119 527.273 443.793 527.273ZM451.806 540.227C450.897 540.227 450.094 539.998 449.398 539.538C448.702 539.074 448.158 538.421 447.765 537.578C447.372 536.731 447.175 535.729 447.175 534.574C447.175 533.428 447.372 532.434 447.765 531.591C448.158 530.748 448.704 530.097 449.405 529.638C450.106 529.179 450.916 528.949 451.834 528.949C452.544 528.949 453.105 529.067 453.517 529.304C453.934 529.536 454.251 529.801 454.469 530.099C454.692 530.393 454.864 530.634 454.988 530.824H455.13V525.455H456.806V540H455.186V538.324H454.988C454.864 538.523 454.689 538.774 454.462 539.077C454.235 539.375 453.91 539.643 453.489 539.879C453.068 540.111 452.507 540.227 451.806 540.227ZM452.033 538.722C452.705 538.722 453.274 538.546 453.738 538.196C454.202 537.841 454.554 537.351 454.796 536.726C455.037 536.096 455.158 535.369 455.158 534.545C455.158 533.731 455.04 533.018 454.803 532.408C454.566 531.792 454.216 531.314 453.752 530.973C453.288 530.627 452.715 530.455 452.033 530.455C451.323 530.455 450.731 530.637 450.257 531.001C449.789 531.361 449.436 531.851 449.199 532.472C448.967 533.087 448.851 533.778 448.851 534.545C448.851 535.322 448.97 536.027 449.206 536.662C449.448 537.292 449.803 537.794 450.272 538.168C450.745 538.537 451.332 538.722 452.033 538.722ZM464.682 540.227C463.631 540.227 462.724 539.995 461.962 539.531C461.204 539.062 460.62 538.409 460.208 537.571C459.801 536.728 459.597 535.748 459.597 534.631C459.597 533.513 459.801 532.528 460.208 531.676C460.62 530.819 461.193 530.152 461.926 529.673C462.665 529.19 463.527 528.949 464.512 528.949C465.08 528.949 465.641 529.044 466.195 529.233C466.749 529.422 467.253 529.73 467.708 530.156C468.162 530.578 468.525 531.136 468.794 531.832C469.064 532.528 469.199 533.385 469.199 534.403V535.114H460.79V533.665H467.495C467.495 533.049 467.372 532.5 467.125 532.017C466.884 531.534 466.538 531.153 466.088 530.874C465.643 530.594 465.118 530.455 464.512 530.455C463.844 530.455 463.266 530.62 462.779 530.952C462.296 531.278 461.924 531.705 461.664 532.23C461.403 532.756 461.273 533.319 461.273 533.92V534.886C461.273 535.71 461.415 536.409 461.699 536.982C461.988 537.55 462.388 537.983 462.9 538.281C463.411 538.575 464.005 538.722 464.682 538.722C465.123 538.722 465.52 538.66 465.875 538.537C466.235 538.409 466.545 538.22 466.806 537.969C467.066 537.713 467.267 537.396 467.409 537.017L469.029 537.472C468.858 538.021 468.572 538.504 468.169 538.92C467.767 539.332 467.27 539.654 466.678 539.886C466.086 540.114 465.421 540.227 464.682 540.227ZM480.584 540.256C479.893 540.256 479.266 540.125 478.702 539.865C478.139 539.6 477.691 539.219 477.36 538.722C477.028 538.22 476.863 537.614 476.863 536.903C476.863 536.278 476.986 535.772 477.232 535.384C477.478 534.991 477.807 534.683 478.219 534.46C478.631 534.238 479.086 534.072 479.583 533.963C480.085 533.849 480.589 533.759 481.096 533.693C481.758 533.608 482.296 533.544 482.708 533.501C483.124 533.454 483.427 533.376 483.617 533.267C483.811 533.158 483.908 532.969 483.908 532.699V532.642C483.908 531.941 483.716 531.397 483.333 531.009C482.954 530.62 482.379 530.426 481.607 530.426C480.807 530.426 480.179 530.601 479.725 530.952C479.27 531.302 478.951 531.676 478.766 532.074L477.175 531.506C477.459 530.843 477.838 530.327 478.311 529.957C478.79 529.583 479.31 529.323 479.874 529.176C480.442 529.025 481.001 528.949 481.55 528.949C481.9 528.949 482.303 528.991 482.757 529.077C483.217 529.157 483.659 529.325 484.086 529.581C484.516 529.837 484.874 530.223 485.158 530.739C485.442 531.255 485.584 531.946 485.584 532.812V540H483.908V538.523H483.823C483.709 538.759 483.52 539.013 483.255 539.283C482.989 539.553 482.637 539.782 482.196 539.972C481.756 540.161 481.219 540.256 480.584 540.256ZM480.84 538.75C481.503 538.75 482.061 538.62 482.516 538.359C482.975 538.099 483.321 537.763 483.553 537.351C483.79 536.939 483.908 536.506 483.908 536.051V534.517C483.837 534.602 483.681 534.68 483.439 534.751C483.203 534.818 482.928 534.877 482.615 534.929C482.308 534.976 482.007 535.019 481.713 535.057C481.425 535.09 481.19 535.118 481.01 535.142C480.575 535.199 480.167 535.291 479.789 535.419C479.415 535.542 479.112 535.729 478.88 535.98C478.652 536.226 478.539 536.562 478.539 536.989C478.539 537.571 478.754 538.011 479.185 538.31C479.621 538.603 480.172 538.75 480.84 538.75ZM6.76136 564V549.455H8.4375V554.824H8.57955C8.70265 554.634 8.87311 554.393 9.09091 554.099C9.31345 553.801 9.63068 553.536 10.0426 553.304C10.4593 553.067 11.0227 552.949 11.733 552.949C12.6515 552.949 13.4612 553.179 14.1619 553.638C14.8627 554.097 15.4096 554.748 15.8026 555.591C16.1955 556.434 16.392 557.428 16.392 558.574C16.392 559.729 16.1955 560.731 15.8026 561.578C15.4096 562.421 14.8651 563.074 14.169 563.538C13.473 563.998 12.6705 564.227 11.7614 564.227C11.0606 564.227 10.4995 564.111 10.0781 563.879C9.65672 563.643 9.33239 563.375 9.10511 563.077C8.87784 562.774 8.70265 562.523 8.57955 562.324H8.38068V564H6.76136ZM8.40909 558.545C8.40909 559.369 8.52983 560.096 8.77131 560.726C9.01278 561.351 9.36553 561.841 9.82955 562.196C10.2936 562.546 10.8617 562.722 11.5341 562.722C12.2348 562.722 12.8196 562.537 13.2884 562.168C13.7618 561.794 14.117 561.292 14.3537 560.662C14.5952 560.027 14.7159 559.322 14.7159 558.545C14.7159 557.778 14.5975 557.087 14.3608 556.472C14.1288 555.851 13.776 555.361 13.3026 555.001C12.8338 554.637 12.2443 554.455 11.5341 554.455C10.8523 554.455 10.2794 554.627 9.81534 554.973C9.35133 555.314 9.00095 555.792 8.7642 556.408C8.52746 557.018 8.40909 557.731 8.40909 558.545ZM18.956 564V553.091H20.6321V564H18.956ZM19.8082 551.273C19.4815 551.273 19.1998 551.161 18.9631 550.939C18.7311 550.716 18.6151 550.449 18.6151 550.136C18.6151 549.824 18.7311 549.556 18.9631 549.334C19.1998 549.111 19.4815 549 19.8082 549C20.1349 549 20.4143 549.111 20.6463 549.334C20.883 549.556 21.0014 549.824 21.0014 550.136C21.0014 550.449 20.883 550.716 20.6463 550.939C20.4143 551.161 20.1349 551.273 19.8082 551.273ZM28.4464 553.091V554.511H22.793V553.091H28.4464ZM24.4407 550.477H26.1168V560.875C26.1168 561.348 26.1855 561.704 26.3228 561.94C26.4648 562.172 26.6448 562.329 26.8626 562.409C27.0851 562.485 27.3195 562.523 27.5657 562.523C27.7504 562.523 27.9019 562.513 28.0202 562.494C28.1386 562.471 28.2333 562.452 28.3043 562.438L28.6452 563.943C28.5316 563.986 28.373 564.028 28.1694 564.071C27.9658 564.118 27.7077 564.142 27.3952 564.142C26.9218 564.142 26.4577 564.04 26.0032 563.837C25.5534 563.633 25.1793 563.323 24.881 562.906C24.5875 562.49 24.4407 561.964 24.4407 561.33V550.477ZM33.4677 562.011L33.354 562.778C33.2736 563.318 33.1504 563.896 32.9847 564.511C32.8237 565.127 32.6557 565.707 32.4805 566.251C32.3053 566.796 32.1609 567.229 32.0472 567.551H30.7688C30.8304 567.248 30.9109 566.848 31.0103 566.351C31.1097 565.854 31.2092 565.297 31.3086 564.682C31.4128 564.071 31.498 563.446 31.5643 562.807L31.6495 562.011H33.4677ZM42.4254 564V549.455H44.1016V554.824H44.2436C44.3667 554.634 44.5372 554.393 44.755 554.099C44.9775 553.801 45.2947 553.536 45.7067 553.304C46.1233 553.067 46.6868 552.949 47.397 552.949C48.3156 552.949 49.1252 553.179 49.826 553.638C50.5268 554.097 51.0736 554.748 51.4666 555.591C51.8596 556.434 52.0561 557.428 52.0561 558.574C52.0561 559.729 51.8596 560.731 51.4666 561.578C51.0736 562.421 50.5291 563.074 49.8331 563.538C49.1371 563.998 48.3345 564.227 47.4254 564.227C46.7247 564.227 46.1636 564.111 45.7422 563.879C45.3208 563.643 44.9964 563.375 44.7692 563.077C44.5419 562.774 44.3667 562.523 44.2436 562.324H44.0447V564H42.4254ZM44.0732 558.545C44.0732 559.369 44.1939 560.096 44.4354 560.726C44.6768 561.351 45.0296 561.841 45.4936 562.196C45.9576 562.546 46.5258 562.722 47.1982 562.722C47.8989 562.722 48.4837 562.537 48.9524 562.168C49.4259 561.794 49.781 561.292 50.0178 560.662C50.2592 560.027 50.38 559.322 50.38 558.545C50.38 557.778 50.2616 557.087 50.0249 556.472C49.7929 555.851 49.4401 555.361 48.9666 555.001C48.4979 554.637 47.9084 554.455 47.1982 554.455C46.5163 554.455 45.9434 554.627 45.4794 554.973C45.0154 555.314 44.665 555.792 44.4283 556.408C44.1915 557.018 44.0732 557.731 44.0732 558.545ZM61.495 559.54V553.091H63.1712V564H61.495V562.153H61.3814C61.1257 562.707 60.728 563.179 60.1882 563.567C59.6484 563.95 58.9666 564.142 58.1428 564.142C57.4609 564.142 56.8549 563.993 56.3246 563.695C55.7943 563.392 55.3776 562.937 55.0746 562.331C54.7715 561.72 54.62 560.951 54.62 560.023V553.091H56.2962V559.909C56.2962 560.705 56.5187 561.339 56.9638 561.812C57.4136 562.286 57.9865 562.523 58.6825 562.523C59.0992 562.523 59.523 562.416 59.9538 562.203C60.3894 561.99 60.754 561.663 61.0476 561.223C61.3459 560.783 61.495 560.222 61.495 559.54ZM70.9854 553.091V554.511H65.332V553.091H70.9854ZM66.9798 550.477H68.6559V560.875C68.6559 561.348 68.7246 561.704 68.8619 561.94C69.0039 562.172 69.1838 562.329 69.4016 562.409C69.6242 562.485 69.8585 562.523 70.1048 562.523C70.2894 562.523 70.4409 562.513 70.5593 562.494C70.6777 562.471 70.7724 562.452 70.8434 562.438L71.1843 563.943C71.0707 563.986 70.9121 564.028 70.7085 564.071C70.5049 564.118 70.2468 564.142 69.9343 564.142C69.4608 564.142 68.9968 564.04 68.5423 563.837C68.0924 563.633 67.7184 563.323 67.4201 562.906C67.1265 562.49 66.9798 561.964 66.9798 561.33V550.477ZM86.859 555.534L85.3533 555.96C85.2586 555.709 85.119 555.465 84.9343 555.229C84.7544 554.987 84.5082 554.788 84.1957 554.632C83.8832 554.476 83.4831 554.398 82.9954 554.398C82.3278 554.398 81.7714 554.552 81.3263 554.859C80.886 555.162 80.6658 555.548 80.6658 556.017C80.6658 556.434 80.8174 556.763 81.1204 557.004C81.4234 557.246 81.8969 557.447 82.5408 557.608L84.1602 558.006C85.1355 558.242 85.8623 558.605 86.3406 559.092C86.8188 559.575 87.0579 560.198 87.0579 560.96C87.0579 561.585 86.878 562.144 86.5181 562.636C86.163 563.129 85.6658 563.517 85.0266 563.801C84.3874 564.085 83.6441 564.227 82.7965 564.227C81.6838 564.227 80.7629 563.986 80.0337 563.503C79.3046 563.02 78.8429 562.314 78.6488 561.386L80.2397 560.989C80.3912 561.576 80.6777 562.016 81.0991 562.31C81.5252 562.603 82.0816 562.75 82.7681 562.75C83.5494 562.75 84.1696 562.584 84.6289 562.253C85.0929 561.917 85.3249 561.514 85.3249 561.045C85.3249 560.667 85.1924 560.349 84.9272 560.094C84.6621 559.833 84.2549 559.639 83.7056 559.511L81.8874 559.085C80.8884 558.848 80.1545 558.482 79.6857 557.984C79.2217 557.482 78.9897 556.855 78.9897 556.102C78.9897 555.487 79.1625 554.942 79.5082 554.469C79.8585 553.995 80.3344 553.624 80.9357 553.354C81.5418 553.084 82.2283 552.949 82.9954 552.949C84.0749 552.949 84.9225 553.186 85.538 553.659C86.1583 554.133 86.5986 554.758 86.859 555.534ZM94.1548 564.227C93.1037 564.227 92.197 563.995 91.4347 563.531C90.6771 563.062 90.0923 562.409 89.6804 561.571C89.2732 560.728 89.0696 559.748 89.0696 558.631C89.0696 557.513 89.2732 556.528 89.6804 555.676C90.0923 554.819 90.6652 554.152 91.3991 553.673C92.1378 553.19 92.9995 552.949 93.9844 552.949C94.5526 552.949 95.1136 553.044 95.6676 553.233C96.2216 553.422 96.7259 553.73 97.1804 554.156C97.6349 554.578 97.9972 555.136 98.267 555.832C98.5369 556.528 98.6719 557.385 98.6719 558.403V559.114H90.2628V557.665H96.9673C96.9673 557.049 96.8442 556.5 96.598 556.017C96.3565 555.534 96.0109 555.153 95.5611 554.874C95.116 554.594 94.5904 554.455 93.9844 554.455C93.3168 554.455 92.7391 554.62 92.2514 554.952C91.7685 555.278 91.3968 555.705 91.1364 556.23C90.8759 556.756 90.7457 557.319 90.7457 557.92V558.886C90.7457 559.71 90.8878 560.409 91.1719 560.982C91.4607 561.55 91.8608 561.983 92.3722 562.281C92.8835 562.575 93.4777 562.722 94.1548 562.722C94.5952 562.722 94.9929 562.66 95.348 562.537C95.7079 562.409 96.018 562.22 96.2784 561.969C96.5388 561.713 96.7401 561.396 96.8821 561.017L98.5014 561.472C98.331 562.021 98.0445 562.504 97.642 562.92C97.2396 563.332 96.7424 563.654 96.1506 563.886C95.5587 564.114 94.8935 564.227 94.1548 564.227ZM105.795 564.227C104.744 564.227 103.838 563.995 103.075 563.531C102.318 563.062 101.733 562.409 101.321 561.571C100.914 560.728 100.71 559.748 100.71 558.631C100.71 557.513 100.914 556.528 101.321 555.676C101.733 554.819 102.306 554.152 103.04 553.673C103.778 553.19 104.64 552.949 105.625 552.949C106.193 552.949 106.754 553.044 107.308 553.233C107.862 553.422 108.366 553.73 108.821 554.156C109.276 554.578 109.638 555.136 109.908 555.832C110.178 556.528 110.312 557.385 110.312 558.403V559.114H101.903V557.665H108.608C108.608 557.049 108.485 556.5 108.239 556.017C107.997 555.534 107.652 555.153 107.202 554.874C106.757 554.594 106.231 554.455 105.625 554.455C104.957 554.455 104.38 554.62 103.892 554.952C103.409 555.278 103.037 555.705 102.777 556.23C102.517 556.756 102.386 557.319 102.386 557.92V558.886C102.386 559.71 102.528 560.409 102.812 560.982C103.101 561.55 103.501 561.983 104.013 562.281C104.524 562.575 105.118 562.722 105.795 562.722C106.236 562.722 106.634 562.66 106.989 562.537C107.348 562.409 107.659 562.22 107.919 561.969C108.179 561.713 108.381 561.396 108.523 561.017L110.142 561.472C109.972 562.021 109.685 562.504 109.283 562.92C108.88 563.332 108.383 563.654 107.791 563.886C107.199 564.114 106.534 564.227 105.795 564.227ZM120.589 555.534L119.084 555.96C118.989 555.709 118.849 555.465 118.665 555.229C118.485 554.987 118.239 554.788 117.926 554.632C117.614 554.476 117.214 554.398 116.726 554.398C116.058 554.398 115.502 554.552 115.057 554.859C114.616 555.162 114.396 555.548 114.396 556.017C114.396 556.434 114.548 556.763 114.851 557.004C115.154 557.246 115.627 557.447 116.271 557.608L117.891 558.006C118.866 558.242 119.593 558.605 120.071 559.092C120.549 559.575 120.788 560.198 120.788 560.96C120.788 561.585 120.608 562.144 120.249 562.636C119.893 563.129 119.396 563.517 118.757 563.801C118.118 564.085 117.375 564.227 116.527 564.227C115.414 564.227 114.493 563.986 113.764 563.503C113.035 563.02 112.573 562.314 112.379 561.386L113.97 560.989C114.122 561.576 114.408 562.016 114.83 562.31C115.256 562.603 115.812 562.75 116.499 562.75C117.28 562.75 117.9 562.584 118.359 562.253C118.823 561.917 119.055 561.514 119.055 561.045C119.055 560.667 118.923 560.349 118.658 560.094C118.393 559.833 117.985 559.639 117.436 559.511L115.618 559.085C114.619 558.848 113.885 558.482 113.416 557.984C112.952 557.482 112.72 556.855 112.72 556.102C112.72 555.487 112.893 554.942 113.239 554.469C113.589 553.995 114.065 553.624 114.666 553.354C115.272 553.084 115.959 552.949 116.726 552.949C117.805 552.949 118.653 553.186 119.268 553.659C119.889 554.133 120.329 554.758 120.589 555.534ZM133.681 553.091V554.511H128.027V553.091H133.681ZM129.675 550.477H131.351V560.875C131.351 561.348 131.42 561.704 131.557 561.94C131.699 562.172 131.879 562.329 132.097 562.409C132.319 562.485 132.554 562.523 132.8 562.523C132.985 562.523 133.136 562.513 133.255 562.494C133.373 562.471 133.468 562.452 133.539 562.438L133.88 563.943C133.766 563.986 133.607 564.028 133.404 564.071C133.2 564.118 132.942 564.142 132.63 564.142C132.156 564.142 131.692 564.04 131.238 563.837C130.788 563.633 130.414 563.323 130.115 562.906C129.822 562.49 129.675 561.964 129.675 561.33V550.477ZM138.113 557.438V564H136.436V549.455H138.113V554.795H138.255C138.51 554.232 138.894 553.785 139.405 553.453C139.921 553.117 140.608 552.949 141.465 552.949C142.208 552.949 142.859 553.098 143.418 553.396C143.977 553.69 144.41 554.142 144.718 554.753C145.03 555.359 145.186 556.131 145.186 557.068V564H143.51V557.182C143.51 556.315 143.285 555.645 142.836 555.172C142.391 554.694 141.773 554.455 140.982 554.455C140.433 554.455 139.94 554.571 139.505 554.803C139.074 555.035 138.733 555.373 138.482 555.818C138.236 556.263 138.113 556.803 138.113 557.438ZM151.463 564.256C150.772 564.256 150.144 564.125 149.581 563.865C149.018 563.6 148.57 563.219 148.239 562.722C147.907 562.22 147.741 561.614 147.741 560.903C147.741 560.278 147.865 559.772 148.111 559.384C148.357 558.991 148.686 558.683 149.098 558.46C149.51 558.238 149.964 558.072 150.462 557.963C150.964 557.849 151.468 557.759 151.974 557.693C152.637 557.608 153.175 557.544 153.587 557.501C154.003 557.454 154.306 557.376 154.496 557.267C154.69 557.158 154.787 556.969 154.787 556.699V556.642C154.787 555.941 154.595 555.397 154.212 555.009C153.833 554.62 153.258 554.426 152.486 554.426C151.686 554.426 151.058 554.601 150.604 554.952C150.149 555.302 149.83 555.676 149.645 556.074L148.054 555.506C148.338 554.843 148.717 554.327 149.19 553.957C149.669 553.583 150.189 553.323 150.753 553.176C151.321 553.025 151.88 552.949 152.429 552.949C152.779 552.949 153.182 552.991 153.636 553.077C154.096 553.157 154.538 553.325 154.964 553.581C155.395 553.837 155.753 554.223 156.037 554.739C156.321 555.255 156.463 555.946 156.463 556.812V564H154.787V562.523H154.702C154.588 562.759 154.399 563.013 154.134 563.283C153.868 563.553 153.516 563.782 153.075 563.972C152.635 564.161 152.098 564.256 151.463 564.256ZM151.719 562.75C152.382 562.75 152.94 562.62 153.395 562.359C153.854 562.099 154.2 561.763 154.432 561.351C154.669 560.939 154.787 560.506 154.787 560.051V558.517C154.716 558.602 154.56 558.68 154.318 558.751C154.081 558.818 153.807 558.877 153.494 558.929C153.187 558.976 152.886 559.019 152.592 559.057C152.304 559.09 152.069 559.118 151.889 559.142C151.454 559.199 151.046 559.291 150.668 559.419C150.294 559.542 149.991 559.729 149.759 559.98C149.531 560.226 149.418 560.562 149.418 560.989C149.418 561.571 149.633 562.011 150.064 562.31C150.5 562.603 151.051 562.75 151.719 562.75ZM164.267 553.091V554.511H158.613V553.091H164.267ZM160.261 550.477H161.937V560.875C161.937 561.348 162.006 561.704 162.143 561.94C162.285 562.172 162.465 562.329 162.683 562.409C162.905 562.485 163.14 562.523 163.386 562.523C163.571 562.523 163.722 562.513 163.841 562.494C163.959 562.471 164.054 562.452 164.125 562.438L164.466 563.943C164.352 563.986 164.193 564.028 163.99 564.071C163.786 564.118 163.528 564.142 163.216 564.142C162.742 564.142 162.278 564.04 161.824 563.837C161.374 563.633 161 563.323 160.701 562.906C160.408 562.49 160.261 561.964 160.261 561.33V550.477ZM177.157 553.091V554.511H171.504V553.091H177.157ZM173.152 550.477H174.828V560.875C174.828 561.348 174.896 561.704 175.034 561.94C175.176 562.172 175.356 562.329 175.574 562.409C175.796 562.485 176.03 562.523 176.277 562.523C176.461 562.523 176.613 562.513 176.731 562.494C176.85 562.471 176.944 562.452 177.015 562.438L177.356 563.943C177.243 563.986 177.084 564.028 176.88 564.071C176.677 564.118 176.419 564.142 176.106 564.142C175.633 564.142 175.169 564.04 174.714 563.837C174.264 563.633 173.89 563.323 173.592 562.906C173.298 562.49 173.152 561.964 173.152 561.33V550.477ZM181.589 557.438V564H179.913V549.455H181.589V554.795H181.731C181.987 554.232 182.37 553.785 182.882 553.453C183.398 553.117 184.084 552.949 184.941 552.949C185.685 552.949 186.336 553.098 186.895 553.396C187.453 553.69 187.886 554.142 188.194 554.753C188.507 555.359 188.663 556.131 188.663 557.068V564H186.987V557.182C186.987 556.315 186.762 555.645 186.312 555.172C185.867 554.694 185.249 554.455 184.458 554.455C183.909 554.455 183.417 554.571 182.981 554.803C182.55 555.035 182.209 555.373 181.958 555.818C181.712 556.263 181.589 556.803 181.589 557.438ZM196.303 564.227C195.252 564.227 194.345 563.995 193.583 563.531C192.826 563.062 192.241 562.409 191.829 561.571C191.422 560.728 191.218 559.748 191.218 558.631C191.218 557.513 191.422 556.528 191.829 555.676C192.241 554.819 192.814 554.152 193.548 553.673C194.286 553.19 195.148 552.949 196.133 552.949C196.701 552.949 197.262 553.044 197.816 553.233C198.37 553.422 198.874 553.73 199.329 554.156C199.783 554.578 200.146 555.136 200.415 555.832C200.685 556.528 200.82 557.385 200.82 558.403V559.114H192.411V557.665H199.116C199.116 557.049 198.993 556.5 198.746 556.017C198.505 555.534 198.159 555.153 197.71 554.874C197.264 554.594 196.739 554.455 196.133 554.455C195.465 554.455 194.888 554.62 194.4 554.952C193.917 555.278 193.545 555.705 193.285 556.23C193.024 556.756 192.894 557.319 192.894 557.92V558.886C192.894 559.71 193.036 560.409 193.32 560.982C193.609 561.55 194.009 561.983 194.521 562.281C195.032 562.575 195.626 562.722 196.303 562.722C196.744 562.722 197.141 562.66 197.496 562.537C197.856 562.409 198.166 562.22 198.427 561.969C198.687 561.713 198.888 561.396 199.031 561.017L200.65 561.472C200.479 562.021 200.193 562.504 199.79 562.92C199.388 563.332 198.891 563.654 198.299 563.886C197.707 564.114 197.042 564.227 196.303 564.227ZM209.222 564V549.455H210.898V554.824H211.04C211.164 554.634 211.334 554.393 211.552 554.099C211.774 553.801 212.092 553.536 212.504 553.304C212.92 553.067 213.484 552.949 214.194 552.949C215.112 552.949 215.922 553.179 216.623 553.638C217.324 554.097 217.871 554.748 218.263 555.591C218.656 556.434 218.853 557.428 218.853 558.574C218.853 559.729 218.656 560.731 218.263 561.578C217.871 562.421 217.326 563.074 216.63 563.538C215.934 563.998 215.131 564.227 214.222 564.227C213.522 564.227 212.96 564.111 212.539 563.879C212.118 563.643 211.793 563.375 211.566 563.077C211.339 562.774 211.164 562.523 211.04 562.324H210.842V564H209.222ZM210.87 558.545C210.87 559.369 210.991 560.096 211.232 560.726C211.474 561.351 211.826 561.841 212.29 562.196C212.754 562.546 213.323 562.722 213.995 562.722C214.696 562.722 215.281 562.537 215.749 562.168C216.223 561.794 216.578 561.292 216.815 560.662C217.056 560.027 217.177 559.322 217.177 558.545C217.177 557.778 217.058 557.087 216.822 556.472C216.59 555.851 216.237 555.361 215.763 555.001C215.295 554.637 214.705 554.455 213.995 554.455C213.313 554.455 212.74 554.627 212.276 554.973C211.812 555.314 211.462 555.792 211.225 556.408C210.988 557.018 210.87 557.731 210.87 558.545ZM223.093 549.455V564H221.417V549.455H223.093ZM226.163 564V553.091H227.839V564H226.163ZM227.015 551.273C226.689 551.273 226.407 551.161 226.17 550.939C225.938 550.716 225.822 550.449 225.822 550.136C225.822 549.824 225.938 549.556 226.17 549.334C226.407 549.111 226.689 549 227.015 549C227.342 549 227.621 549.111 227.853 549.334C228.09 549.556 228.208 549.824 228.208 550.136C228.208 550.449 228.09 550.716 227.853 550.939C227.621 551.161 227.342 551.273 227.015 551.273ZM232.585 557.438V564H230.909V553.091H232.528V554.795H232.67C232.926 554.241 233.314 553.796 233.835 553.46C234.356 553.119 235.028 552.949 235.852 552.949C236.591 552.949 237.237 553.1 237.791 553.403C238.345 553.702 238.776 554.156 239.084 554.767C239.392 555.373 239.545 556.14 239.545 557.068V564H237.869V557.182C237.869 556.325 237.647 555.657 237.202 555.179C236.757 554.696 236.146 554.455 235.369 554.455C234.834 554.455 234.356 554.571 233.935 554.803C233.518 555.035 233.189 555.373 232.947 555.818C232.706 556.263 232.585 556.803 232.585 557.438ZM246.728 564.227C245.819 564.227 245.016 563.998 244.32 563.538C243.624 563.074 243.079 562.421 242.686 561.578C242.293 560.731 242.097 559.729 242.097 558.574C242.097 557.428 242.293 556.434 242.686 555.591C243.079 554.748 243.626 554.097 244.327 553.638C245.028 553.179 245.837 552.949 246.756 552.949C247.466 552.949 248.027 553.067 248.439 553.304C248.856 553.536 249.173 553.801 249.391 554.099C249.614 554.393 249.786 554.634 249.909 554.824H250.051V549.455H251.728V564H250.108V562.324H249.909C249.786 562.523 249.611 562.774 249.384 563.077C249.157 563.375 248.832 563.643 248.411 563.879C247.989 564.111 247.428 564.227 246.728 564.227ZM246.955 562.722C247.627 562.722 248.195 562.546 248.659 562.196C249.123 561.841 249.476 561.351 249.718 560.726C249.959 560.096 250.08 559.369 250.08 558.545C250.08 557.731 249.962 557.018 249.725 556.408C249.488 555.792 249.138 555.314 248.674 554.973C248.21 554.627 247.637 554.455 246.955 554.455C246.245 554.455 245.653 554.637 245.179 555.001C244.711 555.361 244.358 555.851 244.121 556.472C243.889 557.087 243.773 557.778 243.773 558.545C243.773 559.322 243.891 560.027 244.128 560.662C244.37 561.292 244.725 561.794 245.194 562.168C245.667 562.537 246.254 562.722 246.955 562.722ZM262.757 555.534L261.252 555.96C261.157 555.709 261.017 555.465 260.833 555.229C260.653 554.987 260.407 554.788 260.094 554.632C259.782 554.476 259.382 554.398 258.894 554.398C258.226 554.398 257.67 554.552 257.225 554.859C256.784 555.162 256.564 555.548 256.564 556.017C256.564 556.434 256.716 556.763 257.019 557.004C257.322 557.246 257.795 557.447 258.439 557.608L260.059 558.006C261.034 558.242 261.761 558.605 262.239 559.092C262.717 559.575 262.956 560.198 262.956 560.96C262.956 561.585 262.776 562.144 262.417 562.636C262.061 563.129 261.564 563.517 260.925 563.801C260.286 564.085 259.542 564.227 258.695 564.227C257.582 564.227 256.661 563.986 255.932 563.503C255.203 563.02 254.741 562.314 254.547 561.386L256.138 560.989C256.29 561.576 256.576 562.016 256.998 562.31C257.424 562.603 257.98 562.75 258.667 562.75C259.448 562.75 260.068 562.584 260.527 562.253C260.991 561.917 261.223 561.514 261.223 561.045C261.223 560.667 261.091 560.349 260.826 560.094C260.56 559.833 260.153 559.639 259.604 559.511L257.786 559.085C256.787 558.848 256.053 558.482 255.584 557.984C255.12 557.482 254.888 556.855 254.888 556.102C254.888 555.487 255.061 554.942 255.407 554.469C255.757 553.995 256.233 553.624 256.834 553.354C257.44 553.084 258.127 552.949 258.894 552.949C259.973 552.949 260.821 553.186 261.436 553.659C262.057 554.133 262.497 554.758 262.757 555.534ZM278.832 555.534L277.326 555.96C277.231 555.709 277.092 555.465 276.907 555.229C276.727 554.987 276.481 554.788 276.168 554.632C275.856 554.476 275.456 554.398 274.968 554.398C274.3 554.398 273.744 554.552 273.299 554.859C272.859 555.162 272.638 555.548 272.638 556.017C272.638 556.434 272.79 556.763 273.093 557.004C273.396 557.246 273.87 557.447 274.513 557.608L276.133 558.006C277.108 558.242 277.835 558.605 278.313 559.092C278.791 559.575 279.031 560.198 279.031 560.96C279.031 561.585 278.851 562.144 278.491 562.636C278.136 563.129 277.638 563.517 276.999 563.801C276.36 564.085 275.617 564.227 274.769 564.227C273.656 564.227 272.736 563.986 272.006 563.503C271.277 563.02 270.816 562.314 270.621 561.386L272.212 560.989C272.364 561.576 272.65 562.016 273.072 562.31C273.498 562.603 274.054 562.75 274.741 562.75C275.522 562.75 276.142 562.584 276.602 562.253C277.066 561.917 277.298 561.514 277.298 561.045C277.298 560.667 277.165 560.349 276.9 560.094C276.635 559.833 276.228 559.639 275.678 559.511L273.86 559.085C272.861 558.848 272.127 558.482 271.658 557.984C271.194 557.482 270.962 556.855 270.962 556.102C270.962 555.487 271.135 554.942 271.481 554.469C271.831 553.995 272.307 553.624 272.908 553.354C273.514 553.084 274.201 552.949 274.968 552.949C276.048 552.949 276.895 553.186 277.511 553.659C278.131 554.133 278.571 554.758 278.832 555.534ZM286.298 553.091V554.511H280.645V553.091H286.298ZM282.292 550.477H283.968V560.875C283.968 561.348 284.037 561.704 284.174 561.94C284.316 562.172 284.496 562.329 284.714 562.409C284.937 562.485 285.171 562.523 285.417 562.523C285.602 562.523 285.753 562.513 285.872 562.494C285.99 562.471 286.085 562.452 286.156 562.438L286.497 563.943C286.383 563.986 286.225 564.028 286.021 564.071C285.817 564.118 285.559 564.142 285.247 564.142C284.773 564.142 284.309 564.04 283.855 563.837C283.405 563.633 283.031 563.323 282.733 562.906C282.439 562.49 282.292 561.964 282.292 561.33V550.477ZM292.029 564.256C291.338 564.256 290.711 564.125 290.147 563.865C289.584 563.6 289.136 563.219 288.805 562.722C288.474 562.22 288.308 561.614 288.308 560.903C288.308 560.278 288.431 559.772 288.677 559.384C288.923 558.991 289.252 558.683 289.664 558.46C290.076 558.238 290.531 558.072 291.028 557.963C291.53 557.849 292.034 557.759 292.541 557.693C293.204 557.608 293.741 557.544 294.153 557.501C294.57 557.454 294.873 557.376 295.062 557.267C295.256 557.158 295.353 556.969 295.353 556.699V556.642C295.353 555.941 295.162 555.397 294.778 555.009C294.399 554.62 293.824 554.426 293.052 554.426C292.252 554.426 291.625 554.601 291.17 554.952C290.716 555.302 290.396 555.676 290.211 556.074L288.62 555.506C288.904 554.843 289.283 554.327 289.757 553.957C290.235 553.583 290.756 553.323 291.319 553.176C291.887 553.025 292.446 552.949 292.995 552.949C293.346 552.949 293.748 552.991 294.203 553.077C294.662 553.157 295.105 553.325 295.531 553.581C295.962 553.837 296.319 554.223 296.603 554.739C296.887 555.255 297.029 555.946 297.029 556.812V564H295.353V562.523H295.268C295.154 562.759 294.965 563.013 294.7 563.283C294.435 563.553 294.082 563.782 293.642 563.972C293.201 564.161 292.664 564.256 292.029 564.256ZM292.285 562.75C292.948 562.75 293.507 562.62 293.961 562.359C294.421 562.099 294.766 561.763 294.998 561.351C295.235 560.939 295.353 560.506 295.353 560.051V558.517C295.282 558.602 295.126 558.68 294.885 558.751C294.648 558.818 294.373 558.877 294.061 558.929C293.753 558.976 293.452 559.019 293.159 559.057C292.87 559.09 292.636 559.118 292.456 559.142C292.02 559.199 291.613 559.291 291.234 559.419C290.86 559.542 290.557 559.729 290.325 559.98C290.098 560.226 289.984 560.562 289.984 560.989C289.984 561.571 290.199 562.011 290.63 562.31C291.066 562.603 291.618 562.75 292.285 562.75ZM300.089 564V553.091H301.708V554.739H301.822C302.021 554.199 302.38 553.761 302.901 553.425C303.422 553.089 304.009 552.92 304.663 552.92C304.786 552.92 304.94 552.923 305.124 552.928C305.309 552.932 305.449 552.939 305.543 552.949V554.653C305.487 554.639 305.356 554.618 305.153 554.589C304.954 554.556 304.743 554.54 304.521 554.54C303.99 554.54 303.517 554.651 303.1 554.874C302.688 555.091 302.362 555.394 302.12 555.783C301.883 556.166 301.765 556.604 301.765 557.097V564H300.089ZM312.958 553.091V554.511H307.305V553.091H312.958ZM308.952 550.477H310.629V560.875C310.629 561.348 310.697 561.704 310.835 561.94C310.977 562.172 311.156 562.329 311.374 562.409C311.597 562.485 311.831 562.523 312.077 562.523C312.262 562.523 312.414 562.513 312.532 562.494C312.65 562.471 312.745 562.452 312.816 562.438L313.157 563.943C313.043 563.986 312.885 564.028 312.681 564.071C312.478 564.118 312.219 564.142 311.907 564.142C311.433 564.142 310.969 564.04 310.515 563.837C310.065 563.633 309.691 563.323 309.393 562.906C309.099 562.49 308.952 561.964 308.952 561.33V550.477ZM325.849 553.091V554.511H320.195V553.091H325.849ZM321.843 550.477H323.519V560.875C323.519 561.348 323.588 561.704 323.725 561.94C323.867 562.172 324.047 562.329 324.265 562.409C324.487 562.485 324.722 562.523 324.968 562.523C325.153 562.523 325.304 562.513 325.423 562.494C325.541 562.471 325.636 562.452 325.707 562.438L326.048 563.943C325.934 563.986 325.775 564.028 325.572 564.071C325.368 564.118 325.11 564.142 324.798 564.142C324.324 564.142 323.86 564.04 323.406 563.837C322.956 563.633 322.582 563.323 322.283 562.906C321.99 562.49 321.843 561.964 321.843 561.33V550.477ZM332.685 564.227C331.7 564.227 330.836 563.993 330.092 563.524C329.354 563.055 328.776 562.4 328.359 561.557C327.947 560.714 327.741 559.729 327.741 558.602C327.741 557.466 327.947 556.474 328.359 555.626C328.776 554.779 329.354 554.121 330.092 553.652C330.836 553.183 331.7 552.949 332.685 552.949C333.67 552.949 334.531 553.183 335.27 553.652C336.013 554.121 336.591 554.779 337.003 555.626C337.42 556.474 337.628 557.466 337.628 558.602C337.628 559.729 337.42 560.714 337.003 561.557C336.591 562.4 336.013 563.055 335.27 563.524C334.531 563.993 333.67 564.227 332.685 564.227ZM332.685 562.722C333.433 562.722 334.048 562.53 334.531 562.146C335.014 561.763 335.372 561.259 335.604 560.634C335.836 560.009 335.952 559.331 335.952 558.602C335.952 557.873 335.836 557.194 335.604 556.564C335.372 555.934 335.014 555.425 334.531 555.037C334.048 554.649 333.433 554.455 332.685 554.455C331.937 554.455 331.321 554.649 330.838 555.037C330.355 555.425 329.998 555.934 329.766 556.564C329.534 557.194 329.418 557.873 329.418 558.602C329.418 559.331 329.534 560.009 329.766 560.634C329.998 561.259 330.355 561.763 330.838 562.146C331.321 562.53 331.937 562.722 332.685 562.722ZM349.931 564.227C349.022 564.227 348.219 563.998 347.523 563.538C346.827 563.074 346.283 562.421 345.89 561.578C345.497 560.731 345.3 559.729 345.3 558.574C345.3 557.428 345.497 556.434 345.89 555.591C346.283 554.748 346.829 554.097 347.53 553.638C348.231 553.179 349.041 552.949 349.959 552.949C350.669 552.949 351.23 553.067 351.642 553.304C352.059 553.536 352.376 553.801 352.594 554.099C352.817 554.393 352.989 554.634 353.113 554.824H353.255V549.455H354.931V564H353.311V562.324H353.113C352.989 562.523 352.814 562.774 352.587 563.077C352.36 563.375 352.035 563.643 351.614 563.879C351.193 564.111 350.632 564.227 349.931 564.227ZM350.158 562.722C350.83 562.722 351.399 562.546 351.863 562.196C352.327 561.841 352.679 561.351 352.921 560.726C353.162 560.096 353.283 559.369 353.283 558.545C353.283 557.731 353.165 557.018 352.928 556.408C352.691 555.792 352.341 555.314 351.877 554.973C351.413 554.627 350.84 554.455 350.158 554.455C349.448 554.455 348.856 554.637 348.382 555.001C347.914 555.361 347.561 555.851 347.324 556.472C347.092 557.087 346.976 557.778 346.976 558.545C346.976 559.322 347.095 560.027 347.331 560.662C347.573 561.292 347.928 561.794 348.397 562.168C348.87 562.537 349.457 562.722 350.158 562.722ZM358.233 564V553.091H359.853V554.739H359.966C360.165 554.199 360.525 553.761 361.046 553.425C361.567 553.089 362.154 552.92 362.807 552.92C362.93 552.92 363.084 552.923 363.269 552.928C363.453 552.932 363.593 552.939 363.688 552.949V554.653C363.631 554.639 363.501 554.618 363.297 554.589C363.098 554.556 362.888 554.54 362.665 554.54C362.135 554.54 361.661 554.651 361.245 554.874C360.833 555.091 360.506 555.394 360.265 555.783C360.028 556.166 359.909 556.604 359.909 557.097V564H358.233ZM369.775 564.227C368.79 564.227 367.926 563.993 367.182 563.524C366.444 563.055 365.866 562.4 365.449 561.557C365.037 560.714 364.831 559.729 364.831 558.602C364.831 557.466 365.037 556.474 365.449 555.626C365.866 554.779 366.444 554.121 367.182 553.652C367.926 553.183 368.79 552.949 369.775 552.949C370.759 552.949 371.621 553.183 372.36 553.652C373.103 554.121 373.681 554.779 374.093 555.626C374.509 556.474 374.718 557.466 374.718 558.602C374.718 559.729 374.509 560.714 374.093 561.557C373.681 562.4 373.103 563.055 372.36 563.524C371.621 563.993 370.759 564.227 369.775 564.227ZM369.775 562.722C370.523 562.722 371.138 562.53 371.621 562.146C372.104 561.763 372.462 561.259 372.694 560.634C372.926 560.009 373.042 559.331 373.042 558.602C373.042 557.873 372.926 557.194 372.694 556.564C372.462 555.934 372.104 555.425 371.621 555.037C371.138 554.649 370.523 554.455 369.775 554.455C369.026 554.455 368.411 554.649 367.928 555.037C367.445 555.425 367.087 555.934 366.855 556.564C366.623 557.194 366.507 557.873 366.507 558.602C366.507 559.331 366.623 560.009 366.855 560.634C367.087 561.259 367.445 561.763 367.928 562.146C368.411 562.53 369.026 562.722 369.775 562.722ZM377.276 568.091V553.091H378.896V554.824H379.094C379.218 554.634 379.388 554.393 379.606 554.099C379.828 553.801 380.146 553.536 380.558 553.304C380.974 553.067 381.538 552.949 382.248 552.949C383.166 552.949 383.976 553.179 384.677 553.638C385.378 554.097 385.924 554.748 386.317 555.591C386.71 556.434 386.907 557.428 386.907 558.574C386.907 559.729 386.71 560.731 386.317 561.578C385.924 562.421 385.38 563.074 384.684 563.538C383.988 563.998 383.185 564.227 382.276 564.227C381.576 564.227 381.014 564.111 380.593 563.879C380.172 563.643 379.847 563.375 379.62 563.077C379.393 562.774 379.218 562.523 379.094 562.324H378.952V568.091H377.276ZM378.924 558.545C378.924 559.369 379.045 560.096 379.286 560.726C379.528 561.351 379.88 561.841 380.344 562.196C380.808 562.546 381.377 562.722 382.049 562.722C382.75 562.722 383.335 562.537 383.803 562.168C384.277 561.794 384.632 561.292 384.869 560.662C385.11 560.027 385.231 559.322 385.231 558.545C385.231 557.778 385.112 557.087 384.876 556.472C384.644 555.851 384.291 555.361 383.817 555.001C383.349 554.637 382.759 554.455 382.049 554.455C381.367 554.455 380.794 554.627 380.33 554.973C379.866 555.314 379.516 555.792 379.279 556.408C379.042 557.018 378.924 557.731 378.924 558.545ZM391.964 562.011L391.85 562.778C391.77 563.318 391.647 563.896 391.481 564.511C391.32 565.127 391.152 565.707 390.977 566.251C390.801 566.796 390.657 567.229 390.543 567.551H389.265C389.326 567.248 389.407 566.848 389.506 566.351C389.606 565.854 389.705 565.297 389.805 564.682C389.909 564.071 389.994 563.446 390.06 562.807L390.146 562.011H391.964ZM408.422 555.534L406.916 555.96C406.821 555.709 406.681 555.465 406.497 555.229C406.317 554.987 406.071 554.788 405.758 554.632C405.446 554.476 405.046 554.398 404.558 554.398C403.89 554.398 403.334 554.552 402.889 554.859C402.449 555.162 402.228 555.548 402.228 556.017C402.228 556.434 402.38 556.763 402.683 557.004C402.986 557.246 403.459 557.447 404.103 557.608L405.723 558.006C406.698 558.242 407.425 558.605 407.903 559.092C408.381 559.575 408.62 560.198 408.62 560.96C408.62 561.585 408.44 562.144 408.081 562.636C407.725 563.129 407.228 563.517 406.589 563.801C405.95 564.085 405.207 564.227 404.359 564.227C403.246 564.227 402.325 563.986 401.596 563.503C400.867 563.02 400.405 562.314 400.211 561.386L401.802 560.989C401.954 561.576 402.24 562.016 402.662 562.31C403.088 562.603 403.644 562.75 404.331 562.75C405.112 562.75 405.732 562.584 406.191 562.253C406.655 561.917 406.887 561.514 406.887 561.045C406.887 560.667 406.755 560.349 406.49 560.094C406.225 559.833 405.817 559.639 405.268 559.511L403.45 559.085C402.451 558.848 401.717 558.482 401.248 557.984C400.784 557.482 400.552 556.855 400.552 556.102C400.552 555.487 400.725 554.942 401.071 554.469C401.421 553.995 401.897 553.624 402.498 553.354C403.104 553.084 403.791 552.949 404.558 552.949C405.637 552.949 406.485 553.186 407.1 553.659C407.721 554.133 408.161 554.758 408.422 555.534ZM415.575 564.227C414.59 564.227 413.726 563.993 412.983 563.524C412.244 563.055 411.667 562.4 411.25 561.557C410.838 560.714 410.632 559.729 410.632 558.602C410.632 557.466 410.838 556.474 411.25 555.626C411.667 554.779 412.244 554.121 412.983 553.652C413.726 553.183 414.59 552.949 415.575 552.949C416.56 552.949 417.422 553.183 418.161 553.652C418.904 554.121 419.482 554.779 419.893 555.626C420.31 556.474 420.518 557.466 420.518 558.602C420.518 559.729 420.31 560.714 419.893 561.557C419.482 562.4 418.904 563.055 418.161 563.524C417.422 563.993 416.56 564.227 415.575 564.227ZM415.575 562.722C416.323 562.722 416.939 562.53 417.422 562.146C417.905 561.763 418.262 561.259 418.494 560.634C418.726 560.009 418.842 559.331 418.842 558.602C418.842 557.873 418.726 557.194 418.494 556.564C418.262 555.934 417.905 555.425 417.422 555.037C416.939 554.649 416.323 554.455 415.575 554.455C414.827 554.455 414.212 554.649 413.729 555.037C413.246 555.425 412.888 555.934 412.656 556.564C412.424 557.194 412.308 557.873 412.308 558.602C412.308 559.331 412.424 560.009 412.656 560.634C412.888 561.259 413.246 561.763 413.729 562.146C414.212 562.53 414.827 562.722 415.575 562.722ZM10.9659 588.227C9.94318 588.227 9.0625 587.986 8.32386 587.503C7.58523 587.02 7.01705 586.355 6.61932 585.507C6.22159 584.66 6.02273 583.691 6.02273 582.602C6.02273 581.494 6.22633 580.517 6.63352 579.669C7.04545 578.817 7.61837 578.152 8.35227 577.673C9.09091 577.19 9.95265 576.949 10.9375 576.949C11.7045 576.949 12.3958 577.091 13.0114 577.375C13.6269 577.659 14.1312 578.057 14.5241 578.568C14.9171 579.08 15.161 579.676 15.2557 580.358H13.5795C13.4517 579.861 13.1676 579.42 12.7273 579.037C12.2917 578.649 11.7045 578.455 10.9659 578.455C10.3125 578.455 9.73958 578.625 9.24716 578.966C8.75947 579.302 8.37831 579.778 8.10369 580.393C7.83381 581.004 7.69886 581.722 7.69886 582.545C7.69886 583.388 7.83144 584.122 8.09659 584.747C8.36648 585.372 8.74527 585.857 9.23295 586.203C9.72538 586.549 10.303 586.722 10.9659 586.722C11.4015 586.722 11.7969 586.646 12.152 586.494C12.5071 586.343 12.8078 586.125 13.054 585.841C13.3002 585.557 13.4754 585.216 13.5795 584.818H15.2557C15.161 585.462 14.9266 586.042 14.5526 586.558C14.1832 587.07 13.6932 587.477 13.0824 587.78C12.4763 588.078 11.7708 588.227 10.9659 588.227ZM22.1378 588.227C21.1529 588.227 20.2888 587.993 19.5455 587.524C18.8068 587.055 18.2292 586.4 17.8125 585.557C17.4006 584.714 17.1946 583.729 17.1946 582.602C17.1946 581.466 17.4006 580.474 17.8125 579.626C18.2292 578.779 18.8068 578.121 19.5455 577.652C20.2888 577.183 21.1529 576.949 22.1378 576.949C23.1226 576.949 23.9844 577.183 24.723 577.652C25.4664 578.121 26.044 578.779 26.456 579.626C26.8726 580.474 27.081 581.466 27.081 582.602C27.081 583.729 26.8726 584.714 26.456 585.557C26.044 586.4 25.4664 587.055 24.723 587.524C23.9844 587.993 23.1226 588.227 22.1378 588.227ZM22.1378 586.722C22.8859 586.722 23.5014 586.53 23.9844 586.146C24.4673 585.763 24.8248 585.259 25.0568 584.634C25.2888 584.009 25.4048 583.331 25.4048 582.602C25.4048 581.873 25.2888 581.194 25.0568 580.564C24.8248 579.934 24.4673 579.425 23.9844 579.037C23.5014 578.649 22.8859 578.455 22.1378 578.455C21.3897 578.455 20.7741 578.649 20.2912 579.037C19.8082 579.425 19.4508 579.934 19.2188 580.564C18.9867 581.194 18.8707 581.873 18.8707 582.602C18.8707 583.331 18.9867 584.009 19.2188 584.634C19.4508 585.259 19.8082 585.763 20.2912 586.146C20.7741 586.53 21.3897 586.722 22.1378 586.722ZM31.3157 581.438V588H29.6396V577.091H31.2589V578.795H31.4009C31.6566 578.241 32.0449 577.796 32.5657 577.46C33.0865 577.119 33.7589 576.949 34.5827 576.949C35.3214 576.949 35.9677 577.1 36.5217 577.403C37.0756 577.702 37.5065 578.156 37.8143 578.767C38.122 579.373 38.2759 580.14 38.2759 581.068V588H36.5998V581.182C36.5998 580.325 36.3772 579.657 35.9322 579.179C35.4871 578.696 34.8763 578.455 34.0998 578.455C33.5647 578.455 33.0865 578.571 32.6651 578.803C32.2485 579.035 31.9194 579.373 31.6779 579.818C31.4364 580.263 31.3157 580.803 31.3157 581.438ZM46.0831 577.091V578.511H40.4297V577.091H46.0831ZM42.0774 574.477H43.7536V584.875C43.7536 585.348 43.8222 585.704 43.9595 585.94C44.1016 586.172 44.2815 586.329 44.4993 586.409C44.7218 586.485 44.9562 586.523 45.2024 586.523C45.3871 586.523 45.5386 586.513 45.657 586.494C45.7753 586.471 45.87 586.452 45.9411 586.438L46.282 587.943C46.1683 587.986 46.0097 588.028 45.8061 588.071C45.6025 588.118 45.3445 588.142 45.032 588.142C44.5585 588.142 44.0945 588.04 43.6399 587.837C43.1901 587.633 42.8161 587.323 42.5178 586.906C42.2242 586.49 42.0774 585.964 42.0774 585.33V574.477ZM48.6044 588V577.091H50.2805V588H48.6044ZM49.4567 575.273C49.13 575.273 48.8482 575.161 48.6115 574.939C48.3795 574.716 48.2635 574.449 48.2635 574.136C48.2635 573.824 48.3795 573.556 48.6115 573.334C48.8482 573.111 49.13 573 49.4567 573C49.7834 573 50.0627 573.111 50.2947 573.334C50.5315 573.556 50.6499 573.824 50.6499 574.136C50.6499 574.449 50.5315 574.716 50.2947 574.939C50.0627 575.161 49.7834 575.273 49.4567 575.273ZM55.0266 581.438V588H53.3505V577.091H54.9698V578.795H55.1119C55.3675 578.241 55.7558 577.796 56.2766 577.46C56.7975 577.119 57.4698 576.949 58.2937 576.949C59.0323 576.949 59.6786 577.1 60.2326 577.403C60.7866 577.702 61.2174 578.156 61.5252 578.767C61.833 579.373 61.9869 580.14 61.9869 581.068V588H60.3107V581.182C60.3107 580.325 60.0882 579.657 59.6431 579.179C59.198 578.696 58.5872 578.455 57.8107 578.455C57.2757 578.455 56.7975 578.571 56.3761 578.803C55.9594 579.035 55.6303 579.373 55.3888 579.818C55.1474 580.263 55.0266 580.803 55.0266 581.438ZM71.9247 583.54V577.091H73.6009V588H71.9247V586.153H71.8111C71.5554 586.707 71.1577 587.179 70.6179 587.567C70.0781 587.95 69.3963 588.142 68.5724 588.142C67.8906 588.142 67.2846 587.993 66.7543 587.695C66.224 587.392 65.8073 586.937 65.5043 586.331C65.2012 585.72 65.0497 584.951 65.0497 584.023V577.091H66.7259V583.909C66.7259 584.705 66.9484 585.339 67.3935 585.812C67.8433 586.286 68.4162 586.523 69.1122 586.523C69.5289 586.523 69.9527 586.416 70.3835 586.203C70.8191 585.99 71.1837 585.663 71.4773 585.223C71.7756 584.783 71.9247 584.222 71.9247 583.54ZM81.2447 588.227C80.1935 588.227 79.2868 587.995 78.5245 587.531C77.7669 587.062 77.1822 586.409 76.7702 585.571C76.363 584.728 76.1594 583.748 76.1594 582.631C76.1594 581.513 76.363 580.528 76.7702 579.676C77.1822 578.819 77.7551 578.152 78.489 577.673C79.2276 577.19 80.0894 576.949 81.0742 576.949C81.6424 576.949 82.2035 577.044 82.7575 577.233C83.3114 577.422 83.8157 577.73 84.2702 578.156C84.7248 578.578 85.087 579.136 85.3569 579.832C85.6268 580.528 85.7617 581.385 85.7617 582.403V583.114H77.3526V581.665H84.0572C84.0572 581.049 83.9341 580.5 83.6879 580.017C83.4464 579.534 83.1007 579.153 82.6509 578.874C82.2058 578.594 81.6803 578.455 81.0742 578.455C80.4066 578.455 79.829 578.62 79.3413 578.952C78.8583 579.278 78.4866 579.705 78.2262 580.23C77.9658 580.756 77.8356 581.319 77.8356 581.92V582.886C77.8356 583.71 77.9776 584.409 78.2617 584.982C78.5505 585.55 78.9506 585.983 79.462 586.281C79.9734 586.575 80.5676 586.722 81.2447 586.722C81.685 586.722 82.0827 586.66 82.4379 586.537C82.7977 586.409 83.1078 586.22 83.3683 585.969C83.6287 585.713 83.8299 585.396 83.9719 585.017L85.5913 585.472C85.4208 586.021 85.1344 586.504 84.7319 586.92C84.3294 587.332 83.8323 587.654 83.2404 587.886C82.6486 588.114 81.9833 588.227 81.2447 588.227ZM96.0387 579.534L94.533 579.96C94.4383 579.709 94.2987 579.465 94.114 579.229C93.9341 578.987 93.6879 578.788 93.3754 578.632C93.0629 578.476 92.6628 578.398 92.1751 578.398C91.5075 578.398 90.9511 578.552 90.506 578.859C90.0657 579.162 89.8455 579.548 89.8455 580.017C89.8455 580.434 89.997 580.763 90.3001 581.004C90.6031 581.246 91.0766 581.447 91.7205 581.608L93.3398 582.006C94.3152 582.242 95.042 582.605 95.5202 583.092C95.9985 583.575 96.2376 584.198 96.2376 584.96C96.2376 585.585 96.0576 586.144 95.6978 586.636C95.3427 587.129 94.8455 587.517 94.2063 587.801C93.5671 588.085 92.8237 588.227 91.9762 588.227C90.8635 588.227 89.9426 587.986 89.2134 587.503C88.4843 587.02 88.0226 586.314 87.8285 585.386L89.4194 584.989C89.5709 585.576 89.8574 586.016 90.2788 586.31C90.7049 586.603 91.2612 586.75 91.9478 586.75C92.729 586.75 93.3493 586.584 93.8086 586.253C94.2726 585.917 94.5046 585.514 94.5046 585.045C94.5046 584.667 94.372 584.349 94.1069 584.094C93.8417 583.833 93.4345 583.639 92.8853 583.511L91.0671 583.085C90.0681 582.848 89.3342 582.482 88.8654 581.984C88.4014 581.482 88.1694 580.855 88.1694 580.102C88.1694 579.487 88.3422 578.942 88.6879 578.469C89.0382 577.995 89.5141 577.624 90.1154 577.354C90.7215 577.084 91.408 576.949 92.1751 576.949C93.2546 576.949 94.1022 577.186 94.7177 577.659C95.3379 578.133 95.7783 578.758 96.0387 579.534ZM99.9822 588.114C99.6319 588.114 99.3312 587.988 99.0803 587.737C98.8293 587.486 98.7038 587.186 98.7038 586.835C98.7038 586.485 98.8293 586.184 99.0803 585.933C99.3312 585.682 99.6319 585.557 99.9822 585.557C100.333 585.557 100.633 585.682 100.884 585.933C101.135 586.184 101.261 586.485 101.261 586.835C101.261 587.067 101.201 587.28 101.083 587.474C100.969 587.669 100.816 587.825 100.621 587.943C100.432 588.057 100.219 588.114 99.9822 588.114Z" fill="black"/>
<path d="M472.5 384.5V293.5H368.5V384.5" stroke="black" stroke-width="8"/>
<path d="M346.5 329.5H440L452.475 402.5H475.5L453.5 408.5H360L346.5 329.5Z" fill="#3F88C5"/>
<path d="M453.5 408.5H360L346.5 329.5H440L452.475 402.5M453.5 408.5L475.5 402.5H452.475M453.5 408.5L452.475 402.5" stroke="black" stroke-width="8"/>
<path d="M35 114.5V167.5M198.5 70L160.5 233.5" stroke="black" stroke-width="8"/>
<path d="M162.5 231C162.5 260.5 162.5 270.706 169 294.5C180.301 335.868 196.868 335.424 224 343C263.842 331.496 229 405 224 417" stroke="black" stroke-width="8"/>
<circle cx="224" cy="238" r="46" fill="white" stroke="black" stroke-width="8"/>
<path d="M224 285V420" stroke="black" stroke-width="8"/>
<path d="M326 470.5H453" stroke="black" stroke-width="8"/>
<path d="M450.5 469.5V519.5M460.5 466V519.5" stroke="black" stroke-width="8"/>
<path d="M331 472.5V522" stroke="black" stroke-width="8"/>
<path d="M35 379L49.5 312" stroke="black" stroke-width="8"/>
<path d="M51.5 384.5L73.5 355M73.5 384.5L132 343.5" stroke="black" stroke-width="8"/>
</g>
<defs>
<clipPath id="clip0_3_76">
<rect width="500" height="600" fill="white"/>
</clipPath>
</defs>
</svg>
