<svg width="500" height="600" viewBox="0 0 500 600" fill="none" xmlns="http://www.w3.org/2000/svg">
<g clip-path="url(#clip0_3_144)">
<rect width="500" height="600" fill="white"/>
<path d="M159.5 438.5L255 412.079L350.5 385.659H503.5M159.5 438.5H212H261.5H503.5M159.5 438.5V461H212M212 522V461M261.5 522V461M503.5 461H261.5M261.5 461H212M21 121V90.8413L116.5 64.4207L212 38V77M21 121L116.5 94.5793L212 68.1587M21 121C21 123.03 21 125.451 21 128M21 304.421L116.5 278L212 251.579M21 315.262L116.5 288.841L212 262.421M21 326.421L116.5 300L212 273.579M21 338.421L116.5 312L212 285.579M21 144.762L212 92.5M21 144.762C21 142.496 21 137.995 21 135M21 144.762C21 149.482 21 149.453 21 154M212 92.5V85M212 92.5V101.5M21 173.262L212 121M19.5 183L210.5 130.738M21 240.262L212 188M19.5 262.421L210.5 210.159M21 252.079C21 295.34 21 360.293 21 417L116.5 390.579L212 364.159V199.5M21 252.079L212 199.5M21 252.079C21 249.886 21 269.194 21 267C21 255.937 21 241.843 21 230.5M212 199.5V178M21 230.5L212 178M21 230.5C21 209.339 21 188.311 21 164M212 178V111M21 164L212 111M21 164C21 161.035 21 157.036 21 154M212 111V101.5M21 135L212 85M21 135C21 132.693 21 130.295 21 128M212 85V77M21 154L212 101.5M21 128L212 77M21 202L212 149.5M21 212L212 159.5M21 221L212 168.5M21 271.5L212 219.238M21 282.762L212 230.5M21 292.524L212 240.262" stroke="black" stroke-width="8"/>
<path d="M159.5 438.5L255 412.079L350.5 385.659H503.5M159.5 438.5H212H261.5H503.5M159.5 438.5V461H212M212 522V461M261.5 522V461M503.5 461H261.5M261.5 461H212M21 121V90.8413L116.5 64.4207L212 38V77M21 121L116.5 94.5793L212 68.1587M21 121C21 123.03 21 125.451 21 128M21 304.421L116.5 278L212 251.579M21 315.262L116.5 288.841L212 262.421M21 326.421L116.5 300L212 273.579M21 338.421L116.5 312L212 285.579M21 144.762L212 92.5M21 144.762C21 142.496 21 137.995 21 135M21 144.762C21 149.482 21 149.453 21 154M212 92.5V85M212 92.5V101.5M21 173.262L212 121M19.5 183L210.5 130.738M21 240.262L212 188M19.5 262.421L210.5 210.159M21 252.079C21 295.34 21 360.293 21 417L116.5 390.579L212 364.159V199.5M21 252.079L212 199.5M21 252.079C21 249.886 21 269.194 21 267C21 255.937 21 241.843 21 230.5M212 199.5V178M21 230.5L212 178M21 230.5C21 209.339 21 188.311 21 164M212 178V111M21 164L212 111M21 164C21 161.035 21 157.036 21 154M212 111V101.5M21 135L212 85M21 135C21 132.693 21 130.295 21 128M212 85V77M21 154L212 101.5M21 128L212 77M21 202L212 149.5M21 212L212 159.5M21 221L212 168.5M21 271.5L212 219.238M21 282.762L212 230.5M21 292.524L212 240.262" stroke="black" stroke-width="8"/>
<path d="M19 193L210 140" stroke="black" stroke-width="8"/>
<path d="M6.58523 542V528.909H14.4347V530.315H8.17045V534.739H13.8466V536.145H8.17045V542H6.58523ZM16.9451 542V532.182H18.4537V542H16.9451ZM17.7122 530.545C17.4181 530.545 17.1646 530.445 16.9515 530.245C16.7427 530.045 16.6383 529.804 16.6383 529.523C16.6383 529.241 16.7427 529.001 16.9515 528.8C17.1646 528.6 17.4181 528.5 17.7122 528.5C18.0062 528.5 18.2576 528.6 18.4664 528.8C18.6795 529.001 18.786 529.241 18.786 529.523C18.786 529.804 18.6795 530.045 18.4664 530.245C18.2576 530.445 18.0062 530.545 17.7122 530.545ZM22.7251 536.094V542H21.2166V532.182H22.674V533.716H22.8018C23.032 533.217 23.3814 532.817 23.8501 532.514C24.3189 532.207 24.924 532.054 25.6655 532.054C26.3303 532.054 26.9119 532.19 27.4105 532.463C27.9091 532.732 28.2969 533.141 28.5739 533.69C28.8509 534.236 28.9893 534.926 28.9893 535.761V542H27.4808V535.864C27.4808 535.092 27.2805 534.491 26.88 534.061C26.4794 533.626 25.9297 533.409 25.2308 533.409C24.7493 533.409 24.3189 533.513 23.9396 533.722C23.5646 533.931 23.2685 534.236 23.0511 534.636C22.8338 535.037 22.7251 535.523 22.7251 536.094ZM34.6351 542.23C34.013 542.23 33.4483 542.113 32.9412 541.879C32.4341 541.64 32.0314 541.297 31.7331 540.849C31.4348 540.398 31.2857 539.852 31.2857 539.213C31.2857 538.651 31.3965 538.195 31.6181 537.845C31.8397 537.491 32.1358 537.214 32.5066 537.014C32.8773 536.814 33.2864 536.665 33.7338 536.567C34.1855 536.464 34.6394 536.384 35.0953 536.324C35.6919 536.247 36.1756 536.19 36.5463 536.151C36.9213 536.109 37.1941 536.038 37.3645 535.94C37.5392 535.842 37.6266 535.672 37.6266 535.429V535.378C37.6266 534.747 37.454 534.257 37.1088 533.908C36.7679 533.558 36.2502 533.384 35.5556 533.384C34.8354 533.384 34.2708 533.541 33.8617 533.857C33.4526 534.172 33.165 534.509 32.9988 534.866L31.5669 534.355C31.8226 533.759 32.1635 533.294 32.5897 532.962C33.0201 532.625 33.4888 532.391 33.9959 532.259C34.5073 532.122 35.0101 532.054 35.5044 532.054C35.8198 532.054 36.182 532.092 36.5911 532.169C37.0044 532.241 37.4029 532.393 37.7864 532.623C38.1742 532.853 38.4959 533.2 38.7516 533.665C39.0073 534.129 39.1351 534.751 39.1351 535.531V542H37.6266V540.67H37.5499C37.4476 540.884 37.2772 541.112 37.0385 541.354C36.7999 541.597 36.4824 541.804 36.0861 541.974C35.6898 542.145 35.2061 542.23 34.6351 542.23ZM34.8652 540.875C35.4618 540.875 35.9647 540.758 36.3738 540.523C36.7871 540.289 37.0982 539.987 37.307 539.616C37.5201 539.245 37.6266 538.855 37.6266 538.446V537.065C37.5627 537.142 37.4221 537.212 37.2047 537.276C36.9917 537.336 36.7445 537.389 36.4632 537.436C36.1863 537.479 35.9157 537.517 35.6515 537.551C35.3915 537.581 35.1806 537.607 35.0186 537.628C34.6266 537.679 34.2601 537.762 33.9192 537.877C33.5826 537.988 33.3098 538.156 33.101 538.382C32.8965 538.604 32.7942 538.906 32.7942 539.29C32.7942 539.814 32.9881 540.21 33.3759 540.479C33.7679 540.743 34.2644 540.875 34.8652 540.875ZM43.397 528.909V542H41.8885V528.909H43.397ZM47.6685 528.909V542H46.16V528.909H47.6685ZM51.4031 545.682C51.1474 545.682 50.9194 545.661 50.7191 545.618C50.5188 545.58 50.3803 545.541 50.3036 545.503L50.6871 544.173C51.0536 544.267 51.3775 544.301 51.6587 544.276C51.94 544.25 52.1893 544.124 52.4066 543.898C52.6282 543.677 52.8306 543.317 53.0138 542.818L53.2951 542.051L49.6644 532.182H51.3008L54.011 540.006H54.1133L56.8235 532.182H58.4599L54.2923 543.432C54.1048 543.939 53.8725 544.359 53.5955 544.691C53.3185 545.028 52.9968 545.277 52.6303 545.439C52.2681 545.601 51.859 545.682 51.4031 545.682ZM62.0858 540.21L61.9835 540.901C61.911 541.386 61.8002 541.906 61.6511 542.46C61.5062 543.014 61.3549 543.536 61.1973 544.026C61.0396 544.516 60.9096 544.906 60.8074 545.196H59.6568C59.7122 544.923 59.7846 544.563 59.8741 544.116C59.9636 543.668 60.0531 543.168 60.1426 542.614C60.2363 542.064 60.313 541.501 60.3727 540.926L60.4494 540.21H62.0858ZM74.3409 542H69.7003V528.909H74.3793C75.696 528.909 76.8295 529.171 77.7798 529.695C78.7301 530.215 79.4609 530.963 79.9723 531.939C80.4879 532.915 80.7457 534.082 80.7457 535.442C80.7457 536.805 80.4879 537.977 79.9723 538.957C79.4609 539.937 78.7259 540.69 77.767 541.214C76.8125 541.738 75.6705 542 74.3409 542ZM72.468 539.629H74.2259C75.044 539.629 75.7322 539.484 76.2905 539.194C76.853 538.9 77.2749 538.446 77.5561 537.832C77.8416 537.214 77.9844 536.418 77.9844 535.442C77.9844 534.474 77.8416 533.684 77.5561 533.07C77.2749 532.457 76.8551 532.005 76.2969 531.715C75.7386 531.425 75.0504 531.281 74.2322 531.281H72.468V539.629ZM87.2193 542.192C86.2093 542.192 85.34 541.987 84.6113 541.578C83.8869 541.165 83.3287 540.581 82.9366 539.827C82.5446 539.068 82.3485 538.171 82.3485 537.136C82.3485 536.126 82.5446 535.239 82.9366 534.477C83.3287 533.714 83.8805 533.119 84.5922 532.693C85.3081 532.267 86.1475 532.054 87.1106 532.054C87.7583 532.054 88.3613 532.158 88.9196 532.367C89.4821 532.572 89.9721 532.881 90.3897 533.294C90.8116 533.707 91.1397 534.227 91.3741 534.854C91.6085 535.476 91.7257 536.205 91.7257 537.04V537.788H83.4352V536.1H89.1625C89.1625 535.708 89.0772 535.361 88.9068 535.058C88.7363 534.756 88.4998 534.519 88.1973 534.349C87.899 534.174 87.5517 534.087 87.1554 534.087C86.742 534.087 86.3755 534.183 86.0559 534.374C85.7406 534.562 85.4934 534.815 85.3145 535.135C85.1355 535.45 85.0439 535.802 85.0396 536.19V537.794C85.0396 538.28 85.1291 538.7 85.3081 539.053C85.4913 539.407 85.7491 539.68 86.0815 539.871C86.4139 540.063 86.8081 540.159 87.264 540.159C87.5666 540.159 87.8436 540.116 88.095 540.031C88.3464 539.946 88.5616 539.818 88.7406 539.648C88.9196 539.477 89.0559 539.268 89.1497 539.021L91.6681 539.188C91.5403 539.793 91.2782 540.321 90.8819 540.773C90.4899 541.22 89.9828 541.57 89.3606 541.821C88.7427 542.068 88.0289 542.192 87.2193 542.192ZM96.2257 536.324V542H93.5027V532.182H96.0978V533.914H96.2129C96.4302 533.343 96.7946 532.891 97.3059 532.559C97.8173 532.222 98.4373 532.054 99.166 532.054C99.8478 532.054 100.442 532.203 100.949 532.501C101.456 532.8 101.851 533.226 102.132 533.78C102.413 534.33 102.554 534.986 102.554 535.749V542H99.8308V536.234C99.835 535.634 99.6816 535.165 99.3706 534.828C99.0595 534.487 98.6312 534.317 98.0858 534.317C97.7193 534.317 97.3954 534.396 97.1142 534.553C96.8372 534.711 96.6199 534.941 96.4622 535.244C96.3088 535.542 96.2299 535.902 96.2257 536.324ZM104.7 542V532.182H107.423V542H104.7ZM106.068 530.916C105.663 530.916 105.316 530.782 105.026 530.513C104.74 530.241 104.598 529.915 104.598 529.536C104.598 529.161 104.74 528.839 105.026 528.57C105.316 528.298 105.663 528.161 106.068 528.161C106.473 528.161 106.818 528.298 107.103 528.57C107.393 528.839 107.538 529.161 107.538 529.536C107.538 529.915 107.393 530.241 107.103 530.513C106.818 530.782 106.473 530.916 106.068 530.916ZM114.04 542.192C113.035 542.192 112.17 541.979 111.445 541.553C110.725 541.122 110.171 540.526 109.783 539.763C109.4 539 109.208 538.122 109.208 537.129C109.208 536.124 109.402 535.241 109.79 534.483C110.182 533.72 110.738 533.126 111.458 532.7C112.178 532.269 113.035 532.054 114.028 532.054C114.884 532.054 115.634 532.21 116.278 532.521C116.921 532.832 117.43 533.268 117.805 533.831C118.18 534.393 118.387 535.054 118.425 535.812H115.856C115.783 535.322 115.591 534.928 115.28 534.63C114.974 534.327 114.571 534.176 114.072 534.176C113.65 534.176 113.282 534.291 112.966 534.521C112.655 534.747 112.412 535.077 112.238 535.512C112.063 535.947 111.976 536.473 111.976 537.091C111.976 537.717 112.061 538.25 112.231 538.689C112.406 539.128 112.651 539.462 112.966 539.692C113.282 539.923 113.65 540.038 114.072 540.038C114.383 540.038 114.662 539.974 114.91 539.846C115.161 539.718 115.368 539.533 115.53 539.29C115.696 539.043 115.805 538.746 115.856 538.401H118.425C118.383 539.151 118.178 539.812 117.812 540.383C117.449 540.95 116.949 541.393 116.309 541.712C115.67 542.032 114.914 542.192 114.04 542.192ZM124.643 542.192C123.633 542.192 122.764 541.987 122.035 541.578C121.311 541.165 120.752 540.581 120.36 539.827C119.968 539.068 119.772 538.171 119.772 537.136C119.772 536.126 119.968 535.239 120.36 534.477C120.752 533.714 121.304 533.119 122.016 532.693C122.732 532.267 123.571 532.054 124.534 532.054C125.182 532.054 125.785 532.158 126.343 532.367C126.906 532.572 127.396 532.881 127.814 533.294C128.235 533.707 128.564 534.227 128.798 534.854C129.032 535.476 129.15 536.205 129.15 537.04V537.788H120.859V536.1H126.586C126.586 535.708 126.501 535.361 126.331 535.058C126.16 534.756 125.924 534.519 125.621 534.349C125.323 534.174 124.975 534.087 124.579 534.087C124.166 534.087 123.799 534.183 123.48 534.374C123.164 534.562 122.917 534.815 122.738 535.135C122.559 535.45 122.468 535.802 122.463 536.19V537.794C122.463 538.28 122.553 538.7 122.732 539.053C122.915 539.407 123.173 539.68 123.505 539.871C123.838 540.063 124.232 540.159 124.688 540.159C124.99 540.159 125.267 540.116 125.519 540.031C125.77 539.946 125.985 539.818 126.164 539.648C126.343 539.477 126.48 539.268 126.574 539.021L129.092 539.188C128.964 539.793 128.702 540.321 128.306 540.773C127.914 541.22 127.407 541.57 126.784 541.821C126.167 542.068 125.453 542.192 124.643 542.192ZM140.553 532.182V533.46H135.465V532.182H140.553ZM136.948 529.83H138.456V539.188C138.456 539.614 138.518 539.933 138.642 540.146C138.77 540.355 138.931 540.496 139.127 540.568C139.328 540.636 139.539 540.67 139.76 540.67C139.926 540.67 140.063 540.662 140.169 540.645C140.276 540.624 140.361 540.607 140.425 540.594L140.732 541.949C140.63 541.987 140.487 542.026 140.304 542.064C140.12 542.107 139.888 542.128 139.607 542.128C139.181 542.128 138.763 542.036 138.354 541.853C137.949 541.67 137.613 541.391 137.344 541.016C137.08 540.641 136.948 540.168 136.948 539.597V529.83ZM144.542 536.094V542H143.033V528.909H144.542V533.716H144.669C144.9 533.209 145.245 532.806 145.705 532.508C146.169 532.205 146.787 532.054 147.559 532.054C148.228 532.054 148.814 532.188 149.316 532.457C149.819 532.721 150.209 533.128 150.486 533.678C150.767 534.223 150.908 534.918 150.908 535.761V542H149.4V535.864C149.4 535.084 149.197 534.481 148.792 534.055C148.392 533.624 147.836 533.409 147.124 533.409C146.63 533.409 146.186 533.513 145.794 533.722C145.407 533.931 145.1 534.236 144.874 534.636C144.652 535.037 144.542 535.523 144.542 536.094ZM153.668 542V532.182H155.176V542H153.668ZM154.435 530.545C154.141 530.545 153.887 530.445 153.674 530.245C153.465 530.045 153.361 529.804 153.361 529.523C153.361 529.241 153.465 529.001 153.674 528.8C153.887 528.6 154.141 528.5 154.435 528.5C154.729 528.5 154.98 528.6 155.189 528.8C155.402 529.001 155.509 529.241 155.509 529.523C155.509 529.804 155.402 530.045 155.189 530.245C154.98 530.445 154.729 530.545 154.435 530.545ZM159.448 536.094V542H157.939V532.182H159.397V533.716H159.525C159.755 533.217 160.104 532.817 160.573 532.514C161.042 532.207 161.647 532.054 162.388 532.054C163.053 532.054 163.635 532.19 164.133 532.463C164.632 532.732 165.02 533.141 165.297 533.69C165.574 534.236 165.712 534.926 165.712 535.761V542H164.203V535.864C164.203 535.092 164.003 534.491 163.603 534.061C163.202 533.626 162.652 533.409 161.953 533.409C161.472 533.409 161.042 533.513 160.662 533.722C160.287 533.931 159.991 534.236 159.774 534.636C159.556 535.037 159.448 535.523 159.448 536.094ZM169.875 538.42L169.849 536.554H170.156L174.452 532.182H176.318L171.741 536.81H171.613L169.875 538.42ZM168.469 542V528.909H169.977V542H168.469ZM174.707 542L170.872 537.142L171.946 536.094L176.625 542H174.707ZM185.214 534.381L183.859 534.764C183.774 534.538 183.648 534.319 183.482 534.106C183.32 533.888 183.098 533.71 182.817 533.569C182.536 533.428 182.176 533.358 181.737 533.358C181.136 533.358 180.635 533.496 180.235 533.773C179.838 534.046 179.64 534.393 179.64 534.815C179.64 535.19 179.777 535.487 180.049 535.704C180.322 535.921 180.748 536.102 181.328 536.247L182.785 536.605C183.663 536.818 184.317 537.144 184.748 537.583C185.178 538.018 185.393 538.578 185.393 539.264C185.393 539.827 185.231 540.33 184.907 540.773C184.588 541.216 184.14 541.565 183.565 541.821C182.99 542.077 182.321 542.205 181.558 542.205C180.556 542.205 179.728 541.987 179.071 541.553C178.415 541.118 178 540.483 177.825 539.648L179.257 539.29C179.393 539.818 179.651 540.214 180.03 540.479C180.414 540.743 180.914 540.875 181.532 540.875C182.235 540.875 182.794 540.726 183.207 540.428C183.625 540.125 183.833 539.763 183.833 539.341C183.833 539 183.714 538.714 183.475 538.484C183.237 538.25 182.87 538.075 182.376 537.96L180.74 537.577C179.841 537.364 179.18 537.033 178.758 536.586C178.341 536.134 178.132 535.57 178.132 534.892C178.132 534.338 178.287 533.848 178.598 533.422C178.914 532.996 179.342 532.661 179.883 532.418C180.429 532.175 181.047 532.054 181.737 532.054C182.708 532.054 183.471 532.267 184.025 532.693C184.583 533.119 184.98 533.682 185.214 534.381ZM196.996 532.182V533.46H191.908V532.182H196.996ZM193.391 529.83H194.9V539.188C194.9 539.614 194.961 539.933 195.085 540.146C195.213 540.355 195.375 540.496 195.571 540.568C195.771 540.636 195.982 540.67 196.204 540.67C196.37 540.67 196.506 540.662 196.613 540.645C196.719 540.624 196.805 540.607 196.868 540.594L197.175 541.949C197.073 541.987 196.93 542.026 196.747 542.064C196.564 542.107 196.331 542.128 196.05 542.128C195.624 542.128 195.206 542.036 194.797 541.853C194.393 541.67 194.056 541.391 193.787 541.016C193.523 540.641 193.391 540.168 193.391 539.597V529.83ZM200.985 536.094V542H199.476V528.909H200.985V533.716H201.113C201.343 533.209 201.688 532.806 202.148 532.508C202.613 532.205 203.231 532.054 204.002 532.054C204.671 532.054 205.257 532.188 205.76 532.457C206.263 532.721 206.653 533.128 206.93 533.678C207.211 534.223 207.351 534.918 207.351 535.761V542H205.843V535.864C205.843 535.084 205.64 534.481 205.236 534.055C204.835 533.624 204.279 533.409 203.567 533.409C203.073 533.409 202.63 533.513 202.238 533.722C201.85 533.931 201.543 534.236 201.317 534.636C201.096 535.037 200.985 535.523 200.985 536.094ZM214.228 542.205C213.282 542.205 212.466 541.996 211.779 541.578C211.098 541.156 210.571 540.568 210.201 539.814C209.834 539.055 209.651 538.173 209.651 537.168C209.651 536.162 209.834 535.276 210.201 534.509C210.571 533.737 211.087 533.136 211.748 532.706C212.412 532.271 213.188 532.054 214.074 532.054C214.586 532.054 215.091 532.139 215.589 532.31C216.088 532.48 216.542 532.757 216.951 533.141C217.36 533.52 217.686 534.023 217.929 534.649C218.172 535.276 218.293 536.047 218.293 536.963V537.602H210.725V536.298H216.759C216.759 535.744 216.648 535.25 216.426 534.815C216.209 534.381 215.898 534.038 215.493 533.786C215.093 533.535 214.62 533.409 214.074 533.409C213.473 533.409 212.953 533.558 212.515 533.857C212.08 534.151 211.745 534.534 211.511 535.007C211.277 535.48 211.159 535.987 211.159 536.528V537.398C211.159 538.139 211.287 538.768 211.543 539.283C211.803 539.795 212.163 540.185 212.623 540.453C213.083 540.717 213.618 540.849 214.228 540.849C214.624 540.849 214.982 540.794 215.301 540.683C215.625 540.568 215.904 540.398 216.139 540.172C216.373 539.942 216.554 539.656 216.682 539.315L218.14 539.724C217.986 540.219 217.728 540.653 217.366 541.028C217.004 541.399 216.556 541.689 216.024 541.898C215.491 542.102 214.892 542.205 214.228 542.205ZM225.855 542V528.909H227.363V533.741H227.491C227.602 533.571 227.755 533.354 227.951 533.089C228.152 532.821 228.437 532.582 228.808 532.374C229.183 532.161 229.69 532.054 230.329 532.054C231.156 532.054 231.885 532.261 232.515 532.674C233.146 533.087 233.638 533.673 233.992 534.432C234.346 535.19 234.522 536.085 234.522 537.116C234.522 538.156 234.346 539.058 233.992 539.82C233.638 540.579 233.148 541.167 232.522 541.585C231.895 541.998 231.173 542.205 230.355 542.205C229.724 542.205 229.219 542.1 228.84 541.891C228.461 541.678 228.169 541.437 227.964 541.169C227.76 540.896 227.602 540.67 227.491 540.491H227.312V542H225.855ZM227.338 537.091C227.338 537.832 227.446 538.487 227.664 539.053C227.881 539.616 228.199 540.057 228.616 540.376C229.034 540.692 229.545 540.849 230.15 540.849C230.781 540.849 231.307 540.683 231.729 540.351C232.155 540.014 232.475 539.562 232.688 538.996C232.905 538.425 233.014 537.79 233.014 537.091C233.014 536.401 232.907 535.778 232.694 535.224C232.485 534.666 232.168 534.225 231.742 533.901C231.32 533.573 230.789 533.409 230.15 533.409C229.537 533.409 229.021 533.565 228.603 533.876C228.186 534.183 227.87 534.613 227.657 535.167C227.444 535.717 227.338 536.358 227.338 537.091ZM238.338 528.909V542H236.83V528.909H238.338ZM241.101 542V532.182H242.61V542H241.101ZM241.868 530.545C241.574 530.545 241.321 530.445 241.108 530.245C240.899 530.045 240.795 529.804 240.795 529.523C240.795 529.241 240.899 529.001 241.108 528.8C241.321 528.6 241.574 528.5 241.868 528.5C242.162 528.5 242.414 528.6 242.623 528.8C242.836 529.001 242.942 529.241 242.942 529.523C242.942 529.804 242.836 530.045 242.623 530.245C242.414 530.445 242.162 530.545 241.868 530.545ZM246.881 536.094V542H245.373V532.182H246.83V533.716H246.958C247.188 533.217 247.538 532.817 248.006 532.514C248.475 532.207 249.08 532.054 249.822 532.054C250.487 532.054 251.068 532.19 251.567 532.463C252.065 532.732 252.453 533.141 252.73 533.69C253.007 534.236 253.146 534.926 253.146 535.761V542H251.637V535.864C251.637 535.092 251.437 534.491 251.036 534.061C250.636 533.626 250.086 533.409 249.387 533.409C248.906 533.409 248.475 533.513 248.096 533.722C247.721 533.931 247.425 534.236 247.207 534.636C246.99 535.037 246.881 535.523 246.881 536.094ZM259.61 542.205C258.791 542.205 258.069 541.998 257.443 541.585C256.816 541.167 256.326 540.579 255.972 539.82C255.619 539.058 255.442 538.156 255.442 537.116C255.442 536.085 255.619 535.19 255.972 534.432C256.326 533.673 256.818 533.087 257.449 532.674C258.08 532.261 258.808 532.054 259.635 532.054C260.274 532.054 260.779 532.161 261.15 532.374C261.525 532.582 261.811 532.821 262.007 533.089C262.207 533.354 262.362 533.571 262.473 533.741H262.601V528.909H264.11V542H262.652V540.491H262.473C262.362 540.67 262.205 540.896 262 541.169C261.796 541.437 261.504 541.678 261.124 541.891C260.745 542.1 260.24 542.205 259.61 542.205ZM259.814 540.849C260.419 540.849 260.931 540.692 261.348 540.376C261.766 540.057 262.083 539.616 262.301 539.053C262.518 538.487 262.627 537.832 262.627 537.091C262.627 536.358 262.52 535.717 262.307 535.167C262.094 534.613 261.779 534.183 261.361 533.876C260.943 533.565 260.428 533.409 259.814 533.409C259.175 533.409 258.642 533.573 258.216 533.901C257.794 534.225 257.477 534.666 257.264 535.224C257.055 535.778 256.95 536.401 256.95 537.091C256.95 537.79 257.057 538.425 257.27 538.996C257.487 539.562 257.807 540.014 258.229 540.351C258.655 540.683 259.183 540.849 259.814 540.849ZM274.036 534.381L272.681 534.764C272.596 534.538 272.47 534.319 272.304 534.106C272.142 533.888 271.921 533.71 271.639 533.569C271.358 533.428 270.998 533.358 270.559 533.358C269.958 533.358 269.458 533.496 269.057 533.773C268.661 534.046 268.463 534.393 268.463 534.815C268.463 535.19 268.599 535.487 268.872 535.704C269.144 535.921 269.57 536.102 270.15 536.247L271.607 536.605C272.485 536.818 273.139 537.144 273.57 537.583C274 538.018 274.215 538.578 274.215 539.264C274.215 539.827 274.053 540.33 273.73 540.773C273.41 541.216 272.963 541.565 272.387 541.821C271.812 542.077 271.143 542.205 270.38 542.205C269.379 542.205 268.55 541.987 267.894 541.553C267.237 541.118 266.822 540.483 266.647 539.648L268.079 539.29C268.215 539.818 268.473 540.214 268.852 540.479C269.236 540.743 269.737 540.875 270.355 540.875C271.058 540.875 271.616 540.726 272.029 540.428C272.447 540.125 272.656 539.763 272.656 539.341C272.656 539 272.536 538.714 272.298 538.484C272.059 538.25 271.693 538.075 271.198 537.96L269.562 537.577C268.663 537.364 268.002 537.033 267.58 536.586C267.163 536.134 266.954 535.57 266.954 534.892C266.954 534.338 267.11 533.848 267.421 533.422C267.736 532.996 268.164 532.661 268.705 532.418C269.251 532.175 269.869 532.054 270.559 532.054C271.531 532.054 272.294 532.267 272.847 532.693C273.406 533.119 273.802 533.682 274.036 534.381ZM284.438 542.23C283.816 542.23 283.251 542.113 282.744 541.879C282.237 541.64 281.834 541.297 281.536 540.849C281.238 540.398 281.088 539.852 281.088 539.213C281.088 538.651 281.199 538.195 281.421 537.845C281.642 537.491 281.939 537.214 282.309 537.014C282.68 536.814 283.089 536.665 283.537 536.567C283.988 536.464 284.442 536.384 284.898 536.324C285.495 536.247 285.978 536.19 286.349 536.151C286.724 536.109 286.997 536.038 287.167 535.94C287.342 535.842 287.429 535.672 287.429 535.429V535.378C287.429 534.747 287.257 534.257 286.912 533.908C286.571 533.558 286.053 533.384 285.358 533.384C284.638 533.384 284.074 533.541 283.664 533.857C283.255 534.172 282.968 534.509 282.801 534.866L281.37 534.355C281.625 533.759 281.966 533.294 282.392 532.962C282.823 532.625 283.292 532.391 283.799 532.259C284.31 532.122 284.813 532.054 285.307 532.054C285.623 532.054 285.985 532.092 286.394 532.169C286.807 532.241 287.206 532.393 287.589 532.623C287.977 532.853 288.299 533.2 288.554 533.665C288.81 534.129 288.938 534.751 288.938 535.531V542H287.429V540.67H287.353C287.25 540.884 287.08 541.112 286.841 541.354C286.603 541.597 286.285 541.804 285.889 541.974C285.493 542.145 285.009 542.23 284.438 542.23ZM284.668 540.875C285.265 540.875 285.767 540.758 286.176 540.523C286.59 540.289 286.901 539.987 287.11 539.616C287.323 539.245 287.429 538.855 287.429 538.446V537.065C287.365 537.142 287.225 537.212 287.007 537.276C286.794 537.336 286.547 537.389 286.266 537.436C285.989 537.479 285.718 537.517 285.454 537.551C285.194 537.581 284.983 537.607 284.821 537.628C284.429 537.679 284.063 537.762 283.722 537.877C283.385 537.988 283.113 538.156 282.904 538.382C282.699 538.604 282.597 538.906 282.597 539.29C282.597 539.814 282.791 540.21 283.179 540.479C283.571 540.743 284.067 540.875 284.668 540.875ZM291.691 542V532.182H293.149V533.665H293.251C293.43 533.179 293.754 532.785 294.222 532.482C294.691 532.18 295.22 532.028 295.808 532.028C295.919 532.028 296.057 532.031 296.223 532.035C296.389 532.039 296.515 532.045 296.6 532.054V533.588C296.549 533.575 296.432 533.556 296.249 533.531C296.07 533.501 295.88 533.486 295.68 533.486C295.203 533.486 294.776 533.586 294.401 533.786C294.031 533.982 293.737 534.255 293.519 534.604C293.306 534.95 293.2 535.344 293.2 535.787V542H291.691ZM302.206 542.205C301.26 542.205 300.444 541.996 299.758 541.578C299.076 541.156 298.55 540.568 298.179 539.814C297.813 539.055 297.629 538.173 297.629 537.168C297.629 536.162 297.813 535.276 298.179 534.509C298.55 533.737 299.066 533.136 299.726 532.706C300.391 532.271 301.166 532.054 302.053 532.054C302.564 532.054 303.069 532.139 303.568 532.31C304.066 532.48 304.52 532.757 304.929 533.141C305.338 533.52 305.664 534.023 305.907 534.649C306.15 535.276 306.271 536.047 306.271 536.963V537.602H298.703V536.298H304.737C304.737 535.744 304.627 535.25 304.405 534.815C304.188 534.381 303.877 534.038 303.472 533.786C303.071 533.535 302.598 533.409 302.053 533.409C301.452 533.409 300.932 533.558 300.493 533.857C300.058 534.151 299.724 534.534 299.49 535.007C299.255 535.48 299.138 535.987 299.138 536.528V537.398C299.138 538.139 299.266 538.768 299.521 539.283C299.781 539.795 300.142 540.185 300.602 540.453C301.062 540.717 301.597 540.849 302.206 540.849C302.602 540.849 302.96 540.794 303.28 540.683C303.604 540.568 303.883 540.398 304.117 540.172C304.352 539.942 304.533 539.656 304.661 539.315L306.118 539.724C305.965 540.219 305.707 540.653 305.345 541.028C304.982 541.399 304.535 541.689 304.002 541.898C303.47 542.102 302.871 542.205 302.206 542.205ZM313.629 532.182H315.137V542.716C315.137 543.321 315.033 543.845 314.824 544.288C314.619 544.732 314.308 545.075 313.891 545.317C313.477 545.56 312.955 545.682 312.325 545.682C312.274 545.682 312.222 545.682 312.171 545.682C312.12 545.682 312.069 545.682 312.018 545.682V544.276C312.069 544.276 312.116 544.276 312.159 544.276C312.201 544.276 312.248 544.276 312.299 544.276C312.759 544.276 313.096 544.139 313.309 543.866C313.522 543.598 313.629 543.214 313.629 542.716V532.182ZM314.37 530.545C314.076 530.545 313.823 530.445 313.61 530.245C313.401 530.045 313.296 529.804 313.296 529.523C313.296 529.241 313.401 529.001 313.61 528.8C313.823 528.6 314.076 528.5 314.37 528.5C314.664 528.5 314.916 528.6 315.124 528.8C315.338 529.001 315.444 529.241 315.444 529.523C315.444 529.804 315.338 530.045 315.124 530.245C314.916 530.445 314.664 530.545 314.37 530.545ZM324.088 537.986V532.182H325.596V542H324.088V540.338H323.985C323.755 540.837 323.397 541.261 322.912 541.61C322.426 541.955 321.812 542.128 321.071 542.128C320.457 542.128 319.912 541.994 319.434 541.725C318.957 541.452 318.582 541.043 318.309 540.498C318.037 539.948 317.9 539.256 317.9 538.42V532.182H319.409V538.318C319.409 539.034 319.609 539.605 320.01 540.031C320.414 540.457 320.93 540.67 321.556 540.67C321.931 540.67 322.313 540.575 322.701 540.383C323.093 540.191 323.421 539.897 323.685 539.501C323.953 539.104 324.088 538.599 324.088 537.986ZM335.314 534.381L333.959 534.764C333.873 534.538 333.748 534.319 333.581 534.106C333.42 533.888 333.198 533.71 332.917 533.569C332.635 533.428 332.275 533.358 331.836 533.358C331.236 533.358 330.735 533.496 330.334 533.773C329.938 534.046 329.74 534.393 329.74 534.815C329.74 535.19 329.876 535.487 330.149 535.704C330.422 535.921 330.848 536.102 331.427 536.247L332.885 536.605C333.763 536.818 334.417 537.144 334.847 537.583C335.278 538.018 335.493 538.578 335.493 539.264C335.493 539.827 335.331 540.33 335.007 540.773C334.687 541.216 334.24 541.565 333.665 541.821C333.089 542.077 332.42 542.205 331.657 542.205C330.656 542.205 329.827 541.987 329.171 541.553C328.515 541.118 328.099 540.483 327.925 539.648L329.356 539.29C329.493 539.818 329.751 540.214 330.13 540.479C330.513 540.743 331.014 540.875 331.632 540.875C332.335 540.875 332.893 540.726 333.307 540.428C333.724 540.125 333.933 539.763 333.933 539.341C333.933 539 333.814 538.714 333.575 538.484C333.336 538.25 332.97 538.075 332.476 537.96L330.839 537.577C329.94 537.364 329.28 537.033 328.858 536.586C328.44 536.134 328.231 535.57 328.231 534.892C328.231 534.338 328.387 533.848 328.698 533.422C329.013 532.996 329.442 532.661 329.983 532.418C330.528 532.175 331.146 532.054 331.836 532.054C332.808 532.054 333.571 532.267 334.125 532.693C334.683 533.119 335.079 533.682 335.314 534.381ZM342.033 532.182V533.46H336.945V532.182H342.033ZM338.428 529.83H339.937V539.188C339.937 539.614 339.999 539.933 340.122 540.146C340.25 540.355 340.412 540.496 340.608 540.568C340.808 540.636 341.019 540.67 341.241 540.67C341.407 540.67 341.543 540.662 341.65 540.645C341.756 540.624 341.842 540.607 341.906 540.594L342.212 541.949C342.11 541.987 341.967 542.026 341.784 542.064C341.601 542.107 341.369 542.128 341.087 542.128C340.661 542.128 340.244 542.036 339.835 541.853C339.43 541.67 339.093 541.391 338.825 541.016C338.56 540.641 338.428 540.168 338.428 539.597V529.83ZM349.365 542V532.182H350.822V533.665H350.925C351.104 533.179 351.428 532.785 351.896 532.482C352.365 532.18 352.893 532.028 353.482 532.028C353.592 532.028 353.731 532.031 353.897 532.035C354.063 532.039 354.189 532.045 354.274 532.054V533.588C354.223 533.575 354.106 533.556 353.923 533.531C353.744 533.501 353.554 533.486 353.354 533.486C352.876 533.486 352.45 533.586 352.075 533.786C351.705 533.982 351.411 534.255 351.193 534.604C350.98 534.95 350.874 535.344 350.874 535.787V542H349.365ZM356.062 542V532.182H357.571V542H356.062ZM356.829 530.545C356.535 530.545 356.282 530.445 356.069 530.245C355.86 530.045 355.756 529.804 355.756 529.523C355.756 529.241 355.86 529.001 356.069 528.8C356.282 528.6 356.535 528.5 356.829 528.5C357.123 528.5 357.375 528.6 357.584 528.8C357.797 529.001 357.903 529.241 357.903 529.523C357.903 529.804 357.797 530.045 357.584 530.245C357.375 530.445 357.123 530.545 356.829 530.545ZM364.297 545.886C363.568 545.886 362.942 545.793 362.418 545.605C361.893 545.422 361.457 545.179 361.107 544.876C360.762 544.578 360.487 544.259 360.283 543.918L361.484 543.074C361.621 543.253 361.793 543.457 362.002 543.688C362.211 543.922 362.496 544.124 362.859 544.295C363.225 544.469 363.705 544.557 364.297 544.557C365.089 544.557 365.744 544.365 366.259 543.982C366.775 543.598 367.033 542.997 367.033 542.179V540.185H366.905C366.794 540.364 366.636 540.585 366.432 540.849C366.232 541.109 365.942 541.342 365.562 541.546C365.188 541.746 364.68 541.847 364.041 541.847C363.249 541.847 362.537 541.659 361.906 541.284C361.28 540.909 360.783 540.364 360.417 539.648C360.055 538.932 359.874 538.062 359.874 537.04C359.874 536.034 360.05 535.158 360.404 534.413C360.758 533.663 361.25 533.083 361.881 532.674C362.511 532.261 363.24 532.054 364.067 532.054C364.706 532.054 365.213 532.161 365.588 532.374C365.967 532.582 366.257 532.821 366.457 533.089C366.662 533.354 366.82 533.571 366.93 533.741H367.084V532.182H368.541V542.281C368.541 543.125 368.349 543.811 367.966 544.339C367.587 544.872 367.075 545.262 366.432 545.509C365.793 545.761 365.081 545.886 364.297 545.886ZM364.246 540.491C364.851 540.491 365.362 540.353 365.78 540.076C366.197 539.799 366.515 539.401 366.732 538.881C366.95 538.361 367.058 537.739 367.058 537.014C367.058 536.307 366.952 535.683 366.739 535.141C366.526 534.6 366.21 534.176 365.793 533.869C365.375 533.562 364.859 533.409 364.246 533.409C363.607 533.409 363.074 533.571 362.648 533.895C362.226 534.219 361.908 534.653 361.695 535.199C361.487 535.744 361.382 536.349 361.382 537.014C361.382 537.696 361.489 538.299 361.702 538.823C361.919 539.343 362.239 539.752 362.661 540.05C363.087 540.344 363.615 540.491 364.246 540.491ZM372.811 536.094V542H371.303V528.909H372.811V533.716H372.939C373.169 533.209 373.514 532.806 373.974 532.508C374.439 532.205 375.057 532.054 375.828 532.054C376.497 532.054 377.083 532.188 377.586 532.457C378.089 532.721 378.479 533.128 378.756 533.678C379.037 534.223 379.178 534.918 379.178 535.761V542H377.669V535.864C377.669 535.084 377.467 534.481 377.062 534.055C376.661 533.624 376.105 533.409 375.393 533.409C374.899 533.409 374.456 533.513 374.064 533.722C373.676 533.931 373.369 534.236 373.143 534.636C372.922 535.037 372.811 535.523 372.811 536.094ZM386.207 532.182V533.46H381.119V532.182H386.207ZM382.602 529.83H384.111V539.188C384.111 539.614 384.172 539.933 384.296 540.146C384.424 540.355 384.586 540.496 384.782 540.568C384.982 540.636 385.193 540.67 385.415 540.67C385.581 540.67 385.717 540.662 385.824 540.645C385.93 540.624 386.015 540.607 386.079 540.594L386.386 541.949C386.284 541.987 386.141 542.026 385.958 542.064C385.775 542.107 385.542 542.128 385.261 542.128C384.835 542.128 384.417 542.036 384.008 541.853C383.604 541.67 383.267 541.391 382.998 541.016C382.734 540.641 382.602 540.168 382.602 539.597V529.83ZM390.726 540.21L390.624 540.901C390.552 541.386 390.441 541.906 390.292 542.46C390.147 543.014 389.996 543.536 389.838 544.026C389.68 544.516 389.55 544.906 389.448 545.196H388.297C388.353 544.923 388.425 544.563 388.515 544.116C388.604 543.668 388.694 543.168 388.783 542.614C388.877 542.064 388.954 541.501 389.013 540.926L389.09 540.21H390.726ZM400.092 528.909V542H398.584V528.909H400.092ZM406.972 542.205C406.026 542.205 405.21 541.996 404.524 541.578C403.842 541.156 403.316 540.568 402.945 539.814C402.578 539.055 402.395 538.173 402.395 537.168C402.395 536.162 402.578 535.276 402.945 534.509C403.316 533.737 403.831 533.136 404.492 532.706C405.156 532.271 405.932 532.054 406.818 532.054C407.33 532.054 407.835 532.139 408.333 532.31C408.832 532.48 409.286 532.757 409.695 533.141C410.104 533.52 410.43 534.023 410.673 534.649C410.916 535.276 411.037 536.047 411.037 536.963V537.602H403.469V536.298H409.503C409.503 535.744 409.392 535.25 409.171 534.815C408.953 534.381 408.642 534.038 408.237 533.786C407.837 533.535 407.364 533.409 406.818 533.409C406.218 533.409 405.698 533.558 405.259 533.857C404.824 534.151 404.49 534.534 404.255 535.007C404.021 535.48 403.904 535.987 403.904 536.528V537.398C403.904 538.139 404.031 538.768 404.287 539.283C404.547 539.795 404.907 540.185 405.367 540.453C405.828 540.717 406.362 540.849 406.972 540.849C407.368 540.849 407.726 540.794 408.046 540.683C408.369 540.568 408.649 540.398 408.883 540.172C409.117 539.942 409.298 539.656 409.426 539.315L410.884 539.724C410.73 540.219 410.472 540.653 410.11 541.028C409.748 541.399 409.301 541.689 408.768 541.898C408.235 542.102 407.637 542.205 406.972 542.205ZM417.602 532.182V533.46H412.514V532.182H417.602ZM413.997 529.83H415.505V539.188C415.505 539.614 415.567 539.933 415.691 540.146C415.818 540.355 415.98 540.496 416.176 540.568C416.377 540.636 416.588 540.67 416.809 540.67C416.975 540.67 417.112 540.662 417.218 540.645C417.325 540.624 417.41 540.607 417.474 540.594L417.781 541.949C417.678 541.987 417.536 542.026 417.352 542.064C417.169 542.107 416.937 542.128 416.656 542.128C416.23 542.128 415.812 542.036 415.403 541.853C414.998 541.67 414.661 541.391 414.393 541.016C414.129 540.641 413.997 540.168 413.997 539.597V529.83ZM424.141 532.182V533.46H419.053V532.182H424.141ZM420.536 529.83H422.044V539.188C422.044 539.614 422.106 539.933 422.23 540.146C422.357 540.355 422.519 540.496 422.715 540.568C422.916 540.636 423.127 540.67 423.348 540.67C423.514 540.67 423.651 540.662 423.757 540.645C423.864 540.624 423.949 540.607 424.013 540.594L424.32 541.949C424.218 541.987 424.075 542.026 423.892 542.064C423.708 542.107 423.476 542.128 423.195 542.128C422.769 542.128 422.351 542.036 421.942 541.853C421.537 541.67 421.2 541.391 420.932 541.016C420.668 540.641 420.536 540.168 420.536 539.597V529.83ZM426.41 542V532.182H427.919V542H426.41ZM427.177 530.545C426.883 530.545 426.629 530.445 426.416 530.245C426.208 530.045 426.103 529.804 426.103 529.523C426.103 529.241 426.208 529.001 426.416 528.8C426.629 528.6 426.883 528.5 427.177 528.5C427.471 528.5 427.722 528.6 427.931 528.8C428.144 529.001 428.251 529.241 428.251 529.523C428.251 529.804 428.144 530.045 427.931 530.245C427.722 530.445 427.471 530.545 427.177 530.545ZM432.19 536.094V542H430.681V532.182H432.139V533.716H432.267C432.497 533.217 432.846 532.817 433.315 532.514C433.784 532.207 434.389 532.054 435.13 532.054C435.795 532.054 436.377 532.19 436.875 532.463C437.374 532.732 437.762 533.141 438.039 533.69C438.316 534.236 438.454 534.926 438.454 535.761V542H436.946V535.864C436.946 535.092 436.745 534.491 436.345 534.061C435.944 533.626 435.395 533.409 434.696 533.409C434.214 533.409 433.784 533.513 433.404 533.722C433.029 533.931 432.733 534.236 432.516 534.636C432.299 535.037 432.19 535.523 432.19 536.094ZM445.174 545.886C444.445 545.886 443.819 545.793 443.295 545.605C442.77 545.422 442.334 545.179 441.984 544.876C441.639 544.578 441.364 544.259 441.16 543.918L442.361 543.074C442.498 543.253 442.67 543.457 442.879 543.688C443.088 543.922 443.373 544.124 443.736 544.295C444.102 544.469 444.581 544.557 445.174 544.557C445.966 544.557 446.621 544.365 447.136 543.982C447.652 543.598 447.91 542.997 447.91 542.179V540.185H447.782C447.671 540.364 447.513 540.585 447.309 540.849C447.108 541.109 446.819 541.342 446.439 541.546C446.064 541.746 445.557 541.847 444.918 541.847C444.126 541.847 443.414 541.659 442.783 541.284C442.157 540.909 441.66 540.364 441.294 539.648C440.932 538.932 440.751 538.062 440.751 537.04C440.751 536.034 440.927 535.158 441.281 534.413C441.635 533.663 442.127 533.083 442.758 532.674C443.388 532.261 444.117 532.054 444.944 532.054C445.583 532.054 446.09 532.161 446.465 532.374C446.844 532.582 447.134 532.821 447.334 533.089C447.539 533.354 447.697 533.571 447.807 533.741H447.961V532.182H449.418V542.281C449.418 543.125 449.226 543.811 448.843 544.339C448.464 544.872 447.952 545.262 447.309 545.509C446.67 545.761 445.958 545.886 445.174 545.886ZM445.123 540.491C445.728 540.491 446.239 540.353 446.657 540.076C447.074 539.799 447.392 539.401 447.609 538.881C447.827 538.361 447.935 537.739 447.935 537.014C447.935 536.307 447.829 535.683 447.616 535.141C447.403 534.6 447.087 534.176 446.67 533.869C446.252 533.562 445.736 533.409 445.123 533.409C444.483 533.409 443.951 533.571 443.525 533.895C443.103 534.219 442.785 534.653 442.572 535.199C442.363 535.744 442.259 536.349 442.259 537.014C442.259 537.696 442.366 538.299 442.579 538.823C442.796 539.343 443.116 539.752 443.537 540.05C443.964 540.344 444.492 540.491 445.123 540.491ZM10.4972 564.205C9.55114 564.205 8.73509 563.996 8.04901 563.578C7.36719 563.156 6.84091 562.568 6.47017 561.814C6.10369 561.055 5.92045 560.173 5.92045 559.168C5.92045 558.162 6.10369 557.276 6.47017 556.509C6.84091 555.737 7.35653 555.136 8.01705 554.706C8.68182 554.271 9.45739 554.054 10.3438 554.054C10.8551 554.054 11.3601 554.139 11.8587 554.31C12.3572 554.48 12.8111 554.757 13.2202 555.141C13.6293 555.52 13.9553 556.023 14.1982 556.649C14.4411 557.276 14.5625 558.047 14.5625 558.963V559.602H6.99432V558.298H13.0284C13.0284 557.744 12.9176 557.25 12.696 556.815C12.4787 556.381 12.1676 556.038 11.7628 555.786C11.3622 555.535 10.8892 555.409 10.3438 555.409C9.7429 555.409 9.22301 555.558 8.78409 555.857C8.34943 556.151 8.01491 556.534 7.78054 557.007C7.54616 557.48 7.42898 557.987 7.42898 558.528V559.398C7.42898 560.139 7.55682 560.768 7.8125 561.283C8.07244 561.795 8.43253 562.185 8.89276 562.453C9.35298 562.717 9.88778 562.849 10.4972 562.849C10.8935 562.849 11.2514 562.794 11.571 562.683C11.8949 562.568 12.174 562.398 12.4084 562.172C12.6428 561.942 12.8239 561.656 12.9517 561.315L14.4091 561.724C14.2557 562.219 13.9979 562.653 13.6357 563.028C13.2734 563.399 12.826 563.689 12.2933 563.898C11.7607 564.102 11.1619 564.205 10.4972 564.205ZM18.3658 558.094V564H16.8572V554.182H18.3146V555.716H18.4425C18.6726 555.217 19.022 554.817 19.4908 554.514C19.9595 554.207 20.5646 554.054 21.3061 554.054C21.9709 554.054 22.5526 554.19 23.0511 554.463C23.5497 554.732 23.9375 555.141 24.2145 555.69C24.4915 556.236 24.63 556.926 24.63 557.761V564H23.1214V557.864C23.1214 557.092 22.9212 556.491 22.5206 556.061C22.12 555.626 21.5703 555.409 20.8714 555.409C20.3899 555.409 19.9595 555.513 19.5803 555.722C19.2053 555.931 18.9091 556.236 18.6918 556.636C18.4744 557.037 18.3658 557.523 18.3658 558.094ZM31.3752 564.205C30.4888 564.205 29.7111 563.994 29.0421 563.572C28.3773 563.15 27.8574 562.56 27.4824 561.801C27.1117 561.043 26.9263 560.156 26.9263 559.142C26.9263 558.119 27.1117 557.227 27.4824 556.464C27.8574 555.701 28.3773 555.109 29.0421 554.687C29.7111 554.265 30.4888 554.054 31.3752 554.054C32.2615 554.054 33.0371 554.265 33.7019 554.687C34.3709 555.109 34.8908 555.701 35.2615 556.464C35.6365 557.227 35.824 558.119 35.824 559.142C35.824 560.156 35.6365 561.043 35.2615 561.801C34.8908 562.56 34.3709 563.15 33.7019 563.572C33.0371 563.994 32.2615 564.205 31.3752 564.205ZM31.3752 562.849C32.0485 562.849 32.6025 562.677 33.0371 562.332C33.4718 561.987 33.7935 561.533 34.0023 560.97C34.2111 560.408 34.3155 559.798 34.3155 559.142C34.3155 558.486 34.2111 557.874 34.0023 557.308C33.7935 556.741 33.4718 556.283 33.0371 555.933C32.6025 555.584 32.0485 555.409 31.3752 555.409C30.7019 555.409 30.1479 555.584 29.7132 555.933C29.2786 556.283 28.9569 556.741 28.748 557.308C28.5392 557.874 28.4348 558.486 28.4348 559.142C28.4348 559.798 28.5392 560.408 28.748 560.97C28.9569 561.533 29.2786 561.987 29.7132 562.332C30.1479 562.677 30.7019 562.849 31.3752 562.849ZM44.3143 559.986V554.182H45.8228V564H44.3143V562.338H44.212C43.9819 562.837 43.6239 563.261 43.1381 563.61C42.6523 563.955 42.0387 564.128 41.2972 564.128C40.6836 564.128 40.1381 563.994 39.6609 563.725C39.1836 563.452 38.8086 563.043 38.5359 562.498C38.2631 561.948 38.1268 561.256 38.1268 560.42V554.182H39.6353V560.318C39.6353 561.034 39.8356 561.605 40.2362 562.031C40.641 562.457 41.1566 562.67 41.783 562.67C42.158 562.67 42.5394 562.575 42.9272 562.383C43.3192 562.191 43.6474 561.897 43.9116 561.501C44.18 561.104 44.3143 560.599 44.3143 559.986ZM52.5488 567.886C51.8201 567.886 51.1937 567.793 50.6696 567.605C50.1454 567.422 49.7086 567.179 49.3592 566.876C49.014 566.578 48.7392 566.259 48.5346 565.918L49.7363 565.074C49.8727 565.253 50.0453 565.457 50.2541 565.688C50.4629 565.922 50.7484 566.124 51.1106 566.295C51.4771 566.469 51.9565 566.557 52.5488 566.557C53.3414 566.557 53.9956 566.365 54.5112 565.982C55.0268 565.598 55.2846 564.997 55.2846 564.179V562.185H55.1568C55.046 562.364 54.8883 562.585 54.6838 562.849C54.4835 563.109 54.1937 563.342 53.8145 563.546C53.4395 563.746 52.9324 563.847 52.2931 563.847C51.5005 563.847 50.7889 563.659 50.1582 563.284C49.5318 562.909 49.0353 562.364 48.6689 561.648C48.3066 560.932 48.1255 560.062 48.1255 559.04C48.1255 558.034 48.3024 557.158 48.6561 556.413C49.0098 555.663 49.502 555.083 50.1326 554.674C50.7633 554.261 51.492 554.054 52.3187 554.054C52.9579 554.054 53.465 554.161 53.84 554.374C54.2193 554.582 54.5091 554.821 54.7093 555.089C54.9139 555.354 55.0716 555.571 55.1824 555.741H55.3358V554.182H56.7931V564.281C56.7931 565.125 56.6014 565.811 56.2179 566.339C55.8386 566.872 55.3272 567.262 54.6838 567.509C54.0446 567.761 53.3329 567.886 52.5488 567.886ZM52.4977 562.491C53.1028 562.491 53.6142 562.353 54.0318 562.076C54.4494 561.799 54.7669 561.401 54.9842 560.881C55.2015 560.361 55.3102 559.739 55.3102 559.014C55.3102 558.307 55.2037 557.683 54.9906 557.141C54.7775 556.6 54.4622 556.176 54.0446 555.869C53.627 555.562 53.1113 555.409 52.4977 555.409C51.8585 555.409 51.3258 555.571 50.8997 555.895C50.4778 556.219 50.1603 556.653 49.9473 557.199C49.7385 557.744 49.6341 558.349 49.6341 559.014C49.6341 559.696 49.7406 560.299 49.9537 560.823C50.171 561.343 50.4906 561.752 50.9125 562.05C51.3386 562.344 51.867 562.491 52.4977 562.491ZM61.063 558.094V564H59.5545V550.909H61.063V555.716H61.1909C61.421 555.209 61.7662 554.806 62.2264 554.508C62.6909 554.205 63.3088 554.054 64.0801 554.054C64.7491 554.054 65.335 554.188 65.8379 554.457C66.3407 554.721 66.7306 555.128 67.0076 555.678C67.2889 556.223 67.4295 556.918 67.4295 557.761V564H65.921V557.864C65.921 557.084 65.7186 556.481 65.3137 556.055C64.9132 555.624 64.3571 555.409 63.6454 555.409C63.1511 555.409 62.7079 555.513 62.3159 555.722C61.9281 555.931 61.6213 556.236 61.3954 556.636C61.1738 557.037 61.063 557.523 61.063 558.094ZM76.7603 550.909V564H75.2518V550.909H76.7603ZM79.5233 564V554.182H81.0318V564H79.5233ZM80.2903 552.545C79.9963 552.545 79.7427 552.445 79.5297 552.245C79.3208 552.045 79.2164 551.804 79.2164 551.523C79.2164 551.241 79.3208 551.001 79.5297 550.8C79.7427 550.6 79.9963 550.5 80.2903 550.5C80.5843 550.5 80.8358 550.6 81.0446 550.8C81.2576 551.001 81.3642 551.241 81.3642 551.523C81.3642 551.804 81.2576 552.045 81.0446 552.245C80.8358 552.445 80.5843 552.545 80.2903 552.545ZM87.7578 567.886C87.0291 567.886 86.4027 567.793 85.8786 567.605C85.3544 567.422 84.9176 567.179 84.5682 566.876C84.223 566.578 83.9482 566.259 83.7436 565.918L84.9453 565.074C85.0817 565.253 85.2543 565.457 85.4631 565.688C85.6719 565.922 85.9574 566.124 86.3196 566.295C86.6861 566.469 87.1655 566.557 87.7578 566.557C88.5504 566.557 89.2045 566.365 89.7202 565.982C90.2358 565.598 90.4936 564.997 90.4936 564.179V562.185H90.3658C90.255 562.364 90.0973 562.585 89.8928 562.849C89.6925 563.109 89.4027 563.342 89.0234 563.546C88.6484 563.746 88.1413 563.847 87.5021 563.847C86.7095 563.847 85.9979 563.659 85.3672 563.284C84.7408 562.909 84.2443 562.364 83.8778 561.648C83.5156 560.932 83.3345 560.062 83.3345 559.04C83.3345 558.034 83.5114 557.158 83.8651 556.413C84.2188 555.663 84.7109 555.083 85.3416 554.674C85.9723 554.261 86.701 554.054 87.5277 554.054C88.1669 554.054 88.674 554.161 89.049 554.374C89.4283 554.582 89.718 554.821 89.9183 555.089C90.1229 555.354 90.2805 555.571 90.3913 555.741H90.5447V554.182H92.0021V564.281C92.0021 565.125 91.8104 565.811 91.4268 566.339C91.0476 566.872 90.5362 567.262 89.8928 567.509C89.2536 567.761 88.5419 567.886 87.7578 567.886ZM87.7067 562.491C88.3118 562.491 88.8232 562.353 89.2408 562.076C89.6584 561.799 89.9759 561.401 90.1932 560.881C90.4105 560.361 90.5192 559.739 90.5192 559.014C90.5192 558.307 90.4126 557.683 90.1996 557.141C89.9865 556.6 89.6712 556.176 89.2536 555.869C88.8359 555.562 88.3203 555.409 87.7067 555.409C87.0675 555.409 86.5348 555.571 86.1087 555.895C85.6868 556.219 85.3693 556.653 85.1562 557.199C84.9474 557.744 84.843 558.349 84.843 559.014C84.843 559.696 84.9496 560.299 85.1626 560.823C85.38 561.343 85.6996 561.752 86.1214 562.05C86.5476 562.344 87.076 562.491 87.7067 562.491ZM96.272 558.094V564H94.7635V550.909H96.272V555.716H96.3999C96.63 555.209 96.9751 554.806 97.4354 554.508C97.8999 554.205 98.5178 554.054 99.2891 554.054C99.9581 554.054 100.544 554.188 101.047 554.457C101.55 554.721 101.94 555.128 102.217 555.678C102.498 556.223 102.638 556.918 102.638 557.761V564H101.13V557.864C101.13 557.084 100.928 556.481 100.523 556.055C100.122 555.624 99.5661 555.409 98.8544 555.409C98.3601 555.409 97.9169 555.513 97.5249 555.722C97.1371 555.931 96.8303 556.236 96.6044 556.636C96.3828 557.037 96.272 557.523 96.272 558.094ZM109.668 554.182V555.46H104.58V554.182H109.668ZM106.063 551.83H107.572V561.188C107.572 561.614 107.633 561.933 107.757 562.146C107.885 562.355 108.047 562.496 108.243 562.568C108.443 562.636 108.654 562.67 108.876 562.67C109.042 562.67 109.178 562.662 109.285 562.645C109.391 562.624 109.476 562.607 109.54 562.594L109.847 563.949C109.745 563.987 109.602 564.026 109.419 564.064C109.236 564.107 109.003 564.128 108.722 564.128C108.296 564.128 107.878 564.036 107.469 563.853C107.064 563.67 106.728 563.391 106.459 563.016C106.195 562.641 106.063 562.168 106.063 561.597V551.83ZM117 564V554.182H118.508V564H117ZM117.767 552.545C117.473 552.545 117.219 552.445 117.006 552.245C116.797 552.045 116.693 551.804 116.693 551.523C116.693 551.241 116.797 551.001 117.006 550.8C117.219 550.6 117.473 550.5 117.767 550.5C118.061 550.5 118.312 550.6 118.521 550.8C118.734 551.001 118.841 551.241 118.841 551.523C118.841 551.804 118.734 552.045 118.521 552.245C118.312 552.445 118.061 552.545 117.767 552.545ZM122.78 558.094V564H121.271V554.182H122.729V555.716H122.857C123.087 555.217 123.436 554.817 123.905 554.514C124.374 554.207 124.979 554.054 125.72 554.054C126.385 554.054 126.967 554.19 127.465 554.463C127.964 554.732 128.352 555.141 128.629 555.69C128.906 556.236 129.044 556.926 129.044 557.761V564H127.536V557.864C127.536 557.092 127.335 556.491 126.935 556.061C126.534 555.626 125.984 555.409 125.286 555.409C124.804 555.409 124.374 555.513 123.994 555.722C123.619 555.931 123.323 556.236 123.106 556.636C122.888 557.037 122.78 557.523 122.78 558.094ZM141.133 554.182V555.46H136.045V554.182H141.133ZM137.528 551.83H139.036V561.188C139.036 561.614 139.098 561.933 139.222 562.146C139.35 562.355 139.512 562.496 139.708 562.568C139.908 562.636 140.119 562.67 140.34 562.67C140.507 562.67 140.643 562.662 140.749 562.645C140.856 562.624 140.941 562.607 141.005 562.594L141.312 563.949C141.21 563.987 141.067 564.026 140.884 564.064C140.7 564.107 140.468 564.128 140.187 564.128C139.761 564.128 139.343 564.036 138.934 563.853C138.529 563.67 138.193 563.391 137.924 563.016C137.66 562.641 137.528 562.168 137.528 561.597V551.83ZM145.122 558.094V564H143.613V550.909H145.122V555.716H145.249C145.48 555.209 145.825 554.806 146.285 554.508C146.749 554.205 147.367 554.054 148.139 554.054C148.808 554.054 149.394 554.188 149.896 554.457C150.399 554.721 150.789 555.128 151.066 555.678C151.347 556.223 151.488 556.918 151.488 557.761V564H149.98V557.864C149.98 557.084 149.777 556.481 149.372 556.055C148.972 555.624 148.416 555.409 147.704 555.409C147.21 555.409 146.767 555.513 146.374 555.722C145.987 555.931 145.68 556.236 145.454 556.636C145.232 557.037 145.122 557.523 145.122 558.094ZM157.137 564.23C156.515 564.23 155.95 564.113 155.443 563.879C154.936 563.64 154.533 563.297 154.235 562.849C153.937 562.398 153.788 561.852 153.788 561.213C153.788 560.651 153.898 560.195 154.12 559.845C154.342 559.491 154.638 559.214 155.009 559.014C155.379 558.814 155.788 558.665 156.236 558.567C156.688 558.464 157.141 558.384 157.597 558.324C158.194 558.247 158.678 558.19 159.048 558.151C159.423 558.109 159.696 558.038 159.866 557.94C160.041 557.842 160.129 557.672 160.129 557.429V557.378C160.129 556.747 159.956 556.257 159.611 555.908C159.27 555.558 158.752 555.384 158.058 555.384C157.337 555.384 156.773 555.541 156.364 555.857C155.955 556.172 155.667 556.509 155.501 556.866L154.069 556.355C154.325 555.759 154.665 555.294 155.092 554.962C155.522 554.625 155.991 554.391 156.498 554.259C157.009 554.122 157.512 554.054 158.006 554.054C158.322 554.054 158.684 554.092 159.093 554.169C159.506 554.241 159.905 554.393 160.288 554.623C160.676 554.853 160.998 555.2 161.254 555.665C161.509 556.129 161.637 556.751 161.637 557.531V564H160.129V562.67H160.052C159.95 562.884 159.779 563.112 159.54 563.354C159.302 563.597 158.984 563.804 158.588 563.974C158.192 564.145 157.708 564.23 157.137 564.23ZM157.367 562.875C157.964 562.875 158.467 562.758 158.876 562.523C159.289 562.289 159.6 561.987 159.809 561.616C160.022 561.245 160.129 560.855 160.129 560.446V559.065C160.065 559.142 159.924 559.212 159.707 559.276C159.494 559.336 159.246 559.389 158.965 559.436C158.688 559.479 158.418 559.517 158.153 559.551C157.893 559.581 157.683 559.607 157.521 559.628C157.129 559.679 156.762 559.762 156.421 559.877C156.085 559.988 155.812 560.156 155.603 560.382C155.398 560.604 155.296 560.906 155.296 561.29C155.296 561.814 155.49 562.21 155.878 562.479C156.27 562.743 156.766 562.875 157.367 562.875ZM168.66 554.182V555.46H163.572V554.182H168.66ZM165.055 551.83H166.564V561.188C166.564 561.614 166.626 561.933 166.749 562.146C166.877 562.355 167.039 562.496 167.235 562.568C167.435 562.636 167.646 562.67 167.868 562.67C168.034 562.67 168.17 562.662 168.277 562.645C168.383 562.624 168.469 562.607 168.532 562.594L168.839 563.949C168.737 563.987 168.594 564.026 168.411 564.064C168.228 564.107 167.996 564.128 167.714 564.128C167.288 564.128 166.871 564.036 166.461 563.853C166.057 563.67 165.72 563.391 165.452 563.016C165.187 562.641 165.055 562.168 165.055 561.597V551.83ZM180.262 554.182V555.46H175.174V554.182H180.262ZM176.657 551.83H178.165V561.188C178.165 561.614 178.227 561.933 178.351 562.146C178.479 562.355 178.64 562.496 178.836 562.568C179.037 562.636 179.248 562.67 179.469 562.67C179.635 562.67 179.772 562.662 179.878 562.645C179.985 562.624 180.07 562.607 180.134 562.594L180.441 563.949C180.339 563.987 180.196 564.026 180.013 564.064C179.829 564.107 179.597 564.128 179.316 564.128C178.89 564.128 178.472 564.036 178.063 563.853C177.658 563.67 177.322 563.391 177.053 563.016C176.789 562.641 176.657 562.168 176.657 561.597V551.83ZM184.251 558.094V564H182.742V550.909H184.251V555.716H184.378C184.608 555.209 184.954 554.806 185.414 554.508C185.878 554.205 186.496 554.054 187.268 554.054C187.937 554.054 188.523 554.188 189.025 554.457C189.528 554.721 189.918 555.128 190.195 555.678C190.476 556.223 190.617 556.918 190.617 557.761V564H189.108V557.864C189.108 557.084 188.906 556.481 188.501 556.055C188.101 555.624 187.545 555.409 186.833 555.409C186.339 555.409 185.895 555.513 185.503 555.722C185.116 555.931 184.809 556.236 184.583 556.636C184.361 557.037 184.251 557.523 184.251 558.094ZM197.493 564.205C196.547 564.205 195.731 563.996 195.045 563.578C194.363 563.156 193.837 562.568 193.466 561.814C193.1 561.055 192.917 560.173 192.917 559.168C192.917 558.162 193.1 557.276 193.466 556.509C193.837 555.737 194.353 555.136 195.013 554.706C195.678 554.271 196.453 554.054 197.34 554.054C197.851 554.054 198.356 554.139 198.855 554.31C199.353 554.48 199.807 554.757 200.216 555.141C200.625 555.52 200.951 556.023 201.194 556.649C201.437 557.276 201.559 558.047 201.559 558.963V559.602H193.99V558.298H200.025C200.025 557.744 199.914 557.25 199.692 556.815C199.475 556.381 199.164 556.038 198.759 555.786C198.358 555.535 197.885 555.409 197.34 555.409C196.739 555.409 196.219 555.558 195.78 555.857C195.346 556.151 195.011 556.534 194.777 557.007C194.542 557.48 194.425 557.987 194.425 558.528V559.398C194.425 560.139 194.553 560.768 194.809 561.283C195.069 561.795 195.429 562.185 195.889 562.453C196.349 562.717 196.884 562.849 197.493 562.849C197.89 562.849 198.248 562.794 198.567 562.683C198.891 562.568 199.17 562.398 199.404 562.172C199.639 561.942 199.82 561.656 199.948 561.315L201.405 561.724C201.252 562.219 200.994 562.653 200.632 563.028C200.27 563.399 199.822 563.689 199.289 563.898C198.757 564.102 198.158 564.205 197.493 564.205ZM208.916 564V554.182H210.373V555.665H210.475C210.654 555.179 210.978 554.785 211.447 554.482C211.916 554.18 212.444 554.028 213.032 554.028C213.143 554.028 213.282 554.031 213.448 554.035C213.614 554.039 213.74 554.045 213.825 554.054V555.588C213.774 555.575 213.657 555.556 213.473 555.531C213.294 555.501 213.105 555.486 212.904 555.486C212.427 555.486 212.001 555.586 211.626 555.786C211.255 555.982 210.961 556.255 210.744 556.604C210.531 556.95 210.424 557.344 210.424 557.787V564H208.916ZM219.303 564.205C218.417 564.205 217.639 563.994 216.97 563.572C216.305 563.15 215.785 562.56 215.41 561.801C215.039 561.043 214.854 560.156 214.854 559.142C214.854 558.119 215.039 557.227 215.41 556.464C215.785 555.701 216.305 555.109 216.97 554.687C217.639 554.265 218.417 554.054 219.303 554.054C220.189 554.054 220.965 554.265 221.63 554.687C222.299 555.109 222.819 555.701 223.189 556.464C223.564 557.227 223.752 558.119 223.752 559.142C223.752 560.156 223.564 561.043 223.189 561.801C222.819 562.56 222.299 563.15 221.63 563.572C220.965 563.994 220.189 564.205 219.303 564.205ZM219.303 562.849C219.976 562.849 220.53 562.677 220.965 562.332C221.4 561.987 221.721 561.533 221.93 560.97C222.139 560.408 222.243 559.798 222.243 559.142C222.243 558.486 222.139 557.874 221.93 557.308C221.721 556.741 221.4 556.283 220.965 555.933C220.53 555.584 219.976 555.409 219.303 555.409C218.63 555.409 218.076 555.584 217.641 555.933C217.206 556.283 216.885 556.741 216.676 557.308C216.467 557.874 216.363 558.486 216.363 559.142C216.363 559.798 216.467 560.408 216.676 560.97C216.885 561.533 217.206 561.987 217.641 562.332C218.076 562.677 218.63 562.849 219.303 562.849ZM230.043 564.205C229.157 564.205 228.379 563.994 227.71 563.572C227.045 563.15 226.525 562.56 226.15 561.801C225.78 561.043 225.594 560.156 225.594 559.142C225.594 558.119 225.78 557.227 226.15 556.464C226.525 555.701 227.045 555.109 227.71 554.687C228.379 554.265 229.157 554.054 230.043 554.054C230.93 554.054 231.705 554.265 232.37 554.687C233.039 555.109 233.559 555.701 233.93 556.464C234.305 557.227 234.492 558.119 234.492 559.142C234.492 560.156 234.305 561.043 233.93 561.801C233.559 562.56 233.039 563.15 232.37 563.572C231.705 563.994 230.93 564.205 230.043 564.205ZM230.043 562.849C230.716 562.849 231.27 562.677 231.705 562.332C232.14 561.987 232.461 561.533 232.67 560.97C232.879 560.408 232.983 559.798 232.983 559.142C232.983 558.486 232.879 557.874 232.67 557.308C232.461 556.741 232.14 556.283 231.705 555.933C231.27 555.584 230.716 555.409 230.043 555.409C229.37 555.409 228.816 555.584 228.381 555.933C227.947 556.283 227.625 556.741 227.416 557.308C227.207 557.874 227.103 558.486 227.103 559.142C227.103 559.798 227.207 560.408 227.416 560.97C227.625 561.533 227.947 561.987 228.381 562.332C228.816 562.677 229.37 562.849 230.043 562.849ZM236.795 564V554.182H238.252V555.716H238.38C238.585 555.192 238.915 554.785 239.371 554.495C239.827 554.201 240.374 554.054 241.013 554.054C241.661 554.054 242.2 554.201 242.631 554.495C243.065 554.785 243.404 555.192 243.647 555.716H243.749C244.001 555.209 244.378 554.806 244.881 554.508C245.384 554.205 245.987 554.054 246.69 554.054C247.567 554.054 248.286 554.329 248.844 554.879C249.402 555.424 249.681 556.274 249.681 557.429V564H248.173V557.429C248.173 556.705 247.974 556.187 247.578 555.876C247.182 555.565 246.715 555.409 246.178 555.409C245.488 555.409 244.953 555.618 244.574 556.036C244.195 556.449 244.005 556.973 244.005 557.608V564H242.471V557.276C242.471 556.717 242.29 556.268 241.928 555.927C241.565 555.582 241.099 555.409 240.528 555.409C240.136 555.409 239.769 555.513 239.428 555.722C239.092 555.931 238.819 556.221 238.61 556.592C238.406 556.958 238.303 557.382 238.303 557.864V564H236.795ZM259.726 564L256.735 554.182H258.32L260.442 561.699H260.544L262.641 554.182H264.252L266.323 561.673H266.425L268.547 554.182H270.132L267.141 564H265.658L263.51 556.457H263.357L261.209 564H259.726ZM275.781 564.205C274.895 564.205 274.117 563.994 273.448 563.572C272.784 563.15 272.264 562.56 271.889 561.801C271.518 561.043 271.333 560.156 271.333 559.142C271.333 558.119 271.518 557.227 271.889 556.464C272.264 555.701 272.784 555.109 273.448 554.687C274.117 554.265 274.895 554.054 275.781 554.054C276.668 554.054 277.443 554.265 278.108 554.687C278.777 555.109 279.297 555.701 279.668 556.464C280.043 557.227 280.23 558.119 280.23 559.142C280.23 560.156 280.043 561.043 279.668 561.801C279.297 562.56 278.777 563.15 278.108 563.572C277.443 563.994 276.668 564.205 275.781 564.205ZM275.781 562.849C276.455 562.849 277.009 562.677 277.443 562.332C277.878 561.987 278.2 561.533 278.409 560.97C278.617 560.408 278.722 559.798 278.722 559.142C278.722 558.486 278.617 557.874 278.409 557.308C278.2 556.741 277.878 556.283 277.443 555.933C277.009 555.584 276.455 555.409 275.781 555.409C275.108 555.409 274.554 555.584 274.119 555.933C273.685 556.283 273.363 556.741 273.154 557.308C272.945 557.874 272.841 558.486 272.841 559.142C272.841 559.798 272.945 560.408 273.154 560.97C273.363 561.533 273.685 561.987 274.119 562.332C274.554 562.677 275.108 562.849 275.781 562.849ZM284.042 558.094V564H282.533V554.182H283.99V555.716H284.118C284.348 555.217 284.698 554.817 285.167 554.514C285.635 554.207 286.24 554.054 286.982 554.054C287.647 554.054 288.228 554.19 288.727 554.463C289.225 554.732 289.613 555.141 289.89 555.69C290.167 556.236 290.306 556.926 290.306 557.761V564H288.797V557.864C288.797 557.092 288.597 556.491 288.196 556.061C287.796 555.626 287.246 555.409 286.547 555.409C286.066 555.409 285.635 555.513 285.256 555.722C284.881 555.931 284.585 556.236 284.368 556.636C284.15 557.037 284.042 557.523 284.042 558.094ZM294.392 550.909V552.06C294.392 552.409 294.328 552.782 294.2 553.178C294.077 553.57 293.893 553.952 293.65 554.322C293.412 554.689 293.122 555.009 292.781 555.281L291.963 554.616C292.231 554.233 292.464 553.835 292.66 553.421C292.86 553.004 292.96 552.558 292.96 552.085V550.909H294.392ZM300.918 554.182V555.46H295.83V554.182H300.918ZM297.313 551.83H298.822V561.188C298.822 561.614 298.883 561.933 299.007 562.146C299.135 562.355 299.297 562.496 299.493 562.568C299.693 562.636 299.904 562.67 300.126 562.67C300.292 562.67 300.428 562.662 300.535 562.645C300.641 562.624 300.726 562.607 300.79 562.594L301.097 563.949C300.995 563.987 300.852 564.026 300.669 564.064C300.486 564.107 300.253 564.128 299.972 564.128C299.546 564.128 299.128 564.036 298.719 563.853C298.314 563.67 297.978 563.391 297.709 563.016C297.445 562.641 297.313 562.168 297.313 561.597V551.83ZM308.454 564V550.909H309.963V555.741H310.091C310.202 555.571 310.355 555.354 310.551 555.089C310.751 554.821 311.037 554.582 311.407 554.374C311.782 554.161 312.29 554.054 312.929 554.054C313.756 554.054 314.484 554.261 315.115 554.674C315.746 555.087 316.238 555.673 316.591 556.432C316.945 557.19 317.122 558.085 317.122 559.116C317.122 560.156 316.945 561.058 316.591 561.82C316.238 562.579 315.748 563.167 315.121 563.585C314.495 563.998 313.773 564.205 312.954 564.205C312.324 564.205 311.819 564.1 311.439 563.891C311.06 563.678 310.768 563.437 310.564 563.169C310.359 562.896 310.202 562.67 310.091 562.491H309.912V564H308.454ZM309.937 559.091C309.937 559.832 310.046 560.487 310.263 561.053C310.481 561.616 310.798 562.057 311.216 562.376C311.633 562.692 312.145 562.849 312.75 562.849C313.381 562.849 313.907 562.683 314.329 562.351C314.755 562.014 315.074 561.562 315.287 560.996C315.505 560.425 315.613 559.79 315.613 559.091C315.613 558.401 315.507 557.778 315.294 557.224C315.085 556.666 314.768 556.225 314.341 555.901C313.92 555.573 313.389 555.409 312.75 555.409C312.136 555.409 311.621 555.565 311.203 555.876C310.785 556.183 310.47 556.613 310.257 557.167C310.044 557.717 309.937 558.358 309.937 559.091ZM323.546 564.205C322.6 564.205 321.784 563.996 321.098 563.578C320.416 563.156 319.89 562.568 319.519 561.814C319.153 561.055 318.969 560.173 318.969 559.168C318.969 558.162 319.153 557.276 319.519 556.509C319.89 555.737 320.405 555.136 321.066 554.706C321.731 554.271 322.506 554.054 323.393 554.054C323.904 554.054 324.409 554.139 324.907 554.31C325.406 554.48 325.86 554.757 326.269 555.141C326.678 555.52 327.004 556.023 327.247 556.649C327.49 557.276 327.611 558.047 327.611 558.963V559.602H320.043V558.298H326.077C326.077 557.744 325.966 557.25 325.745 556.815C325.528 556.381 325.216 556.038 324.812 555.786C324.411 555.535 323.938 555.409 323.393 555.409C322.792 555.409 322.272 555.558 321.833 555.857C321.398 556.151 321.064 556.534 320.829 557.007C320.595 557.48 320.478 557.987 320.478 558.528V559.398C320.478 560.139 320.606 560.768 320.861 561.283C321.121 561.795 321.481 562.185 321.942 562.453C322.402 562.717 322.937 562.849 323.546 562.849C323.942 562.849 324.3 562.794 324.62 562.683C324.944 562.568 325.223 562.398 325.457 562.172C325.692 561.942 325.873 561.656 326.001 561.315L327.458 561.724C327.305 562.219 327.047 562.653 326.684 563.028C326.322 563.399 325.875 563.689 325.342 563.898C324.809 564.102 324.211 564.205 323.546 564.205ZM338.676 564.205C337.858 564.205 337.135 563.998 336.509 563.585C335.883 563.167 335.393 562.579 335.039 561.82C334.685 561.058 334.508 560.156 334.508 559.116C334.508 558.085 334.685 557.19 335.039 556.432C335.393 555.673 335.885 555.087 336.515 554.674C337.146 554.261 337.875 554.054 338.702 554.054C339.341 554.054 339.846 554.161 340.216 554.374C340.591 554.582 340.877 554.821 341.073 555.089C341.273 555.354 341.429 555.571 341.54 555.741H341.667V550.909H343.176V564H341.719V562.491H341.54C341.429 562.67 341.271 562.896 341.067 563.169C340.862 563.437 340.57 563.678 340.191 563.891C339.812 564.1 339.307 564.205 338.676 564.205ZM338.881 562.849C339.486 562.849 339.997 562.692 340.415 562.376C340.832 562.057 341.15 561.616 341.367 561.053C341.584 560.487 341.693 559.832 341.693 559.091C341.693 558.358 341.586 557.717 341.373 557.167C341.16 556.613 340.845 556.183 340.427 555.876C340.01 555.565 339.494 555.409 338.881 555.409C338.241 555.409 337.709 555.573 337.282 555.901C336.861 556.225 336.543 556.666 336.33 557.224C336.121 557.778 336.017 558.401 336.017 559.091C336.017 559.79 336.123 560.425 336.336 560.996C336.554 561.562 336.873 562.014 337.295 562.351C337.721 562.683 338.25 562.849 338.881 562.849ZM349.037 564.23C348.415 564.23 347.851 564.113 347.344 563.879C346.836 563.64 346.434 563.297 346.135 562.849C345.837 562.398 345.688 561.852 345.688 561.213C345.688 560.651 345.799 560.195 346.02 559.845C346.242 559.491 346.538 559.214 346.909 559.014C347.28 558.814 347.689 558.665 348.136 558.567C348.588 558.464 349.042 558.384 349.498 558.324C350.094 558.247 350.578 558.19 350.949 558.151C351.324 558.109 351.596 558.038 351.767 557.94C351.942 557.842 352.029 557.672 352.029 557.429V557.378C352.029 556.747 351.856 556.257 351.511 555.908C351.17 555.558 350.653 555.384 349.958 555.384C349.238 555.384 348.673 555.541 348.264 555.857C347.855 556.172 347.567 556.509 347.401 556.866L345.969 556.355C346.225 555.759 346.566 555.294 346.992 554.962C347.422 554.625 347.891 554.391 348.398 554.259C348.91 554.122 349.412 554.054 349.907 554.054C350.222 554.054 350.584 554.092 350.993 554.169C351.407 554.241 351.805 554.393 352.189 554.623C352.577 554.853 352.898 555.2 353.154 555.665C353.41 556.129 353.537 556.751 353.537 557.531V564H352.029V562.67H351.952C351.85 562.884 351.68 563.112 351.441 563.354C351.202 563.597 350.885 563.804 350.488 563.974C350.092 564.145 349.608 564.23 349.037 564.23ZM349.268 562.875C349.864 562.875 350.367 562.758 350.776 562.523C351.189 562.289 351.501 561.987 351.709 561.616C351.922 561.245 352.029 560.855 352.029 560.446V559.065C351.965 559.142 351.824 559.212 351.607 559.276C351.394 559.336 351.147 559.389 350.866 559.436C350.589 559.479 350.318 559.517 350.054 559.551C349.794 559.581 349.583 559.607 349.421 559.628C349.029 559.679 348.662 559.762 348.322 559.877C347.985 559.988 347.712 560.156 347.503 560.382C347.299 560.604 347.197 560.906 347.197 561.29C347.197 561.814 347.39 562.21 347.778 562.479C348.17 562.743 348.667 562.875 349.268 562.875ZM356.291 564V554.182H357.748V555.665H357.85C358.029 555.179 358.353 554.785 358.822 554.482C359.291 554.18 359.819 554.028 360.407 554.028C360.518 554.028 360.657 554.031 360.823 554.035C360.989 554.039 361.115 554.045 361.2 554.054V555.588C361.149 555.575 361.032 555.556 360.848 555.531C360.669 555.501 360.48 555.486 360.279 555.486C359.802 555.486 359.376 555.586 359.001 555.786C358.63 555.982 358.336 556.255 358.119 556.604C357.906 556.95 357.799 557.344 357.799 557.787V564H356.291ZM364.394 560.42L364.369 558.554H364.676L368.971 554.182H370.838L366.261 558.81H366.133L364.394 560.42ZM362.988 564V550.909H364.497V564H362.988ZM369.227 564L365.392 559.142L366.465 558.094L371.144 564H369.227ZM378.046 564V550.909H379.555V555.741H379.683C379.793 555.571 379.947 555.354 380.143 555.089C380.343 554.821 380.629 554.582 380.999 554.374C381.374 554.161 381.881 554.054 382.521 554.054C383.347 554.054 384.076 554.261 384.707 554.674C385.337 555.087 385.83 555.673 386.183 556.432C386.537 557.19 386.714 558.085 386.714 559.116C386.714 560.156 386.537 561.058 386.183 561.82C385.83 562.579 385.339 563.167 384.713 563.585C384.087 563.998 383.364 564.205 382.546 564.205C381.915 564.205 381.411 564.1 381.031 563.891C380.652 563.678 380.36 563.437 380.156 563.169C379.951 562.896 379.793 562.67 379.683 562.491H379.504V564H378.046ZM379.529 559.091C379.529 559.832 379.638 560.487 379.855 561.053C380.072 561.616 380.39 562.057 380.808 562.376C381.225 562.692 381.737 562.849 382.342 562.849C382.972 562.849 383.499 562.683 383.92 562.351C384.347 562.014 384.666 561.562 384.879 560.996C385.097 560.425 385.205 559.79 385.205 559.091C385.205 558.401 385.099 557.778 384.886 557.224C384.677 556.666 384.359 556.225 383.933 555.901C383.511 555.573 382.981 555.409 382.342 555.409C381.728 555.409 381.212 555.565 380.795 555.876C380.377 556.183 380.062 556.613 379.849 557.167C379.636 557.717 379.529 558.358 379.529 559.091ZM395.209 559.986V554.182H396.717V564H395.209V562.338H395.107C394.876 562.837 394.518 563.261 394.033 563.61C393.547 563.955 392.933 564.128 392.192 564.128C391.578 564.128 391.033 563.994 390.555 563.725C390.078 563.452 389.703 563.043 389.43 562.498C389.158 561.948 389.021 561.256 389.021 560.42V554.182H390.53V560.318C390.53 561.034 390.73 561.605 391.131 562.031C391.536 562.457 392.051 562.67 392.678 562.67C393.053 562.67 393.434 562.575 393.822 562.383C394.214 562.191 394.542 561.897 394.806 561.501C395.075 561.104 395.209 560.599 395.209 559.986ZM403.75 554.182V555.46H398.662V554.182H403.75ZM400.145 551.83H401.654V561.188C401.654 561.614 401.715 561.933 401.839 562.146C401.967 562.355 402.129 562.496 402.325 562.568C402.525 562.636 402.736 562.67 402.958 562.67C403.124 562.67 403.26 562.662 403.367 562.645C403.473 562.624 403.558 562.607 403.622 562.594L403.929 563.949C403.827 563.987 403.684 564.026 403.501 564.064C403.318 564.107 403.085 564.128 402.804 564.128C402.378 564.128 401.96 564.036 401.551 563.853C401.146 563.67 400.81 563.391 400.541 563.016C400.277 562.641 400.145 562.168 400.145 561.597V551.83ZM418.036 556.381L416.681 556.764C416.596 556.538 416.47 556.319 416.304 556.106C416.142 555.888 415.921 555.71 415.639 555.569C415.358 555.428 414.998 555.358 414.559 555.358C413.958 555.358 413.458 555.496 413.057 555.773C412.661 556.046 412.463 556.393 412.463 556.815C412.463 557.19 412.599 557.487 412.872 557.704C413.144 557.921 413.57 558.102 414.15 558.247L415.607 558.605C416.485 558.818 417.139 559.144 417.57 559.583C418 560.018 418.215 560.578 418.215 561.264C418.215 561.827 418.053 562.33 417.73 562.773C417.41 563.216 416.963 563.565 416.387 563.821C415.812 564.077 415.143 564.205 414.38 564.205C413.379 564.205 412.55 563.987 411.894 563.553C411.237 563.118 410.822 562.483 410.647 561.648L412.079 561.29C412.215 561.818 412.473 562.214 412.852 562.479C413.236 562.743 413.737 562.875 414.355 562.875C415.058 562.875 415.616 562.726 416.029 562.428C416.447 562.125 416.656 561.763 416.656 561.341C416.656 561 416.536 560.714 416.298 560.484C416.059 560.25 415.693 560.075 415.198 559.96L413.562 559.577C412.663 559.364 412.002 559.033 411.58 558.586C411.163 558.134 410.954 557.57 410.954 556.892C410.954 556.338 411.11 555.848 411.421 555.422C411.736 554.996 412.164 554.661 412.705 554.418C413.251 554.175 413.869 554.054 414.559 554.054C415.531 554.054 416.294 554.267 416.847 554.693C417.406 555.119 417.802 555.682 418.036 556.381ZM421.995 558.094V564H420.486V550.909H421.995V555.716H422.123C422.353 555.209 422.698 554.806 423.158 554.508C423.623 554.205 424.24 554.054 425.012 554.054C425.681 554.054 426.267 554.188 426.77 554.457C427.272 554.721 427.662 555.128 427.939 555.678C428.221 556.223 428.361 556.918 428.361 557.761V564H426.853V557.864C426.853 557.084 426.65 556.481 426.245 556.055C425.845 555.624 425.289 555.409 424.577 555.409C424.083 555.409 423.64 555.513 423.248 555.722C422.86 555.931 422.553 556.236 422.327 556.636C422.105 557.037 421.995 557.523 421.995 558.094ZM435.237 564.205C434.291 564.205 433.475 563.996 432.789 563.578C432.107 563.156 431.581 562.568 431.21 561.814C430.844 561.055 430.661 560.173 430.661 559.168C430.661 558.162 430.844 557.276 431.21 556.509C431.581 555.737 432.097 555.136 432.757 554.706C433.422 554.271 434.198 554.054 435.084 554.054C435.595 554.054 436.1 554.139 436.599 554.31C437.097 554.48 437.551 554.757 437.96 555.141C438.369 555.52 438.695 556.023 438.938 556.649C439.181 557.276 439.303 558.047 439.303 558.963V559.602H431.735V558.298H437.769C437.769 557.744 437.658 557.25 437.436 556.815C437.219 556.381 436.908 556.038 436.503 555.786C436.102 555.535 435.629 555.409 435.084 555.409C434.483 555.409 433.963 555.558 433.524 555.857C433.09 556.151 432.755 556.534 432.521 557.007C432.286 557.48 432.169 557.987 432.169 558.528V559.398C432.169 560.139 432.297 560.768 432.553 561.283C432.813 561.795 433.173 562.185 433.633 562.453C434.093 562.717 434.628 562.849 435.237 562.849C435.634 562.849 435.992 562.794 436.311 562.683C436.635 562.568 436.914 562.398 437.149 562.172C437.383 561.942 437.564 561.656 437.692 561.315L439.149 561.724C438.996 562.219 438.738 562.653 438.376 563.028C438.014 563.399 437.566 563.689 437.034 563.898C436.501 564.102 435.902 564.205 435.237 564.205ZM448.884 564L445.893 554.182H447.478L449.6 561.699H449.703L451.799 554.182H453.41L455.481 561.673H455.583L457.705 554.182H459.291L456.299 564H454.816L452.669 556.457H452.515L450.367 564H448.884ZM464.94 564.205C464.053 564.205 463.276 563.994 462.607 563.572C461.942 563.15 461.422 562.56 461.047 561.801C460.676 561.043 460.491 560.156 460.491 559.142C460.491 558.119 460.676 557.227 461.047 556.464C461.422 555.701 461.942 555.109 462.607 554.687C463.276 554.265 464.053 554.054 464.94 554.054C465.826 554.054 466.602 554.265 467.266 554.687C467.935 555.109 468.455 555.701 468.826 556.464C469.201 557.227 469.388 558.119 469.388 559.142C469.388 560.156 469.201 561.043 468.826 561.801C468.455 562.56 467.935 563.15 467.266 563.572C466.602 563.994 465.826 564.205 464.94 564.205ZM464.94 562.849C465.613 562.849 466.167 562.677 466.602 562.332C467.036 561.987 467.358 561.533 467.567 560.97C467.776 560.408 467.88 559.798 467.88 559.142C467.88 558.486 467.776 557.874 467.567 557.308C467.358 556.741 467.036 556.283 466.602 555.933C466.167 555.584 465.613 555.409 464.94 555.409C464.266 555.409 463.712 555.584 463.278 555.933C462.843 556.283 462.521 556.741 462.312 557.308C462.104 557.874 461.999 558.486 461.999 559.142C461.999 559.798 462.104 560.408 462.312 560.97C462.521 561.533 462.843 561.987 463.278 562.332C463.712 562.677 464.266 562.849 464.94 562.849ZM473.2 558.094V564H471.691V554.182H473.149V555.716H473.276C473.507 555.217 473.856 554.817 474.325 554.514C474.794 554.207 475.399 554.054 476.14 554.054C476.805 554.054 477.387 554.19 477.885 554.463C478.384 554.732 478.771 555.141 479.048 555.69C479.325 556.236 479.464 556.926 479.464 557.761V564H477.955V557.864C477.955 557.092 477.755 556.491 477.355 556.061C476.954 555.626 476.404 555.409 475.705 555.409C475.224 555.409 474.794 555.513 474.414 555.722C474.039 555.931 473.743 556.236 473.526 556.636C473.308 557.037 473.2 557.523 473.2 558.094ZM483.55 550.909V552.06C483.55 552.409 483.486 552.782 483.358 553.178C483.235 553.57 483.051 553.952 482.809 554.322C482.57 554.689 482.28 555.009 481.939 555.281L481.121 554.616C481.39 554.233 481.622 553.835 481.818 553.421C482.018 553.004 482.118 552.558 482.118 552.085V550.909H483.55ZM490.076 554.182V555.46H484.988V554.182H490.076ZM486.471 551.83H487.98V561.188C487.98 561.614 488.042 561.933 488.165 562.146C488.293 562.355 488.455 562.496 488.651 562.568C488.851 562.636 489.062 562.67 489.284 562.67C489.45 562.67 489.586 562.662 489.693 562.645C489.799 562.624 489.885 562.607 489.949 562.594L490.255 563.949C490.153 563.987 490.01 564.026 489.827 564.064C489.644 564.107 489.412 564.128 489.13 564.128C488.704 564.128 488.287 564.036 487.877 563.853C487.473 563.67 487.136 563.391 486.868 563.016C486.603 562.641 486.471 562.168 486.471 561.597V551.83ZM6.58523 586V572.909H8.09375V577.741H8.22159C8.33239 577.571 8.4858 577.354 8.68182 577.089C8.8821 576.821 9.16761 576.582 9.53835 576.374C9.91335 576.161 10.4205 576.054 11.0597 576.054C11.8864 576.054 12.6151 576.261 13.2457 576.674C13.8764 577.087 14.3686 577.673 14.7223 578.432C15.076 579.19 15.2528 580.085 15.2528 581.116C15.2528 582.156 15.076 583.058 14.7223 583.82C14.3686 584.579 13.8786 585.167 13.2521 585.585C12.6257 585.998 11.9034 586.205 11.0852 586.205C10.4545 586.205 9.94957 586.1 9.57031 585.891C9.19105 585.678 8.89915 585.437 8.6946 585.169C8.49006 584.896 8.33239 584.67 8.22159 584.491H8.04261V586H6.58523ZM8.06818 581.091C8.06818 581.832 8.17685 582.487 8.39418 583.053C8.61151 583.616 8.92898 584.057 9.34659 584.376C9.7642 584.692 10.2756 584.849 10.8807 584.849C11.5114 584.849 12.0376 584.683 12.4595 584.351C12.8857 584.014 13.2053 583.562 13.4183 582.996C13.6357 582.425 13.7443 581.79 13.7443 581.091C13.7443 580.401 13.6378 579.778 13.4247 579.224C13.2159 578.666 12.8984 578.225 12.4723 577.901C12.0504 577.573 11.5199 577.409 10.8807 577.409C10.267 577.409 9.75142 577.565 9.33381 577.876C8.91619 578.183 8.60085 578.613 8.38778 579.167C8.17472 579.717 8.06818 580.358 8.06818 581.091ZM21.6768 586.205C20.7308 586.205 19.9148 585.996 19.2287 585.578C18.5469 585.156 18.0206 584.568 17.6499 583.814C17.2834 583.055 17.1001 582.173 17.1001 581.168C17.1001 580.162 17.2834 579.276 17.6499 578.509C18.0206 577.737 18.5362 577.136 19.1967 576.706C19.8615 576.271 20.6371 576.054 21.5234 576.054C22.0348 576.054 22.5398 576.139 23.0384 576.31C23.5369 576.48 23.9908 576.757 24.3999 577.141C24.8089 577.52 25.1349 578.023 25.3778 578.649C25.6207 579.276 25.7422 580.047 25.7422 580.963V581.602H18.174V580.298H24.2081C24.2081 579.744 24.0973 579.25 23.8757 578.815C23.6584 578.381 23.3473 578.038 22.9425 577.786C22.5419 577.535 22.0689 577.409 21.5234 577.409C20.9226 577.409 20.4027 577.558 19.9638 577.857C19.5291 578.151 19.1946 578.534 18.9602 579.007C18.7259 579.48 18.6087 579.987 18.6087 580.528V581.398C18.6087 582.139 18.7365 582.768 18.9922 583.283C19.2521 583.795 19.6122 584.185 20.0724 584.453C20.5327 584.717 21.0675 584.849 21.6768 584.849C22.0732 584.849 22.4311 584.794 22.7507 584.683C23.0746 584.568 23.3537 584.398 23.5881 584.172C23.8224 583.942 24.0036 583.656 24.1314 583.315L25.5888 583.724C25.4354 584.219 25.1776 584.653 24.8153 585.028C24.4531 585.399 24.0057 585.689 23.473 585.898C22.9403 586.102 22.3416 586.205 21.6768 586.205ZM36.8068 586.205C35.9886 586.205 35.2663 585.998 34.6399 585.585C34.0135 585.167 33.5234 584.579 33.1697 583.82C32.8161 583.058 32.6392 582.156 32.6392 581.116C32.6392 580.085 32.8161 579.19 33.1697 578.432C33.5234 577.673 34.0156 577.087 34.6463 576.674C35.277 576.261 36.0057 576.054 36.8324 576.054C37.4716 576.054 37.9766 576.161 38.3473 576.374C38.7223 576.582 39.0078 576.821 39.2038 577.089C39.4041 577.354 39.5597 577.571 39.6705 577.741H39.7983V572.909H41.3068V586H39.8494V584.491H39.6705C39.5597 584.67 39.402 584.896 39.1974 585.169C38.9929 585.437 38.701 585.678 38.3217 585.891C37.9425 586.1 37.4375 586.205 36.8068 586.205ZM37.0114 584.849C37.6165 584.849 38.1278 584.692 38.5455 584.376C38.9631 584.057 39.2805 583.616 39.4979 583.053C39.7152 582.487 39.8239 581.832 39.8239 581.091C39.8239 580.358 39.7173 579.717 39.5043 579.167C39.2912 578.613 38.9759 578.183 38.5582 577.876C38.1406 577.565 37.625 577.409 37.0114 577.409C36.3722 577.409 35.8395 577.573 35.4134 577.901C34.9915 578.225 34.674 578.666 34.4609 579.224C34.2521 579.778 34.1477 580.401 34.1477 581.091C34.1477 581.79 34.2543 582.425 34.4673 582.996C34.6847 583.562 35.0043 584.014 35.4261 584.351C35.8523 584.683 36.3807 584.849 37.0114 584.849ZM44.2791 586V576.182H45.7876V586H44.2791ZM45.0462 574.545C44.7521 574.545 44.4986 574.445 44.2855 574.245C44.0767 574.045 43.9723 573.804 43.9723 573.523C43.9723 573.241 44.0767 573.001 44.2855 572.8C44.4986 572.6 44.7521 572.5 45.0462 572.5C45.3402 572.5 45.5916 572.6 45.8004 572.8C46.0135 573.001 46.12 573.241 46.12 573.523C46.12 573.804 46.0135 574.045 45.8004 574.245C45.5916 574.445 45.3402 574.545 45.0462 574.545ZM55.5051 578.381L54.15 578.764C54.0648 578.538 53.9391 578.319 53.7729 578.106C53.611 577.888 53.3894 577.71 53.1081 577.569C52.8269 577.428 52.4668 577.358 52.0279 577.358C51.427 577.358 50.9263 577.496 50.5257 577.773C50.1294 578.046 49.9313 578.393 49.9313 578.815C49.9313 579.19 50.0676 579.487 50.3404 579.704C50.6131 579.921 51.0392 580.102 51.6188 580.247L53.0762 580.605C53.954 580.818 54.6081 581.144 55.0385 581.583C55.4689 582.018 55.6841 582.578 55.6841 583.264C55.6841 583.827 55.5222 584.33 55.1983 584.773C54.8787 585.216 54.4313 585.565 53.856 585.821C53.2807 586.077 52.6117 586.205 51.8489 586.205C50.8475 586.205 50.0186 585.987 49.3624 585.553C48.7061 585.118 48.2907 584.483 48.1159 583.648L49.5478 583.29C49.6841 583.818 49.9419 584.214 50.3212 584.479C50.7047 584.743 51.2054 584.875 51.8233 584.875C52.5265 584.875 53.0847 584.726 53.498 584.428C53.9157 584.125 54.1245 583.763 54.1245 583.341C54.1245 583 54.0051 582.714 53.7665 582.484C53.5279 582.25 53.1614 582.075 52.6671 581.96L51.0307 581.577C50.1316 581.364 49.4711 581.033 49.0492 580.586C48.6316 580.134 48.4228 579.57 48.4228 578.892C48.4228 578.338 48.5783 577.848 48.8894 577.422C49.2047 576.996 49.633 576.661 50.1742 576.418C50.7196 576.175 51.3375 576.054 52.0279 576.054C52.9995 576.054 53.7623 576.267 54.3162 576.693C54.8745 577.119 55.2708 577.682 55.5051 578.381ZM62.2248 576.182V577.46H57.1367V576.182H62.2248ZM58.6197 573.83H60.1282V583.188C60.1282 583.614 60.19 583.933 60.3136 584.146C60.4414 584.355 60.6033 584.496 60.7994 584.568C60.9996 584.636 61.2106 584.67 61.4322 584.67C61.5984 584.67 61.7347 584.662 61.8413 584.645C61.9478 584.624 62.033 584.607 62.0969 584.594L62.4038 585.949C62.3015 585.987 62.1587 586.026 61.9755 586.064C61.7923 586.107 61.56 586.128 61.2788 586.128C60.8526 586.128 60.435 586.036 60.0259 585.853C59.6211 585.67 59.2844 585.391 59.016 585.016C58.7518 584.641 58.6197 584.168 58.6197 583.597V573.83ZM64.494 586V576.182H65.9513V577.665H66.0536C66.2326 577.179 66.5565 576.785 67.0252 576.482C67.494 576.18 68.0224 576.028 68.6104 576.028C68.7212 576.028 68.8597 576.031 69.0259 576.035C69.1921 576.039 69.3178 576.045 69.4031 576.054V577.588C69.3519 577.575 69.2347 577.556 69.0515 577.531C68.8725 577.501 68.6829 577.486 68.4826 577.486C68.0053 577.486 67.5792 577.586 67.2042 577.786C66.8335 577.982 66.5394 578.255 66.3221 578.604C66.109 578.95 66.0025 579.344 66.0025 579.787V586H64.494ZM74.0804 586.23C73.4583 586.23 72.8936 586.113 72.3865 585.879C71.8794 585.64 71.4767 585.297 71.1784 584.849C70.8801 584.398 70.731 583.852 70.731 583.213C70.731 582.651 70.8418 582.195 71.0634 581.845C71.285 581.491 71.5811 581.214 71.9519 581.014C72.3226 580.814 72.7317 580.665 73.1792 580.567C73.6309 580.464 74.0847 580.384 74.5407 580.324C75.1373 580.247 75.6209 580.19 75.9917 580.151C76.3667 580.109 76.6394 580.038 76.8098 579.94C76.9846 579.842 77.0719 579.672 77.0719 579.429V579.378C77.0719 578.747 76.8993 578.257 76.5542 577.908C76.2132 577.558 75.6955 577.384 75.0009 577.384C74.2807 577.384 73.7161 577.541 73.307 577.857C72.8979 578.172 72.6103 578.509 72.4441 578.866L71.0123 578.355C71.2679 577.759 71.6088 577.294 72.035 576.962C72.4654 576.625 72.9341 576.391 73.4412 576.259C73.9526 576.122 74.4554 576.054 74.9498 576.054C75.2651 576.054 75.6273 576.092 76.0364 576.169C76.4498 576.241 76.8482 576.393 77.2317 576.623C77.6195 576.853 77.9412 577.2 78.1969 577.665C78.4526 578.129 78.5804 578.751 78.5804 579.531V586H77.0719V584.67H76.9952C76.8929 584.884 76.7225 585.112 76.4838 585.354C76.2452 585.597 75.9277 585.804 75.5314 585.974C75.1351 586.145 74.6515 586.23 74.0804 586.23ZM74.3105 584.875C74.9071 584.875 75.41 584.758 75.8191 584.523C76.2324 584.289 76.5435 583.987 76.7523 583.616C76.9654 583.245 77.0719 582.855 77.0719 582.446V581.065C77.008 581.142 76.8674 581.212 76.65 581.276C76.437 581.336 76.1898 581.389 75.9086 581.436C75.6316 581.479 75.361 581.517 75.0968 581.551C74.8368 581.581 74.6259 581.607 74.464 581.628C74.0719 581.679 73.7054 581.762 73.3645 581.877C73.0279 581.988 72.7551 582.156 72.5463 582.382C72.3418 582.604 72.2395 582.906 72.2395 583.29C72.2395 583.814 72.4334 584.21 72.8212 584.479C73.2132 584.743 73.7097 584.875 74.3105 584.875ZM85.3224 586.205C84.402 586.205 83.6094 585.987 82.9446 585.553C82.2798 585.118 81.7685 584.519 81.4105 583.756C81.0526 582.994 80.8736 582.122 80.8736 581.142C80.8736 580.145 81.0568 579.265 81.4233 578.502C81.794 577.735 82.3097 577.136 82.9702 576.706C83.6349 576.271 84.4105 576.054 85.2969 576.054C85.9872 576.054 86.6094 576.182 87.1634 576.438C87.7173 576.693 88.1712 577.051 88.5249 577.511C88.8786 577.972 89.098 578.509 89.1832 579.122H87.6747C87.5597 578.675 87.304 578.278 86.9077 577.933C86.5156 577.584 85.9872 577.409 85.3224 577.409C84.7344 577.409 84.2188 577.562 83.7756 577.869C83.3366 578.172 82.9936 578.6 82.7464 579.154C82.5036 579.704 82.3821 580.349 82.3821 581.091C82.3821 581.849 82.5014 582.51 82.7401 583.072C82.983 583.635 83.3239 584.072 83.7628 584.383C84.206 584.694 84.7259 584.849 85.3224 584.849C85.7145 584.849 86.0703 584.781 86.3899 584.645C86.7095 584.509 86.9801 584.312 87.2017 584.057C87.4233 583.801 87.581 583.494 87.6747 583.136H89.1832C89.098 583.716 88.8871 584.238 88.5504 584.702C88.218 585.163 87.777 585.529 87.2273 585.802C86.6818 586.07 86.0469 586.205 85.3224 586.205ZM95.6584 576.182V577.46H90.5703V576.182H95.6584ZM92.0533 573.83H93.5618V583.188C93.5618 583.614 93.6236 583.933 93.7472 584.146C93.875 584.355 94.0369 584.496 94.233 584.568C94.4332 584.636 94.6442 584.67 94.8658 584.67C95.032 584.67 95.1683 584.662 95.2749 584.645C95.3814 584.624 95.4666 584.607 95.5305 584.594L95.8374 585.949C95.7351 585.987 95.5923 586.026 95.4091 586.064C95.2259 586.107 94.9936 586.128 94.7124 586.128C94.2862 586.128 93.8686 586.036 93.4595 585.853C93.0547 585.67 92.718 585.391 92.4496 585.016C92.1854 584.641 92.0533 584.168 92.0533 583.597V573.83ZM101.939 586.205C100.993 586.205 100.176 585.996 99.4904 585.578C98.8086 585.156 98.2823 584.568 97.9116 583.814C97.5451 583.055 97.3619 582.173 97.3619 581.168C97.3619 580.162 97.5451 579.276 97.9116 578.509C98.2823 577.737 98.7979 577.136 99.4585 576.706C100.123 576.271 100.899 576.054 101.785 576.054C102.297 576.054 102.801 576.139 103.3 576.31C103.799 576.48 104.252 576.757 104.662 577.141C105.071 577.52 105.397 578.023 105.64 578.649C105.882 579.276 106.004 580.047 106.004 580.963V581.602H98.4357V580.298H104.47C104.47 579.744 104.359 579.25 104.137 578.815C103.92 578.381 103.609 578.038 103.204 577.786C102.804 577.535 102.331 577.409 101.785 577.409C101.184 577.409 100.664 577.558 100.225 577.857C99.7908 578.151 99.4563 578.534 99.2219 579.007C98.9876 579.48 98.8704 579.987 98.8704 580.528V581.398C98.8704 582.139 98.9982 582.768 99.2539 583.283C99.5138 583.795 99.8739 584.185 100.334 584.453C100.794 584.717 101.329 584.849 101.939 584.849C102.335 584.849 102.693 584.794 103.012 584.683C103.336 584.568 103.615 584.398 103.85 584.172C104.084 583.942 104.265 583.656 104.393 583.315L105.85 583.724C105.697 584.219 105.439 584.653 105.077 585.028C104.715 585.399 104.267 585.689 103.735 585.898C103.202 586.102 102.603 586.205 101.939 586.205ZM112.006 586.205C111.188 586.205 110.466 585.998 109.839 585.585C109.213 585.167 108.723 584.579 108.369 583.82C108.015 583.058 107.838 582.156 107.838 581.116C107.838 580.085 108.015 579.19 108.369 578.432C108.723 577.673 109.215 577.087 109.846 576.674C110.476 576.261 111.205 576.054 112.032 576.054C112.671 576.054 113.176 576.161 113.547 576.374C113.922 576.582 114.207 576.821 114.403 577.089C114.603 577.354 114.759 577.571 114.87 577.741H114.998V572.909H116.506V586H115.049V584.491H114.87C114.759 584.67 114.601 584.896 114.397 585.169C114.192 585.437 113.9 585.678 113.521 585.891C113.142 586.1 112.637 586.205 112.006 586.205ZM112.211 584.849C112.816 584.849 113.327 584.692 113.745 584.376C114.162 584.057 114.48 583.616 114.697 583.053C114.914 582.487 115.023 581.832 115.023 581.091C115.023 580.358 114.917 579.717 114.703 579.167C114.49 578.613 114.175 578.183 113.757 577.876C113.34 577.565 112.824 577.409 112.211 577.409C111.571 577.409 111.039 577.573 110.613 577.901C110.191 578.225 109.873 578.666 109.66 579.224C109.451 579.778 109.347 580.401 109.347 581.091C109.347 581.79 109.453 582.425 109.667 582.996C109.884 583.562 110.203 584.014 110.625 584.351C111.051 584.683 111.58 584.849 112.211 584.849ZM120.578 586.102C120.262 586.102 119.992 585.989 119.766 585.763C119.54 585.538 119.427 585.267 119.427 584.952C119.427 584.636 119.54 584.366 119.766 584.14C119.992 583.914 120.262 583.801 120.578 583.801C120.893 583.801 121.164 583.914 121.39 584.14C121.615 584.366 121.728 584.636 121.728 584.952C121.728 585.161 121.675 585.352 121.569 585.527C121.466 585.702 121.328 585.842 121.153 585.949C120.983 586.051 120.791 586.102 120.578 586.102Z" fill="black"/>
<path d="M472.5 384.5V293.5H368.5V384.5" stroke="black" stroke-width="8"/>
<path d="M346.5 329.5H440L452.475 402.5H475.5L453.5 408.5H360L346.5 329.5Z" fill="#3F88C5"/>
<path d="M453.5 408.5H360L346.5 329.5H440L452.475 402.5M453.5 408.5L475.5 402.5H452.475M453.5 408.5L452.475 402.5" stroke="black" stroke-width="8"/>
<path d="M35 114.5V167.5M198.5 70V329" stroke="black" stroke-width="8"/>
<path d="M103 420.114L72.5 323L44.5 420.114" stroke="black" stroke-width="8"/>
<circle cx="73" cy="235.5" r="46" fill="white" stroke="black" stroke-width="8"/>
<path d="M73 282.5V417.5" stroke="black" stroke-width="8"/>
<path d="M326 470.5H453" stroke="black" stroke-width="8"/>
<path d="M450.5 469.5V519.5M460.5 466V519.5" stroke="black" stroke-width="8"/>
<path d="M331 472.5V522" stroke="black" stroke-width="8"/>
<path d="M57 519L73.0286 413L91 519" stroke="black" stroke-width="8"/>
</g>
<defs>
<clipPath id="clip0_3_144">
<rect width="500" height="600" fill="white"/>
</clipPath>
</defs>
</svg>
