<svg width="500" height="600" viewBox="0 0 500 600" fill="none" xmlns="http://www.w3.org/2000/svg">
<g clip-path="url(#clip0_3_93)">
<rect width="500" height="600" fill="white"/>
<path d="M159.5 438.5L255 412.079L350.5 385.659H503.5M159.5 438.5H212H261.5H503.5M159.5 438.5V461H212M212 522V461M261.5 522V461M503.5 461H261.5M261.5 461H212M21 121V90.8413L116.5 64.4207L212 38V90.8413M21 121L116.5 94.5793L212 68.1587M21 121C21 127.23 21 137.153 21 143.103M21 364.841L116.5 338.421L212 312M21 375.683L116.5 349.262L212 322.841M21 386.841L116.5 360.421L212 334M21 398.841L116.5 372.421L212 346M21 143.103C21 247.569 21 307.634 21 417L116.5 390.579L212 364.159V90.8413M21 143.103L212 90.8413M21 173.262L212 121M21 206.262L212 154M21 240.262L212 188M21 279.762L212 227.5M21 312L212 259.738M21 338.421L212 286.159" stroke="black" stroke-width="8"/>
<path d="M19.3448 529.091C19.2596 528.371 18.9139 527.812 18.3079 527.415C17.7018 527.017 16.9585 526.818 16.0778 526.818C15.4338 526.818 14.8704 526.922 14.3874 527.131C13.9092 527.339 13.5352 527.625 13.2653 527.99C13.0001 528.355 12.8675 528.769 12.8675 529.233C12.8675 529.621 12.9599 529.955 13.1445 530.234C13.3339 530.509 13.5754 530.739 13.869 530.923C14.1625 531.103 14.4703 531.252 14.7923 531.371C15.1142 531.484 15.4102 531.577 15.68 531.648L17.1573 532.045C17.5361 532.145 17.9575 532.282 18.4215 532.457C18.8903 532.633 19.3377 532.872 19.7638 533.175C20.1947 533.473 20.5498 533.857 20.8292 534.325C21.1085 534.794 21.2482 535.369 21.2482 536.051C21.2482 536.837 21.0423 537.547 20.6303 538.182C20.2231 538.816 19.6265 539.321 18.8406 539.695C18.0593 540.069 17.11 540.256 15.9925 540.256C14.9509 540.256 14.0489 540.088 13.2866 539.751C12.529 539.415 11.9324 538.946 11.4968 538.345C11.0659 537.744 10.8221 537.045 10.7653 536.25H12.5835C12.6308 536.799 12.8155 537.254 13.1374 537.614C13.4641 537.969 13.8761 538.234 14.3732 538.409C14.8751 538.58 15.4149 538.665 15.9925 538.665C16.6649 538.665 17.2686 538.556 17.8036 538.338C18.3387 538.116 18.7624 537.808 19.0749 537.415C19.3874 537.017 19.5437 536.553 19.5437 536.023C19.5437 535.54 19.4087 535.147 19.1388 534.844C18.869 534.541 18.5138 534.295 18.0735 534.105C17.6332 533.916 17.1573 533.75 16.646 533.608L14.8562 533.097C13.7198 532.77 12.8202 532.304 12.1573 531.697C11.4944 531.091 11.163 530.298 11.163 529.318C11.163 528.504 11.3832 527.794 11.8235 527.188C12.2686 526.577 12.8652 526.103 13.6133 525.767C14.3661 525.426 15.2066 525.256 16.1346 525.256C17.0721 525.256 17.9054 525.424 18.6346 525.76C19.3638 526.091 19.9414 526.546 20.3675 527.124C20.7984 527.701 21.0257 528.357 21.0494 529.091H19.3448ZM25.593 533.438V540H23.9169V525.455H25.593V530.795H25.7351C25.9908 530.232 26.3743 529.785 26.8857 529.453C27.4018 529.117 28.0883 528.949 28.9453 528.949C29.6887 528.949 30.3397 529.098 30.8984 529.396C31.4571 529.69 31.8904 530.142 32.1982 530.753C32.5107 531.359 32.6669 532.131 32.6669 533.068V540H30.9908V533.182C30.9908 532.315 30.7659 531.645 30.3161 531.172C29.871 530.694 29.2531 530.455 28.4624 530.455C27.9131 530.455 27.4207 530.571 26.9851 530.803C26.5542 531.035 26.2133 531.373 25.9624 531.818C25.7161 532.263 25.593 532.803 25.593 533.438ZM40.3072 540.227C39.256 540.227 38.3493 539.995 37.587 539.531C36.8294 539.062 36.2447 538.409 35.8327 537.571C35.4255 536.728 35.2219 535.748 35.2219 534.631C35.2219 533.513 35.4255 532.528 35.8327 531.676C36.2447 530.819 36.8176 530.152 37.5515 529.673C38.2901 529.19 39.1519 528.949 40.1367 528.949C40.7049 528.949 41.266 529.044 41.82 529.233C42.3739 529.422 42.8782 529.73 43.3327 530.156C43.7873 530.578 44.1495 531.136 44.4194 531.832C44.6893 532.528 44.8242 533.385 44.8242 534.403V535.114H36.4151V533.665H43.1197C43.1197 533.049 42.9966 532.5 42.7504 532.017C42.5089 531.534 42.1632 531.153 41.7134 530.874C41.2683 530.594 40.7428 530.455 40.1367 530.455C39.4691 530.455 38.8915 530.62 38.4038 530.952C37.9208 531.278 37.5491 531.705 37.2887 532.23C37.0283 532.756 36.8981 533.319 36.8981 533.92V534.886C36.8981 535.71 37.0401 536.409 37.3242 536.982C37.613 537.55 38.0131 537.983 38.5245 538.281C39.0359 538.575 39.6301 538.722 40.3072 538.722C40.7475 538.722 41.1452 538.66 41.5004 538.537C41.8602 538.409 42.1703 538.22 42.4308 537.969C42.6912 537.713 42.8924 537.396 43.0344 537.017L44.6538 537.472C44.4833 538.021 44.1969 538.504 43.7944 538.92C43.3919 539.332 42.8948 539.654 42.3029 539.886C41.7111 540.114 41.0458 540.227 40.3072 540.227ZM57.7433 529.091V530.511H52.0898V529.091H57.7433ZM53.7376 526.477H55.4137V536.875C55.4137 537.348 55.4824 537.704 55.6197 537.94C55.7617 538.172 55.9416 538.329 56.1594 538.409C56.382 538.485 56.6164 538.523 56.8626 538.523C57.0472 538.523 57.1987 538.513 57.3171 538.494C57.4355 538.471 57.5302 538.452 57.6012 538.438L57.9421 539.943C57.8285 539.986 57.6699 540.028 57.4663 540.071C57.2627 540.118 57.0046 540.142 56.6921 540.142C56.2186 540.142 55.7546 540.04 55.3001 539.837C54.8503 539.633 54.4762 539.323 54.1779 538.906C53.8844 538.49 53.7376 537.964 53.7376 537.33V526.477ZM60.2646 540V529.091H61.8839V530.739H61.9975C62.1964 530.199 62.5562 529.761 63.0771 529.425C63.5979 529.089 64.185 528.92 64.8384 528.92C64.9615 528.92 65.1154 528.923 65.3001 528.928C65.4847 528.932 65.6244 528.939 65.7191 528.949V530.653C65.6623 530.639 65.5321 530.618 65.3285 530.589C65.1296 530.556 64.9189 530.54 64.6964 530.54C64.1661 530.54 63.6926 530.651 63.2759 530.874C62.864 531.091 62.5373 531.394 62.2958 531.783C62.0591 532.166 61.9407 532.604 61.9407 533.097V540H60.2646ZM67.706 540V529.091H69.3821V540H67.706ZM68.5582 527.273C68.2315 527.273 67.9498 527.161 67.7131 526.939C67.4811 526.716 67.3651 526.449 67.3651 526.136C67.3651 525.824 67.4811 525.556 67.7131 525.334C67.9498 525.111 68.2315 525 68.5582 525C68.8849 525 69.1643 525.111 69.3963 525.334C69.633 525.556 69.7514 525.824 69.7514 526.136C69.7514 526.449 69.633 526.716 69.3963 526.939C69.1643 527.161 68.8849 527.273 68.5582 527.273ZM77.0259 540.227C75.9748 540.227 75.0681 539.995 74.3058 539.531C73.5482 539.062 72.9634 538.409 72.5515 537.571C72.1443 536.728 71.9407 535.748 71.9407 534.631C71.9407 533.513 72.1443 532.528 72.5515 531.676C72.9634 530.819 73.5363 530.152 74.2702 529.673C75.0089 529.19 75.8706 528.949 76.8555 528.949C77.4237 528.949 77.9847 529.044 78.5387 529.233C79.0927 529.422 79.5969 529.73 80.0515 530.156C80.506 530.578 80.8683 531.136 81.1381 531.832C81.408 532.528 81.543 533.385 81.543 534.403V535.114H73.1339V533.665H79.8384C79.8384 533.049 79.7153 532.5 79.4691 532.017C79.2276 531.534 78.882 531.153 78.4322 530.874C77.9871 530.594 77.4615 530.455 76.8555 530.455C76.1879 530.455 75.6102 530.62 75.1225 530.952C74.6396 531.278 74.2679 531.705 74.0075 532.23C73.747 532.756 73.6168 533.319 73.6168 533.92V534.886C73.6168 535.71 73.7589 536.409 74.043 536.982C74.3318 537.55 74.7319 537.983 75.2433 538.281C75.7546 538.575 76.3488 538.722 77.0259 538.722C77.4663 538.722 77.864 538.66 78.2191 538.537C78.579 538.409 78.8891 538.22 79.1495 537.969C79.4099 537.713 79.6112 537.396 79.7532 537.017L81.3725 537.472C81.2021 538.021 80.9156 538.504 80.5131 538.92C80.1107 539.332 79.6135 539.654 79.0217 539.886C78.4298 540.114 77.7646 540.227 77.0259 540.227ZM91.82 531.534L90.3143 531.96C90.2196 531.709 90.0799 531.465 89.8952 531.229C89.7153 530.987 89.4691 530.788 89.1566 530.632C88.8441 530.476 88.444 530.398 87.9563 530.398C87.2887 530.398 86.7324 530.552 86.2873 530.859C85.8469 531.162 85.6268 531.548 85.6268 532.017C85.6268 532.434 85.7783 532.763 86.0813 533.004C86.3844 533.246 86.8578 533.447 87.5018 533.608L89.1211 534.006C90.0965 534.242 90.8233 534.605 91.3015 535.092C91.7797 535.575 92.0188 536.198 92.0188 536.96C92.0188 537.585 91.8389 538.144 91.479 538.636C91.1239 539.129 90.6268 539.517 89.9876 539.801C89.3484 540.085 88.605 540.227 87.7575 540.227C86.6448 540.227 85.7238 539.986 84.9947 539.503C84.2655 539.02 83.8039 538.314 83.6097 537.386L85.2006 536.989C85.3522 537.576 85.6386 538.016 86.06 538.31C86.4862 538.603 87.0425 538.75 87.729 538.75C88.5103 538.75 89.1306 538.584 89.5898 538.253C90.0539 537.917 90.2859 537.514 90.2859 537.045C90.2859 536.667 90.1533 536.349 89.8881 536.094C89.623 535.833 89.2158 535.639 88.6665 535.511L86.8484 535.085C85.8493 534.848 85.1154 534.482 84.6467 533.984C84.1826 533.482 83.9506 532.855 83.9506 532.102C83.9506 531.487 84.1235 530.942 84.4691 530.469C84.8195 529.995 85.2953 529.624 85.8967 529.354C86.5027 529.084 87.1893 528.949 87.9563 528.949C89.0359 528.949 89.8834 529.186 90.4989 529.659C91.1192 530.133 91.5595 530.758 91.82 531.534ZM104.911 529.091V530.511H99.2578V529.091H104.911ZM100.906 526.477H102.582V536.875C102.582 537.348 102.65 537.704 102.788 537.94C102.93 538.172 103.11 538.329 103.327 538.409C103.55 538.485 103.784 538.523 104.031 538.523C104.215 538.523 104.367 538.513 104.485 538.494C104.603 538.471 104.698 538.452 104.769 538.438L105.11 539.943C104.996 539.986 104.838 540.028 104.634 540.071C104.431 540.118 104.173 540.142 103.86 540.142C103.387 540.142 102.923 540.04 102.468 539.837C102.018 539.633 101.644 539.323 101.346 538.906C101.052 538.49 100.906 537.964 100.906 537.33V526.477ZM111.747 540.227C110.762 540.227 109.898 539.993 109.155 539.524C108.416 539.055 107.839 538.4 107.422 537.557C107.01 536.714 106.804 535.729 106.804 534.602C106.804 533.466 107.01 532.474 107.422 531.626C107.839 530.779 108.416 530.121 109.155 529.652C109.898 529.183 110.762 528.949 111.747 528.949C112.732 528.949 113.594 529.183 114.332 529.652C115.076 530.121 115.653 530.779 116.065 531.626C116.482 532.474 116.69 533.466 116.69 534.602C116.69 535.729 116.482 536.714 116.065 537.557C115.653 538.4 115.076 539.055 114.332 539.524C113.594 539.993 112.732 540.227 111.747 540.227ZM111.747 538.722C112.495 538.722 113.111 538.53 113.594 538.146C114.077 537.763 114.434 537.259 114.666 536.634C114.898 536.009 115.014 535.331 115.014 534.602C115.014 533.873 114.898 533.194 114.666 532.564C114.434 531.934 114.077 531.425 113.594 531.037C113.111 530.649 112.495 530.455 111.747 530.455C110.999 530.455 110.384 530.649 109.901 531.037C109.418 531.425 109.06 531.934 108.828 532.564C108.596 533.194 108.48 533.873 108.48 534.602C108.48 535.331 108.596 536.009 108.828 536.634C109.06 537.259 109.418 537.763 109.901 538.146C110.384 538.53 110.999 538.722 111.747 538.722ZM132.601 531.534L131.096 531.96C131.001 531.709 130.861 531.465 130.676 531.229C130.497 530.987 130.25 530.788 129.938 530.632C129.625 530.476 129.225 530.398 128.738 530.398C128.07 530.398 127.514 530.552 127.069 530.859C126.628 531.162 126.408 531.548 126.408 532.017C126.408 532.434 126.56 532.763 126.863 533.004C127.166 533.246 127.639 533.447 128.283 533.608L129.902 534.006C130.878 534.242 131.605 534.605 132.083 535.092C132.561 535.575 132.8 536.198 132.8 536.96C132.8 537.585 132.62 538.144 132.26 538.636C131.905 539.129 131.408 539.517 130.769 539.801C130.13 540.085 129.386 540.227 128.539 540.227C127.426 540.227 126.505 539.986 125.776 539.503C125.047 539.02 124.585 538.314 124.391 537.386L125.982 536.989C126.133 537.576 126.42 538.016 126.841 538.31C127.267 538.603 127.824 538.75 128.51 538.75C129.292 538.75 129.912 538.584 130.371 538.253C130.835 537.917 131.067 537.514 131.067 537.045C131.067 536.667 130.935 536.349 130.669 536.094C130.404 535.833 129.997 535.639 129.448 535.511L127.63 535.085C126.631 534.848 125.897 534.482 125.428 533.984C124.964 533.482 124.732 532.855 124.732 532.102C124.732 531.487 124.905 530.942 125.25 530.469C125.601 529.995 126.077 529.624 126.678 529.354C127.284 529.084 127.971 528.949 128.738 528.949C129.817 528.949 130.665 529.186 131.28 529.659C131.9 530.133 132.341 530.758 132.601 531.534ZM140.067 529.091V530.511H134.414V529.091H140.067ZM136.062 526.477H137.738V536.875C137.738 537.348 137.807 537.704 137.944 537.94C138.086 538.172 138.266 538.329 138.484 538.409C138.706 538.485 138.941 538.523 139.187 538.523C139.371 538.523 139.523 538.513 139.641 538.494C139.76 538.471 139.854 538.452 139.925 538.438L140.266 539.943C140.153 539.986 139.994 540.028 139.79 540.071C139.587 540.118 139.329 540.142 139.016 540.142C138.543 540.142 138.079 540.04 137.624 539.837C137.174 539.633 136.8 539.323 136.502 538.906C136.209 538.49 136.062 537.964 136.062 537.33V526.477ZM146.903 540.227C145.919 540.227 145.054 539.993 144.311 539.524C143.572 539.055 142.995 538.4 142.578 537.557C142.166 536.714 141.96 535.729 141.96 534.602C141.96 533.466 142.166 532.474 142.578 531.626C142.995 530.779 143.572 530.121 144.311 529.652C145.054 529.183 145.919 528.949 146.903 528.949C147.888 528.949 148.75 529.183 149.489 529.652C150.232 530.121 150.81 530.779 151.222 531.626C151.638 532.474 151.847 533.466 151.847 534.602C151.847 535.729 151.638 536.714 151.222 537.557C150.81 538.4 150.232 539.055 149.489 539.524C148.75 539.993 147.888 540.227 146.903 540.227ZM146.903 538.722C147.652 538.722 148.267 538.53 148.75 538.146C149.233 537.763 149.59 537.259 149.822 536.634C150.054 536.009 150.17 535.331 150.17 534.602C150.17 533.873 150.054 533.194 149.822 532.564C149.59 531.934 149.233 531.425 148.75 531.037C148.267 530.649 147.652 530.455 146.903 530.455C146.155 530.455 145.54 530.649 145.057 531.037C144.574 531.425 144.216 531.934 143.984 532.564C143.752 533.194 143.636 533.873 143.636 534.602C143.636 535.331 143.752 536.009 143.984 536.634C144.216 537.259 144.574 537.763 145.057 538.146C145.54 538.53 146.155 538.722 146.903 538.722ZM154.405 544.091V529.091H156.025V530.824H156.223C156.346 530.634 156.517 530.393 156.735 530.099C156.957 529.801 157.275 529.536 157.686 529.304C158.103 529.067 158.667 528.949 159.377 528.949C160.295 528.949 161.105 529.179 161.806 529.638C162.507 530.097 163.053 530.748 163.446 531.591C163.839 532.434 164.036 533.428 164.036 534.574C164.036 535.729 163.839 536.731 163.446 537.578C163.053 538.421 162.509 539.074 161.813 539.538C161.117 539.998 160.314 540.227 159.405 540.227C158.704 540.227 158.143 540.111 157.722 539.879C157.301 539.643 156.976 539.375 156.749 539.077C156.522 538.774 156.346 538.523 156.223 538.324H156.081V544.091H154.405ZM156.053 534.545C156.053 535.369 156.174 536.096 156.415 536.726C156.657 537.351 157.009 537.841 157.473 538.196C157.937 538.546 158.506 538.722 159.178 538.722C159.879 538.722 160.463 538.537 160.932 538.168C161.406 537.794 161.761 537.292 161.998 536.662C162.239 536.027 162.36 535.322 162.36 534.545C162.36 533.778 162.241 533.087 162.005 532.472C161.773 531.851 161.42 531.361 160.946 531.001C160.478 530.637 159.888 530.455 159.178 530.455C158.496 530.455 157.923 530.627 157.459 530.973C156.995 531.314 156.645 531.792 156.408 532.408C156.171 533.018 156.053 533.731 156.053 534.545ZM176.962 529.091V530.511H171.309V529.091H176.962ZM172.956 526.477H174.632V536.875C174.632 537.348 174.701 537.704 174.838 537.94C174.98 538.172 175.16 538.329 175.378 538.409C175.601 538.485 175.835 538.523 176.081 538.523C176.266 538.523 176.417 538.513 176.536 538.494C176.654 538.471 176.749 538.452 176.82 538.438L177.161 539.943C177.047 539.986 176.889 540.028 176.685 540.071C176.481 540.118 176.223 540.142 175.911 540.142C175.437 540.142 174.973 540.04 174.519 539.837C174.069 539.633 173.695 539.323 173.397 538.906C173.103 538.49 172.956 537.964 172.956 537.33V526.477ZM181.394 533.438V540H179.718V525.455H181.394V530.795H181.536C181.792 530.232 182.175 529.785 182.686 529.453C183.203 529.117 183.889 528.949 184.746 528.949C185.489 528.949 186.141 529.098 186.699 529.396C187.258 529.69 187.691 530.142 187.999 530.753C188.311 531.359 188.468 532.131 188.468 533.068V540H186.792V533.182C186.792 532.315 186.567 531.645 186.117 531.172C185.672 530.694 185.054 530.455 184.263 530.455C183.714 530.455 183.221 530.571 182.786 530.803C182.355 531.035 182.014 531.373 181.763 531.818C181.517 532.263 181.394 532.803 181.394 533.438ZM196.108 540.227C195.057 540.227 194.15 539.995 193.388 539.531C192.63 539.062 192.045 538.409 191.634 537.571C191.226 536.728 191.023 535.748 191.023 534.631C191.023 533.513 191.226 532.528 191.634 531.676C192.045 530.819 192.618 530.152 193.352 529.673C194.091 529.19 194.953 528.949 195.938 528.949C196.506 528.949 197.067 529.044 197.621 529.233C198.175 529.422 198.679 529.73 199.134 530.156C199.588 530.578 199.95 531.136 200.22 531.832C200.49 532.528 200.625 533.385 200.625 534.403V535.114H192.216V533.665H198.92C198.92 533.049 198.797 532.5 198.551 532.017C198.31 531.534 197.964 531.153 197.514 530.874C197.069 530.594 196.544 530.455 195.938 530.455C195.27 530.455 194.692 530.62 194.205 530.952C193.722 531.278 193.35 531.705 193.089 532.23C192.829 532.756 192.699 533.319 192.699 533.92V534.886C192.699 535.71 192.841 536.409 193.125 536.982C193.414 537.55 193.814 537.983 194.325 538.281C194.837 538.575 195.431 538.722 196.108 538.722C196.548 538.722 196.946 538.66 197.301 538.537C197.661 538.409 197.971 538.22 198.232 537.969C198.492 537.713 198.693 537.396 198.835 537.017L200.455 537.472C200.284 538.021 199.998 538.504 199.595 538.92C199.193 539.332 198.696 539.654 198.104 539.886C197.512 540.114 196.847 540.227 196.108 540.227ZM209.027 540V525.455H210.703V530.824H210.845C210.968 530.634 211.139 530.393 211.357 530.099C211.579 529.801 211.896 529.536 212.308 529.304C212.725 529.067 213.288 528.949 213.999 528.949C214.917 528.949 215.727 529.179 216.428 529.638C217.128 530.097 217.675 530.748 218.068 531.591C218.461 532.434 218.658 533.428 218.658 534.574C218.658 535.729 218.461 536.731 218.068 537.578C217.675 538.421 217.131 539.074 216.435 539.538C215.739 539.998 214.936 540.227 214.027 540.227C213.326 540.227 212.765 540.111 212.344 539.879C211.922 539.643 211.598 539.375 211.371 539.077C211.143 538.774 210.968 538.523 210.845 538.324H210.646V540H209.027ZM210.675 534.545C210.675 535.369 210.795 536.096 211.037 536.726C211.278 537.351 211.631 537.841 212.095 538.196C212.559 538.546 213.127 538.722 213.8 538.722C214.5 538.722 215.085 538.537 215.554 538.168C216.027 537.794 216.383 537.292 216.619 536.662C216.861 536.027 216.982 535.322 216.982 534.545C216.982 533.778 216.863 533.087 216.626 532.472C216.394 531.851 216.042 531.361 215.568 531.001C215.099 530.637 214.51 530.455 213.8 530.455C213.118 530.455 212.545 530.627 212.081 530.973C211.617 531.314 211.267 531.792 211.03 532.408C210.793 533.018 210.675 533.731 210.675 534.545ZM222.898 525.455V540H221.222V525.455H222.898ZM225.968 540V529.091H227.644V540H225.968ZM226.82 527.273C226.493 527.273 226.212 527.161 225.975 526.939C225.743 526.716 225.627 526.449 225.627 526.136C225.627 525.824 225.743 525.556 225.975 525.334C226.212 525.111 226.493 525 226.82 525C227.147 525 227.426 525.111 227.658 525.334C227.895 525.556 228.013 525.824 228.013 526.136C228.013 526.449 227.895 526.716 227.658 526.939C227.426 527.161 227.147 527.273 226.82 527.273ZM232.39 533.438V540H230.714V529.091H232.333V530.795H232.475C232.731 530.241 233.119 529.796 233.64 529.46C234.161 529.119 234.833 528.949 235.657 528.949C236.396 528.949 237.042 529.1 237.596 529.403C238.15 529.702 238.581 530.156 238.888 530.767C239.196 531.373 239.35 532.14 239.35 533.068V540H237.674V533.182C237.674 532.325 237.451 531.657 237.006 531.179C236.561 530.696 235.951 530.455 235.174 530.455C234.639 530.455 234.161 530.571 233.739 530.803C233.323 531.035 232.994 531.373 232.752 531.818C232.511 532.263 232.39 532.803 232.39 533.438ZM246.532 540.227C245.623 540.227 244.821 539.998 244.125 539.538C243.429 539.074 242.884 538.421 242.491 537.578C242.098 536.731 241.902 535.729 241.902 534.574C241.902 533.428 242.098 532.434 242.491 531.591C242.884 530.748 243.431 530.097 244.132 529.638C244.833 529.179 245.642 528.949 246.561 528.949C247.271 528.949 247.832 529.067 248.244 529.304C248.661 529.536 248.978 529.801 249.196 530.099C249.418 530.393 249.591 530.634 249.714 530.824H249.856V525.455H251.532V540H249.913V538.324H249.714C249.591 538.523 249.416 538.774 249.189 539.077C248.961 539.375 248.637 539.643 248.216 539.879C247.794 540.111 247.233 540.227 246.532 540.227ZM246.76 538.722C247.432 538.722 248 538.546 248.464 538.196C248.928 537.841 249.281 537.351 249.522 536.726C249.764 536.096 249.885 535.369 249.885 534.545C249.885 533.731 249.766 533.018 249.529 532.408C249.293 531.792 248.942 531.314 248.478 530.973C248.014 530.627 247.441 530.455 246.76 530.455C246.049 530.455 245.458 530.637 244.984 531.001C244.515 531.361 244.163 531.851 243.926 532.472C243.694 533.087 243.578 533.778 243.578 534.545C243.578 535.322 243.696 536.027 243.933 536.662C244.174 537.292 244.529 537.794 244.998 538.168C245.472 538.537 246.059 538.722 246.76 538.722ZM262.562 531.534L261.056 531.96C260.962 531.709 260.822 531.465 260.637 531.229C260.458 530.987 260.211 530.788 259.899 530.632C259.586 530.476 259.186 530.398 258.699 530.398C258.031 530.398 257.475 530.552 257.029 530.859C256.589 531.162 256.369 531.548 256.369 532.017C256.369 532.434 256.52 532.763 256.824 533.004C257.127 533.246 257.6 533.447 258.244 533.608L259.863 534.006C260.839 534.242 261.565 534.605 262.044 535.092C262.522 535.575 262.761 536.198 262.761 536.96C262.761 537.585 262.581 538.144 262.221 538.636C261.866 539.129 261.369 539.517 260.73 539.801C260.091 540.085 259.347 540.227 258.5 540.227C257.387 540.227 256.466 539.986 255.737 539.503C255.008 539.02 254.546 538.314 254.352 537.386L255.943 536.989C256.094 537.576 256.381 538.016 256.802 538.31C257.228 538.603 257.785 538.75 258.471 538.75C259.252 538.75 259.873 538.584 260.332 538.253C260.796 537.917 261.028 537.514 261.028 537.045C261.028 536.667 260.895 536.349 260.63 536.094C260.365 535.833 259.958 535.639 259.409 535.511L257.591 535.085C256.592 534.848 255.858 534.482 255.389 533.984C254.925 533.482 254.693 532.855 254.693 532.102C254.693 531.487 254.866 530.942 255.211 530.469C255.562 529.995 256.038 529.624 256.639 529.354C257.245 529.084 257.931 528.949 258.699 528.949C259.778 528.949 260.626 529.186 261.241 529.659C261.861 530.133 262.302 530.758 262.562 531.534ZM274.119 540.256C273.428 540.256 272.801 540.125 272.237 539.865C271.674 539.6 271.226 539.219 270.895 538.722C270.563 538.22 270.398 537.614 270.398 536.903C270.398 536.278 270.521 535.772 270.767 535.384C271.013 534.991 271.342 534.683 271.754 534.46C272.166 534.238 272.621 534.072 273.118 533.963C273.62 533.849 274.124 533.759 274.631 533.693C275.294 533.608 275.831 533.544 276.243 533.501C276.66 533.454 276.963 533.376 277.152 533.267C277.346 533.158 277.443 532.969 277.443 532.699V532.642C277.443 531.941 277.251 531.397 276.868 531.009C276.489 530.62 275.914 530.426 275.142 530.426C274.342 530.426 273.714 530.601 273.26 530.952C272.805 531.302 272.486 531.676 272.301 532.074L270.71 531.506C270.994 530.843 271.373 530.327 271.847 529.957C272.325 529.583 272.846 529.323 273.409 529.176C273.977 529.025 274.536 528.949 275.085 528.949C275.436 528.949 275.838 528.991 276.293 529.077C276.752 529.157 277.195 529.325 277.621 529.581C278.052 529.837 278.409 530.223 278.693 530.739C278.977 531.255 279.119 531.946 279.119 532.812V540H277.443V538.523H277.358C277.244 538.759 277.055 539.013 276.79 539.283C276.525 539.553 276.172 539.782 275.732 539.972C275.291 540.161 274.754 540.256 274.119 540.256ZM274.375 538.75C275.038 538.75 275.597 538.62 276.051 538.359C276.51 538.099 276.856 537.763 277.088 537.351C277.325 536.939 277.443 536.506 277.443 536.051V534.517C277.372 534.602 277.216 534.68 276.974 534.751C276.738 534.818 276.463 534.877 276.151 534.929C275.843 534.976 275.542 535.019 275.249 535.057C274.96 535.09 274.725 535.118 274.545 535.142C274.11 535.199 273.703 535.291 273.324 535.419C272.95 535.542 272.647 535.729 272.415 535.98C272.188 536.226 272.074 536.562 272.074 536.989C272.074 537.571 272.289 538.011 272.72 538.31C273.156 538.603 273.707 538.75 274.375 538.75ZM286.923 529.091V530.511H281.27V529.091H286.923ZM282.917 526.477H284.593V536.875C284.593 537.348 284.662 537.704 284.799 537.94C284.941 538.172 285.121 538.329 285.339 538.409C285.562 538.485 285.796 538.523 286.042 538.523C286.227 538.523 286.378 538.513 286.497 538.494C286.615 538.471 286.71 538.452 286.781 538.438L287.122 539.943C287.008 539.986 286.85 540.028 286.646 540.071C286.442 540.118 286.184 540.142 285.872 540.142C285.398 540.142 284.934 540.04 284.48 539.837C284.03 539.633 283.656 539.323 283.358 538.906C283.064 538.49 282.917 537.964 282.917 537.33V526.477ZM299.814 529.091V530.511H294.16V529.091H299.814ZM295.808 526.477H297.484V536.875C297.484 537.348 297.553 537.704 297.69 537.94C297.832 538.172 298.012 538.329 298.23 538.409C298.452 538.485 298.687 538.523 298.933 538.523C299.118 538.523 299.269 538.513 299.387 538.494C299.506 538.471 299.6 538.452 299.672 538.438L300.012 539.943C299.899 539.986 299.74 540.028 299.537 540.071C299.333 540.118 299.075 540.142 298.762 540.142C298.289 540.142 297.825 540.04 297.37 539.837C296.921 539.633 296.547 539.323 296.248 538.906C295.955 538.49 295.808 537.964 295.808 537.33V526.477ZM304.245 533.438V540H302.569V525.455H304.245V530.795H304.387C304.643 530.232 305.027 529.785 305.538 529.453C306.054 529.117 306.741 528.949 307.598 528.949C308.341 528.949 308.992 529.098 309.551 529.396C310.109 529.69 310.543 530.142 310.85 530.753C311.163 531.359 311.319 532.131 311.319 533.068V540H309.643V533.182C309.643 532.315 309.418 531.645 308.968 531.172C308.523 530.694 307.905 530.455 307.115 530.455C306.565 530.455 306.073 530.571 305.637 530.803C305.207 531.035 304.866 531.373 304.615 531.818C304.368 532.263 304.245 532.803 304.245 533.438ZM318.96 540.227C317.908 540.227 317.002 539.995 316.239 539.531C315.482 539.062 314.897 538.409 314.485 537.571C314.078 536.728 313.874 535.748 313.874 534.631C313.874 533.513 314.078 532.528 314.485 531.676C314.897 530.819 315.47 530.152 316.204 529.673C316.942 529.19 317.804 528.949 318.789 528.949C319.357 528.949 319.918 529.044 320.472 529.233C321.026 529.422 321.531 529.73 321.985 530.156C322.44 530.578 322.802 531.136 323.072 531.832C323.342 532.528 323.477 533.385 323.477 534.403V535.114H315.067V533.665H321.772C321.772 533.049 321.649 532.5 321.403 532.017C321.161 531.534 320.816 531.153 320.366 530.874C319.921 530.594 319.395 530.455 318.789 530.455C318.121 530.455 317.544 530.62 317.056 530.952C316.573 531.278 316.201 531.705 315.941 532.23C315.681 532.756 315.55 533.319 315.55 533.92V534.886C315.55 535.71 315.692 536.409 315.977 536.982C316.265 537.55 316.665 537.983 317.177 538.281C317.688 538.575 318.282 538.722 318.96 538.722C319.4 538.722 319.798 538.66 320.153 538.537C320.513 538.409 320.823 538.22 321.083 537.969C321.344 537.713 321.545 537.396 321.687 537.017L323.306 537.472C323.136 538.021 322.849 538.504 322.447 538.92C322.044 539.332 321.547 539.654 320.955 539.886C320.363 540.114 319.698 540.227 318.96 540.227ZM331.651 540V529.091H333.271V530.739H333.384C333.583 530.199 333.943 529.761 334.464 529.425C334.985 529.089 335.572 528.92 336.225 528.92C336.348 528.92 336.502 528.923 336.687 528.928C336.871 528.932 337.011 528.939 337.106 528.949V530.653C337.049 530.639 336.919 530.618 336.715 530.589C336.516 530.556 336.306 530.54 336.083 530.54C335.553 530.54 335.079 530.651 334.663 530.874C334.251 531.091 333.924 531.394 333.683 531.783C333.446 532.166 333.327 532.604 333.327 533.097V540H331.651ZM339.093 540V529.091H340.769V540H339.093ZM339.945 527.273C339.618 527.273 339.337 527.161 339.1 526.939C338.868 526.716 338.752 526.449 338.752 526.136C338.752 525.824 338.868 525.556 339.1 525.334C339.337 525.111 339.618 525 339.945 525C340.272 525 340.551 525.111 340.783 525.334C341.02 525.556 341.138 525.824 341.138 526.136C341.138 526.449 341.02 526.716 340.783 526.939C340.551 527.161 340.272 527.273 339.945 527.273ZM348.242 544.318C347.433 544.318 346.737 544.214 346.154 544.006C345.572 543.802 345.086 543.532 344.698 543.196C344.315 542.865 344.009 542.509 343.782 542.131L345.117 541.193C345.269 541.392 345.46 541.619 345.692 541.875C345.924 542.135 346.242 542.36 346.644 542.55C347.051 542.744 347.584 542.841 348.242 542.841C349.123 542.841 349.85 542.628 350.423 542.202C350.996 541.776 351.282 541.108 351.282 540.199V537.983H351.14C351.017 538.182 350.842 538.428 350.614 538.722C350.392 539.01 350.07 539.268 349.648 539.496C349.232 539.718 348.668 539.83 347.958 539.83C347.077 539.83 346.287 539.621 345.586 539.205C344.89 538.788 344.338 538.182 343.931 537.386C343.529 536.591 343.327 535.625 343.327 534.489C343.327 533.371 343.524 532.398 343.917 531.57C344.31 530.736 344.857 530.092 345.558 529.638C346.258 529.179 347.068 528.949 347.987 528.949C348.697 528.949 349.26 529.067 349.677 529.304C350.098 529.536 350.42 529.801 350.643 530.099C350.87 530.393 351.045 530.634 351.168 530.824H351.339V529.091H352.958V540.312C352.958 541.25 352.745 542.012 352.319 542.599C351.897 543.191 351.329 543.625 350.614 543.899C349.904 544.179 349.113 544.318 348.242 544.318ZM348.185 538.324C348.858 538.324 349.426 538.17 349.89 537.862C350.354 537.554 350.707 537.112 350.948 536.534C351.19 535.956 351.31 535.265 351.31 534.46C351.31 533.674 351.192 532.981 350.955 532.379C350.719 531.778 350.368 531.307 349.904 530.966C349.44 530.625 348.867 530.455 348.185 530.455C347.475 530.455 346.883 530.634 346.41 530.994C345.941 531.354 345.588 531.837 345.352 532.443C345.12 533.049 345.004 533.722 345.004 534.46C345.004 535.218 345.122 535.888 345.359 536.47C345.6 537.048 345.955 537.502 346.424 537.834C346.897 538.161 347.485 538.324 348.185 538.324ZM357.702 533.438V540H356.026V525.455H357.702V530.795H357.844C358.1 530.232 358.484 529.785 358.995 529.453C359.511 529.117 360.198 528.949 361.055 528.949C361.798 528.949 362.449 529.098 363.008 529.396C363.567 529.69 364 530.142 364.308 530.753C364.62 531.359 364.776 532.131 364.776 533.068V540H363.1V533.182C363.1 532.315 362.875 531.645 362.425 531.172C361.98 530.694 361.362 530.455 360.572 530.455C360.022 530.455 359.53 530.571 359.094 530.803C358.664 531.035 358.323 531.373 358.072 531.818C357.826 532.263 357.702 532.803 357.702 533.438ZM372.587 529.091V530.511H366.934V529.091H372.587ZM368.581 526.477H370.257V536.875C370.257 537.348 370.326 537.704 370.463 537.94C370.605 538.172 370.785 538.329 371.003 538.409C371.226 538.485 371.46 538.523 371.706 538.523C371.891 538.523 372.042 538.513 372.161 538.494C372.279 538.471 372.374 538.452 372.445 538.438L372.786 539.943C372.672 539.986 372.514 540.028 372.31 540.071C372.106 540.118 371.848 540.142 371.536 540.142C371.062 540.142 370.598 540.04 370.144 539.837C369.694 539.633 369.32 539.323 369.022 538.906C368.728 538.49 368.581 537.964 368.581 537.33V526.477ZM388.461 531.534L386.955 531.96C386.86 531.709 386.721 531.465 386.536 531.229C386.356 530.987 386.11 530.788 385.797 530.632C385.485 530.476 385.085 530.398 384.597 530.398C383.929 530.398 383.373 530.552 382.928 530.859C382.488 531.162 382.267 531.548 382.267 532.017C382.267 532.434 382.419 532.763 382.722 533.004C383.025 533.246 383.498 533.447 384.142 533.608L385.762 534.006C386.737 534.242 387.464 534.605 387.942 535.092C388.42 535.575 388.659 536.198 388.659 536.96C388.659 537.585 388.48 538.144 388.12 538.636C387.765 539.129 387.267 539.517 386.628 539.801C385.989 540.085 385.246 540.227 384.398 540.227C383.285 540.227 382.364 539.986 381.635 539.503C380.906 539.02 380.444 538.314 380.25 537.386L381.841 536.989C381.993 537.576 382.279 538.016 382.701 538.31C383.127 538.603 383.683 538.75 384.37 538.75C385.151 538.75 385.771 538.584 386.23 538.253C386.694 537.917 386.926 537.514 386.926 537.045C386.926 536.667 386.794 536.349 386.529 536.094C386.264 535.833 385.856 535.639 385.307 535.511L383.489 535.085C382.49 534.848 381.756 534.482 381.287 533.984C380.823 533.482 380.591 532.855 380.591 532.102C380.591 531.487 380.764 530.942 381.11 530.469C381.46 529.995 381.936 529.624 382.537 529.354C383.143 529.084 383.83 528.949 384.597 528.949C385.676 528.949 386.524 529.186 387.14 529.659C387.76 530.133 388.2 530.758 388.461 531.534ZM391.183 544.091V529.091H392.802V530.824H393.001C393.124 530.634 393.294 530.393 393.512 530.099C393.735 529.801 394.052 529.536 394.464 529.304C394.88 529.067 395.444 528.949 396.154 528.949C397.073 528.949 397.882 529.179 398.583 529.638C399.284 530.097 399.831 530.748 400.224 531.591C400.617 532.434 400.813 533.428 400.813 534.574C400.813 535.729 400.617 536.731 400.224 537.578C399.831 538.421 399.286 539.074 398.59 539.538C397.894 539.998 397.092 540.227 396.183 540.227C395.482 540.227 394.921 540.111 394.499 539.879C394.078 539.643 393.754 539.375 393.526 539.077C393.299 538.774 393.124 538.523 393.001 538.324H392.859V544.091H391.183ZM392.83 534.545C392.83 535.369 392.951 536.096 393.192 536.726C393.434 537.351 393.787 537.841 394.251 538.196C394.715 538.546 395.283 538.722 395.955 538.722C396.656 538.722 397.241 538.537 397.71 538.168C398.183 537.794 398.538 537.292 398.775 536.662C399.016 536.027 399.137 535.322 399.137 534.545C399.137 533.778 399.019 533.087 398.782 532.472C398.55 531.851 398.197 531.361 397.724 531.001C397.255 530.637 396.665 530.455 395.955 530.455C395.273 530.455 394.701 530.627 394.237 530.973C393.772 531.314 393.422 531.792 393.185 532.408C392.949 533.018 392.83 533.731 392.83 534.545ZM407.802 540.227C406.817 540.227 405.953 539.993 405.21 539.524C404.471 539.055 403.893 538.4 403.477 537.557C403.065 536.714 402.859 535.729 402.859 534.602C402.859 533.466 403.065 532.474 403.477 531.626C403.893 530.779 404.471 530.121 405.21 529.652C405.953 529.183 406.817 528.949 407.802 528.949C408.787 528.949 409.648 529.183 410.387 529.652C411.13 530.121 411.708 530.779 412.12 531.626C412.537 532.474 412.745 533.466 412.745 534.602C412.745 535.729 412.537 536.714 412.12 537.557C411.708 538.4 411.13 539.055 410.387 539.524C409.648 539.993 408.787 540.227 407.802 540.227ZM407.802 538.722C408.55 538.722 409.165 538.53 409.648 538.146C410.131 537.763 410.489 537.259 410.721 536.634C410.953 536.009 411.069 535.331 411.069 534.602C411.069 533.873 410.953 533.194 410.721 532.564C410.489 531.934 410.131 531.425 409.648 531.037C409.165 530.649 408.55 530.455 407.802 530.455C407.054 530.455 406.438 530.649 405.955 531.037C405.472 531.425 405.115 531.934 404.883 532.564C404.651 533.194 404.535 533.873 404.535 534.602C404.535 535.331 404.651 536.009 404.883 536.634C405.115 537.259 405.472 537.763 405.955 538.146C406.438 538.53 407.054 538.722 407.802 538.722ZM420.048 529.091V530.511H414.395V529.091H420.048ZM416.042 526.477H417.718V536.875C417.718 537.348 417.787 537.704 417.924 537.94C418.066 538.172 418.246 538.329 418.464 538.409C418.687 538.485 418.921 538.523 419.167 538.523C419.352 538.523 419.503 538.513 419.622 538.494C419.74 538.471 419.835 538.452 419.906 538.438L420.247 539.943C420.133 539.986 419.975 540.028 419.771 540.071C419.567 540.118 419.309 540.142 418.997 540.142C418.523 540.142 418.059 540.04 417.605 539.837C417.155 539.633 416.781 539.323 416.483 538.906C416.189 538.49 416.042 537.964 416.042 537.33V526.477ZM428.422 540V525.455H430.098V530.824H430.24C430.363 530.634 430.533 530.393 430.751 530.099C430.974 529.801 431.291 529.536 431.703 529.304C432.119 529.067 432.683 528.949 433.393 528.949C434.312 528.949 435.121 529.179 435.822 529.638C436.523 530.097 437.07 530.748 437.463 531.591C437.856 532.434 438.052 533.428 438.052 534.574C438.052 535.729 437.856 536.731 437.463 537.578C437.07 538.421 436.525 539.074 435.829 539.538C435.133 539.998 434.331 540.227 433.422 540.227C432.721 540.227 432.16 540.111 431.738 539.879C431.317 539.643 430.993 539.375 430.765 539.077C430.538 538.774 430.363 538.523 430.24 538.324H430.041V540H428.422ZM430.069 534.545C430.069 535.369 430.19 536.096 430.431 536.726C430.673 537.351 431.026 537.841 431.49 538.196C431.954 538.546 432.522 538.722 433.194 538.722C433.895 538.722 434.48 538.537 434.949 538.168C435.422 537.794 435.777 537.292 436.014 536.662C436.255 536.027 436.376 535.322 436.376 534.545C436.376 533.778 436.258 533.087 436.021 532.472C435.789 531.851 435.436 531.361 434.963 531.001C434.494 530.637 433.904 530.455 433.194 530.455C432.512 530.455 431.94 530.627 431.475 530.973C431.011 531.314 430.661 531.792 430.424 532.408C430.188 533.018 430.069 533.731 430.069 534.545ZM441.305 544.091C441.021 544.091 440.768 544.067 440.545 544.02C440.323 543.977 440.169 543.935 440.083 543.892L440.51 542.415C440.917 542.519 441.277 542.557 441.589 542.528C441.902 542.5 442.179 542.36 442.42 542.109C442.666 541.863 442.891 541.463 443.095 540.909L443.407 540.057L439.373 529.091H441.191L444.203 537.784H444.316L447.328 529.091H449.146L444.515 541.591C444.307 542.154 444.049 542.621 443.741 542.99C443.433 543.364 443.076 543.641 442.669 543.821C442.266 544.001 441.812 544.091 441.305 544.091ZM14.2614 555.534L12.7557 555.96C12.661 555.709 12.5213 555.465 12.3366 555.229C12.1567 554.987 11.9105 554.788 11.598 554.632C11.2855 554.476 10.8854 554.398 10.3977 554.398C9.73011 554.398 9.17377 554.552 8.72869 554.859C8.28835 555.162 8.06818 555.548 8.06818 556.017C8.06818 556.434 8.2197 556.763 8.52273 557.004C8.82576 557.246 9.29924 557.447 9.94318 557.608L11.5625 558.006C12.5379 558.242 13.2647 558.605 13.7429 559.092C14.2211 559.575 14.4602 560.198 14.4602 560.96C14.4602 561.585 14.2803 562.144 13.9205 562.636C13.5653 563.129 13.0682 563.517 12.429 563.801C11.7898 564.085 11.0464 564.227 10.1989 564.227C9.08617 564.227 8.16525 563.986 7.43608 563.503C6.70691 563.02 6.24527 562.314 6.05114 561.386L7.64205 560.989C7.79356 561.576 8.08002 562.016 8.50142 562.31C8.92756 562.603 9.4839 562.75 10.1705 562.75C10.9517 562.75 11.572 562.584 12.0312 562.253C12.4953 561.917 12.7273 561.514 12.7273 561.045C12.7273 560.667 12.5947 560.349 12.3295 560.094C12.0644 559.833 11.6572 559.639 11.108 559.511L9.28977 559.085C8.29072 558.848 7.55682 558.482 7.08807 557.984C6.62405 557.482 6.39205 556.855 6.39205 556.102C6.39205 555.487 6.56487 554.942 6.91051 554.469C7.26089 553.995 7.73674 553.624 8.33807 553.354C8.94413 553.084 9.63068 552.949 10.3977 552.949C11.4773 552.949 12.3248 553.186 12.9403 553.659C13.5606 554.133 14.0009 554.758 14.2614 555.534ZM21.7276 553.091V554.511H16.0742V553.091H21.7276ZM17.7219 550.477H19.3981V560.875C19.3981 561.348 19.4667 561.704 19.604 561.94C19.7461 562.172 19.926 562.329 20.1438 562.409C20.3664 562.485 20.6007 562.523 20.8469 562.523C21.0316 562.523 21.1831 562.513 21.3015 562.494C21.4199 562.471 21.5146 562.452 21.5856 562.438L21.9265 563.943C21.8129 563.986 21.6542 564.028 21.4506 564.071C21.247 564.118 20.989 564.142 20.6765 564.142C20.203 564.142 19.739 564.04 19.2844 563.837C18.8346 563.633 18.4606 563.323 18.1623 562.906C17.8687 562.49 17.7219 561.964 17.7219 561.33V550.477ZM24.2489 564V553.091H25.8683V554.739H25.9819C26.1808 554.199 26.5406 553.761 27.0614 553.425C27.5823 553.089 28.1694 552.92 28.8228 552.92C28.9459 552.92 29.0998 552.923 29.2844 552.928C29.4691 552.932 29.6088 552.939 29.7035 552.949V554.653C29.6467 554.639 29.5165 554.618 29.3129 554.589C29.114 554.556 28.9033 554.54 28.6808 554.54C28.1505 554.54 27.677 554.651 27.2603 554.874C26.8484 555.091 26.5217 555.394 26.2802 555.783C26.0434 556.166 25.9251 556.604 25.9251 557.097V564H24.2489ZM34.9006 564.256C34.2093 564.256 33.5819 564.125 33.0185 563.865C32.455 563.6 32.0076 563.219 31.6761 562.722C31.3447 562.22 31.179 561.614 31.179 560.903C31.179 560.278 31.3021 559.772 31.5483 559.384C31.7945 558.991 32.1236 558.683 32.5355 558.46C32.9474 558.238 33.402 558.072 33.8991 557.963C34.401 557.849 34.9053 557.759 35.4119 557.693C36.0748 557.608 36.6122 557.544 37.0241 557.501C37.4408 557.454 37.7438 557.376 37.9332 557.267C38.1274 557.158 38.2244 556.969 38.2244 556.699V556.642C38.2244 555.941 38.0327 555.397 37.6491 555.009C37.2704 554.62 36.6951 554.426 35.9233 554.426C35.1231 554.426 34.4957 554.601 34.0412 554.952C33.5866 555.302 33.267 555.676 33.0824 556.074L31.4915 555.506C31.7756 554.843 32.1544 554.327 32.6278 553.957C33.1061 553.583 33.6269 553.323 34.1903 553.176C34.7585 553.025 35.3172 552.949 35.8665 552.949C36.2169 552.949 36.6193 552.991 37.0739 553.077C37.5331 553.157 37.9759 553.325 38.402 553.581C38.8329 553.837 39.1903 554.223 39.4744 554.739C39.7585 555.255 39.9006 555.946 39.9006 556.812V564H38.2244V562.523H38.1392C38.0256 562.759 37.8362 563.013 37.571 563.283C37.3059 563.553 36.9531 563.782 36.5128 563.972C36.0724 564.161 35.535 564.256 34.9006 564.256ZM35.1562 562.75C35.8191 562.75 36.3778 562.62 36.8324 562.359C37.2917 562.099 37.6373 561.763 37.8693 561.351C38.1061 560.939 38.2244 560.506 38.2244 560.051V558.517C38.1534 558.602 37.9972 558.68 37.7557 558.751C37.5189 558.818 37.2443 558.877 36.9318 558.929C36.6241 558.976 36.3234 559.019 36.0298 559.057C35.741 559.09 35.5066 559.118 35.3267 559.142C34.8911 559.199 34.4839 559.291 34.1051 559.419C33.7311 559.542 33.428 559.729 33.196 559.98C32.9688 560.226 32.8551 560.562 32.8551 560.989C32.8551 561.571 33.0705 562.011 33.5014 562.31C33.937 562.603 34.4886 562.75 35.1562 562.75ZM42.9599 564V553.091H44.636V564H42.9599ZM43.8121 551.273C43.4854 551.273 43.2037 551.161 42.967 550.939C42.735 550.716 42.619 550.449 42.619 550.136C42.619 549.824 42.735 549.556 42.967 549.334C43.2037 549.111 43.4854 549 43.8121 549C44.1388 549 44.4182 549.111 44.6502 549.334C44.887 549.556 45.0053 549.824 45.0053 550.136C45.0053 550.449 44.887 550.716 44.6502 550.939C44.4182 551.161 44.1388 551.273 43.8121 551.273ZM52.1094 568.318C51.2997 568.318 50.6037 568.214 50.0213 568.006C49.4389 567.802 48.9536 567.532 48.5653 567.196C48.1818 566.865 47.8764 566.509 47.6491 566.131L48.9844 565.193C49.1359 565.392 49.3277 565.619 49.5597 565.875C49.7917 566.135 50.1089 566.36 50.5114 566.55C50.9186 566.744 51.4512 566.841 52.1094 566.841C52.9901 566.841 53.7169 566.628 54.2898 566.202C54.8627 565.776 55.1491 565.108 55.1491 564.199V561.983H55.0071C54.884 562.182 54.7088 562.428 54.4815 562.722C54.259 563.01 53.937 563.268 53.5156 563.496C53.099 563.718 52.5355 563.83 51.8253 563.83C50.9446 563.83 50.1539 563.621 49.4531 563.205C48.7571 562.788 48.2055 562.182 47.7983 561.386C47.3958 560.591 47.1946 559.625 47.1946 558.489C47.1946 557.371 47.3911 556.398 47.7841 555.57C48.1771 554.736 48.724 554.092 49.4247 553.638C50.1255 553.179 50.9351 552.949 51.8537 552.949C52.5639 552.949 53.1274 553.067 53.544 553.304C53.9654 553.536 54.2874 553.801 54.5099 554.099C54.7372 554.393 54.9124 554.634 55.0355 554.824H55.206V553.091H56.8253V564.312C56.8253 565.25 56.6122 566.012 56.1861 566.599C55.7647 567.191 55.1965 567.625 54.4815 567.899C53.7713 568.179 52.9806 568.318 52.1094 568.318ZM52.0526 562.324C52.7249 562.324 53.2931 562.17 53.7571 561.862C54.2211 561.554 54.5739 561.112 54.8153 560.534C55.0568 559.956 55.1776 559.265 55.1776 558.46C55.1776 557.674 55.0592 556.981 54.8224 556.379C54.5857 555.778 54.2353 555.307 53.7713 554.966C53.3073 554.625 52.7344 554.455 52.0526 554.455C51.3423 554.455 50.7505 554.634 50.277 554.994C49.8082 555.354 49.4555 555.837 49.2188 556.443C48.9867 557.049 48.8707 557.722 48.8707 558.46C48.8707 559.218 48.9891 559.888 49.2259 560.47C49.4673 561.048 49.8224 561.502 50.2912 561.834C50.7647 562.161 51.3518 562.324 52.0526 562.324ZM61.5696 557.438V564H59.8935V549.455H61.5696V554.795H61.7116C61.9673 554.232 62.3509 553.785 62.8622 553.453C63.3783 553.117 64.0649 552.949 64.9219 552.949C65.6652 552.949 66.3163 553.098 66.875 553.396C67.4337 553.69 67.867 554.142 68.1747 554.753C68.4872 555.359 68.6435 556.131 68.6435 557.068V564H66.9673V557.182C66.9673 556.315 66.7424 555.645 66.2926 555.172C65.8475 554.694 65.2296 554.455 64.4389 554.455C63.8897 554.455 63.3973 554.571 62.9616 554.803C62.5308 555.035 62.1899 555.373 61.9389 555.818C61.6927 556.263 61.5696 556.803 61.5696 557.438ZM76.4542 553.091V554.511H70.8008V553.091H76.4542ZM72.4485 550.477H74.1246V560.875C74.1246 561.348 74.1933 561.704 74.3306 561.94C74.4727 562.172 74.6526 562.329 74.8704 562.409C75.0929 562.485 75.3273 562.523 75.5735 562.523C75.7582 562.523 75.9097 562.513 76.0281 562.494C76.1464 562.471 76.2411 562.452 76.3121 562.438L76.6531 563.943C76.5394 563.986 76.3808 564.028 76.1772 564.071C75.9736 564.118 75.7156 564.142 75.4031 564.142C74.9296 564.142 74.4656 564.04 74.011 563.837C73.5612 563.633 73.1871 563.323 72.8888 562.906C72.5953 562.49 72.4485 561.964 72.4485 561.33V550.477ZM83.4322 564.227C82.381 564.227 81.4743 563.995 80.712 563.531C79.9544 563.062 79.3697 562.409 78.9577 561.571C78.5505 560.728 78.3469 559.748 78.3469 558.631C78.3469 557.513 78.5505 556.528 78.9577 555.676C79.3697 554.819 79.9426 554.152 80.6765 553.673C81.4151 553.19 82.2769 552.949 83.2617 552.949C83.8299 552.949 84.391 553.044 84.945 553.233C85.4989 553.422 86.0032 553.73 86.4577 554.156C86.9123 554.578 87.2745 555.136 87.5444 555.832C87.8143 556.528 87.9492 557.385 87.9492 558.403V559.114H79.5401V557.665H86.2447C86.2447 557.049 86.1216 556.5 85.8754 556.017C85.6339 555.534 85.2882 555.153 84.8384 554.874C84.3933 554.594 83.8678 554.455 83.2617 554.455C82.5941 554.455 82.0165 554.62 81.5288 554.952C81.0458 555.278 80.6741 555.705 80.4137 556.23C80.1533 556.756 80.0231 557.319 80.0231 557.92V558.886C80.0231 559.71 80.1651 560.409 80.4492 560.982C80.738 561.55 81.1381 561.983 81.6495 562.281C82.1609 562.575 82.7551 562.722 83.4322 562.722C83.8725 562.722 84.2702 562.66 84.6254 562.537C84.9852 562.409 85.2953 562.22 85.5558 561.969C85.8162 561.713 86.0174 561.396 86.1594 561.017L87.7788 561.472C87.6083 562.021 87.3219 562.504 86.9194 562.92C86.5169 563.332 86.0198 563.654 85.4279 563.886C84.8361 564.114 84.1708 564.227 83.4322 564.227ZM92.1751 557.438V564H90.4989V553.091H92.1183V554.795H92.2603C92.516 554.241 92.9042 553.796 93.4251 553.46C93.9459 553.119 94.6183 552.949 95.4421 552.949C96.1808 552.949 96.8271 553.1 97.381 553.403C97.935 553.702 98.3659 554.156 98.6737 554.767C98.9814 555.373 99.1353 556.14 99.1353 557.068V564H97.4592V557.182C97.4592 556.325 97.2366 555.657 96.7915 555.179C96.3465 554.696 95.7357 554.455 94.9592 554.455C94.4241 554.455 93.9459 554.571 93.5245 554.803C93.1078 555.035 92.7788 555.373 92.5373 555.818C92.2958 556.263 92.1751 556.803 92.1751 557.438ZM102.198 564V553.091H103.874V564H102.198ZM103.05 551.273C102.724 551.273 102.442 551.161 102.205 550.939C101.973 550.716 101.857 550.449 101.857 550.136C101.857 549.824 101.973 549.556 102.205 549.334C102.442 549.111 102.724 549 103.05 549C103.377 549 103.656 549.111 103.888 549.334C104.125 549.556 104.244 549.824 104.244 550.136C104.244 550.449 104.125 550.716 103.888 550.939C103.656 551.161 103.377 551.273 103.05 551.273ZM108.62 557.438V564H106.944V553.091H108.564V554.795H108.706C108.961 554.241 109.35 553.796 109.87 553.46C110.391 553.119 111.064 552.949 111.887 552.949C112.626 552.949 113.272 553.1 113.826 553.403C114.38 553.702 114.811 554.156 115.119 554.767C115.427 555.373 115.581 556.14 115.581 557.068V564H113.904V557.182C113.904 556.325 113.682 555.657 113.237 555.179C112.792 554.696 112.181 554.455 111.404 554.455C110.869 554.455 110.391 554.571 109.97 554.803C109.553 555.035 109.224 555.373 108.983 555.818C108.741 556.263 108.62 556.803 108.62 557.438ZM123.047 568.318C122.237 568.318 121.541 568.214 120.959 568.006C120.376 567.802 119.891 567.532 119.503 567.196C119.119 566.865 118.814 566.509 118.587 566.131L119.922 565.193C120.073 565.392 120.265 565.619 120.497 565.875C120.729 566.135 121.046 566.36 121.449 566.55C121.856 566.744 122.389 566.841 123.047 566.841C123.928 566.841 124.654 566.628 125.227 566.202C125.8 565.776 126.087 565.108 126.087 564.199V561.983H125.945C125.821 562.182 125.646 562.428 125.419 562.722C125.196 563.01 124.875 563.268 124.453 563.496C124.036 563.718 123.473 563.83 122.763 563.83C121.882 563.83 121.091 563.621 120.391 563.205C119.695 562.788 119.143 562.182 118.736 561.386C118.333 560.591 118.132 559.625 118.132 558.489C118.132 557.371 118.329 556.398 118.722 555.57C119.115 554.736 119.661 554.092 120.362 553.638C121.063 553.179 121.873 552.949 122.791 552.949C123.501 552.949 124.065 553.067 124.482 553.304C124.903 553.536 125.225 553.801 125.447 554.099C125.675 554.393 125.85 554.634 125.973 554.824H126.143V553.091H127.763V564.312C127.763 565.25 127.55 566.012 127.124 566.599C126.702 567.191 126.134 567.625 125.419 567.899C124.709 568.179 123.918 568.318 123.047 568.318ZM122.99 562.324C123.662 562.324 124.231 562.17 124.695 561.862C125.159 561.554 125.511 561.112 125.753 560.534C125.994 559.956 126.115 559.265 126.115 558.46C126.115 557.674 125.997 556.981 125.76 556.379C125.523 555.778 125.173 555.307 124.709 554.966C124.245 554.625 123.672 554.455 122.99 554.455C122.28 554.455 121.688 554.634 121.214 554.994C120.746 555.354 120.393 555.837 120.156 556.443C119.924 557.049 119.808 557.722 119.808 558.46C119.808 559.218 119.927 559.888 120.163 560.47C120.405 561.048 120.76 561.502 121.229 561.834C121.702 562.161 122.289 562.324 122.99 562.324ZM141.2 553.091V554.511H135.547V553.091H141.2ZM137.195 550.477H138.871V560.875C138.871 561.348 138.939 561.704 139.077 561.94C139.219 562.172 139.399 562.329 139.616 562.409C139.839 562.485 140.073 562.523 140.32 562.523C140.504 562.523 140.656 562.513 140.774 562.494C140.893 562.471 140.987 562.452 141.058 562.438L141.399 563.943C141.286 563.986 141.127 564.028 140.923 564.071C140.72 564.118 140.462 564.142 140.149 564.142C139.676 564.142 139.212 564.04 138.757 563.837C138.307 563.633 137.933 563.323 137.635 562.906C137.341 562.49 137.195 561.964 137.195 561.33V550.477ZM145.632 557.438V564H143.956V549.455H145.632V554.795H145.774C146.03 554.232 146.413 553.785 146.925 553.453C147.441 553.117 148.127 552.949 148.984 552.949C149.728 552.949 150.379 553.098 150.938 553.396C151.496 553.69 151.929 554.142 152.237 554.753C152.55 555.359 152.706 556.131 152.706 557.068V564H151.03V557.182C151.03 556.315 150.805 555.645 150.355 555.172C149.91 554.694 149.292 554.455 148.501 554.455C147.952 554.455 147.46 554.571 147.024 554.803C146.593 555.035 146.252 555.373 146.001 555.818C145.755 556.263 145.632 556.803 145.632 557.438ZM160.346 564.227C159.295 564.227 158.388 563.995 157.626 563.531C156.868 563.062 156.284 562.409 155.872 561.571C155.465 560.728 155.261 559.748 155.261 558.631C155.261 557.513 155.465 556.528 155.872 555.676C156.284 554.819 156.857 554.152 157.591 553.673C158.329 553.19 159.191 552.949 160.176 552.949C160.744 552.949 161.305 553.044 161.859 553.233C162.413 553.422 162.917 553.73 163.372 554.156C163.826 554.578 164.189 555.136 164.458 555.832C164.728 556.528 164.863 557.385 164.863 558.403V559.114H156.454V557.665H163.159C163.159 557.049 163.036 556.5 162.789 556.017C162.548 555.534 162.202 555.153 161.752 554.874C161.307 554.594 160.782 554.455 160.176 554.455C159.508 554.455 158.931 554.62 158.443 554.952C157.96 555.278 157.588 555.705 157.328 556.23C157.067 556.756 156.937 557.319 156.937 557.92V558.886C156.937 559.71 157.079 560.409 157.363 560.982C157.652 561.55 158.052 561.983 158.564 562.281C159.075 562.575 159.669 562.722 160.346 562.722C160.787 562.722 161.184 562.66 161.539 562.537C161.899 562.409 162.209 562.22 162.47 561.969C162.73 561.713 162.931 561.396 163.074 561.017L164.693 561.472C164.522 562.021 164.236 562.504 163.833 562.92C163.431 563.332 162.934 563.654 162.342 563.886C161.75 564.114 161.085 564.227 160.346 564.227ZM177.47 564.227C176.447 564.227 175.566 563.986 174.828 563.503C174.089 563.02 173.521 562.355 173.123 561.507C172.725 560.66 172.527 559.691 172.527 558.602C172.527 557.494 172.73 556.517 173.137 555.669C173.549 554.817 174.122 554.152 174.856 553.673C175.595 553.19 176.457 552.949 177.441 552.949C178.208 552.949 178.9 553.091 179.515 553.375C180.131 553.659 180.635 554.057 181.028 554.568C181.421 555.08 181.665 555.676 181.76 556.358H180.083C179.956 555.861 179.672 555.42 179.231 555.037C178.796 554.649 178.208 554.455 177.47 554.455C176.816 554.455 176.243 554.625 175.751 554.966C175.263 555.302 174.882 555.778 174.608 556.393C174.338 557.004 174.203 557.722 174.203 558.545C174.203 559.388 174.335 560.122 174.6 560.747C174.87 561.372 175.249 561.857 175.737 562.203C176.229 562.549 176.807 562.722 177.47 562.722C177.905 562.722 178.301 562.646 178.656 562.494C179.011 562.343 179.312 562.125 179.558 561.841C179.804 561.557 179.979 561.216 180.083 560.818H181.76C181.665 561.462 181.431 562.042 181.056 562.558C180.687 563.07 180.197 563.477 179.586 563.78C178.98 564.078 178.275 564.227 177.47 564.227ZM188.642 564.227C187.657 564.227 186.793 563.993 186.049 563.524C185.311 563.055 184.733 562.4 184.316 561.557C183.904 560.714 183.699 559.729 183.699 558.602C183.699 557.466 183.904 556.474 184.316 555.626C184.733 554.779 185.311 554.121 186.049 553.652C186.793 553.183 187.657 552.949 188.642 552.949C189.627 552.949 190.488 553.183 191.227 553.652C191.97 554.121 192.548 554.779 192.96 555.626C193.377 556.474 193.585 557.466 193.585 558.602C193.585 559.729 193.377 560.714 192.96 561.557C192.548 562.4 191.97 563.055 191.227 563.524C190.488 563.993 189.627 564.227 188.642 564.227ZM188.642 562.722C189.39 562.722 190.005 562.53 190.488 562.146C190.971 561.763 191.329 561.259 191.561 560.634C191.793 560.009 191.909 559.331 191.909 558.602C191.909 557.873 191.793 557.194 191.561 556.564C191.329 555.934 190.971 555.425 190.488 555.037C190.005 554.649 189.39 554.455 188.642 554.455C187.894 554.455 187.278 554.649 186.795 555.037C186.312 555.425 185.955 555.934 185.723 556.564C185.491 557.194 185.375 557.873 185.375 558.602C185.375 559.331 185.491 560.009 185.723 560.634C185.955 561.259 186.312 561.763 186.795 562.146C187.278 562.53 187.894 562.722 188.642 562.722ZM196.143 564V553.091H197.763V554.739H197.876C198.075 554.199 198.435 553.761 198.956 553.425C199.477 553.089 200.064 552.92 200.717 552.92C200.84 552.92 200.994 552.923 201.179 552.928C201.364 552.932 201.503 552.939 201.598 552.949V554.653C201.541 554.639 201.411 554.618 201.207 554.589C201.009 554.556 200.798 554.54 200.575 554.54C200.045 554.54 199.571 554.651 199.155 554.874C198.743 555.091 198.416 555.394 198.175 555.783C197.938 556.166 197.82 556.604 197.82 557.097V564H196.143ZM207.372 564.227C206.463 564.227 205.661 563.998 204.964 563.538C204.268 563.074 203.724 562.421 203.331 561.578C202.938 560.731 202.741 559.729 202.741 558.574C202.741 557.428 202.938 556.434 203.331 555.591C203.724 554.748 204.271 554.097 204.972 553.638C205.672 553.179 206.482 552.949 207.401 552.949C208.111 552.949 208.672 553.067 209.084 553.304C209.5 553.536 209.818 553.801 210.036 554.099C210.258 554.393 210.431 554.634 210.554 554.824H210.696V549.455H212.372V564H210.753V562.324H210.554C210.431 562.523 210.256 562.774 210.028 563.077C209.801 563.375 209.477 563.643 209.055 563.879C208.634 564.111 208.073 564.227 207.372 564.227ZM207.599 562.722C208.272 562.722 208.84 562.546 209.304 562.196C209.768 561.841 210.121 561.351 210.362 560.726C210.604 560.096 210.724 559.369 210.724 558.545C210.724 557.731 210.606 557.018 210.369 556.408C210.133 555.792 209.782 555.314 209.318 554.973C208.854 554.627 208.281 554.455 207.599 554.455C206.889 554.455 206.297 554.637 205.824 555.001C205.355 555.361 205.002 555.851 204.766 556.472C204.534 557.087 204.418 557.778 204.418 558.545C204.418 559.322 204.536 560.027 204.773 560.662C205.014 561.292 205.369 561.794 205.838 562.168C206.312 562.537 206.899 562.722 207.599 562.722ZM218.175 562.011L218.061 562.778C217.981 563.318 217.857 563.896 217.692 564.511C217.531 565.127 217.363 565.707 217.188 566.251C217.012 566.796 216.868 567.229 216.754 567.551H215.476C215.537 567.248 215.618 566.848 215.717 566.351C215.817 565.854 215.916 565.297 216.016 564.682C216.12 564.071 216.205 563.446 216.271 562.807L216.357 562.011H218.175ZM227.132 564V549.455H228.809V554.824H228.951C229.074 554.634 229.244 554.393 229.462 554.099C229.685 553.801 230.002 553.536 230.414 553.304C230.83 553.067 231.394 552.949 232.104 552.949C233.023 552.949 233.832 553.179 234.533 553.638C235.234 554.097 235.781 554.748 236.174 555.591C236.567 556.434 236.763 557.428 236.763 558.574C236.763 559.729 236.567 560.731 236.174 561.578C235.781 562.421 235.236 563.074 234.54 563.538C233.844 563.998 233.042 564.227 232.132 564.227C231.432 564.227 230.871 564.111 230.449 563.879C230.028 563.643 229.703 563.375 229.476 563.077C229.249 562.774 229.074 562.523 228.951 562.324H228.752V564H227.132ZM228.78 558.545C228.78 559.369 228.901 560.096 229.142 560.726C229.384 561.351 229.737 561.841 230.201 562.196C230.665 562.546 231.233 562.722 231.905 562.722C232.606 562.722 233.191 562.537 233.659 562.168C234.133 561.794 234.488 561.292 234.725 560.662C234.966 560.027 235.087 559.322 235.087 558.545C235.087 557.778 234.969 557.087 234.732 556.472C234.5 555.851 234.147 555.361 233.674 555.001C233.205 554.637 232.615 554.455 231.905 554.455C231.223 554.455 230.65 554.627 230.186 554.973C229.722 555.314 229.372 555.792 229.135 556.408C228.899 557.018 228.78 557.731 228.78 558.545ZM246.202 559.54V553.091H247.878V564H246.202V562.153H246.088C245.833 562.707 245.435 563.179 244.895 563.567C244.355 563.95 243.674 564.142 242.85 564.142C242.168 564.142 241.562 563.993 241.032 563.695C240.501 563.392 240.085 562.937 239.782 562.331C239.479 561.72 239.327 560.951 239.327 560.023V553.091H241.003V559.909C241.003 560.705 241.226 561.339 241.671 561.812C242.121 562.286 242.694 562.523 243.39 562.523C243.806 562.523 244.23 562.416 244.661 562.203C245.096 561.99 245.461 561.663 245.755 561.223C246.053 560.783 246.202 560.222 246.202 559.54ZM255.692 553.091V554.511H250.039V553.091H255.692ZM251.687 550.477H253.363V560.875C253.363 561.348 253.432 561.704 253.569 561.94C253.711 562.172 253.891 562.329 254.109 562.409C254.331 562.485 254.566 562.523 254.812 562.523C254.996 562.523 255.148 562.513 255.266 562.494C255.385 562.471 255.479 562.452 255.55 562.438L255.891 563.943C255.778 563.986 255.619 564.028 255.415 564.071C255.212 564.118 254.954 564.142 254.641 564.142C254.168 564.142 253.704 564.04 253.249 563.837C252.799 563.633 252.425 563.323 252.127 562.906C251.834 562.49 251.687 561.964 251.687 561.33V550.477ZM268.583 553.091V554.511H262.93V553.091H268.583ZM264.577 550.477H266.254V560.875C266.254 561.348 266.322 561.704 266.46 561.94C266.602 562.172 266.781 562.329 266.999 562.409C267.222 562.485 267.456 562.523 267.702 562.523C267.887 562.523 268.039 562.513 268.157 562.494C268.275 562.471 268.37 562.452 268.441 562.438L268.782 563.943C268.668 563.986 268.51 564.028 268.306 564.071C268.103 564.118 267.844 564.142 267.532 564.142C267.058 564.142 266.594 564.04 266.14 563.837C265.69 563.633 265.316 563.323 265.018 562.906C264.724 562.49 264.577 561.964 264.577 561.33V550.477ZM273.015 557.438V564H271.339V549.455H273.015V554.795H273.157C273.413 554.232 273.796 553.785 274.308 553.453C274.824 553.117 275.51 552.949 276.367 552.949C277.111 552.949 277.762 553.098 278.32 553.396C278.879 553.69 279.312 554.142 279.62 554.753C279.933 555.359 280.089 556.131 280.089 557.068V564H278.413V557.182C278.413 556.315 278.188 555.645 277.738 555.172C277.293 554.694 276.675 554.455 275.884 554.455C275.335 554.455 274.843 554.571 274.407 554.803C273.976 555.035 273.635 555.373 273.384 555.818C273.138 556.263 273.015 556.803 273.015 557.438ZM287.729 564.227C286.678 564.227 285.771 563.995 285.009 563.531C284.251 563.062 283.667 562.409 283.255 561.571C282.847 560.728 282.644 559.748 282.644 558.631C282.644 557.513 282.847 556.528 283.255 555.676C283.667 554.819 284.239 554.152 284.973 553.673C285.712 553.19 286.574 552.949 287.559 552.949C288.127 552.949 288.688 553.044 289.242 553.233C289.796 553.422 290.3 553.73 290.755 554.156C291.209 554.578 291.571 555.136 291.841 555.832C292.111 556.528 292.246 557.385 292.246 558.403V559.114H283.837V557.665H290.542C290.542 557.049 290.418 556.5 290.172 556.017C289.931 555.534 289.585 555.153 289.135 554.874C288.69 554.594 288.165 554.455 287.559 554.455C286.891 554.455 286.313 554.62 285.826 554.952C285.343 555.278 284.971 555.705 284.711 556.23C284.45 556.756 284.32 557.319 284.32 557.92V558.886C284.32 559.71 284.462 560.409 284.746 560.982C285.035 561.55 285.435 561.983 285.946 562.281C286.458 562.575 287.052 562.722 287.729 562.722C288.169 562.722 288.567 562.66 288.922 562.537C289.282 562.409 289.592 562.22 289.853 561.969C290.113 561.713 290.314 561.396 290.456 561.017L292.076 561.472C291.905 562.021 291.619 562.504 291.216 562.92C290.814 563.332 290.317 563.654 289.725 563.886C289.133 564.114 288.468 564.227 287.729 564.227ZM294.796 564V553.091H296.415V554.739H296.529C296.728 554.199 297.087 553.761 297.608 553.425C298.129 553.089 298.716 552.92 299.37 552.92C299.493 552.92 299.647 552.923 299.831 552.928C300.016 552.932 300.156 552.939 300.25 552.949V554.653C300.194 554.639 300.063 554.618 299.86 554.589C299.661 554.556 299.45 554.54 299.228 554.54C298.697 554.54 298.224 554.651 297.807 554.874C297.395 555.091 297.069 555.394 296.827 555.783C296.59 556.166 296.472 556.604 296.472 557.097V564H294.796ZM306.479 564.227C305.428 564.227 304.521 563.995 303.759 563.531C303.001 563.062 302.417 562.409 302.005 561.571C301.597 560.728 301.394 559.748 301.394 558.631C301.394 557.513 301.597 556.528 302.005 555.676C302.417 554.819 302.989 554.152 303.723 553.673C304.462 553.19 305.324 552.949 306.309 552.949C306.877 552.949 307.438 553.044 307.992 553.233C308.546 553.422 309.05 553.73 309.505 554.156C309.959 554.578 310.321 555.136 310.591 555.832C310.861 556.528 310.996 557.385 310.996 558.403V559.114H302.587V557.665H309.292C309.292 557.049 309.168 556.5 308.922 556.017C308.681 555.534 308.335 555.153 307.885 554.874C307.44 554.594 306.915 554.455 306.309 554.455C305.641 554.455 305.063 554.62 304.576 554.952C304.093 555.278 303.721 555.705 303.461 556.23C303.2 556.756 303.07 557.319 303.07 557.92V558.886C303.07 559.71 303.212 560.409 303.496 560.982C303.785 561.55 304.185 561.983 304.696 562.281C305.208 562.575 305.802 562.722 306.479 562.722C306.919 562.722 307.317 562.66 307.672 562.537C308.032 562.409 308.342 562.22 308.603 561.969C308.863 561.713 309.064 561.396 309.206 561.017L310.826 561.472C310.655 562.021 310.369 562.504 309.966 562.92C309.564 563.332 309.067 563.654 308.475 563.886C307.883 564.114 307.218 564.227 306.479 564.227ZM315.023 549.455V550.733C315.023 551.121 314.952 551.536 314.81 551.976C314.673 552.411 314.469 552.835 314.199 553.247C313.934 553.654 313.612 554.009 313.233 554.312L312.324 553.574C312.623 553.148 312.881 552.705 313.098 552.246C313.321 551.782 313.432 551.287 313.432 550.761V549.455H315.023ZM323.422 555.534L321.916 555.96C321.821 555.709 321.681 555.465 321.497 555.229C321.317 554.987 321.071 554.788 320.758 554.632C320.446 554.476 320.046 554.398 319.558 554.398C318.89 554.398 318.334 554.552 317.889 554.859C317.449 555.162 317.228 555.548 317.228 556.017C317.228 556.434 317.38 556.763 317.683 557.004C317.986 557.246 318.459 557.447 319.103 557.608L320.723 558.006C321.698 558.242 322.425 558.605 322.903 559.092C323.381 559.575 323.62 560.198 323.62 560.96C323.62 561.585 323.44 562.144 323.081 562.636C322.725 563.129 322.228 563.517 321.589 563.801C320.95 564.085 320.207 564.227 319.359 564.227C318.246 564.227 317.325 563.986 316.596 563.503C315.867 563.02 315.405 562.314 315.211 561.386L316.802 560.989C316.954 561.576 317.24 562.016 317.662 562.31C318.088 562.603 318.644 562.75 319.331 562.75C320.112 562.75 320.732 562.584 321.191 562.253C321.655 561.917 321.887 561.514 321.887 561.045C321.887 560.667 321.755 560.349 321.49 560.094C321.225 559.833 320.817 559.639 320.268 559.511L318.45 559.085C317.451 558.848 316.717 558.482 316.248 557.984C315.784 557.482 315.552 556.855 315.552 556.102C315.552 555.487 315.725 554.942 316.071 554.469C316.421 553.995 316.897 553.624 317.498 553.354C318.104 553.084 318.791 552.949 319.558 552.949C320.637 552.949 321.485 553.186 322.1 553.659C322.721 554.133 323.161 554.758 323.422 555.534ZM334.979 564.256C334.287 564.256 333.66 564.125 333.097 563.865C332.533 563.6 332.086 563.219 331.754 562.722C331.423 562.22 331.257 561.614 331.257 560.903C331.257 560.278 331.38 559.772 331.626 559.384C331.873 558.991 332.202 558.683 332.614 558.46C333.026 558.238 333.48 558.072 333.977 557.963C334.479 557.849 334.983 557.759 335.49 557.693C336.153 557.608 336.69 557.544 337.102 557.501C337.519 557.454 337.822 557.376 338.011 557.267C338.205 557.158 338.303 556.969 338.303 556.699V556.642C338.303 555.941 338.111 555.397 337.727 555.009C337.348 554.62 336.773 554.426 336.001 554.426C335.201 554.426 334.574 554.601 334.119 554.952C333.665 555.302 333.345 555.676 333.161 556.074L331.57 555.506C331.854 554.843 332.232 554.327 332.706 553.957C333.184 553.583 333.705 553.323 334.268 553.176C334.837 553.025 335.395 552.949 335.945 552.949C336.295 552.949 336.697 552.991 337.152 553.077C337.611 553.157 338.054 553.325 338.48 553.581C338.911 553.837 339.268 554.223 339.553 554.739C339.837 555.255 339.979 555.946 339.979 556.812V564H338.303V562.523H338.217C338.104 562.759 337.914 563.013 337.649 563.283C337.384 563.553 337.031 563.782 336.591 563.972C336.151 564.161 335.613 564.256 334.979 564.256ZM335.234 562.75C335.897 562.75 336.456 562.62 336.911 562.359C337.37 562.099 337.715 561.763 337.947 561.351C338.184 560.939 338.303 560.506 338.303 560.051V558.517C338.232 558.602 338.075 558.68 337.834 558.751C337.597 558.818 337.322 558.877 337.01 558.929C336.702 558.976 336.402 559.019 336.108 559.057C335.819 559.09 335.585 559.118 335.405 559.142C334.969 559.199 334.562 559.291 334.183 559.419C333.809 559.542 333.506 559.729 333.274 559.98C333.047 560.226 332.933 560.562 332.933 560.989C332.933 561.571 333.149 562.011 333.58 562.31C334.015 562.603 334.567 562.75 335.234 562.75ZM352.782 564.227C351.873 564.227 351.071 563.998 350.375 563.538C349.679 563.074 349.134 562.421 348.741 561.578C348.348 560.731 348.152 559.729 348.152 558.574C348.152 557.428 348.348 556.434 348.741 555.591C349.134 554.748 349.681 554.097 350.382 553.638C351.083 553.179 351.892 552.949 352.811 552.949C353.521 552.949 354.082 553.067 354.494 553.304C354.911 553.536 355.228 553.801 355.446 554.099C355.668 554.393 355.841 554.634 355.964 554.824H356.106V549.455H357.782V564H356.163V562.324H355.964C355.841 562.523 355.666 562.774 355.439 563.077C355.211 563.375 354.887 563.643 354.466 563.879C354.044 564.111 353.483 564.227 352.782 564.227ZM353.01 562.722C353.682 562.722 354.25 562.546 354.714 562.196C355.178 561.841 355.531 561.351 355.772 560.726C356.014 560.096 356.135 559.369 356.135 558.545C356.135 557.731 356.016 557.018 355.779 556.408C355.543 555.792 355.192 555.314 354.728 554.973C354.264 554.627 353.691 554.455 353.01 554.455C352.299 554.455 351.708 554.637 351.234 555.001C350.765 555.361 350.413 555.851 350.176 556.472C349.944 557.087 349.828 557.778 349.828 558.545C349.828 559.322 349.946 560.027 350.183 560.662C350.424 561.292 350.779 561.794 351.248 562.168C351.722 562.537 352.309 562.722 353.01 562.722ZM365.659 564.227C364.608 564.227 363.701 563.995 362.939 563.531C362.181 563.062 361.596 562.409 361.184 561.571C360.777 560.728 360.574 559.748 360.574 558.631C360.574 557.513 360.777 556.528 361.184 555.676C361.596 554.819 362.169 554.152 362.903 553.673C363.642 553.19 364.503 552.949 365.488 552.949C366.056 552.949 366.618 553.044 367.172 553.233C367.725 553.422 368.23 553.73 368.684 554.156C369.139 554.578 369.501 555.136 369.771 555.832C370.041 556.528 370.176 557.385 370.176 558.403V559.114H361.767V557.665H368.471C368.471 557.049 368.348 556.5 368.102 556.017C367.86 555.534 367.515 555.153 367.065 554.874C366.62 554.594 366.094 554.455 365.488 554.455C364.821 554.455 364.243 554.62 363.755 554.952C363.272 555.278 362.901 555.705 362.64 556.23C362.38 556.756 362.25 557.319 362.25 557.92V558.886C362.25 559.71 362.392 560.409 362.676 560.982C362.965 561.55 363.365 561.983 363.876 562.281C364.387 562.575 364.982 562.722 365.659 562.722C366.099 562.722 366.497 562.66 366.852 562.537C367.212 562.409 367.522 562.22 367.782 561.969C368.043 561.713 368.244 561.396 368.386 561.017L370.005 561.472C369.835 562.021 369.548 562.504 369.146 562.92C368.743 563.332 368.246 563.654 367.654 563.886C367.063 564.114 366.397 564.227 365.659 564.227ZM374.402 549.455V564H372.725V549.455H374.402ZM380.682 564.256C379.991 564.256 379.363 564.125 378.8 563.865C378.236 563.6 377.789 563.219 377.457 562.722C377.126 562.22 376.96 561.614 376.96 560.903C376.96 560.278 377.083 559.772 377.33 559.384C377.576 558.991 377.905 558.683 378.317 558.46C378.729 558.238 379.183 558.072 379.68 557.963C380.182 557.849 380.687 557.759 381.193 557.693C381.856 557.608 382.393 557.544 382.805 557.501C383.222 557.454 383.525 557.376 383.714 557.267C383.909 557.158 384.006 556.969 384.006 556.699V556.642C384.006 555.941 383.814 555.397 383.43 555.009C383.052 554.62 382.476 554.426 381.705 554.426C380.904 554.426 380.277 554.601 379.822 554.952C379.368 555.302 379.048 555.676 378.864 556.074L377.273 555.506C377.557 554.843 377.936 554.327 378.409 553.957C378.887 553.583 379.408 553.323 379.972 553.176C380.54 553.025 381.098 552.949 381.648 552.949C381.998 552.949 382.401 552.991 382.855 553.077C383.314 553.157 383.757 553.325 384.183 553.581C384.614 553.837 384.972 554.223 385.256 554.739C385.54 555.255 385.682 555.946 385.682 556.812V564H384.006V562.523H383.92C383.807 562.759 383.617 563.013 383.352 563.283C383.087 563.553 382.734 563.782 382.294 563.972C381.854 564.161 381.316 564.256 380.682 564.256ZM380.938 562.75C381.6 562.75 382.159 562.62 382.614 562.359C383.073 562.099 383.419 561.763 383.651 561.351C383.887 560.939 384.006 560.506 384.006 560.051V558.517C383.935 558.602 383.778 558.68 383.537 558.751C383.3 558.818 383.026 558.877 382.713 558.929C382.405 558.976 382.105 559.019 381.811 559.057C381.522 559.09 381.288 559.118 381.108 559.142C380.672 559.199 380.265 559.291 379.886 559.419C379.512 559.542 379.209 559.729 378.977 559.98C378.75 560.226 378.636 560.562 378.636 560.989C378.636 561.571 378.852 562.011 379.283 562.31C379.718 562.603 380.27 562.75 380.938 562.75ZM389.43 568.091C389.146 568.091 388.893 568.067 388.67 568.02C388.448 567.977 388.294 567.935 388.208 567.892L388.635 566.415C389.042 566.519 389.402 566.557 389.714 566.528C390.027 566.5 390.304 566.36 390.545 566.109C390.791 565.863 391.016 565.463 391.22 564.909L391.532 564.057L387.498 553.091H389.316L392.328 561.784H392.441L395.453 553.091H397.271L392.64 565.591C392.432 566.154 392.174 566.621 391.866 566.99C391.558 567.364 391.201 567.641 390.794 567.821C390.391 568.001 389.937 568.091 389.43 568.091ZM408.319 564.256C407.627 564.256 407 564.125 406.436 563.865C405.873 563.6 405.426 563.219 405.094 562.722C404.763 562.22 404.597 561.614 404.597 560.903C404.597 560.278 404.72 559.772 404.966 559.384C405.212 558.991 405.542 558.683 405.953 558.46C406.365 558.238 406.82 558.072 407.317 557.963C407.819 557.849 408.323 557.759 408.83 557.693C409.493 557.608 410.03 557.544 410.442 557.501C410.859 557.454 411.162 557.376 411.351 557.267C411.545 557.158 411.642 556.969 411.642 556.699V556.642C411.642 555.941 411.451 555.397 411.067 555.009C410.688 554.62 410.113 554.426 409.341 554.426C408.541 554.426 407.914 554.601 407.459 554.952C407.005 555.302 406.685 555.676 406.5 556.074L404.909 555.506C405.194 554.843 405.572 554.327 406.046 553.957C406.524 553.583 407.045 553.323 407.608 553.176C408.176 553.025 408.735 552.949 409.284 552.949C409.635 552.949 410.037 552.991 410.492 553.077C410.951 553.157 411.394 553.325 411.82 553.581C412.251 553.837 412.608 554.223 412.892 554.739C413.176 555.255 413.319 555.946 413.319 556.812V564H411.642V562.523H411.557C411.444 562.759 411.254 563.013 410.989 563.283C410.724 563.553 410.371 563.782 409.931 563.972C409.49 564.161 408.953 564.256 408.319 564.256ZM408.574 562.75C409.237 562.75 409.796 562.62 410.25 562.359C410.71 562.099 411.055 561.763 411.287 561.351C411.524 560.939 411.642 560.506 411.642 560.051V558.517C411.571 558.602 411.415 558.68 411.174 558.751C410.937 558.818 410.662 558.877 410.35 558.929C410.042 558.976 409.741 559.019 409.448 559.057C409.159 559.09 408.925 559.118 408.745 559.142C408.309 559.199 407.902 559.291 407.523 559.419C407.149 559.542 406.846 559.729 406.614 559.98C406.387 560.226 406.273 560.562 406.273 560.989C406.273 561.571 406.489 562.011 406.919 562.31C407.355 562.603 407.907 562.75 408.574 562.75ZM418.054 557.438V564H416.378V553.091H417.997V554.795H418.139C418.395 554.241 418.783 553.796 419.304 553.46C419.825 553.119 420.497 552.949 421.321 552.949C422.06 552.949 422.706 553.1 423.26 553.403C423.814 553.702 424.245 554.156 424.553 554.767C424.86 555.373 425.014 556.14 425.014 557.068V564H423.338V557.182C423.338 556.325 423.116 555.657 422.67 555.179C422.225 554.696 421.615 554.455 420.838 554.455C420.303 554.455 419.825 554.571 419.403 554.803C418.987 555.035 418.658 555.373 418.416 555.818C418.175 556.263 418.054 556.803 418.054 557.438ZM432.196 564.227C431.287 564.227 430.485 563.998 429.789 563.538C429.093 563.074 428.548 562.421 428.155 561.578C427.762 560.731 427.566 559.729 427.566 558.574C427.566 557.428 427.762 556.434 428.155 555.591C428.548 554.748 429.095 554.097 429.796 553.638C430.497 553.179 431.306 552.949 432.225 552.949C432.935 552.949 433.496 553.067 433.908 553.304C434.325 553.536 434.642 553.801 434.86 554.099C435.082 554.393 435.255 554.634 435.378 554.824H435.52V549.455H437.196V564H435.577V562.324H435.378C435.255 562.523 435.08 562.774 434.853 563.077C434.625 563.375 434.301 563.643 433.88 563.879C433.458 564.111 432.897 564.227 432.196 564.227ZM432.424 562.722C433.096 562.722 433.664 562.546 434.128 562.196C434.592 561.841 434.945 561.351 435.186 560.726C435.428 560.096 435.549 559.369 435.549 558.545C435.549 557.731 435.43 557.018 435.194 556.408C434.957 555.792 434.606 555.314 434.142 554.973C433.678 554.627 433.105 554.455 432.424 554.455C431.713 554.455 431.122 554.637 430.648 555.001C430.179 555.361 429.827 555.851 429.59 556.472C429.358 557.087 429.242 557.778 429.242 558.545C429.242 559.322 429.36 560.027 429.597 560.662C429.838 561.292 430.194 561.794 430.662 562.168C431.136 562.537 431.723 562.722 432.424 562.722ZM450.868 553.091V554.511H445.215V553.091H450.868ZM446.863 550.477H448.539V560.875C448.539 561.348 448.607 561.704 448.745 561.94C448.887 562.172 449.067 562.329 449.284 562.409C449.507 562.485 449.741 562.523 449.988 562.523C450.172 562.523 450.324 562.513 450.442 562.494C450.56 562.471 450.655 562.452 450.726 562.438L451.067 563.943C450.953 563.986 450.795 564.028 450.591 564.071C450.388 564.118 450.13 564.142 449.817 564.142C449.344 564.142 448.88 564.04 448.425 563.837C447.975 563.633 447.601 563.323 447.303 562.906C447.009 562.49 446.863 561.964 446.863 561.33V550.477ZM455.3 557.438V564H453.624V549.455H455.3V554.795H455.442C455.698 554.232 456.081 553.785 456.593 553.453C457.109 553.117 457.795 552.949 458.652 552.949C459.396 552.949 460.047 553.098 460.605 553.396C461.164 553.69 461.597 554.142 461.905 554.753C462.218 555.359 462.374 556.131 462.374 557.068V564H460.698V557.182C460.698 556.315 460.473 555.645 460.023 555.172C459.578 554.694 458.96 554.455 458.169 554.455C457.62 554.455 457.128 554.571 456.692 554.803C456.261 555.035 455.92 555.373 455.669 555.818C455.423 556.263 455.3 556.803 455.3 557.438ZM470.014 564.227C468.963 564.227 468.056 563.995 467.294 563.531C466.536 563.062 465.952 562.409 465.54 561.571C465.133 560.728 464.929 559.748 464.929 558.631C464.929 557.513 465.133 556.528 465.54 555.676C465.952 554.819 466.525 554.152 467.259 553.673C467.997 553.19 468.859 552.949 469.844 552.949C470.412 552.949 470.973 553.044 471.527 553.233C472.081 553.422 472.585 553.73 473.04 554.156C473.494 554.578 473.857 555.136 474.126 555.832C474.396 556.528 474.531 557.385 474.531 558.403V559.114H466.122V557.665H472.827C472.827 557.049 472.704 556.5 472.457 556.017C472.216 555.534 471.87 555.153 471.42 554.874C470.975 554.594 470.45 554.455 469.844 554.455C469.176 554.455 468.598 554.62 468.111 554.952C467.628 555.278 467.256 555.705 466.996 556.23C466.735 556.756 466.605 557.319 466.605 557.92V558.886C466.605 559.71 466.747 560.409 467.031 560.982C467.32 561.55 467.72 561.983 468.232 562.281C468.743 562.575 469.337 562.722 470.014 562.722C470.455 562.722 470.852 562.66 471.207 562.537C471.567 562.409 471.877 562.22 472.138 561.969C472.398 561.713 472.599 561.396 472.741 561.017L474.361 561.472C474.19 562.021 473.904 562.504 473.501 562.92C473.099 563.332 472.602 563.654 472.01 563.886C471.418 564.114 470.753 564.227 470.014 564.227ZM6.76136 588V573.455H8.4375V578.824H8.57955C8.70265 578.634 8.87311 578.393 9.09091 578.099C9.31345 577.801 9.63068 577.536 10.0426 577.304C10.4593 577.067 11.0227 576.949 11.733 576.949C12.6515 576.949 13.4612 577.179 14.1619 577.638C14.8627 578.097 15.4096 578.748 15.8026 579.591C16.1955 580.434 16.392 581.428 16.392 582.574C16.392 583.729 16.1955 584.731 15.8026 585.578C15.4096 586.421 14.8651 587.074 14.169 587.538C13.473 587.998 12.6705 588.227 11.7614 588.227C11.0606 588.227 10.4995 588.111 10.0781 587.879C9.65672 587.643 9.33239 587.375 9.10511 587.077C8.87784 586.774 8.70265 586.523 8.57955 586.324H8.38068V588H6.76136ZM8.40909 582.545C8.40909 583.369 8.52983 584.096 8.77131 584.726C9.01278 585.351 9.36553 585.841 9.82955 586.196C10.2936 586.546 10.8617 586.722 11.5341 586.722C12.2348 586.722 12.8196 586.537 13.2884 586.168C13.7618 585.794 14.117 585.292 14.3537 584.662C14.5952 584.027 14.7159 583.322 14.7159 582.545C14.7159 581.778 14.5975 581.087 14.3608 580.472C14.1288 579.851 13.776 579.361 13.3026 579.001C12.8338 578.637 12.2443 578.455 11.5341 578.455C10.8523 578.455 10.2794 578.627 9.81534 578.973C9.35133 579.314 9.00095 579.792 8.7642 580.408C8.52746 581.018 8.40909 581.731 8.40909 582.545ZM20.6321 573.455V588H18.956V573.455H20.6321ZM23.7021 588V577.091H25.3782V588H23.7021ZM24.5543 575.273C24.2276 575.273 23.9459 575.161 23.7092 574.939C23.4772 574.716 23.3612 574.449 23.3612 574.136C23.3612 573.824 23.4772 573.556 23.7092 573.334C23.9459 573.111 24.2276 573 24.5543 573C24.881 573 25.1604 573.111 25.3924 573.334C25.6291 573.556 25.7475 573.824 25.7475 574.136C25.7475 574.449 25.6291 574.716 25.3924 574.939C25.1604 575.161 24.881 575.273 24.5543 575.273ZM30.1243 581.438V588H28.4482V577.091H30.0675V578.795H30.2095C30.4652 578.241 30.8535 577.796 31.3743 577.46C31.8951 577.119 32.5675 576.949 33.3913 576.949C34.13 576.949 34.7763 577.1 35.3303 577.403C35.8842 577.702 36.3151 578.156 36.6229 578.767C36.9306 579.373 37.0845 580.14 37.0845 581.068V588H35.4084V581.182C35.4084 580.325 35.1858 579.657 34.7408 579.179C34.2957 578.696 33.6849 578.455 32.9084 578.455C32.3733 578.455 31.8951 578.571 31.4737 578.803C31.0571 579.035 30.728 579.373 30.4865 579.818C30.245 580.263 30.1243 580.803 30.1243 581.438ZM44.2667 588.227C43.3576 588.227 42.555 587.998 41.859 587.538C41.163 587.074 40.6185 586.421 40.2255 585.578C39.8325 584.731 39.636 583.729 39.636 582.574C39.636 581.428 39.8325 580.434 40.2255 579.591C40.6185 578.748 41.1654 578.097 41.8661 577.638C42.5669 577.179 43.3765 576.949 44.2951 576.949C45.0053 576.949 45.5664 577.067 45.9783 577.304C46.395 577.536 46.7122 577.801 46.93 578.099C47.1526 578.393 47.3254 578.634 47.4485 578.824H47.5906V573.455H49.2667V588H47.6474V586.324H47.4485C47.3254 586.523 47.1502 586.774 46.9229 587.077C46.6957 587.375 46.3713 587.643 45.9499 587.879C45.5285 588.111 44.9674 588.227 44.2667 588.227ZM44.494 586.722C45.1663 586.722 45.7345 586.546 46.1985 586.196C46.6625 585.841 47.0153 585.351 47.2567 584.726C47.4982 584.096 47.619 583.369 47.619 582.545C47.619 581.731 47.5006 581.018 47.2638 580.408C47.0271 579.792 46.6767 579.314 46.2127 578.973C45.7487 578.627 45.1758 578.455 44.494 578.455C43.7837 578.455 43.1919 578.637 42.7184 579.001C42.2496 579.361 41.8969 579.851 41.6602 580.472C41.4281 581.087 41.3121 581.778 41.3121 582.545C41.3121 583.322 41.4305 584.027 41.6673 584.662C41.9087 585.292 42.2638 585.794 42.7326 586.168C43.2061 586.537 43.7932 586.722 44.494 586.722ZM60.2965 579.534L58.7908 579.96C58.6961 579.709 58.5565 579.465 58.3718 579.229C58.1919 578.987 57.9457 578.788 57.6332 578.632C57.3207 578.476 56.9206 578.398 56.4329 578.398C55.7653 578.398 55.2089 578.552 54.7638 578.859C54.3235 579.162 54.1033 579.548 54.1033 580.017C54.1033 580.434 54.2549 580.763 54.5579 581.004C54.8609 581.246 55.3344 581.447 55.9783 581.608L57.5977 582.006C58.573 582.242 59.2998 582.605 59.7781 583.092C60.2563 583.575 60.4954 584.198 60.4954 584.96C60.4954 585.585 60.3155 586.144 59.9556 586.636C59.6005 587.129 59.1033 587.517 58.4641 587.801C57.8249 588.085 57.0816 588.227 56.234 588.227C55.1213 588.227 54.2004 587.986 53.4712 587.503C52.7421 587.02 52.2804 586.314 52.0863 585.386L53.6772 584.989C53.8287 585.576 54.1152 586.016 54.5366 586.31C54.9627 586.603 55.5191 586.75 56.2056 586.75C56.9869 586.75 57.6071 586.584 58.0664 586.253C58.5304 585.917 58.7624 585.514 58.7624 585.045C58.7624 584.667 58.6299 584.349 58.3647 584.094C58.0996 583.833 57.6924 583.639 57.1431 583.511L55.3249 583.085C54.3259 582.848 53.592 582.482 53.1232 581.984C52.6592 581.482 52.4272 580.855 52.4272 580.102C52.4272 579.487 52.6 578.942 52.9457 578.469C53.296 577.995 53.7719 577.624 54.3732 577.354C54.9793 577.084 55.6658 576.949 56.4329 576.949C57.5124 576.949 58.36 577.186 58.9755 577.659C59.5958 578.133 60.0361 578.758 60.2965 579.534ZM72.7628 588.227C71.8537 588.227 71.0511 587.998 70.3551 587.538C69.6591 587.074 69.1146 586.421 68.7216 585.578C68.3286 584.731 68.1321 583.729 68.1321 582.574C68.1321 581.428 68.3286 580.434 68.7216 579.591C69.1146 578.748 69.6615 578.097 70.3622 577.638C71.063 577.179 71.8726 576.949 72.7912 576.949C73.5014 576.949 74.0625 577.067 74.4744 577.304C74.8911 577.536 75.2083 577.801 75.4261 578.099C75.6487 578.393 75.8215 578.634 75.9446 578.824H76.0866V573.455H77.7628V588H76.1435V586.324H75.9446C75.8215 586.523 75.6463 586.774 75.419 587.077C75.1918 587.375 74.8674 587.643 74.446 587.879C74.0246 588.111 73.4635 588.227 72.7628 588.227ZM72.9901 586.722C73.6624 586.722 74.2306 586.546 74.6946 586.196C75.1586 585.841 75.5114 585.351 75.7528 584.726C75.9943 584.096 76.1151 583.369 76.1151 582.545C76.1151 581.731 75.9967 581.018 75.7599 580.408C75.5232 579.792 75.1728 579.314 74.7088 578.973C74.2448 578.627 73.6719 578.455 72.9901 578.455C72.2798 578.455 71.688 578.637 71.2145 579.001C70.7457 579.361 70.393 579.851 70.1562 580.472C69.9242 581.087 69.8082 581.778 69.8082 582.545C69.8082 583.322 69.9266 584.027 70.1634 584.662C70.4048 585.292 70.7599 585.794 71.2287 586.168C71.7022 586.537 72.2893 586.722 72.9901 586.722ZM81.0653 588V577.091H82.6847V578.739H82.7983C82.9972 578.199 83.357 577.761 83.8778 577.425C84.3987 577.089 84.9858 576.92 85.6392 576.92C85.7623 576.92 85.9162 576.923 86.1009 576.928C86.2855 576.932 86.4252 576.939 86.5199 576.949V578.653C86.4631 578.639 86.3329 578.618 86.1293 578.589C85.9304 578.556 85.7197 578.54 85.4972 578.54C84.9669 578.54 84.4934 578.651 84.0767 578.874C83.6648 579.091 83.3381 579.394 83.0966 579.783C82.8598 580.166 82.7415 580.604 82.7415 581.097V588H81.0653ZM92.6065 588.227C91.6217 588.227 90.7576 587.993 90.0142 587.524C89.2756 587.055 88.6979 586.4 88.2812 585.557C87.8693 584.714 87.6634 583.729 87.6634 582.602C87.6634 581.466 87.8693 580.474 88.2812 579.626C88.6979 578.779 89.2756 578.121 90.0142 577.652C90.7576 577.183 91.6217 576.949 92.6065 576.949C93.5914 576.949 94.4531 577.183 95.1918 577.652C95.9351 578.121 96.5128 578.779 96.9247 579.626C97.3414 580.474 97.5497 581.466 97.5497 582.602C97.5497 583.729 97.3414 584.714 96.9247 585.557C96.5128 586.4 95.9351 587.055 95.1918 587.524C94.4531 587.993 93.5914 588.227 92.6065 588.227ZM92.6065 586.722C93.3546 586.722 93.9702 586.53 94.4531 586.146C94.9361 585.763 95.2936 585.259 95.5256 584.634C95.7576 584.009 95.8736 583.331 95.8736 582.602C95.8736 581.873 95.7576 581.194 95.5256 580.564C95.2936 579.934 94.9361 579.425 94.4531 579.037C93.9702 578.649 93.3546 578.455 92.6065 578.455C91.8584 578.455 91.2429 578.649 90.7599 579.037C90.277 579.425 89.9195 579.934 89.6875 580.564C89.4555 581.194 89.3395 581.873 89.3395 582.602C89.3395 583.331 89.4555 584.009 89.6875 584.634C89.9195 585.259 90.277 585.763 90.7599 586.146C91.2429 586.53 91.8584 586.722 92.6065 586.722ZM100.108 592.091V577.091H101.728V578.824H101.926C102.05 578.634 102.22 578.393 102.438 578.099C102.66 577.801 102.978 577.536 103.39 577.304C103.806 577.067 104.37 576.949 105.08 576.949C105.998 576.949 106.808 577.179 107.509 577.638C108.21 578.097 108.757 578.748 109.15 579.591C109.542 580.434 109.739 581.428 109.739 582.574C109.739 583.729 109.542 584.731 109.15 585.578C108.757 586.421 108.212 587.074 107.516 587.538C106.82 587.998 106.017 588.227 105.108 588.227C104.408 588.227 103.846 588.111 103.425 587.879C103.004 587.643 102.679 587.375 102.452 587.077C102.225 586.774 102.05 586.523 101.926 586.324H101.784V592.091H100.108ZM101.756 582.545C101.756 583.369 101.877 584.096 102.118 584.726C102.36 585.351 102.712 585.841 103.176 586.196C103.641 586.546 104.209 586.722 104.881 586.722C105.582 586.722 106.167 586.537 106.635 586.168C107.109 585.794 107.464 585.292 107.701 584.662C107.942 584.027 108.063 583.322 108.063 582.545C108.063 581.778 107.944 581.087 107.708 580.472C107.476 579.851 107.123 579.361 106.65 579.001C106.181 578.637 105.591 578.455 104.881 578.455C104.199 578.455 103.626 578.627 103.162 578.973C102.698 579.314 102.348 579.792 102.111 580.408C101.874 581.018 101.756 581.731 101.756 582.545ZM122.665 577.091V578.511H117.012V577.091H122.665ZM118.659 574.477H120.336V584.875C120.336 585.348 120.404 585.704 120.542 585.94C120.684 586.172 120.864 586.329 121.081 586.409C121.304 586.485 121.538 586.523 121.784 586.523C121.969 586.523 122.121 586.513 122.239 586.494C122.357 586.471 122.452 586.452 122.523 586.438L122.864 587.943C122.75 587.986 122.592 588.028 122.388 588.071C122.185 588.118 121.926 588.142 121.614 588.142C121.141 588.142 120.676 588.04 120.222 587.837C119.772 587.633 119.398 587.323 119.1 586.906C118.806 586.49 118.659 585.964 118.659 585.33V574.477ZM129.501 588.227C128.516 588.227 127.652 587.993 126.909 587.524C126.17 587.055 125.592 586.4 125.176 585.557C124.764 584.714 124.558 583.729 124.558 582.602C124.558 581.466 124.764 580.474 125.176 579.626C125.592 578.779 126.17 578.121 126.909 577.652C127.652 577.183 128.516 576.949 129.501 576.949C130.486 576.949 131.348 577.183 132.086 577.652C132.83 578.121 133.407 578.779 133.819 579.626C134.236 580.474 134.444 581.466 134.444 582.602C134.444 583.729 134.236 584.714 133.819 585.557C133.407 586.4 132.83 587.055 132.086 587.524C131.348 587.993 130.486 588.227 129.501 588.227ZM129.501 586.722C130.249 586.722 130.865 586.53 131.348 586.146C131.831 585.763 132.188 585.259 132.42 584.634C132.652 584.009 132.768 583.331 132.768 582.602C132.768 581.873 132.652 581.194 132.42 580.564C132.188 579.934 131.831 579.425 131.348 579.037C130.865 578.649 130.249 578.455 129.501 578.455C128.753 578.455 128.137 578.649 127.654 579.037C127.172 579.425 126.814 579.934 126.582 580.564C126.35 581.194 126.234 581.873 126.234 582.602C126.234 583.331 126.35 584.009 126.582 584.634C126.814 585.259 127.172 585.763 127.654 586.146C128.137 586.53 128.753 586.722 129.501 586.722ZM141.435 588.227C140.45 588.227 139.586 587.993 138.842 587.524C138.104 587.055 137.526 586.4 137.109 585.557C136.697 584.714 136.491 583.729 136.491 582.602C136.491 581.466 136.697 580.474 137.109 579.626C137.526 578.779 138.104 578.121 138.842 577.652C139.586 577.183 140.45 576.949 141.435 576.949C142.42 576.949 143.281 577.183 144.02 577.652C144.763 578.121 145.341 578.779 145.753 579.626C146.17 580.474 146.378 581.466 146.378 582.602C146.378 583.729 146.17 584.714 145.753 585.557C145.341 586.4 144.763 587.055 144.02 587.524C143.281 587.993 142.42 588.227 141.435 588.227ZM141.435 586.722C142.183 586.722 142.798 586.53 143.281 586.146C143.764 585.763 144.122 585.259 144.354 584.634C144.586 584.009 144.702 583.331 144.702 582.602C144.702 581.873 144.586 581.194 144.354 580.564C144.122 579.934 143.764 579.425 143.281 579.037C142.798 578.649 142.183 578.455 141.435 578.455C140.687 578.455 140.071 578.649 139.588 579.037C139.105 579.425 138.748 579.934 138.516 580.564C138.284 581.194 138.168 581.873 138.168 582.602C138.168 583.331 138.284 584.009 138.516 584.634C138.748 585.259 139.105 585.763 139.588 586.146C140.071 586.53 140.687 586.722 141.435 586.722ZM159.419 577.091V578.511H153.539V577.091H159.419ZM155.3 588V575.585C155.3 574.96 155.447 574.439 155.74 574.023C156.034 573.606 156.415 573.294 156.884 573.085C157.353 572.877 157.847 572.773 158.368 572.773C158.78 572.773 159.116 572.806 159.377 572.872C159.637 572.938 159.831 573 159.959 573.057L159.476 574.506C159.391 574.477 159.273 574.442 159.121 574.399C158.974 574.357 158.78 574.335 158.539 574.335C157.985 574.335 157.585 574.475 157.338 574.754C157.097 575.034 156.976 575.443 156.976 575.983V588H155.3ZM164.666 588.256C163.975 588.256 163.348 588.125 162.784 587.865C162.221 587.6 161.773 587.219 161.442 586.722C161.11 586.22 160.945 585.614 160.945 584.903C160.945 584.278 161.068 583.772 161.314 583.384C161.56 582.991 161.889 582.683 162.301 582.46C162.713 582.238 163.168 582.072 163.665 581.963C164.167 581.849 164.671 581.759 165.178 581.693C165.84 581.608 166.378 581.544 166.79 581.501C167.206 581.454 167.509 581.376 167.699 581.267C167.893 581.158 167.99 580.969 167.99 580.699V580.642C167.99 579.941 167.798 579.397 167.415 579.009C167.036 578.62 166.461 578.426 165.689 578.426C164.889 578.426 164.261 578.601 163.807 578.952C163.352 579.302 163.033 579.676 162.848 580.074L161.257 579.506C161.541 578.843 161.92 578.327 162.393 577.957C162.872 577.583 163.393 577.323 163.956 577.176C164.524 577.025 165.083 576.949 165.632 576.949C165.982 576.949 166.385 576.991 166.839 577.077C167.299 577.157 167.741 577.325 168.168 577.581C168.598 577.837 168.956 578.223 169.24 578.739C169.524 579.255 169.666 579.946 169.666 580.812V588H167.99V586.523H167.905C167.791 586.759 167.602 587.013 167.337 587.283C167.071 587.553 166.719 587.782 166.278 587.972C165.838 588.161 165.301 588.256 164.666 588.256ZM164.922 586.75C165.585 586.75 166.143 586.62 166.598 586.359C167.057 586.099 167.403 585.763 167.635 585.351C167.872 584.939 167.99 584.506 167.99 584.051V582.517C167.919 582.602 167.763 582.68 167.521 582.751C167.285 582.818 167.01 582.877 166.697 582.929C166.39 582.976 166.089 583.019 165.795 583.057C165.507 583.09 165.272 583.118 165.092 583.142C164.657 583.199 164.25 583.291 163.871 583.419C163.497 583.542 163.194 583.729 162.962 583.98C162.734 584.226 162.621 584.562 162.621 584.989C162.621 585.571 162.836 586.011 163.267 586.31C163.703 586.603 164.254 586.75 164.922 586.75ZM172.725 588V577.091H174.345V578.739H174.458C174.657 578.199 175.017 577.761 175.538 577.425C176.059 577.089 176.646 576.92 177.299 576.92C177.422 576.92 177.576 576.923 177.761 576.928C177.946 576.932 178.085 576.939 178.18 576.949V578.653C178.123 578.639 177.993 578.618 177.789 578.589C177.591 578.556 177.38 578.54 177.157 578.54C176.627 578.54 176.154 578.651 175.737 578.874C175.325 579.091 174.998 579.394 174.757 579.783C174.52 580.166 174.402 580.604 174.402 581.097V588H172.725ZM180.138 588.114C179.788 588.114 179.487 587.988 179.237 587.737C178.986 587.486 178.86 587.186 178.86 586.835C178.86 586.485 178.986 586.184 179.237 585.933C179.487 585.682 179.788 585.557 180.138 585.557C180.489 585.557 180.79 585.682 181.04 585.933C181.291 586.184 181.417 586.485 181.417 586.835C181.417 587.067 181.358 587.28 181.239 587.474C181.126 587.669 180.972 587.825 180.778 587.943C180.588 588.057 180.375 588.114 180.138 588.114Z" fill="black"/>
<path d="M472.5 384.5V293.5H368.5V384.5" stroke="black" stroke-width="8"/>
<path d="M346.5 329.5H440L452.475 402.5H475.5L453.5 408.5H360L346.5 329.5Z" fill="#3F88C5"/>
<path d="M453.5 408.5H360L346.5 329.5H440L452.475 402.5M453.5 408.5L475.5 402.5H452.475M453.5 408.5L452.475 402.5" stroke="black" stroke-width="8"/>
<path d="M35 114.5V167.5M198.5 70V329" stroke="black" stroke-width="8"/>
<path d="M243.5 412L224 343C203.69 346.534 200.33 339.858 198 324" stroke="black" stroke-width="8"/>
<circle cx="224" cy="238" r="46" fill="white" stroke="black" stroke-width="8"/>
<path d="M224 285V420" stroke="black" stroke-width="8"/>
<path d="M326 470.5H453" stroke="black" stroke-width="8"/>
<path d="M450.5 469.5V519.5M460.5 466V519.5" stroke="black" stroke-width="8"/>
<path d="M331 472.5V522" stroke="black" stroke-width="8"/>
<path d="M35 379L49.5 312" stroke="black" stroke-width="8"/>
<path d="M51.5 384.5L73.5 355M73.5 384.5L132 343.5" stroke="black" stroke-width="8"/>
</g>
<defs>
<clipPath id="clip0_3_93">
<rect width="500" height="600" fill="white"/>
</clipPath>
</defs>
</svg>
